G04*
G04 #@! TF.GenerationSoftware,Altium Limited,Altium Designer,21.3.2 (30)*
G04*
G04 Layer_Color=8388736*
%FSTAX44Y44*%
%MOMM*%
G71*
G04*
G04 #@! TF.SameCoordinates,B6C3B198-A06E-455A-847D-5BBCBFFA52FD*
G04*
G04*
G04 #@! TF.FilePolarity,Negative*
G04*
G01*
G75*
%ADD18R,1.1938X0.7112*%
%ADD19R,1.1938X0.7620*%
%ADD20R,1.1938X0.8128*%
%ADD59R,1.0000X1.5358*%
G04:AMPARAMS|DCode=68|XSize=1.2532mm|YSize=1.5032mm|CornerRadius=0.3641mm|HoleSize=0mm|Usage=FLASHONLY|Rotation=90.000|XOffset=0mm|YOffset=0mm|HoleType=Round|Shape=RoundedRectangle|*
%AMROUNDEDRECTD68*
21,1,1.2532,0.7750,0,0,90.0*
21,1,0.5250,1.5032,0,0,90.0*
1,1,0.7282,0.3875,0.2625*
1,1,0.7282,0.3875,-0.2625*
1,1,0.7282,-0.3875,-0.2625*
1,1,0.7282,-0.3875,0.2625*
%
%ADD68ROUNDEDRECTD68*%
G04:AMPARAMS|DCode=69|XSize=1mm|YSize=1.28mm|CornerRadius=0.14mm|HoleSize=0mm|Usage=FLASHONLY|Rotation=90.000|XOffset=0mm|YOffset=0mm|HoleType=Round|Shape=RoundedRectangle|*
%AMROUNDEDRECTD69*
21,1,1.0000,1.0000,0,0,90.0*
21,1,0.7200,1.2800,0,0,90.0*
1,1,0.2800,0.5000,0.3600*
1,1,0.2800,0.5000,-0.3600*
1,1,0.2800,-0.5000,-0.3600*
1,1,0.2800,-0.5000,0.3600*
%
%ADD69ROUNDEDRECTD69*%
G04:AMPARAMS|DCode=70|XSize=1.0032mm|YSize=0.8032mm|CornerRadius=0.2516mm|HoleSize=0mm|Usage=FLASHONLY|Rotation=180.000|XOffset=0mm|YOffset=0mm|HoleType=Round|Shape=RoundedRectangle|*
%AMROUNDEDRECTD70*
21,1,1.0032,0.3000,0,0,180.0*
21,1,0.5000,0.8032,0,0,180.0*
1,1,0.5032,-0.2500,0.1500*
1,1,0.5032,0.2500,0.1500*
1,1,0.5032,0.2500,-0.1500*
1,1,0.5032,-0.2500,-0.1500*
%
%ADD70ROUNDEDRECTD70*%
%ADD71R,3.7032X1.8032*%
%ADD72R,1.1032X1.5032*%
%ADD73O,1.8032X0.8032*%
%ADD74O,0.8032X1.8032*%
%ADD75R,2.8032X2.3032*%
%ADD76R,1.8032X1.7032*%
G04:AMPARAMS|DCode=77|XSize=1.6032mm|YSize=1.3532mm|CornerRadius=0.1591mm|HoleSize=0mm|Usage=FLASHONLY|Rotation=180.000|XOffset=0mm|YOffset=0mm|HoleType=Round|Shape=RoundedRectangle|*
%AMROUNDEDRECTD77*
21,1,1.6032,1.0350,0,0,180.0*
21,1,1.2850,1.3532,0,0,180.0*
1,1,0.3182,-0.6425,0.5175*
1,1,0.3182,0.6425,0.5175*
1,1,0.3182,0.6425,-0.5175*
1,1,0.3182,-0.6425,-0.5175*
%
%ADD77ROUNDEDRECTD77*%
G04:AMPARAMS|DCode=78|XSize=1.2532mm|YSize=1.5032mm|CornerRadius=0.3641mm|HoleSize=0mm|Usage=FLASHONLY|Rotation=0.000|XOffset=0mm|YOffset=0mm|HoleType=Round|Shape=RoundedRectangle|*
%AMROUNDEDRECTD78*
21,1,1.2532,0.7750,0,0,0.0*
21,1,0.5250,1.5032,0,0,0.0*
1,1,0.7282,0.2625,-0.3875*
1,1,0.7282,-0.2625,-0.3875*
1,1,0.7282,-0.2625,0.3875*
1,1,0.7282,0.2625,0.3875*
%
%ADD78ROUNDEDRECTD78*%
%ADD79R,1.6532X1.3532*%
%ADD80R,1.6032X1.2032*%
%ADD81R,1.5332X1.5332*%
%ADD82R,2.2032X1.1032*%
%ADD83R,1.1032X2.2032*%
%ADD84R,1.3632X1.6732*%
%ADD85R,1.3532X2.0532*%
%ADD86R,1.5032X1.1032*%
%ADD87R,1.8032X3.1032*%
%ADD88R,1.2032X1.6032*%
%ADD89R,1.2032X1.2032*%
%ADD90R,2.4032X1.2532*%
%ADD91R,2.2032X3.2032*%
%ADD92R,1.8532X2.8532*%
G04:AMPARAMS|DCode=93|XSize=1.6532mm|YSize=0.7932mm|CornerRadius=0.1754mm|HoleSize=0mm|Usage=FLASHONLY|Rotation=270.000|XOffset=0mm|YOffset=0mm|HoleType=Round|Shape=RoundedRectangle|*
%AMROUNDEDRECTD93*
21,1,1.6532,0.4425,0,0,270.0*
21,1,1.3025,0.7932,0,0,270.0*
1,1,0.3507,-0.2213,-0.6513*
1,1,0.3507,-0.2213,0.6513*
1,1,0.3507,0.2213,0.6513*
1,1,0.3507,0.2213,-0.6513*
%
%ADD93ROUNDEDRECTD93*%
%ADD94R,1.3532X1.6532*%
%ADD95R,1.3032X1.5032*%
G04:AMPARAMS|DCode=96|XSize=1.5532mm|YSize=3.0032mm|CornerRadius=0.1691mm|HoleSize=0mm|Usage=FLASHONLY|Rotation=0.000|XOffset=0mm|YOffset=0mm|HoleType=Round|Shape=RoundedRectangle|*
%AMROUNDEDRECTD96*
21,1,1.5532,2.6650,0,0,0.0*
21,1,1.2150,3.0032,0,0,0.0*
1,1,0.3382,0.6075,-1.3325*
1,1,0.3382,-0.6075,-1.3325*
1,1,0.3382,-0.6075,1.3325*
1,1,0.3382,0.6075,1.3325*
%
%ADD96ROUNDEDRECTD96*%
G04:AMPARAMS|DCode=97|XSize=1.1032mm|YSize=2.0032mm|CornerRadius=0.1466mm|HoleSize=0mm|Usage=FLASHONLY|Rotation=0.000|XOffset=0mm|YOffset=0mm|HoleType=Round|Shape=RoundedRectangle|*
%AMROUNDEDRECTD97*
21,1,1.1032,1.7100,0,0,0.0*
21,1,0.8100,2.0032,0,0,0.0*
1,1,0.2932,0.4050,-0.8550*
1,1,0.2932,-0.4050,-0.8550*
1,1,0.2932,-0.4050,0.8550*
1,1,0.2932,0.4050,0.8550*
%
%ADD97ROUNDEDRECTD97*%
%ADD98R,0.7932X1.4132*%
%ADD99R,5.9032X2.2032*%
%ADD100R,4.7032X2.3032*%
%ADD101R,1.5032X1.3032*%
%ADD102R,1.2532X2.4032*%
%ADD103R,1.2032X1.2032*%
%ADD104R,1.4132X0.9332*%
%ADD105R,1.1752X1.0052*%
%ADD106R,1.2032X1.7390*%
G04:AMPARAMS|DCode=107|XSize=0.4mm|YSize=0.55mm|CornerRadius=0.08mm|HoleSize=0mm|Usage=FLASHONLY|Rotation=90.000|XOffset=0mm|YOffset=0mm|HoleType=Round|Shape=RoundedRectangle|*
%AMROUNDEDRECTD107*
21,1,0.4000,0.3900,0,0,90.0*
21,1,0.2400,0.5500,0,0,90.0*
1,1,0.1600,0.1950,0.1200*
1,1,0.1600,0.1950,-0.1200*
1,1,0.1600,-0.1950,-0.1200*
1,1,0.1600,-0.1950,0.1200*
%
%ADD107ROUNDEDRECTD107*%
G04:AMPARAMS|DCode=108|XSize=0.4mm|YSize=0.55mm|CornerRadius=0.08mm|HoleSize=0mm|Usage=FLASHONLY|Rotation=180.000|XOffset=0mm|YOffset=0mm|HoleType=Round|Shape=RoundedRectangle|*
%AMROUNDEDRECTD108*
21,1,0.4000,0.3900,0,0,180.0*
21,1,0.2400,0.5500,0,0,180.0*
1,1,0.1600,-0.1200,0.1950*
1,1,0.1600,0.1200,0.1950*
1,1,0.1600,0.1200,-0.1950*
1,1,0.1600,-0.1200,-0.1950*
%
%ADD108ROUNDEDRECTD108*%
%ADD109R,0.8032X1.0032*%
%ADD110R,1.0032X0.8032*%
%ADD111R,1.4032X1.2032*%
%ADD112R,3.1032X1.8032*%
%ADD113R,1.0032X1.4032*%
%ADD114R,2.4892X2.1082*%
%ADD115O,2.4892X2.1082*%
%ADD116O,1.9032X1.3032*%
%ADD117C,0.5032*%
%ADD118C,2.0532*%
%ADD119R,2.0532X2.0532*%
%ADD120C,2.0066*%
%ADD121R,1.7032X1.7032*%
%ADD122C,1.7032*%
%ADD123C,1.4732*%
G36*
X004426Y0204177D02*
X004576D01*
Y0202477D01*
X004426D01*
Y0201727D01*
X004256D01*
Y0204927D01*
X004426D01*
Y0204177D01*
D02*
G37*
G36*
X004126Y0201727D02*
X003956D01*
Y0202477D01*
X003806D01*
Y0204177D01*
X003956D01*
Y0204927D01*
X004126D01*
Y0201727D01*
D02*
G37*
G36*
X01061777Y018344D02*
X01061908Y01834373D01*
X01062034Y01834331D01*
X01062153Y01834272D01*
X01062264Y01834198D01*
X01062364Y0183411D01*
X01062452Y0183401D01*
X01062526Y01833899D01*
X01062585Y0183378D01*
X01062627Y01833654D01*
X01062654Y01833523D01*
X01062662Y0183339D01*
Y0181239D01*
X01062654Y01812257D01*
X01062627Y01812126D01*
X01062585Y01812D01*
X01062526Y01811881D01*
X01062452Y0181177D01*
X01062364Y0181167D01*
X01062264Y01811582D01*
X01062153Y01811508D01*
X01062034Y01811449D01*
X01061908Y01811407D01*
X01061777Y01811381D01*
X01061644Y01811372D01*
X01047144Y01811372D01*
X01047011Y01811381D01*
X0104688Y01811407D01*
X01046754Y01811449D01*
X01046635Y01811508D01*
X01046524Y01811582D01*
X01046424Y0181167D01*
X01034924Y0182317D01*
X01034836Y0182327D01*
X01034762Y01823381D01*
X01034703Y018235D01*
X0103466Y01823627D01*
X01034634Y01823757D01*
X01034626Y0182389D01*
Y0183339D01*
X01034634Y01833523D01*
X0103466Y01833654D01*
X01034703Y0183378D01*
X01034762Y01833899D01*
X01034836Y0183401D01*
X01034924Y0183411D01*
X01035024Y01834198D01*
X01035135Y01834272D01*
X01035254Y01834331D01*
X0103538Y01834373D01*
X01035511Y018344D01*
X01035644Y01834408D01*
X01061644D01*
X01061777Y018344D01*
D02*
G37*
G36*
X0044075Y01553091D02*
X004394D01*
Y01545829D01*
X004274D01*
Y01553091D01*
X0042605D01*
Y01570449D01*
X0044075D01*
Y01553091D01*
D02*
G37*
D18*
X0030301Y0193667D02*
D03*
Y0192667D02*
D03*
D19*
Y0191647D02*
D03*
X00303009Y01946869D02*
D03*
D20*
X0030301Y0190417D02*
D03*
X00303009Y01959169D02*
D03*
D59*
X004334Y01554508D02*
D03*
D68*
X00746813Y02152867D02*
D03*
Y02129367D02*
D03*
X00947735Y02096509D02*
D03*
Y02120009D02*
D03*
X01209408Y01722444D02*
D03*
Y01698944D02*
D03*
X00720005Y02152421D02*
D03*
Y02128921D02*
D03*
X01228369Y0196414D02*
D03*
Y0198764D02*
D03*
X0120269Y0198739D02*
D03*
Y0196389D02*
D03*
X01205153Y01760604D02*
D03*
Y01784104D02*
D03*
X01228594Y01760604D02*
D03*
Y01784104D02*
D03*
X0124826Y01883441D02*
D03*
Y01906941D02*
D03*
X01100068Y0169731D02*
D03*
Y0172081D02*
D03*
X01004333Y01718855D02*
D03*
Y01695354D02*
D03*
X01155297Y01697176D02*
D03*
Y01720676D02*
D03*
X01279198Y01883412D02*
D03*
Y01906912D02*
D03*
X0125857Y0176117D02*
D03*
Y0178467D02*
D03*
X0128651Y0176117D02*
D03*
Y0178467D02*
D03*
X0106045Y0198787D02*
D03*
Y0196437D02*
D03*
X0111887Y0198787D02*
D03*
Y0196437D02*
D03*
X0117602Y0198787D02*
D03*
Y0196437D02*
D03*
D69*
X00611909Y02243051D02*
D03*
Y02265651D02*
D03*
Y02254351D02*
D03*
Y02231751D02*
D03*
Y02220451D02*
D03*
Y02209151D02*
D03*
Y02197851D02*
D03*
Y02186551D02*
D03*
Y02175251D02*
D03*
X00710909Y02243051D02*
D03*
Y02209151D02*
D03*
Y02265651D02*
D03*
Y02254351D02*
D03*
Y02231751D02*
D03*
Y02220451D02*
D03*
Y02209151D02*
D03*
Y02197851D02*
D03*
Y02186551D02*
D03*
Y02175251D02*
D03*
D70*
X01259626Y01720724D02*
D03*
X01239426Y01711224D02*
D03*
X01259626Y01701724D02*
D03*
X01159834Y01641854D02*
D03*
X01180034Y01651354D02*
D03*
X01159834Y01660854D02*
D03*
X01055932Y01717102D02*
D03*
X01076132Y01707602D02*
D03*
X01055932Y01698102D02*
D03*
D71*
X00889112Y02046375D02*
D03*
X00945112D02*
D03*
X00945112Y01972262D02*
D03*
X00889112D02*
D03*
D72*
X00943901Y01815863D02*
D03*
X00920901D02*
D03*
X00920473Y01841143D02*
D03*
X00943473D02*
D03*
X0092133Y01866423D02*
D03*
X0094433D02*
D03*
X0092133Y01891274D02*
D03*
X0094433D02*
D03*
X0092133Y01919125D02*
D03*
X0094433D02*
D03*
X00862756Y02096007D02*
D03*
X00839756D02*
D03*
X00839615Y0211878D02*
D03*
X00862615D02*
D03*
X00839649Y02141559D02*
D03*
X00862649D02*
D03*
X008394Y02164192D02*
D03*
X008624D02*
D03*
X00916976Y0213995D02*
D03*
X00893976D02*
D03*
X00917476Y0226695D02*
D03*
X00940476D02*
D03*
X00357052Y0198936D02*
D03*
X00380052D02*
D03*
X00847215Y02263408D02*
D03*
X00824214D02*
D03*
X00916976Y02164192D02*
D03*
X00893976D02*
D03*
X0094292Y0176472D02*
D03*
X0091992D02*
D03*
D73*
X0099071Y0186835D02*
D03*
Y0187935D02*
D03*
X0116671Y0184635D02*
D03*
Y0180235D02*
D03*
Y0181335D02*
D03*
Y0182435D02*
D03*
Y0183535D02*
D03*
Y0186835D02*
D03*
X0099071Y0183535D02*
D03*
Y0182435D02*
D03*
Y0181335D02*
D03*
Y0180235D02*
D03*
Y0179135D02*
D03*
X0116671D02*
D03*
Y0185735D02*
D03*
Y0187935D02*
D03*
X0099071Y0185735D02*
D03*
Y0184635D02*
D03*
D74*
X0101821Y0175685D02*
D03*
X0102921D02*
D03*
X0104021D02*
D03*
X0105121D02*
D03*
X0106221D02*
D03*
X0107321D02*
D03*
X0108421D02*
D03*
X0110621D02*
D03*
X0111721D02*
D03*
X0112821D02*
D03*
X0113921D02*
D03*
Y0191385D02*
D03*
X0112821D02*
D03*
X0111721D02*
D03*
X0110621D02*
D03*
X0109521D02*
D03*
X0107321D02*
D03*
X0102921D02*
D03*
X0106221D02*
D03*
X0109521Y0175685D02*
D03*
X0108421Y0191385D02*
D03*
X0105121D02*
D03*
X0104021D02*
D03*
X0101821D02*
D03*
D75*
X0107871Y0182285D02*
D03*
Y0184785D02*
D03*
X0110871D02*
D03*
X0104871D02*
D03*
X0110871Y0182285D02*
D03*
D76*
X010525Y01824668D02*
D03*
D77*
X01199413Y01827326D02*
D03*
Y01845826D02*
D03*
D78*
X0094354Y0179135D02*
D03*
X0092004D02*
D03*
X0092397Y0165094D02*
D03*
X0094747D02*
D03*
X00946673Y01679453D02*
D03*
X00923173D02*
D03*
X00916976Y0219329D02*
D03*
X00940476D02*
D03*
Y0221869D02*
D03*
X00916976D02*
D03*
Y0224155D02*
D03*
X00940476D02*
D03*
D79*
X01047351Y01591497D02*
D03*
Y01573497D02*
D03*
X0039812Y02184764D02*
D03*
Y02166764D02*
D03*
X00733934Y02257091D02*
D03*
Y02239091D02*
D03*
X00761985Y02256648D02*
D03*
Y02238648D02*
D03*
X0070612Y0183145D02*
D03*
Y0181345D02*
D03*
X0047554Y0149711D02*
D03*
Y0151511D02*
D03*
X0052554Y0149711D02*
D03*
Y0151511D02*
D03*
X0050054Y0149711D02*
D03*
Y0151511D02*
D03*
X0038039Y0174476D02*
D03*
Y0176276D02*
D03*
X0052297Y01912112D02*
D03*
Y01894112D02*
D03*
X0049403Y01912112D02*
D03*
Y01894112D02*
D03*
X01120575Y0159004D02*
D03*
Y0157204D02*
D03*
D80*
X0107217Y01660713D02*
D03*
Y01642713D02*
D03*
X01044705Y01660388D02*
D03*
Y01642388D02*
D03*
X0051435Y0214006D02*
D03*
Y0212206D02*
D03*
X0101207Y01659223D02*
D03*
Y01641223D02*
D03*
X01106515Y01642713D02*
D03*
Y01660713D02*
D03*
X0081129Y0189227D02*
D03*
Y0187427D02*
D03*
X0082401Y01790306D02*
D03*
Y01808306D02*
D03*
X00547373Y02170181D02*
D03*
Y02188181D02*
D03*
X0035391Y02183602D02*
D03*
Y02201602D02*
D03*
X00660659Y0188745D02*
D03*
Y0186945D02*
D03*
X0053975Y0203824D02*
D03*
Y0205624D02*
D03*
X00508Y0174222D02*
D03*
Y0176022D02*
D03*
X0054991Y0182891D02*
D03*
Y0181091D02*
D03*
X00345864Y01798027D02*
D03*
Y01780027D02*
D03*
X0057785Y01894112D02*
D03*
Y01912112D02*
D03*
X00604515Y01894366D02*
D03*
Y01912366D02*
D03*
X00550497Y01894111D02*
D03*
Y01912111D02*
D03*
X0056769Y0205532D02*
D03*
Y0203732D02*
D03*
X01135895Y01642713D02*
D03*
Y01660713D02*
D03*
X01153064Y01572929D02*
D03*
Y01590929D02*
D03*
D81*
X0078626Y0163449D02*
D03*
X0080461D02*
D03*
X0082296D02*
D03*
X0078626Y0161614D02*
D03*
X0080461D02*
D03*
X0082296D02*
D03*
X0078626Y0159779D02*
D03*
X0080461D02*
D03*
X0082296D02*
D03*
D82*
X0070961Y0154114D02*
D03*
Y0155384D02*
D03*
Y0156654D02*
D03*
Y0157924D02*
D03*
Y0159194D02*
D03*
Y0160464D02*
D03*
Y0161734D02*
D03*
Y0163004D02*
D03*
Y0164274D02*
D03*
Y0165544D02*
D03*
Y0166814D02*
D03*
Y0168084D02*
D03*
Y0169354D02*
D03*
Y0170624D02*
D03*
X0087961D02*
D03*
Y0169354D02*
D03*
Y0168084D02*
D03*
Y0166814D02*
D03*
Y0165544D02*
D03*
Y0164274D02*
D03*
Y0163004D02*
D03*
Y0161734D02*
D03*
Y0160464D02*
D03*
Y0159194D02*
D03*
Y0157924D02*
D03*
Y0156654D02*
D03*
Y0155384D02*
D03*
Y0154114D02*
D03*
D83*
X0073746Y0171624D02*
D03*
X0075016D02*
D03*
X0076286D02*
D03*
X0077556D02*
D03*
X0078826D02*
D03*
X0080096D02*
D03*
X0081366D02*
D03*
X0082636D02*
D03*
X0083906D02*
D03*
X0085176D02*
D03*
D84*
X00797911Y01791144D02*
D03*
X00780111D02*
D03*
X00469386Y02123826D02*
D03*
X00487186D02*
D03*
X00303631Y01823004D02*
D03*
X00321431D02*
D03*
X0064154Y02135036D02*
D03*
X0065934D02*
D03*
X0047379Y01751222D02*
D03*
X0045599D02*
D03*
X00321431Y01862072D02*
D03*
X00303631D02*
D03*
X0065443Y01725021D02*
D03*
X0067223D02*
D03*
D85*
X00511959Y02164913D02*
D03*
X00481959D02*
D03*
X0078129Y0183896D02*
D03*
X0081129D02*
D03*
X00449888Y0178054D02*
D03*
X00479888D02*
D03*
D86*
X00598175Y0205782D02*
D03*
Y0203482D02*
D03*
X00787649Y02257989D02*
D03*
Y02234989D02*
D03*
X01216698Y01906552D02*
D03*
Y01883553D02*
D03*
X0051308Y02033781D02*
D03*
Y02056781D02*
D03*
X00485561Y0203378D02*
D03*
Y0205678D02*
D03*
X00830731Y02020237D02*
D03*
Y02043237D02*
D03*
X0112821Y01720562D02*
D03*
Y01697562D02*
D03*
X0103221Y01696102D02*
D03*
Y01719102D02*
D03*
X0118188Y01721776D02*
D03*
Y01698776D02*
D03*
X01033673Y01988274D02*
D03*
Y01965274D02*
D03*
X0108839Y0198762D02*
D03*
Y0196462D02*
D03*
X0114808Y0198889D02*
D03*
Y0196589D02*
D03*
X0119249Y01883254D02*
D03*
Y01906254D02*
D03*
D87*
X0056896Y0148187D02*
D03*
Y0151787D02*
D03*
D88*
X006551Y0154178D02*
D03*
X006731D02*
D03*
X00672878Y0149774D02*
D03*
X00654878D02*
D03*
X00352847Y02222366D02*
D03*
X00370847D02*
D03*
X00685915Y0191897D02*
D03*
X00667915D02*
D03*
X00370847Y02246366D02*
D03*
X00352847D02*
D03*
X00640893Y02101711D02*
D03*
X00658894D02*
D03*
X00685915Y0194883D02*
D03*
X00667915D02*
D03*
X00359554Y0193802D02*
D03*
X00377554D02*
D03*
X00359554Y0191135D02*
D03*
X00377554D02*
D03*
X00354388Y01871724D02*
D03*
X00372388D02*
D03*
X0037239Y01846832D02*
D03*
X0035439D02*
D03*
X0064262Y0196723D02*
D03*
X0062462D02*
D03*
X0064262Y0194183D02*
D03*
X0062462D02*
D03*
X0064262Y0199263D02*
D03*
X0062462D02*
D03*
X00377552Y0196469D02*
D03*
X00359552D02*
D03*
X006731Y0157924D02*
D03*
X006551D02*
D03*
X0067183Y016129D02*
D03*
X0065383D02*
D03*
X0065433Y01697403D02*
D03*
X0067233D02*
D03*
D89*
X0059539Y02254147D02*
D03*
D90*
X0058039Y02239397D02*
D03*
Y02268898D02*
D03*
D91*
X005461Y0224663D02*
D03*
X004821D02*
D03*
X0076683Y0194691D02*
D03*
X0083083D02*
D03*
X0052095Y0183769D02*
D03*
X0045695D02*
D03*
D92*
X0044323Y02170514D02*
D03*
Y02210514D02*
D03*
X0074168Y01834474D02*
D03*
Y01794474D02*
D03*
X0041656Y0178784D02*
D03*
Y0174784D02*
D03*
D93*
X00407772Y02233916D02*
D03*
X00398272D02*
D03*
X00388772D02*
D03*
Y02210816D02*
D03*
X00398272D02*
D03*
X00407772D02*
D03*
X0071247Y018669D02*
D03*
X0070297D02*
D03*
X0069347D02*
D03*
Y0189D02*
D03*
X0071247D02*
D03*
X0070297D02*
D03*
X0038989Y0179554D02*
D03*
X0038039D02*
D03*
X0037089D02*
D03*
Y0181864D02*
D03*
X0038039D02*
D03*
X0038989D02*
D03*
D94*
X0042142Y0226163D02*
D03*
X0043942D02*
D03*
X0073914Y0191897D02*
D03*
X0072114D02*
D03*
X0042937Y0184683D02*
D03*
X0041137D02*
D03*
X0046112Y0195707D02*
D03*
X0044312D02*
D03*
X0046112Y0198247D02*
D03*
X0044312D02*
D03*
Y0190246D02*
D03*
X0046112D02*
D03*
X0044312Y019304D02*
D03*
X0046112D02*
D03*
X00625382Y020193D02*
D03*
X00643382D02*
D03*
X0095484Y0155236D02*
D03*
X0093684D02*
D03*
D95*
X00914056Y0210003D02*
D03*
X00893056D02*
D03*
D96*
X0097519Y0221488D02*
D03*
X0117729D02*
D03*
Y0209288D02*
D03*
X0097519D02*
D03*
D97*
X0113874Y0202338D02*
D03*
X0110004D02*
D03*
X0108734D02*
D03*
X0107464D02*
D03*
X0106194D02*
D03*
X0104924D02*
D03*
X0103654D02*
D03*
X0102384D02*
D03*
X0111274D02*
D03*
D98*
X0088679Y02207932D02*
D03*
X0089629Y02233032D02*
D03*
X0088679D02*
D03*
X0087729D02*
D03*
X0089629Y02207932D02*
D03*
X0087729D02*
D03*
D99*
X00834118Y02234723D02*
D03*
Y02191723D02*
D03*
D100*
X0035391Y02113326D02*
D03*
X0042291D02*
D03*
X0026628Y0172339D02*
D03*
X0033528D02*
D03*
X0066421Y0179705D02*
D03*
X0059521D02*
D03*
D101*
X012827Y0196689D02*
D03*
Y0198789D02*
D03*
X012573Y0196689D02*
D03*
Y0198789D02*
D03*
D102*
X0042171Y01489092D02*
D03*
X0045121D02*
D03*
X0100748Y01978182D02*
D03*
X0097798D02*
D03*
D103*
X0043646Y01504092D02*
D03*
X0099273Y01963182D02*
D03*
D104*
X00865585Y0207152D02*
D03*
X00831985D02*
D03*
D105*
X0033528Y02039112D02*
D03*
Y02019808D02*
D03*
X003556Y0202946D02*
D03*
D106*
X004534Y01554508D02*
D03*
X004734D02*
D03*
X004934D02*
D03*
X005134D02*
D03*
X005334D02*
D03*
X005534D02*
D03*
X005734D02*
D03*
Y0170815D02*
D03*
X005534D02*
D03*
X005334D02*
D03*
X005134D02*
D03*
X004934D02*
D03*
X004734D02*
D03*
X004534D02*
D03*
X004334D02*
D03*
D107*
X0056381Y01963743D02*
D03*
Y01968743D02*
D03*
Y01973743D02*
D03*
Y01978743D02*
D03*
Y01983743D02*
D03*
Y01958743D02*
D03*
X0052331Y01963743D02*
D03*
Y01968743D02*
D03*
Y01973743D02*
D03*
Y01978743D02*
D03*
Y01983743D02*
D03*
Y01958743D02*
D03*
D108*
X00545857Y0195079D02*
D03*
X00535857D02*
D03*
X00555857D02*
D03*
X00540857D02*
D03*
X00550857D02*
D03*
X00530857D02*
D03*
X00545857Y0199129D02*
D03*
X00535857D02*
D03*
X00555857D02*
D03*
X00540857D02*
D03*
X00550857D02*
D03*
X00530857D02*
D03*
D109*
X0124079Y01848547D02*
D03*
X0123129Y01828347D02*
D03*
X0125029D02*
D03*
X01276198Y01848547D02*
D03*
X01266698Y01828347D02*
D03*
X01285698D02*
D03*
D110*
X0094752Y01709184D02*
D03*
X0092732Y01718684D02*
D03*
Y01699684D02*
D03*
D111*
X0091872Y01738576D02*
D03*
X0095312D02*
D03*
D112*
X0096415Y016002D02*
D03*
X0092815D02*
D03*
D113*
X01083391Y01546925D02*
D03*
Y01616925D02*
D03*
X01012514Y01546185D02*
D03*
Y01616185D02*
D03*
D114*
X00398784Y01633591D02*
D03*
D115*
Y01608191D02*
D03*
Y01582791D02*
D03*
D116*
X0030221Y0188847D02*
D03*
X0026421D02*
D03*
Y0197487D02*
D03*
X0030221D02*
D03*
D117*
X00795435Y0163449D02*
D03*
X00813785D02*
D03*
X0078626Y01625315D02*
D03*
X0080461D02*
D03*
X0082296D02*
D03*
X00795435Y0161614D02*
D03*
X00813785D02*
D03*
X0078626Y01606965D02*
D03*
X0080461D02*
D03*
X0082296D02*
D03*
X00795435Y0159779D02*
D03*
X00813785D02*
D03*
D118*
X00262777Y01803032D02*
D03*
D119*
Y01853832D02*
D03*
D120*
X0026924Y0203454D02*
D03*
Y0200914D02*
D03*
X0061976Y0162433D02*
D03*
Y0159893D02*
D03*
Y0157353D02*
D03*
Y0154813D02*
D03*
Y0152273D02*
D03*
Y0149733D02*
D03*
D121*
X01185017Y0160004D02*
D03*
D122*
Y0157464D02*
D03*
D123*
X0031655Y01794079D02*
D03*
X00298371Y01793271D02*
D03*
X0031655Y01794079D02*
D03*
X00528363Y01917862D02*
D03*
X00451169Y01584133D02*
D03*
M02*
