G04*
G04 #@! TF.GenerationSoftware,Altium Limited,Altium Designer,21.3.2 (30)*
G04*
G04 Layer_Color=16711935*
%FSTAX44Y44*%
%MOMM*%
G71*
G04*
G04 #@! TF.SameCoordinates,B6C3B198-A06E-455A-847D-5BBCBFFA52FD*
G04*
G04*
G04 #@! TF.FilePolarity,Positive*
G04*
G01*
G75*
%ADD16C,0.1270*%
G36*
X00851671Y01496047D02*
X00850558D01*
X00847432Y0150374D01*
X0084858D01*
X0084947Y0150141D01*
X00852701D01*
X00853533Y0150374D01*
X0085461D01*
X00851671Y01496047D01*
D02*
G37*
G36*
X00807526D02*
X00806414D01*
X00803288Y0150374D01*
X00804435D01*
X00805325Y0150141D01*
X00808557D01*
X00809388Y0150374D01*
X00810466D01*
X00807526Y01496047D01*
D02*
G37*
G36*
X00846612D02*
X00845582D01*
X00841531Y01502089D01*
Y01496047D01*
X00840559D01*
Y0150374D01*
X00841601D01*
X00845641Y01497698D01*
Y0150374D01*
X00846612D01*
Y01496047D01*
D02*
G37*
G36*
X00825137D02*
X00824107D01*
X00820056Y01502089D01*
Y01496047D01*
X00819084D01*
Y0150374D01*
X00820126D01*
X00824166Y01497698D01*
Y0150374D01*
X00825137D01*
Y01496047D01*
D02*
G37*
G36*
X00817386D02*
X00816355D01*
X00812304Y01502089D01*
Y01496047D01*
X00811332D01*
Y0150374D01*
X00812374D01*
X00816414Y01497698D01*
Y0150374D01*
X00817386D01*
Y01496047D01*
D02*
G37*
G36*
X00836894Y01496949D02*
X00839423D01*
Y01496047D01*
X00833346D01*
Y01496949D01*
X00835875D01*
Y0150374D01*
X00836894D01*
Y01496949D01*
D02*
G37*
G36*
X00832269Y01496047D02*
X00826706D01*
Y01496949D01*
X0083125D01*
Y01499314D01*
X00826999D01*
Y01500215D01*
X0083125D01*
Y01502838D01*
X00826531D01*
Y0150374D01*
X00832269D01*
Y01496047D01*
D02*
G37*
%LPC*%
G36*
X00852409Y01500578D02*
X00849797D01*
X00850594Y01498459D01*
Y01498447D01*
X00850605Y01498412D01*
X00850629Y01498365D01*
X00850652Y01498295D01*
X00850687Y01498213D01*
X00850723Y0149812D01*
X00850793Y01497897D01*
X00850886Y01497639D01*
X0085098Y0149737D01*
X00851062Y01497101D01*
X00851144Y01496843D01*
Y01496855D01*
X00851156Y01496878D01*
Y01496913D01*
X00851167Y01496972D01*
X00851191Y01497042D01*
X00851214Y01497124D01*
X00851261Y01497312D01*
X0085132Y01497546D01*
X0085139Y01497792D01*
X00851472Y01498061D01*
X00851566Y0149833D01*
X00852409Y01500578D01*
D02*
G37*
G36*
X00808264D02*
X00805653D01*
X00806449Y01498459D01*
Y01498447D01*
X00806461Y01498412D01*
X00806484Y01498365D01*
X00806508Y01498295D01*
X00806543Y01498213D01*
X00806578Y0149812D01*
X00806648Y01497897D01*
X00806742Y01497639D01*
X00806836Y0149737D01*
X00806918Y01497101D01*
X00807Y01496843D01*
Y01496855D01*
X00807011Y01496878D01*
Y01496913D01*
X00807023Y01496972D01*
X00807046Y01497042D01*
X0080707Y01497124D01*
X00807117Y01497312D01*
X00807175Y01497546D01*
X00807245Y01497792D01*
X00807327Y01498061D01*
X00807421Y0149833D01*
X00808264Y01500578D01*
D02*
G37*
%LPD*%
D16*
X0088461Y0146624D02*
Y0152924D01*
Y0172124D01*
X0070461D02*
X0088461D01*
X0070461Y0152924D02*
Y0172124D01*
Y0146624D02*
Y0152924D01*
Y0146624D02*
X0088461D01*
X0070461Y0152924D02*
X0088461D01*
M02*
