G04*
G04 #@! TF.GenerationSoftware,Altium Limited,Altium Designer,21.3.2 (30)*
G04*
G04 Layer_Color=32896*
%FSTAX44Y44*%
%MOMM*%
G71*
G04*
G04 #@! TF.SameCoordinates,B6C3B198-A06E-455A-847D-5BBCBFFA52FD*
G04*
G04*
G04 #@! TF.FilePolarity,Positive*
G04*
G01*
G75*
%ADD145C,0.0127*%
D145*
X01179995Y0221488D02*
G03*
X01179995Y0221488I-00002705J0D01*
G01*
X00979373D02*
G03*
X00979373Y0221488I-00004183J0D01*
G01*
X00977289Y0209288D02*
G03*
X00977289Y0209288I-00002098J0D01*
G01*
X01179201D02*
G03*
X01179201Y0209288I-00001911J0D01*
G01*
X0111421Y0202338D02*
G03*
X0111421Y0202338I-0000147J0D01*
G01*
X01140078D02*
G03*
X01140078Y0202338I-00001338J0D01*
G01*
X0117054Y0220088D02*
Y0222888D01*
X0118404D01*
Y0220088D02*
Y0222888D01*
X0117054Y0220088D02*
X0118404D01*
X0117054Y0207888D02*
Y0210688D01*
X0118404D01*
Y0207888D02*
Y0210688D01*
X0117054Y0207888D02*
X0118404D01*
X0098194Y0220088D02*
Y0222888D01*
X0096844D02*
X0098194D01*
X0096844Y0220088D02*
Y0222888D01*
Y0220088D02*
X0098194D01*
Y0207888D02*
Y0210688D01*
X0096844D02*
X0098194D01*
X0096844Y0207888D02*
Y0210688D01*
Y0207888D02*
X0098194D01*
X0114324Y0201438D02*
Y0203238D01*
X0113424D02*
X0114324D01*
X0113424Y0201438D02*
Y0203238D01*
Y0201438D02*
X0114324D01*
X0102834D02*
Y0203238D01*
X0101934D02*
X0102834D01*
X0101934Y0201438D02*
Y0203238D01*
Y0201438D02*
X0102834D01*
X0104104D02*
Y0203238D01*
X0103204D02*
X0104104D01*
X0103204Y0201438D02*
Y0203238D01*
Y0201438D02*
X0104104D01*
X0105374D02*
Y0203238D01*
X0104474D02*
X0105374D01*
X0104474Y0201438D02*
Y0203238D01*
Y0201438D02*
X0105374D01*
X0106644D02*
Y0203238D01*
X0105744D02*
X0106644D01*
X0105744Y0201438D02*
Y0203238D01*
Y0201438D02*
X0106644D01*
X0107914D02*
Y0203238D01*
X0107014D02*
X0107914D01*
X0107014Y0201438D02*
Y0203238D01*
Y0201438D02*
X0107914D01*
X0109184D02*
Y0203238D01*
X0108284D02*
X0109184D01*
X0108284Y0201438D02*
Y0203238D01*
Y0201438D02*
X0109184D01*
X0110454D02*
Y0203238D01*
X0109554D02*
X0110454D01*
X0109554Y0201438D02*
Y0203238D01*
Y0201438D02*
X0110454D01*
X0111724D02*
Y0203238D01*
X0110824D02*
X0111724D01*
X0110824Y0201438D02*
Y0203238D01*
Y0201438D02*
X0111724D01*
M02*
