G04*
G04 #@! TF.GenerationSoftware,Altium Limited,Altium Designer,21.3.2 (30)*
G04*
G04 Layer_Physical_Order=1*
G04 Layer_Color=255*
%FSTAX44Y44*%
%MOMM*%
G71*
G04*
G04 #@! TF.SameCoordinates,B6C3B198-A06E-455A-847D-5BBCBFFA52FD*
G04*
G04*
G04 #@! TF.FilePolarity,Positive*
G04*
G01*
G75*
%ADD11C,0.5000*%
%ADD12C,0.2000*%
%ADD14C,0.3000*%
%ADD18R,1.1938X0.7112*%
%ADD19R,1.1938X0.7620*%
%ADD20R,1.1938X0.8128*%
G04:AMPARAMS|DCode=21|XSize=1.05mm|YSize=1.3mm|CornerRadius=0.2625mm|HoleSize=0mm|Usage=FLASHONLY|Rotation=90.000|XOffset=0mm|YOffset=0mm|HoleType=Round|Shape=RoundedRectangle|*
%AMROUNDEDRECTD21*
21,1,1.0500,0.7750,0,0,90.0*
21,1,0.5250,1.3000,0,0,90.0*
1,1,0.5250,0.3875,0.2625*
1,1,0.5250,0.3875,-0.2625*
1,1,0.5250,-0.3875,-0.2625*
1,1,0.5250,-0.3875,0.2625*
%
%ADD21ROUNDEDRECTD21*%
G04:AMPARAMS|DCode=22|XSize=0.9mm|YSize=1.18mm|CornerRadius=0.09mm|HoleSize=0mm|Usage=FLASHONLY|Rotation=90.000|XOffset=0mm|YOffset=0mm|HoleType=Round|Shape=RoundedRectangle|*
%AMROUNDEDRECTD22*
21,1,0.9000,1.0000,0,0,90.0*
21,1,0.7200,1.1800,0,0,90.0*
1,1,0.1800,0.5000,0.3600*
1,1,0.1800,0.5000,-0.3600*
1,1,0.1800,-0.5000,-0.3600*
1,1,0.1800,-0.5000,0.3600*
%
%ADD22ROUNDEDRECTD22*%
G04:AMPARAMS|DCode=23|XSize=0.8mm|YSize=0.6mm|CornerRadius=0.15mm|HoleSize=0mm|Usage=FLASHONLY|Rotation=180.000|XOffset=0mm|YOffset=0mm|HoleType=Round|Shape=RoundedRectangle|*
%AMROUNDEDRECTD23*
21,1,0.8000,0.3000,0,0,180.0*
21,1,0.5000,0.6000,0,0,180.0*
1,1,0.3000,-0.2500,0.1500*
1,1,0.3000,0.2500,0.1500*
1,1,0.3000,0.2500,-0.1500*
1,1,0.3000,-0.2500,-0.1500*
%
%ADD23ROUNDEDRECTD23*%
%ADD24R,3.5000X1.6000*%
%ADD25R,0.9000X1.3000*%
%ADD26O,1.6000X0.6000*%
%ADD27O,0.6000X1.6000*%
%ADD28R,2.6000X2.1000*%
%ADD29R,1.6000X1.5000*%
G04:AMPARAMS|DCode=30|XSize=1.4mm|YSize=1.15mm|CornerRadius=0.0575mm|HoleSize=0mm|Usage=FLASHONLY|Rotation=180.000|XOffset=0mm|YOffset=0mm|HoleType=Round|Shape=RoundedRectangle|*
%AMROUNDEDRECTD30*
21,1,1.4000,1.0350,0,0,180.0*
21,1,1.2850,1.1500,0,0,180.0*
1,1,0.1150,-0.6425,0.5175*
1,1,0.1150,0.6425,0.5175*
1,1,0.1150,0.6425,-0.5175*
1,1,0.1150,-0.6425,-0.5175*
%
%ADD30ROUNDEDRECTD30*%
G04:AMPARAMS|DCode=31|XSize=1.05mm|YSize=1.3mm|CornerRadius=0.2625mm|HoleSize=0mm|Usage=FLASHONLY|Rotation=0.000|XOffset=0mm|YOffset=0mm|HoleType=Round|Shape=RoundedRectangle|*
%AMROUNDEDRECTD31*
21,1,1.0500,0.7750,0,0,0.0*
21,1,0.5250,1.3000,0,0,0.0*
1,1,0.5250,0.2625,-0.3875*
1,1,0.5250,-0.2625,-0.3875*
1,1,0.5250,-0.2625,0.3875*
1,1,0.5250,0.2625,0.3875*
%
%ADD31ROUNDEDRECTD31*%
%ADD32R,1.4500X1.1500*%
%ADD33R,1.4000X1.0000*%
%ADD34R,1.3300X1.3300*%
%ADD35R,2.0000X0.9000*%
%ADD36R,0.9000X2.0000*%
%ADD37R,1.1600X1.4700*%
%ADD38R,1.1500X1.8500*%
%ADD39R,1.3000X0.9000*%
%ADD40R,1.6000X2.9000*%
%ADD41R,1.0000X1.4000*%
%ADD42R,1.0000X1.0000*%
%ADD43R,2.2000X1.0500*%
%ADD44R,2.0000X3.0000*%
%ADD45R,1.6500X2.6500*%
G04:AMPARAMS|DCode=46|XSize=1.45mm|YSize=0.59mm|CornerRadius=0.0738mm|HoleSize=0mm|Usage=FLASHONLY|Rotation=270.000|XOffset=0mm|YOffset=0mm|HoleType=Round|Shape=RoundedRectangle|*
%AMROUNDEDRECTD46*
21,1,1.4500,0.4425,0,0,270.0*
21,1,1.3025,0.5900,0,0,270.0*
1,1,0.1475,-0.2213,-0.6513*
1,1,0.1475,-0.2213,0.6513*
1,1,0.1475,0.2213,0.6513*
1,1,0.1475,0.2213,-0.6513*
%
%ADD46ROUNDEDRECTD46*%
%ADD47R,1.1500X1.4500*%
%ADD48R,1.1000X1.3000*%
G04:AMPARAMS|DCode=49|XSize=1.35mm|YSize=2.8mm|CornerRadius=0.0675mm|HoleSize=0mm|Usage=FLASHONLY|Rotation=0.000|XOffset=0mm|YOffset=0mm|HoleType=Round|Shape=RoundedRectangle|*
%AMROUNDEDRECTD49*
21,1,1.3500,2.6650,0,0,0.0*
21,1,1.2150,2.8000,0,0,0.0*
1,1,0.1350,0.6075,-1.3325*
1,1,0.1350,-0.6075,-1.3325*
1,1,0.1350,-0.6075,1.3325*
1,1,0.1350,0.6075,1.3325*
%
%ADD49ROUNDEDRECTD49*%
G04:AMPARAMS|DCode=50|XSize=0.9mm|YSize=1.8mm|CornerRadius=0.045mm|HoleSize=0mm|Usage=FLASHONLY|Rotation=0.000|XOffset=0mm|YOffset=0mm|HoleType=Round|Shape=RoundedRectangle|*
%AMROUNDEDRECTD50*
21,1,0.9000,1.7100,0,0,0.0*
21,1,0.8100,1.8000,0,0,0.0*
1,1,0.0900,0.4050,-0.8550*
1,1,0.0900,-0.4050,-0.8550*
1,1,0.0900,-0.4050,0.8550*
1,1,0.0900,0.4050,0.8550*
%
%ADD50ROUNDEDRECTD50*%
%ADD51R,0.5900X1.2100*%
%ADD52R,5.7000X2.0000*%
%ADD53R,4.5000X2.1000*%
%ADD54R,1.3000X1.1000*%
%ADD55R,1.0500X2.2000*%
%ADD56R,1.0000X1.0000*%
%ADD57R,1.2100X0.7300*%
%ADD58R,0.9720X0.8020*%
%ADD59R,1.0000X1.5358*%
G04:AMPARAMS|DCode=60|XSize=0.3mm|YSize=0.45mm|CornerRadius=0.03mm|HoleSize=0mm|Usage=FLASHONLY|Rotation=90.000|XOffset=0mm|YOffset=0mm|HoleType=Round|Shape=RoundedRectangle|*
%AMROUNDEDRECTD60*
21,1,0.3000,0.3900,0,0,90.0*
21,1,0.2400,0.4500,0,0,90.0*
1,1,0.0600,0.1950,0.1200*
1,1,0.0600,0.1950,-0.1200*
1,1,0.0600,-0.1950,-0.1200*
1,1,0.0600,-0.1950,0.1200*
%
%ADD60ROUNDEDRECTD60*%
G04:AMPARAMS|DCode=61|XSize=0.3mm|YSize=0.45mm|CornerRadius=0.03mm|HoleSize=0mm|Usage=FLASHONLY|Rotation=180.000|XOffset=0mm|YOffset=0mm|HoleType=Round|Shape=RoundedRectangle|*
%AMROUNDEDRECTD61*
21,1,0.3000,0.3900,0,0,180.0*
21,1,0.2400,0.4500,0,0,180.0*
1,1,0.0600,-0.1200,0.1950*
1,1,0.0600,0.1200,0.1950*
1,1,0.0600,0.1200,-0.1950*
1,1,0.0600,-0.1200,-0.1950*
%
%ADD61ROUNDEDRECTD61*%
G04:AMPARAMS|DCode=62|XSize=1mm|YSize=1mm|CornerRadius=0.05mm|HoleSize=0mm|Usage=FLASHONLY|Rotation=90.000|XOffset=0mm|YOffset=0mm|HoleType=Round|Shape=RoundedRectangle|*
%AMROUNDEDRECTD62*
21,1,1.0000,0.9000,0,0,90.0*
21,1,0.9000,1.0000,0,0,90.0*
1,1,0.1000,0.4500,0.4500*
1,1,0.1000,0.4500,-0.4500*
1,1,0.1000,-0.4500,-0.4500*
1,1,0.1000,-0.4500,0.4500*
%
%ADD62ROUNDEDRECTD62*%
%ADD63R,0.6000X0.8000*%
%ADD64R,0.8000X0.6000*%
%ADD65R,1.2000X1.0000*%
%ADD66R,2.9000X1.6000*%
%ADD67R,0.8000X1.2000*%
%ADD124R,0.9000X0.9000*%
%ADD125C,0.5500*%
%ADD126C,1.0000*%
%ADD127R,2.2860X1.9050*%
%ADD128O,2.2860X1.9050*%
%ADD129O,1.7000X1.1000*%
%ADD130C,0.3000*%
%ADD131C,1.8500*%
%ADD132R,1.8500X1.8500*%
%ADD133C,1.8034*%
%ADD134R,1.5000X1.5000*%
%ADD135C,1.5000*%
%ADD136C,1.2700*%
%ADD137C,0.6000*%
G36*
X00347074Y02274439D02*
X00333381Y02260746D01*
X0033211Y02258844D01*
X00331664Y02256601D01*
Y02226666D01*
X0033211Y02224422D01*
X00333381Y0222252D01*
X00337681Y02218221D01*
X00337681Y02218221D01*
X00339583Y0221695D01*
X00341827Y02216503D01*
X00341827Y02216503D01*
X00344847D01*
Y02212366D01*
X00360847D01*
Y02232366D01*
X00344847D01*
Y02230757D01*
X00343577Y02230078D01*
X00343389Y02230203D01*
Y02254172D01*
X00358854Y02269637D01*
X0041267D01*
Y02266099D01*
X00412132D01*
X00409888Y02265653D01*
X00407986Y02264382D01*
X00403627Y02260022D01*
X00402356Y0225812D01*
X00401909Y02255876D01*
Y02241236D01*
X00401749Y02240428D01*
Y02227404D01*
X00402039Y02225945D01*
X00402865Y02224709D01*
X00404101Y02223883D01*
X0040556Y02223593D01*
X00409985D01*
X00411443Y02223883D01*
X00412679Y02224709D01*
X00413505Y02225945D01*
X00413795Y02227404D01*
Y02240428D01*
X00413635Y02241236D01*
Y0225138D01*
X0043017D01*
X00430718Y02250337D01*
Y02221315D01*
X00407592Y02221315D01*
X00407273Y02221252D01*
X00406947Y02221247D01*
X00406699Y02221139D01*
X0040556D01*
X00404101Y02220849D01*
X00403022Y02220128D01*
X00401943Y02220849D01*
X00400485Y02221139D01*
X00396059D01*
X00394601Y02220849D01*
X00393522Y02220128D01*
X00392443Y02220849D01*
X00390984Y02221139D01*
X00386559D01*
X00385101Y02220849D01*
X00383865Y02220023D01*
X00383039Y02218787D01*
X00382749Y02217328D01*
Y02210814D01*
X00382709Y02210616D01*
Y02206929D01*
X0036391D01*
Y02209602D01*
X0034391D01*
Y02193602D01*
X0036391D01*
Y02195203D01*
X00376715D01*
X00377201Y0219403D01*
X00375022Y02191851D01*
X00331398D01*
X00330227Y02191618D01*
X00329235Y02190955D01*
X00328572Y02189962D01*
X00328339Y02188792D01*
Y02123838D01*
Y02121227D01*
X0032841Y02120871D01*
Y02111439D01*
X00322221D01*
X00322221Y02111439D01*
X00319977Y02110992D01*
X00318075Y02109722D01*
X00318075Y02109721D01*
X0023752Y02029166D01*
X00237203Y02028692D01*
X00235933Y02029077D01*
Y02056566D01*
X00235936Y0205696D01*
X00236008Y02058151D01*
X00236009Y02058166D01*
X00236046Y02059421D01*
X0023639Y02063795D01*
X00237708Y02069286D01*
X00239869Y02074502D01*
X00242819Y02079317D01*
X00246486Y02083611D01*
X0025078Y02087278D01*
X00255595Y02090228D01*
X00260811Y02092389D01*
X00266302Y02093707D01*
X00271869Y02094145D01*
X00271931Y02094088D01*
Y02094088D01*
X00272373Y02094176D01*
X00276839D01*
Y02094151D01*
X00283248Y02094571D01*
X00289548Y02095824D01*
X00295631Y02097889D01*
X00301392Y0210073D01*
X00306732Y02104298D01*
X00311562Y02108533D01*
X00315797Y02113363D01*
X00319365Y02118703D01*
X00322206Y02124464D01*
X00324271Y02130547D01*
X00325524Y02136847D01*
X00325944Y02143256D01*
X00325925D01*
Y02241816D01*
X00325925Y02241825D01*
X00325925Y02243078D01*
X00325962Y02244333D01*
X00326306Y02248707D01*
X00327624Y02254198D01*
X00329785Y02259414D01*
X00332735Y02264229D01*
X00336403Y02268522D01*
X00340696Y0227219D01*
X00345511Y0227514D01*
X00346369Y02275495D01*
X00347074Y02274439D01*
D02*
G37*
G36*
X00478396Y02259927D02*
Y02197264D01*
X00433777D01*
Y02199487D01*
X00416669D01*
X00414321Y02198882D01*
X00411773D01*
X00407592Y02218257D01*
X00433777Y02218257D01*
Y0226163D01*
X00476693Y0226163D01*
X00478396Y02259927D01*
D02*
G37*
G36*
X00407772Y02178978D02*
X00376252D01*
Y02121227D01*
X00331398D01*
Y02123838D01*
Y02188792D01*
X00376252D01*
Y02188756D01*
X00381549Y02194052D01*
X00407772D01*
Y02178978D01*
D02*
G37*
G36*
X00553611Y02278249D02*
X00557534Y02274326D01*
Y02184668D01*
X00554194Y02181328D01*
X005375D01*
X00534645Y02184182D01*
Y02278249D01*
X00553611Y02278249D01*
D02*
G37*
G36*
X01171863Y02279D02*
Y02279D01*
X01171925Y02279057D01*
X01177492Y02278619D01*
X01182983Y02277301D01*
X01188199Y0227514D01*
X01193014Y0227219D01*
X01197307Y02268522D01*
X01200975Y02264229D01*
X01203925Y02259414D01*
X01206086Y02254198D01*
X01207404Y02248707D01*
X01207827Y02243331D01*
X01207777Y02243078D01*
Y02144272D01*
X01207758D01*
X01208178Y02137863D01*
X01209431Y02131563D01*
X01211496Y0212548D01*
X01214337Y0211972D01*
X01217905Y02114379D01*
X0122214Y0210955D01*
X0122697Y02105314D01*
X0123231Y02101746D01*
X01238071Y02098905D01*
X01244154Y0209684D01*
X01250453Y02095587D01*
X01256863Y02095167D01*
Y02095192D01*
X01261901D01*
X01262284Y02095268D01*
X0126753Y02094855D01*
X01273021Y02093537D01*
X01278237Y02091376D01*
X01283052Y02088426D01*
X01287345Y02084758D01*
X01291013Y02080465D01*
X01293963Y0207565D01*
X01296124Y02070434D01*
X01297442Y02064943D01*
X01297852Y02059733D01*
X01297769Y02059314D01*
X01297769Y01687072D01*
X01297946Y01686178D01*
X01297574Y01681443D01*
X01296256Y01675952D01*
X01294095Y01670736D01*
X01291145Y01665921D01*
X01287477Y01661628D01*
X01283184Y01657961D01*
X01278369Y0165501D01*
X01273153Y01652849D01*
X01267662Y01651531D01*
X01262515Y01651126D01*
X01261779Y01651272D01*
X01257049D01*
Y01651297D01*
X01250639Y01650877D01*
X0124434Y01649624D01*
X01238257Y01647559D01*
X01232496Y01644718D01*
X01227156Y0164115D01*
X01222326Y01636915D01*
X01218091Y01632085D01*
X01214523Y01626745D01*
X01211682Y01620984D01*
X01209617Y01614901D01*
X01208364Y01608602D01*
X01207944Y01602192D01*
X01207963D01*
Y01503386D01*
X01208013Y01503133D01*
X0120759Y01497757D01*
X01206272Y01492266D01*
X01204111Y0148705D01*
X01201161Y01482235D01*
X01197493Y01477942D01*
X011932Y01474274D01*
X01188385Y01471324D01*
X01183169Y01469163D01*
X01177678Y01467845D01*
X01173304Y01467501D01*
X01172049Y01467464D01*
X01172045Y01467464D01*
X01170935Y01467248D01*
X01169748Y01467232D01*
X00887669Y01467232D01*
Y0152924D01*
X00887436Y0153041D01*
X00886773Y01531403D01*
X0088578Y01532066D01*
X0088461Y01532299D01*
X0070461D01*
X00703439Y01532066D01*
X00702447Y01531403D01*
X00701784Y0153041D01*
X00701551Y0152924D01*
Y01467232D01*
X00680763D01*
X00680277Y01468406D01*
X00695395Y01483524D01*
X00695396Y01483524D01*
X00696666Y01485426D01*
X00697113Y0148767D01*
Y01508515D01*
X0069725Y01508847D01*
Y01511234D01*
X00696337Y01513439D01*
X00694649Y01515127D01*
X00692443Y0151604D01*
X00690057D01*
X00687851Y01515127D01*
X00686163Y01513439D01*
X0068525Y01511234D01*
Y01508847D01*
X00685387Y01508515D01*
Y01490098D01*
X00671056Y01475767D01*
X00615687D01*
X00581188Y01510266D01*
X0057996Y01511086D01*
Y0153537D01*
X0055796D01*
Y01520973D01*
X0053579D01*
Y0152386D01*
X0051529D01*
Y01520973D01*
X0051079D01*
Y0152386D01*
X0049029D01*
Y01520973D01*
X0048579D01*
Y0152386D01*
X00481363D01*
Y01543829D01*
X004814D01*
Y01565187D01*
X004654D01*
Y01543829D01*
X00469637D01*
Y0152386D01*
X0046529D01*
Y0150636D01*
X0048579D01*
Y01509247D01*
X0049029D01*
Y0150636D01*
X0051079D01*
Y01509247D01*
X0051529D01*
Y0150636D01*
X0053579D01*
Y01509247D01*
X0055796D01*
Y0150037D01*
X00573644D01*
X0057421Y01500257D01*
X00574614D01*
X00606466Y01468406D01*
X0060598Y01467232D01*
X0036195Y01467232D01*
X00361839Y01467254D01*
Y01467254D01*
X00360584Y01467291D01*
X0035621Y01467635D01*
X00350719Y01468953D01*
X00345503Y01471114D01*
X00340688Y01474064D01*
X00336395Y01477732D01*
X00332727Y01482025D01*
X00329777Y0148684D01*
X00327616Y01492056D01*
X00326298Y01497547D01*
X00325875Y01502923D01*
X00325925Y01503176D01*
Y01603252D01*
X00325944D01*
X00325524Y01609662D01*
X00324271Y01615961D01*
X00322206Y01622044D01*
X00319365Y01627805D01*
X00315797Y01633145D01*
X00311562Y01637975D01*
X00306732Y0164221D01*
X00301392Y01645778D01*
X00295631Y01648619D01*
X00289548Y01650684D01*
X00283248Y01651937D01*
X00276839Y01652357D01*
Y01652332D01*
X00272865D01*
X00271809Y01652542D01*
Y01652542D01*
X00271747Y01652485D01*
X0026618Y01652923D01*
X00260689Y01654241D01*
X00255473Y01656402D01*
X00250658Y01659353D01*
X00246364Y0166302D01*
X00242697Y01667313D01*
X00239747Y01672128D01*
X00237586Y01677344D01*
X00236268Y01682835D01*
X00235856Y01688074D01*
X00235933Y01688464D01*
Y01841215D01*
X00237203Y018416D01*
X0023752Y01841126D01*
X00249407Y01829238D01*
Y01765393D01*
X00241617Y01757603D01*
X00240954Y01756611D01*
X00240721Y0175544D01*
X00240721Y0175544D01*
Y01730662D01*
X0024078Y01730366D01*
Y0170989D01*
X0029178D01*
Y01732769D01*
X00312964Y01753953D01*
X00391313Y01753987D01*
X00391907Y01754106D01*
X00392482Y0175422D01*
X00392483Y01754221D01*
X00392484Y01754221D01*
X00392989Y01754559D01*
X00393475Y01754883D01*
X00393475Y01754884D01*
X00393476Y01754884D01*
X00393801Y01755372D01*
X00394138Y01755876D01*
X00394138Y01755876D01*
X00394138Y01755877D01*
X00394253Y01756454D01*
X00394371Y01757046D01*
Y01782615D01*
X00394138Y01783786D01*
X00393876Y01784177D01*
X00394555Y01785447D01*
X0040531D01*
Y0177159D01*
X0042781D01*
Y01784833D01*
X00427869Y01785128D01*
X00427869Y01785129D01*
Y01801961D01*
X00444053Y01818145D01*
X00474138D01*
X00475308Y01818378D01*
X00476301Y01819041D01*
X00476964Y01820033D01*
X00477197Y01821204D01*
Y01856483D01*
X00476964Y01857653D01*
X00476301Y01858645D01*
X00475308Y01859308D01*
X00474138Y01859541D01*
X0042362D01*
X00422449Y01859308D01*
X00421457Y01858645D01*
X00421013Y01857981D01*
X00420557Y01857521D01*
X00419766Y01857081D01*
X0040262Y01857081D01*
Y01844872D01*
X00386472Y01828723D01*
X00386219Y01828673D01*
X00384983Y01827847D01*
X00384157Y01826611D01*
X00383867Y01825152D01*
Y01812128D01*
X00384157Y01810669D01*
X00384983Y01809433D01*
X00386219Y01808607D01*
X00387677Y01808317D01*
X00392103D01*
X00393561Y01808607D01*
X00394797Y01809433D01*
X00395623Y01810669D01*
X00395913Y01812128D01*
Y01818642D01*
X00395953Y0181884D01*
X00395953Y0181884D01*
Y01821622D01*
X00410911Y01836581D01*
X0042012Y01836581D01*
X00420561Y01835493D01*
Y01829345D01*
X00399792Y01808575D01*
X00399129Y01807583D01*
X00398896Y01806413D01*
X00398024Y01805605D01*
X00393679Y01805494D01*
X00393561Y01805573D01*
X00392103Y01805863D01*
X00387677D01*
X00386219Y01805573D01*
X0038514Y01804852D01*
X00384061Y01805573D01*
X00382603Y01805863D01*
X00378177D01*
X00376719Y01805573D01*
X00375445Y0180625D01*
X00375235Y01806564D01*
X00375235Y01806564D01*
X00374417Y01807382D01*
X00374817Y01808778D01*
X00375797Y01809433D01*
X00376623Y01810669D01*
X00376913Y01812128D01*
Y01818642D01*
X00376953Y0181884D01*
X00376953Y0181884D01*
Y01836832D01*
X0038039D01*
Y01856832D01*
X00378252D01*
Y01861724D01*
X00380388D01*
Y01881724D01*
X00364388D01*
Y01861724D01*
X00366527D01*
Y01856832D01*
X0036439D01*
Y01836832D01*
X00365227D01*
Y01826716D01*
X00365157Y01826611D01*
X00364867Y01825152D01*
Y01812128D01*
X00364354Y01811503D01*
X00355476D01*
X00353233Y01811056D01*
X00351331Y01809785D01*
X00351331Y01809785D01*
X00347573Y01806028D01*
X00335864D01*
Y01790027D01*
X00355864D01*
Y01797737D01*
X00357905Y01799777D01*
X00364867D01*
Y01789028D01*
X00365157Y01787569D01*
X00365575Y01786944D01*
X00364896Y01785674D01*
X00355864D01*
Y01788027D01*
X00335864D01*
Y01785674D01*
X00323128D01*
X00322637Y01786944D01*
X00324032Y01788338D01*
X00325263Y0179047D01*
X003259Y01792848D01*
Y0179531D01*
X00325263Y01797688D01*
X00324032Y0179982D01*
X00322291Y01801561D01*
X00320159Y01802792D01*
X00317781Y01803429D01*
X00315319D01*
X00312941Y01802792D01*
X00310809Y01801561D01*
X00309068Y0179982D01*
X0030796Y01797901D01*
X00307185Y01797745D01*
X00306552Y017978D01*
X00305853Y01799012D01*
X00304112Y01800753D01*
X0030198Y01801984D01*
X00300736Y01802317D01*
X00290933Y01812121D01*
Y01833746D01*
X00290658Y01835834D01*
X00289851Y0183778D01*
X00288569Y01839451D01*
X00275027Y01852993D01*
Y01866082D01*
X00250527D01*
Y0184636D01*
X00249354Y01845874D01*
X00247528Y01847699D01*
Y02022592D01*
X00324649Y02099713D01*
X0034616D01*
X00346726Y02099826D01*
X0037941D01*
Y02126826D01*
X00379311D01*
Y02175919D01*
X00407772D01*
X00408251Y02176014D01*
X0040837D01*
Y02176038D01*
X00408942Y02176152D01*
X00409935Y02176815D01*
X00410598Y02177807D01*
X00410831Y02178978D01*
Y02193872D01*
X00411266Y02194256D01*
X00412015Y02194608D01*
X0041203Y02194598D01*
X00414274Y02194151D01*
X00414274Y02194151D01*
X0043773D01*
X00438001Y02194205D01*
X00478396D01*
X00479567Y02194438D01*
X00480559Y02195101D01*
X00481222Y02196093D01*
X00481455Y02197264D01*
Y0222863D01*
X004951D01*
Y0226463D01*
X00476989D01*
X00476693Y02264689D01*
X00476693Y02264689D01*
X0044817Y02264689D01*
Y02269637D01*
X00531586D01*
Y02184182D01*
X00531819Y02183012D01*
X00532482Y0218202D01*
X00532482Y0218202D01*
X00535103Y02179399D01*
X00534864Y02178484D01*
X00534618Y02178129D01*
X0050568D01*
X0050451Y02177896D01*
X00503518Y02177233D01*
X0050347Y02177163D01*
X00503209D01*
Y02176772D01*
X00502854Y02176241D01*
X00502622Y0217507D01*
Y02134186D01*
X00502854Y02133015D01*
X00503518Y02132023D01*
X0050451Y0213136D01*
X00504661Y0213133D01*
X00504536Y0213006D01*
X0050435D01*
Y02128806D01*
X00495986D01*
Y02134176D01*
X00478386D01*
Y02113476D01*
X00495986D01*
Y0211708D01*
X0050435D01*
Y0211406D01*
X0052435D01*
Y02129857D01*
X0052435Y0213006D01*
X0052484Y02131127D01*
X00567491D01*
X00568661Y0213136D01*
X00569654Y02132023D01*
X00570317Y02133015D01*
X0057055Y02134186D01*
Y02167448D01*
X0057055Y02167449D01*
X00570317Y02168619D01*
X00569654Y02169612D01*
X00569654Y02169612D01*
X00562032Y02177233D01*
X0056104Y02177896D01*
X00559869Y02178129D01*
X00559869Y02178129D01*
X00557373D01*
Y02178181D01*
X00557353D01*
X00556832Y02179336D01*
X00557373Y02180181D01*
X00557373D01*
X00558239Y02181047D01*
X00559697Y02182505D01*
X0056036Y02183497D01*
X00560593Y02184668D01*
X00560593Y02184668D01*
Y02274326D01*
X0056036Y02275497D01*
X00559697Y02276489D01*
X00559697Y02276489D01*
X00558284Y02277902D01*
X0055877Y02279076D01*
X01171481Y02279076D01*
X01171863Y02279D01*
D02*
G37*
G36*
X00567491Y02167449D02*
Y02134186D01*
X0050568D01*
Y0217507D01*
X00559869D01*
X00567491Y02167449D01*
D02*
G37*
G36*
X00474138Y01821204D02*
X00442786D01*
X0042481Y01803228D01*
Y01785128D01*
X00421432Y01788506D01*
X00387156D01*
Y01802269D01*
X00401955Y01802646D01*
Y01806413D01*
X0042362Y01828078D01*
Y01856483D01*
X00474138D01*
Y01821204D01*
D02*
G37*
G36*
X00391312Y01757046D02*
X00308758Y0175701D01*
X00308318Y0175745D01*
X0028067Y01730662D01*
X0024378D01*
Y0175544D01*
X00270955Y01782615D01*
X00391312D01*
Y01757046D01*
D02*
G37*
%LPC*%
G36*
X00378847Y02256366D02*
X00362847D01*
Y02236366D01*
X00364984D01*
Y02232366D01*
X00362847D01*
Y02212366D01*
X00378847D01*
Y02232366D01*
X0037671D01*
Y02236366D01*
X00378847D01*
Y02240503D01*
X00382687D01*
X00382749Y02240428D01*
Y02227404D01*
X00383039Y02225945D01*
X00383865Y02224709D01*
X00385101Y02223883D01*
X00386559Y02223593D01*
X00390984D01*
X00392443Y02223883D01*
X00393679Y02224709D01*
X00394505Y02225945D01*
X00394795Y02227404D01*
Y02240428D01*
X00394635Y02241236D01*
Y02243144D01*
X00394635Y02243144D01*
X00394188Y02245388D01*
X00392918Y0224729D01*
X00392917Y0224729D01*
X00389696Y02250511D01*
X00387794Y02251782D01*
X00386802Y0225198D01*
X00383392D01*
X003832Y02252229D01*
X00378847D01*
Y02256366D01*
D02*
G37*
G36*
X00921976Y02276509D02*
X00921975Y02276508D01*
X00921973Y02276509D01*
X00898741Y02276481D01*
X00898741Y02276481D01*
X00898741Y02276481D01*
X00898733D01*
X00898157Y02276366D01*
X0089757Y0227625D01*
X00897567Y02276248D01*
X00897562Y02276247D01*
X00897071Y02275918D01*
X00896577Y02275589D01*
X00891345Y02270371D01*
X00891018Y02269884D01*
X00890683Y02269387D01*
X00890682Y02269383D01*
X0089068Y0226938D01*
X00890564Y02268799D01*
X00890446Y02268217D01*
X008904Y02256814D01*
X00889127Y02255966D01*
X00887983Y0225644D01*
X00885596D01*
X00884423Y02255954D01*
X00883153Y02256802D01*
Y02258174D01*
X00882706Y02260418D01*
X00881435Y0226232D01*
X00876202Y02267554D01*
X008743Y02268824D01*
X00872056Y02269271D01*
X00854715D01*
Y02272908D01*
X00839715D01*
Y02253908D01*
X00854715D01*
Y02257545D01*
X00869628D01*
X00871427Y02255746D01*
Y02246093D01*
X00870254Y02245607D01*
X00868975Y02246886D01*
X00867982Y02247549D01*
X00866812Y02247782D01*
X00866812Y02247782D01*
X00837177D01*
Y02267263D01*
X00836944Y02268433D01*
X00836281Y02269425D01*
X00836281Y02269425D01*
X00832551Y02273156D01*
X00831558Y02273819D01*
X00830388Y02274052D01*
X00830387Y02274052D01*
X00809521D01*
X00809521Y02274052D01*
X0080835Y02273819D01*
X00807358Y02273156D01*
X00807358Y02273156D01*
X00803569Y02269367D01*
X00803016Y02269349D01*
X00802122Y02269543D01*
X00801177Y02271825D01*
X00800514Y02272817D01*
X00799521Y0227348D01*
X00798351Y02273713D01*
X00725917D01*
X00725917Y02273713D01*
X00724747Y0227348D01*
X00723754Y02272817D01*
X00721015Y02270078D01*
X00719637Y02270496D01*
X00719582Y02270772D01*
X0071872Y02272062D01*
X0071743Y02272924D01*
X00715909Y02273227D01*
X00705909D01*
X00704387Y02272924D01*
X00703097Y02272062D01*
X00702235Y02270772D01*
X00701932Y02269251D01*
Y02262051D01*
X00702235Y02260529D01*
X00702588Y02260001D01*
X00702235Y02259472D01*
X00701932Y02257951D01*
Y02250751D01*
X00702235Y02249229D01*
X00702588Y02248701D01*
X00702235Y02248172D01*
X00701932Y02246651D01*
Y02239451D01*
X00702235Y02237929D01*
X00702588Y02237401D01*
X00702235Y02236872D01*
X00701932Y02235351D01*
Y02228151D01*
X00702235Y02226629D01*
X00702588Y02226101D01*
X00702235Y02225572D01*
X00701932Y02224051D01*
Y02216851D01*
X00702235Y02215329D01*
X00702588Y02214801D01*
X00702235Y02214272D01*
X00701932Y02212751D01*
Y02205551D01*
X00702235Y02204029D01*
X00702588Y02203501D01*
X00702235Y02202972D01*
X00701932Y02201451D01*
Y02194251D01*
X00702235Y02192729D01*
X00702588Y02192201D01*
X00702235Y02191672D01*
X00701932Y02190151D01*
Y02182951D01*
X00702235Y02181429D01*
X00703097Y02180139D01*
X00704387Y02179277D01*
X00705909Y02178974D01*
X00715909D01*
X0071743Y02179277D01*
X0071872Y02180139D01*
X00718951Y02180485D01*
X00724308D01*
Y02165014D01*
X00720075Y02160781D01*
X00716131D01*
X00713936Y02160344D01*
X00712075Y02159101D01*
X00710832Y0215724D01*
X00710395Y02155046D01*
Y02149796D01*
X00710832Y02147601D01*
X00712075Y0214574D01*
X00713936Y02144497D01*
X00716131Y02144061D01*
X0072388D01*
X00726075Y02144497D01*
X00727936Y0214574D01*
X00729179Y02147601D01*
X00729616Y02149796D01*
Y0215374D01*
X00734316Y0215844D01*
X00735587Y02160342D01*
X00736033Y02162586D01*
X00736033Y02162586D01*
Y02183125D01*
X00736033Y02183126D01*
X00735755Y02184523D01*
X00736926Y02185149D01*
X00741864Y02180211D01*
Y02161014D01*
X00740743Y02160791D01*
X00738882Y02159548D01*
X00737639Y02157687D01*
X00737202Y02155492D01*
Y02150242D01*
X00737639Y02148048D01*
X00738882Y02146187D01*
X00740743Y02144944D01*
X00742938Y02144507D01*
X00750688D01*
X00752882Y02144944D01*
X00754743Y02146187D01*
X00755986Y02148048D01*
X00756423Y02150242D01*
Y02155492D01*
X00755986Y02157687D01*
X00754743Y02159548D01*
X00753589Y02160319D01*
Y02181433D01*
X00754859Y02181959D01*
X00761637Y02175181D01*
Y02111374D01*
X007615Y02111042D01*
Y02108656D01*
X00762413Y0210645D01*
X00764101Y02104762D01*
X00766306Y02103849D01*
X00768693D01*
X00770898Y02104762D01*
X00772586Y0210645D01*
X007735Y02108656D01*
Y02111042D01*
X00773362Y02111374D01*
Y02177609D01*
X00772916Y02179853D01*
X00771645Y02181755D01*
X00741192Y02212208D01*
X00741164Y02212545D01*
X00741601Y02213595D01*
X00741662Y02213597D01*
X00778103Y02177156D01*
Y02111374D01*
X00777966Y02111042D01*
Y02108656D01*
X00778879Y0210645D01*
X00780567Y02104762D01*
X00782773Y02103849D01*
X00785159D01*
X00787365Y02104762D01*
X00789053Y0210645D01*
X00789966Y02108656D01*
Y02111042D01*
X00789828Y02111374D01*
Y02179584D01*
X00789382Y02181828D01*
X00788111Y0218373D01*
X00747448Y02224393D01*
X00745546Y02225664D01*
X00743303Y0222611D01*
X00720647D01*
X00719732Y0222738D01*
X00719885Y02228151D01*
Y02235351D01*
X00719582Y02236872D01*
X00719229Y02237401D01*
X00719582Y02237929D01*
X00719885Y02239451D01*
Y02246651D01*
X00719873Y0224671D01*
X00720679Y02247692D01*
X00797411D01*
X00797411Y02247692D01*
X00798582Y02247925D01*
X00799574Y02248588D01*
X00799574Y02248588D01*
X00801386Y022504D01*
X00802559Y02249914D01*
Y02244723D01*
Y02219079D01*
X00802792Y02217909D01*
X00803455Y02216917D01*
X00804447Y02216254D01*
X00805618Y02216021D01*
X0088084D01*
Y02198882D01*
X00890427D01*
Y02186879D01*
X00890874Y02184635D01*
X00892144Y02182733D01*
X00905921Y02168957D01*
Y0213106D01*
X00906154Y02129889D01*
X00906817Y02128897D01*
X00907809Y02128234D01*
X0090898Y02128001D01*
X00925191Y02128001D01*
X00926362Y02128234D01*
X00927354Y02128897D01*
X00928017Y0212989D01*
X0092825Y0213106D01*
Y02196711D01*
X00928187Y02197029D01*
X00928182Y02197353D01*
X00928072Y02197608D01*
X00928017Y02197881D01*
X00927837Y02198151D01*
X00927708Y02198449D01*
X00927509Y02198642D01*
X00927354Y02198874D01*
X00927085Y02199054D01*
X00926852Y02199279D01*
X00913401Y02207974D01*
X00913887Y02209172D01*
X00914351Y0220908D01*
X00919601D01*
X00921796Y02209516D01*
X00923657Y0221076D01*
X009249Y0221262D01*
X00925337Y02214815D01*
Y02222565D01*
X00925102Y02223743D01*
X00925035Y02227014D01*
Y0223616D01*
X00925337Y02237675D01*
Y02245425D01*
X00925035Y0224694D01*
Y0227345D01*
X00925035Y02273452D01*
X00925035Y02273454D01*
X00924976Y02273747D01*
Y0227645D01*
X00922272D01*
X00921976Y02276509D01*
D02*
G37*
G36*
X0060339Y02262148D02*
X0058739D01*
Y02246147D01*
X0060339D01*
Y02246885D01*
X0060466Y02247563D01*
X00605387Y02247077D01*
X00606909Y02246774D01*
X00616909D01*
X0061843Y02247077D01*
X0061972Y02247939D01*
X00620582Y02249229D01*
X00620885Y02250751D01*
Y02257951D01*
X00620582Y02259472D01*
X0061972Y02260762D01*
X0061843Y02261624D01*
X00616909Y02261927D01*
X00606909D01*
X00605387Y02261624D01*
X0060466Y02261139D01*
X0060339Y02261816D01*
Y02262148D01*
D02*
G37*
G36*
X00943101Y022029D02*
X00937851D01*
X00935657Y02202464D01*
X00933796Y0220122D01*
X00932553Y0219936D01*
X00932116Y02197165D01*
Y02189415D01*
X00932553Y0218722D01*
X00933796Y0218536D01*
X00935657Y02184116D01*
X00937851Y0218368D01*
X00943101D01*
X00945296Y02184116D01*
X00947157Y0218536D01*
X009484Y0218722D01*
X00948837Y02189415D01*
Y02191457D01*
X00949101Y02192097D01*
Y02194483D01*
X00948837Y02195123D01*
Y02197165D01*
X009484Y0219936D01*
X00947157Y0220122D01*
X00945296Y02202464D01*
X00943101Y022029D01*
D02*
G37*
G36*
X00616909Y02239327D02*
X00606909D01*
X00605387Y02239024D01*
X00604097Y02238162D01*
X00603235Y02236872D01*
X00602932Y02235351D01*
Y02228151D01*
X00603235Y02226629D01*
X00603588Y02226101D01*
X00603235Y02225572D01*
X00602932Y02224051D01*
Y02216851D01*
X00603235Y02215329D01*
X00603588Y02214801D01*
X00603235Y02214272D01*
X00602932Y02212751D01*
Y02205551D01*
X00603235Y02204029D01*
X00603588Y02203501D01*
X00603235Y02202972D01*
X00602932Y02201451D01*
Y02194251D01*
X00603235Y02192729D01*
X00603588Y02192201D01*
X00603235Y02191672D01*
X00602932Y02190151D01*
Y02182951D01*
X00603235Y02181429D01*
X00603588Y02180901D01*
X00603235Y02180372D01*
X00602932Y02178851D01*
Y02171651D01*
X00603235Y02170129D01*
X00604097Y02168839D01*
X00605387Y02167977D01*
X00606909Y02167674D01*
X00616909D01*
X0061843Y02167977D01*
X0061972Y02168839D01*
X00620582Y02170129D01*
X00620885Y02171651D01*
Y02178851D01*
X00620582Y02180372D01*
X00620229Y02180901D01*
X00620582Y02181429D01*
X00620885Y02182951D01*
Y02190151D01*
X00620582Y02191672D01*
X00620229Y02192201D01*
X00620582Y02192729D01*
X00620885Y02194251D01*
Y02201451D01*
X00620582Y02202972D01*
X00620229Y02203501D01*
X00620582Y02204029D01*
X00620885Y02205551D01*
Y02212751D01*
X00620582Y02214272D01*
X00620229Y02214801D01*
X00620582Y02215329D01*
X00620885Y02216851D01*
Y02224051D01*
X00620582Y02225572D01*
X00620229Y02226101D01*
X00620582Y02226629D01*
X00620885Y02228151D01*
Y02235351D01*
X00620582Y02236872D01*
X0061972Y02238162D01*
X0061843Y02239024D01*
X00616909Y02239327D01*
D02*
G37*
G36*
X00947976Y0227645D02*
X00932976D01*
Y0225745D01*
X00934614D01*
Y02250027D01*
X00933796Y0224948D01*
X00932553Y0224762D01*
X00932116Y02245425D01*
Y02237675D01*
X00932553Y0223548D01*
X00933796Y0223362D01*
X00935657Y02232376D01*
X00937851Y0223194D01*
X00943101D01*
X00945296Y02232376D01*
X00947157Y0223362D01*
X009484Y0223548D01*
X00948837Y02237675D01*
Y02245425D01*
X009484Y0224762D01*
X00947157Y0224948D01*
X00946339Y02250027D01*
Y0225745D01*
X00947976D01*
Y02261088D01*
X00952785D01*
Y0213335D01*
X00947804Y02128369D01*
X0094386D01*
X00941665Y02127933D01*
X00939804Y02126689D01*
X00938561Y02124829D01*
X00938124Y02122634D01*
Y02117384D01*
X00938561Y02115189D01*
X00939804Y02113329D01*
X00941665Y02112086D01*
X0094386Y02111649D01*
X0095161D01*
X00953804Y02112086D01*
X00955665Y02113329D01*
X00956908Y02115189D01*
X00957345Y02117384D01*
Y02121328D01*
X00962793Y02126776D01*
X00964063Y02128678D01*
X0096451Y02130922D01*
Y02261671D01*
X00964662Y02261823D01*
X00964762Y02261865D01*
X0096645Y02263553D01*
X00967364Y02265758D01*
Y02268145D01*
X0096645Y0227035D01*
X00964762Y02272038D01*
X00962557Y02272952D01*
X0096017D01*
X00959837Y02272813D01*
X00947976D01*
Y0227645D01*
D02*
G37*
G36*
X0072388Y02137281D02*
X00716131D01*
X00713936Y02136844D01*
X00712075Y02135601D01*
X00710832Y02133741D01*
X00710395Y02131546D01*
Y02126296D01*
X00710832Y02124101D01*
X00712075Y0212224D01*
X00713936Y02120997D01*
X00714143Y02120956D01*
Y02112986D01*
X00714006Y02112654D01*
Y02110267D01*
X00714919Y02108062D01*
X00716607Y02106374D01*
X00718812Y02105461D01*
X00721199D01*
X00723404Y02106374D01*
X00725092Y02108062D01*
X00726005Y02110267D01*
Y02112654D01*
X00725868Y02112986D01*
Y02120956D01*
X00726075Y02120997D01*
X00727936Y0212224D01*
X00729179Y02124101D01*
X00729616Y02126296D01*
Y02131546D01*
X00729179Y02133741D01*
X00727936Y02135601D01*
X00726075Y02136844D01*
X0072388Y02137281D01*
D02*
G37*
G36*
X00750688Y02137728D02*
X00742938D01*
X00740743Y02137291D01*
X00738882Y02136048D01*
X00737639Y02134187D01*
X00737202Y02131992D01*
Y02126742D01*
X00737639Y02124548D01*
X00738882Y02122687D01*
X00740743Y02121444D01*
X0074103Y02121387D01*
Y02112245D01*
X00740973Y02112107D01*
Y0210972D01*
X00741886Y02107515D01*
X00743574Y02105827D01*
X00745779Y02104913D01*
X00748166D01*
X00750371Y02105827D01*
X00752059Y02107515D01*
X00752973Y0210972D01*
Y02112107D01*
X00752755Y02112632D01*
Y02121418D01*
X00752882Y02121444D01*
X00754743Y02122687D01*
X00755986Y02124548D01*
X00756423Y02126742D01*
Y02131992D01*
X00755986Y02134187D01*
X00754743Y02136048D01*
X00752882Y02137291D01*
X00750688Y02137728D01*
D02*
G37*
G36*
X0066814Y02145386D02*
X0065054D01*
Y02124686D01*
X00653254D01*
Y02111711D01*
X00650893D01*
Y02091711D01*
X00666893D01*
Y02111711D01*
X00664979D01*
Y02124686D01*
X0066814D01*
Y02145386D01*
D02*
G37*
G36*
X00922556Y0210953D02*
X00905556D01*
Y0209053D01*
X00922556D01*
Y02094167D01*
X00938124D01*
Y02093884D01*
X00938561Y02091689D01*
X00939804Y02089829D01*
X00941665Y02088586D01*
X0094386Y02088149D01*
X0095161D01*
X00953804Y02088586D01*
X00955665Y02089829D01*
X00956908Y02091689D01*
X00957345Y02093884D01*
Y02099134D01*
X00956908Y02101329D01*
X00955665Y0210319D01*
X00953804Y02104433D01*
X0095161Y02104869D01*
X00946071D01*
X00945208Y02105446D01*
X00942964Y02105892D01*
X00922556D01*
Y0210953D01*
D02*
G37*
G36*
X00648894Y02111711D02*
X00632893D01*
Y02091711D01*
X00634201D01*
X00634906Y02090656D01*
X00634893Y02090625D01*
Y02088238D01*
X00635807Y02086033D01*
X00637495Y02084345D01*
X006397Y02083431D01*
X00642087D01*
X00644292Y02084345D01*
X0064598Y02086033D01*
X00646893Y02088238D01*
Y02090625D01*
X00646881Y02090656D01*
X00647586Y02091711D01*
X00648894D01*
Y02111711D01*
D02*
G37*
G36*
X00643276Y02081962D02*
X00640889D01*
X00638684Y02081049D01*
X00636996Y02079361D01*
X00636082Y02077156D01*
Y02074769D01*
X00636996Y02072564D01*
X00638684Y02070876D01*
X00640889Y02069962D01*
X00643276D01*
X00645481Y02070876D01*
X00647169Y02072564D01*
X00648082Y02074769D01*
Y02077156D01*
X00647169Y02079361D01*
X00645481Y02081049D01*
X00643276Y02081962D01*
D02*
G37*
G36*
X00964858Y02057434D02*
X00924819D01*
X00924798Y0205743D01*
X00924776Y02057434D01*
X00924213Y02057314D01*
X00923649Y02057201D01*
X00923631Y02057189D01*
X00923609Y02057184D01*
X00923135Y02056858D01*
X00922657Y02056538D01*
X00922644Y0205652D01*
X00922626Y02056507D01*
X00922313Y02056024D01*
X00921994Y02055546D01*
X00921989Y02055524D01*
X00921977Y02055505D01*
X00921873Y02054939D01*
X00921761Y02054375D01*
X00921765Y02054354D01*
X00921761Y02054332D01*
X00923294Y01947135D01*
X00923298Y01947115D01*
X00923295Y01947095D01*
X00923418Y01946553D01*
X00923527Y01946009D01*
X00923539Y0194599D01*
X00923544Y01945968D01*
X00923555Y01945952D01*
X0092356Y01945932D01*
X00935914Y01918275D01*
Y01828105D01*
X00935487Y01809433D01*
X00935493Y01809398D01*
X00935486Y01809363D01*
X00935595Y01808811D01*
X00935693Y01808257D01*
X00935712Y01808227D01*
X00935719Y01808192D01*
X00936031Y01807724D01*
X00936333Y0180725D01*
X00936362Y01807229D01*
X00936382Y018072D01*
X00936401Y01807186D01*
Y01806363D01*
X00938214D01*
X00938475Y01806305D01*
X0093851Y01806311D01*
X00938544Y01806304D01*
X00948401D01*
X00948401Y01806304D01*
X00948697Y01806363D01*
X00951401D01*
Y01808037D01*
X0095752Y01814156D01*
X00958441Y01813313D01*
X0095717Y01811411D01*
X00956724Y01809167D01*
Y01801152D01*
X00952784Y01797213D01*
X00951504D01*
X00951463Y0179742D01*
X0095022Y0179928D01*
X00948359Y01800524D01*
X00946165Y0180096D01*
X00940915D01*
X0093872Y01800524D01*
X00936859Y0179928D01*
X00935616Y0179742D01*
X00935179Y01795225D01*
Y01787475D01*
X00935616Y0178528D01*
X00936859Y0178342D01*
X0093872Y01782176D01*
X00940915Y0178174D01*
X00946165D01*
X00948359Y01782176D01*
X0095022Y0178342D01*
X00951463Y0178528D01*
X00951504Y01785487D01*
X00955212D01*
X00957456Y01785934D01*
X00959358Y01787204D01*
X00966732Y01794579D01*
X00968003Y01796481D01*
X00968449Y01798724D01*
Y01806739D01*
X0097932Y0181761D01*
X00979768Y01817542D01*
X00980376Y01816166D01*
X00980058Y01815691D01*
X00979593Y0181335D01*
X00980058Y01811009D01*
X00981384Y01809024D01*
X00982191Y01808485D01*
Y01807215D01*
X00981384Y01806676D01*
X00980058Y01804691D01*
X00979593Y0180235D01*
X00980058Y01800009D01*
X00981384Y01798024D01*
X00982191Y01797485D01*
Y01796215D01*
X00981384Y01795676D01*
X00980058Y01793691D01*
X00979593Y0179135D01*
X00980058Y01789009D01*
X00981384Y01787024D01*
X00983369Y01785698D01*
X0098571Y01785233D01*
X0099571D01*
X00996992Y01785487D01*
X01065699D01*
X01067943Y01785934D01*
X010684Y01786239D01*
X01069781Y01786811D01*
X01071469Y01788499D01*
X01072383Y01790704D01*
Y01793091D01*
X01071469Y01795297D01*
X01069781Y01796984D01*
X01069781Y01796986D01*
X01069738Y01798377D01*
X01071186Y01799825D01*
X01072099Y01802031D01*
Y01804418D01*
X01071186Y01806623D01*
X01069498Y01808311D01*
X01067293Y01809224D01*
X01064906D01*
X01062701Y01808311D01*
X01062603Y01808213D01*
X01015862D01*
X01015336Y01809483D01*
X01016374Y01810521D01*
X01017288Y01812726D01*
Y01815113D01*
X01016374Y01817318D01*
X01014687Y01819006D01*
X01012481Y01819919D01*
X01010094D01*
X01008388Y01819213D01*
X01000933D01*
X01000342Y01820483D01*
X01001362Y01822009D01*
X01001827Y0182435D01*
X01001362Y01826691D01*
X01000036Y01828676D01*
X00999229Y01829215D01*
Y01830485D01*
X01000036Y01831024D01*
X01001362Y01833009D01*
X01001827Y0183535D01*
X01001362Y01837691D01*
X01000036Y01839676D01*
X00998051Y01841002D01*
X0099571Y01841467D01*
X0098571D01*
X00983369Y01841002D01*
X00981384Y01839676D01*
X00980058Y01837691D01*
X00979593Y0183535D01*
X00980058Y01833009D01*
X00981142Y01831387D01*
X0098063Y01830117D01*
X00977674D01*
X0097543Y01829671D01*
X00973528Y018284D01*
X00967948Y0182282D01*
X00967028Y01823663D01*
X00967691Y01824655D01*
X00967923Y01825826D01*
X00967923Y01825826D01*
Y0182807D01*
Y01862487D01*
X00984428D01*
X0098571Y01862233D01*
X0099571D01*
X00998051Y01862698D01*
X01000036Y01864024D01*
X01001362Y01866009D01*
X01001827Y0186835D01*
X01001362Y01870691D01*
X01000036Y01872676D01*
X00999229Y01873215D01*
Y01874485D01*
X01000036Y01875024D01*
X01001362Y01877009D01*
X01001827Y0187935D01*
X01001362Y01881691D01*
X01000036Y01883676D01*
X00998051Y01885002D01*
X0099571Y01885468D01*
X0098571D01*
X00984428Y01885213D01*
X00967923D01*
Y01917002D01*
X00967923Y01917003D01*
X00967918Y01917029D01*
X00968003Y01921163D01*
X00967997Y01921195D01*
X00968003Y01921226D01*
X00967917Y0192166D01*
Y01947179D01*
Y02054375D01*
X00967684Y02055546D01*
X00967021Y02056538D01*
X00966029Y02057201D01*
X00965612Y02057284D01*
Y02057375D01*
X00965154D01*
X00964858Y02057434D01*
D02*
G37*
G36*
X00556456Y02076808D02*
X00554212Y02076362D01*
X0055231Y02075091D01*
X0055231Y02075091D01*
X00541459Y0206424D01*
X0052975D01*
Y0204824D01*
X0054975D01*
Y02055949D01*
X00558884Y02065083D01*
X00580621D01*
X00588675Y02057029D01*
Y0205032D01*
X00607675D01*
Y0206532D01*
X00596966D01*
X00587195Y02075091D01*
X00585293Y02076362D01*
X00583049Y02076808D01*
X00556456D01*
X00556456Y02076808D01*
D02*
G37*
G36*
X0034314Y02046122D02*
X0032742D01*
Y02045256D01*
X00322792D01*
X00322229Y02045489D01*
X00319842D01*
X00317637Y02044576D01*
X00315949Y02042888D01*
X00315035Y02040683D01*
Y02038296D01*
X00315949Y0203609D01*
X00317637Y02034403D01*
X00319842Y02033489D01*
X00322229D01*
X0032233Y02033531D01*
X0032742D01*
Y02032102D01*
X0034314D01*
Y02046122D01*
D02*
G37*
G36*
X00862618Y02204782D02*
X00805618D01*
X00805322Y02204723D01*
X00802618D01*
Y02202553D01*
X00802427Y02201591D01*
X00802427Y0220159D01*
Y02172878D01*
X00802427Y02172878D01*
X00802427Y02172878D01*
X00802427Y02042177D01*
X00802427Y02042177D01*
X00802659Y02041007D01*
X00803322Y02040014D01*
X00803323Y02040014D01*
X00806763Y02036574D01*
X00807755Y02035911D01*
X00808926Y02035678D01*
X00808926Y02035678D01*
X00832358Y02035678D01*
X00841624D01*
X00842794Y02035911D01*
X00843787Y02036574D01*
X00843787Y02036574D01*
X00848063Y0204085D01*
X00848726Y02041842D01*
X00848959Y02043013D01*
X00848959Y02043013D01*
Y02174567D01*
X00863256Y02178723D01*
X00865618D01*
Y0218126D01*
X00865658Y02181388D01*
X00865644Y02181557D01*
X00865677Y02181723D01*
Y02201723D01*
X00865618Y02202019D01*
Y02204723D01*
X00862914D01*
X00862618Y02204782D01*
D02*
G37*
G36*
X01024771Y02049201D02*
X01022384D01*
X01020178Y02048287D01*
X01018491Y02046599D01*
X01017577Y02044394D01*
Y02042007D01*
X01017977Y02041041D01*
Y02034868D01*
X01017303Y02034417D01*
X0101654Y02033276D01*
X01016272Y0203193D01*
Y0201483D01*
X0101654Y02013484D01*
X01017303Y02012343D01*
X01018444Y0201158D01*
X0101979Y02011312D01*
X0102789D01*
X01029236Y0201158D01*
X01030377Y02012343D01*
X0103114Y02013484D01*
X01031408Y0201483D01*
Y0203193D01*
X0103114Y02033276D01*
X01030377Y02034417D01*
X01029703Y02034868D01*
Y02042802D01*
X01029577Y02043434D01*
Y02044394D01*
X01028664Y02046599D01*
X01026976Y02048287D01*
X01024771Y02049201D01*
D02*
G37*
G36*
X0114279Y02035448D02*
X0113469D01*
X01133344Y0203518D01*
X01132203Y02034417D01*
X0113144Y02033276D01*
X01131172Y0203193D01*
Y0201483D01*
X0113144Y02013484D01*
X01132203Y02012343D01*
X01133344Y0201158D01*
X0113399Y02011452D01*
X01134107Y02010664D01*
X01132927Y02009961D01*
X01132149Y02010481D01*
X01129905Y02010927D01*
X01119445D01*
X0111906Y02012198D01*
X01119277Y02012343D01*
X0112004Y02013484D01*
X01120308Y0201483D01*
Y0203193D01*
X0112004Y02033276D01*
X01119277Y02034417D01*
X01118136Y0203518D01*
X0111679Y02035448D01*
X0110869D01*
X01107344Y0203518D01*
X0110639Y02034542D01*
X01105436Y0203518D01*
X0110409Y02035448D01*
X0109599D01*
X01094644Y0203518D01*
X0109369Y02034542D01*
X01092736Y0203518D01*
X0109139Y02035448D01*
X0108329D01*
X01081944Y0203518D01*
X0108099Y02034542D01*
X01080036Y0203518D01*
X0107869Y02035448D01*
X0107059D01*
X01069244Y0203518D01*
X0106829Y02034542D01*
X01067336Y0203518D01*
X0106599Y02035448D01*
X0105789D01*
X01056544Y0203518D01*
X0105559Y02034542D01*
X01054636Y0203518D01*
X0105329Y02035448D01*
X0104519D01*
X01043844Y0203518D01*
X01042703Y02034417D01*
X0104194Y02033276D01*
X01041672Y0203193D01*
Y0201483D01*
X0104194Y02013484D01*
X01042703Y02012343D01*
X01043377Y02011892D01*
Y0199783D01*
X01043566Y01996881D01*
X01042491Y01995774D01*
X01024173D01*
Y01980774D01*
X01043173D01*
Y01982209D01*
X01051838D01*
X0105252Y0198119D01*
X0105438Y01979946D01*
X01056575Y0197951D01*
X01064325D01*
X0106652Y01979946D01*
X0106838Y0198119D01*
X01069624Y0198305D01*
X0107006Y01985245D01*
Y01990495D01*
X01069624Y0199269D01*
X0106838Y0199455D01*
X0106652Y01995794D01*
X01064325Y0199623D01*
X01059131D01*
X01055103Y02000258D01*
Y02011016D01*
X01056373Y02011695D01*
X01056544Y0201158D01*
X0105789Y02011312D01*
X0106599D01*
X01067336Y0201158D01*
X01067507Y02011695D01*
X01068777Y02011016D01*
Y0199937D01*
X01069224Y01997126D01*
X01070495Y01995224D01*
X0107889Y01986829D01*
Y0198012D01*
X0109789D01*
Y01981882D01*
X01110477D01*
X0111094Y0198119D01*
X011128Y01979946D01*
X01114995Y0197951D01*
X01122745D01*
X0112494Y01979946D01*
X011268Y0198119D01*
X01128044Y0198305D01*
X0112848Y01985245D01*
Y01990495D01*
X01128044Y0199269D01*
X011268Y0199455D01*
X0112494Y01995794D01*
X01122745Y0199623D01*
X01114995D01*
X011128Y01995794D01*
X0111094Y0199455D01*
X0111031Y01993608D01*
X0109789D01*
Y0199512D01*
X01087181D01*
X01080503Y02001798D01*
Y02011016D01*
X01081773Y02011695D01*
X01081944Y0201158D01*
X0108329Y02011312D01*
X01083556D01*
X01083674Y02010718D01*
X01084945Y02008816D01*
X01092841Y02000919D01*
X01094743Y01999649D01*
X01096987Y01999202D01*
X01127477D01*
X0113858Y01988099D01*
Y0198139D01*
X0115758D01*
Y01982517D01*
X01167202D01*
X0116809Y0198119D01*
X0116995Y01979946D01*
X01172145Y0197951D01*
X01179895D01*
X0118209Y01979946D01*
X0118395Y0198119D01*
X01185194Y0198305D01*
X0118563Y01985245D01*
Y01990495D01*
X01185194Y0199269D01*
X0118395Y0199455D01*
X01182579Y01995466D01*
X01182965Y01996736D01*
X01195105D01*
X01195689Y01996053D01*
X01195469Y01994545D01*
X0119476Y0199407D01*
X01193516Y0199221D01*
X0119308Y01990015D01*
Y01984765D01*
X01193516Y0198257D01*
X0119476Y0198071D01*
X0119662Y01979466D01*
X01198815Y0197903D01*
X01206565D01*
X0120876Y01979466D01*
X0121062Y0198071D01*
X01211864Y0198257D01*
X012123Y01984765D01*
Y01990015D01*
X01211864Y0199221D01*
X0121062Y0199407D01*
X01209642Y01994724D01*
Y01997276D01*
X01209196Y01999519D01*
X01207925Y02001421D01*
X01207925Y02001421D01*
X01202601Y02006745D01*
X01200699Y02008015D01*
X01198456Y02008462D01*
X01149933D01*
X01146353Y02012042D01*
Y0202163D01*
X01146308Y02021857D01*
Y0203193D01*
X0114604Y02033276D01*
X01145277Y02034417D01*
X01144136Y0203518D01*
X0114279Y02035448D01*
D02*
G37*
G36*
X00462799Y02052881D02*
X00462799Y02052881D01*
X004266D01*
X00425429Y02052648D01*
X00424437Y02051985D01*
X00423774Y02050992D01*
X00423541Y02049822D01*
Y02040809D01*
X00423124Y02024123D01*
X0042313Y02024084D01*
X00423123Y02024046D01*
X00423232Y02023498D01*
X00423327Y02022947D01*
X00423348Y02022914D01*
X00423356Y02022876D01*
X00423541Y02022598D01*
Y0201827D01*
X00423774Y02017099D01*
X00424437Y02016107D01*
X00425429Y02015444D01*
X004266Y02015211D01*
X00462667D01*
X00463838Y02015444D01*
X0046483Y02016107D01*
X00465493Y02017099D01*
X00465726Y0201827D01*
Y02020987D01*
X00533887D01*
Y01996452D01*
X00533369Y01996349D01*
X00532278Y01995619D01*
X00531548Y01994528D01*
X00531292Y0199324D01*
Y0198934D01*
X00531548Y01988052D01*
X00531563Y01988031D01*
X00531459Y0198741D01*
X00530978Y0198662D01*
X00530707Y01986566D01*
X00530707Y01986566D01*
X00530707Y01986566D01*
X0053024Y01986373D01*
X00529706Y01986016D01*
X00528581Y01986197D01*
X0052821Y01986468D01*
X00527639Y01987322D01*
X00526548Y01988052D01*
X0052526Y01988308D01*
X0052136D01*
X00520457Y01988128D01*
X0046987D01*
Y0199272D01*
X0045237D01*
Y0197222D01*
X00455257D01*
Y0196732D01*
X0045237D01*
Y0194682D01*
X0046987D01*
Y0196732D01*
X00466983D01*
Y0197222D01*
X0046987D01*
Y01978952D01*
X00517995D01*
Y01977543D01*
X00518002Y01977511D01*
X00517196Y01976529D01*
X00512867D01*
X00512866Y01976529D01*
X00512277Y01976412D01*
X00495082D01*
X00493911Y01976179D01*
X00492919Y01975516D01*
X00488423Y0197102D01*
X0048776Y01970028D01*
X00487527Y01968857D01*
X00487527Y01968857D01*
Y01950547D01*
X00487527Y01944433D01*
X0045537D01*
X00454199Y019442D01*
X00453207Y01943537D01*
X00452544Y01942544D01*
X00452311Y01941374D01*
Y01905992D01*
X0045237Y01905696D01*
Y0189221D01*
X0046987D01*
Y01903303D01*
X00503682D01*
X00503978Y01903362D01*
X0050428D01*
Y01903422D01*
X00504852Y01903536D01*
X00505845Y01904199D01*
X00506508Y01905191D01*
X00506741Y01906362D01*
Y01931061D01*
X00508011Y01931558D01*
X00517437Y01922132D01*
X00516911Y01920862D01*
X0051272D01*
Y01903362D01*
X0053322D01*
Y0190987D01*
X00534104Y0191038D01*
X00535845Y01912121D01*
X00537076Y01914253D01*
X00537713Y01916631D01*
Y01919093D01*
X00537076Y01921471D01*
X00535845Y01923603D01*
X00534104Y01925344D01*
X00531972Y01926575D01*
X00529594Y01927212D01*
X00527132D01*
X00525714Y01926832D01*
X00515492Y01937054D01*
Y01957713D01*
X00516731Y01958952D01*
X0052331D01*
X0052445Y01959179D01*
X0052526D01*
X00526548Y01959435D01*
X00526765Y0195958D01*
X00527691Y01959674D01*
X0052839Y01959176D01*
X00528697Y01958717D01*
X00528697Y01958717D01*
X0053004Y01957375D01*
X00529755Y0195643D01*
X00529537Y01956081D01*
X00528369Y01955849D01*
X00527278Y01955119D01*
X00526548Y01954028D01*
X00526292Y0195274D01*
Y0194884D01*
X00526548Y01947552D01*
X00527278Y01946461D01*
X00528369Y01945732D01*
X00529657Y01945475D01*
X00532057D01*
X00533344Y01945732D01*
X00533357Y0194574D01*
X00533369Y01945732D01*
X00534657Y01945475D01*
X00536472D01*
Y01933877D01*
X00536821Y01932121D01*
X00537816Y01930632D01*
X00545909Y01922539D01*
Y01920111D01*
X00540497D01*
Y01904111D01*
X00560497D01*
Y01920111D01*
X00555085D01*
Y0192444D01*
X00554736Y01926196D01*
X00553741Y01927684D01*
X00550564Y01930862D01*
X00550862Y0193236D01*
X00551809Y01932752D01*
X00553497Y0193444D01*
X00553879Y01935363D01*
X00555125Y01935611D01*
X00563781Y01926956D01*
X00565269Y01925961D01*
X00567025Y01925612D01*
X0057202D01*
X00573628Y01924004D01*
Y01920112D01*
X0056785D01*
Y01904112D01*
X0058785D01*
Y01920112D01*
X00582804D01*
Y01925904D01*
X00582455Y0192766D01*
X0058146Y01929149D01*
X0058084Y01929769D01*
X00581258Y01931147D01*
X00581382Y01931171D01*
X00594515Y01918038D01*
Y01904366D01*
X00614515D01*
Y01920366D01*
X00603855D01*
X00603652Y01921384D01*
X00602658Y01922872D01*
X00585756Y01939774D01*
X00584267Y01940769D01*
X00582511Y01941118D01*
X0057222D01*
X00560377Y01952961D01*
X00560332Y01953188D01*
X00561413Y01954268D01*
X0056186Y01954179D01*
X0056576D01*
X00567048Y01954435D01*
X00568139Y01955164D01*
X00568868Y01956256D01*
X00569125Y01957543D01*
Y01959943D01*
X00568868Y01961231D01*
X0056886Y01961243D01*
X00568868Y01961256D01*
X00569125Y01962543D01*
Y01963952D01*
X00598009D01*
X0061662Y01945341D01*
Y0193183D01*
X0063262D01*
Y0195183D01*
X00623109D01*
X00618882Y01956057D01*
X00619368Y0195723D01*
X0063262D01*
Y0197723D01*
X0061662D01*
Y01971817D01*
X00613416D01*
X00603448Y01981784D01*
X00601959Y01982779D01*
X00600204Y01983128D01*
X00579437D01*
X00578731Y01984184D01*
X00578946Y01984702D01*
Y01987089D01*
X00578032Y01989295D01*
X00576345Y01990983D01*
X00574139Y01991896D01*
X00571752D01*
X00569547Y01990983D01*
X00568475Y0198991D01*
X00565592D01*
X00563836Y01989561D01*
X00562348Y01988566D01*
X00562089Y01988308D01*
X0056186D01*
X00561497Y01988236D01*
X00560417Y01989316D01*
X00560421Y0198934D01*
Y01991172D01*
X00560445Y0199129D01*
Y02009544D01*
X00561482Y02010581D01*
X00562395Y02012786D01*
Y02015173D01*
X00561482Y02017378D01*
X00559794Y02019066D01*
X00558222Y02019717D01*
X00558474Y02020987D01*
X0057423D01*
X005825Y02012717D01*
X00584403Y02011446D01*
X00586646Y02011D01*
X00616632D01*
Y0200905D01*
X00619138D01*
Y0200263D01*
X0061662D01*
Y0198263D01*
X0063262D01*
Y0200263D01*
X00630864D01*
Y02008152D01*
X00631762Y0200905D01*
X00634132Y0200905D01*
X00635402Y0200905D01*
X00644081D01*
X00645864Y02008311D01*
X00648251D01*
X00650034Y0200905D01*
X00652132D01*
Y020109D01*
X00652144Y02010913D01*
X00653058Y02013118D01*
Y02015505D01*
X00652144Y0201771D01*
X00652132Y02017722D01*
Y0202955D01*
X00635402D01*
X00634632Y0202955D01*
X00633362Y0202955D01*
X00616632D01*
Y02022725D01*
X00589074D01*
X00579275Y02032524D01*
Y02039581D01*
X00579477Y02040592D01*
X00579244Y02041763D01*
X00578581Y02042755D01*
X00578581Y02042755D01*
X0057769Y02043646D01*
Y0204532D01*
X00574986D01*
X0057469Y02045379D01*
X0057469Y02045379D01*
X0054975D01*
Y0204624D01*
X0052975D01*
Y02045379D01*
X00465726D01*
Y02049158D01*
X00465858Y02049822D01*
X00465625Y02050992D01*
X00464962Y02051985D01*
X00463969Y02052648D01*
X00462799Y02052881D01*
D02*
G37*
G36*
X00270822Y02021157D02*
X00267658D01*
X00264602Y02020338D01*
X00261861Y02018756D01*
X00259624Y02016519D01*
X00258042Y02013778D01*
X00257223Y02010722D01*
Y02007558D01*
X00258042Y02004502D01*
X00259624Y02001761D01*
X00261861Y01999524D01*
X00264602Y01997942D01*
X00267658Y01997123D01*
X00270822D01*
X00273878Y01997942D01*
X00276619Y01999524D01*
X00278856Y02001761D01*
X00280438Y02004502D01*
X00281257Y02007558D01*
Y02010722D01*
X00280438Y02013778D01*
X00278856Y02016519D01*
X00276619Y02018756D01*
X00273878Y02020338D01*
X00270822Y02021157D01*
D02*
G37*
G36*
X004111Y02054996D02*
X0035545D01*
X0035428Y02054763D01*
X00353288Y020541D01*
X00353288Y020541D01*
X00347087Y020479D01*
X00347087Y020479D01*
X00346424Y02046907D01*
X00346191Y02045737D01*
X00346191Y02045737D01*
Y01992903D01*
X00346424Y01991732D01*
X00347087Y0199074D01*
X00348079Y01990077D01*
X0034925Y01989844D01*
X00349552Y01988635D01*
Y0198664D01*
X00348379Y01986154D01*
X00342727Y01991806D01*
Y02001567D01*
X00342865Y02001899D01*
Y02004286D01*
X00341951Y02006491D01*
X00340263Y02008179D01*
X00338058Y02009092D01*
X00335671D01*
X0033393Y02008371D01*
X00333211Y02009448D01*
X00336561Y02012798D01*
X0034314D01*
Y02026818D01*
X0032742D01*
Y02020239D01*
X00321047Y02013866D01*
X00319776Y02011964D01*
X0031933Y0200972D01*
Y01956704D01*
X00315357Y01952732D01*
X00311978D01*
Y01953679D01*
X0029404D01*
Y01951891D01*
X00292589Y01951602D01*
X00290686Y01950332D01*
X00290686Y01950331D01*
X00286321Y01945966D01*
X0028505Y01944064D01*
X00284604Y01941821D01*
Y01921704D01*
X0028505Y01919461D01*
X00286321Y01917559D01*
X00290495Y01913385D01*
X00292397Y01912114D01*
X00294041Y01911787D01*
Y0190966D01*
X00311979D01*
Y01920807D01*
X00314444D01*
X00328047Y01907204D01*
X00329949Y01905934D01*
X00332192Y01905487D01*
X00351554D01*
Y01903032D01*
X00351028Y01901973D01*
X00348784Y01901526D01*
X00346883Y01900255D01*
X00333844Y01887218D01*
X00332574Y01885316D01*
X00332127Y01883072D01*
Y01867988D01*
X00330857Y01867352D01*
X00330231Y01867772D01*
Y01872422D01*
X00312631D01*
Y01851722D01*
X00330231D01*
Y01856373D01*
X00330857Y01856793D01*
X00332127Y01856157D01*
Y01854722D01*
X00332574Y01852479D01*
X00333844Y01850577D01*
X00337485Y01846937D01*
X00339386Y01845666D01*
X0034163Y0184522D01*
X0034639D01*
Y01836832D01*
X0036239D01*
Y01856832D01*
X00352706D01*
X0035214Y01856945D01*
X00344058D01*
X00343853Y01857151D01*
Y01880644D01*
X00353456Y01890247D01*
X00383131D01*
X00383103Y01890343D01*
X00405625D01*
X00405721Y01890247D01*
X00412692D01*
X00437645Y01865294D01*
X00439547Y01864024D01*
X0044179Y01863577D01*
X00507465D01*
X00507891Y01822658D01*
X0050795Y01822379D01*
Y018204D01*
X0049299D01*
X0049182Y01820167D01*
X00490827Y01819504D01*
X00490164Y01818512D01*
X00489931Y01817341D01*
Y01814696D01*
Y01792849D01*
X00474138D01*
X00473843Y0179279D01*
X00471138D01*
Y01790085D01*
X00471079Y0178979D01*
Y0177129D01*
X00471079Y0177129D01*
X00471138Y01770994D01*
Y0176829D01*
X00473135D01*
X00473154Y01768278D01*
X00474324Y01768045D01*
X00474324Y01768045D01*
X00489931D01*
Y01755551D01*
X00490164Y01754381D01*
X00490827Y01753389D01*
X0049182Y01752726D01*
X0049299Y01752493D01*
X00498D01*
Y0175222D01*
X00518D01*
Y01752493D01*
X0055691D01*
X0055691Y01752493D01*
X00558081Y01752726D01*
X00559073Y01753389D01*
X00559073Y01753389D01*
X00560176Y01754491D01*
X00560839Y01755483D01*
X00561071Y01756654D01*
X00561071Y01756654D01*
Y01817341D01*
X00560839Y01818512D01*
X00560176Y01819504D01*
X00559948Y01819656D01*
X0055991Y0182091D01*
X0055991Y0182091D01*
Y01822394D01*
X00559969Y0182269D01*
Y01854786D01*
X00559969Y01854786D01*
X00559736Y01855957D01*
X00559073Y01856949D01*
X00559073Y01856949D01*
X00554436Y01861586D01*
X00554055Y01862155D01*
X00542626Y01873586D01*
X00542057Y01873966D01*
X0054184Y01874182D01*
X00540848Y01874845D01*
X00539677Y01875078D01*
X00539677Y01875078D01*
X0053961D01*
X0053848Y01875303D01*
X00444218D01*
X00419266Y01900255D01*
X00417364Y01901526D01*
X0041512Y01901973D01*
X00367554D01*
Y0192135D01*
X00351554D01*
Y01917213D01*
X00334621D01*
X00321656Y01930177D01*
X00322183Y01931447D01*
X00351554D01*
Y0192802D01*
X00367554D01*
Y0194802D01*
X00351554D01*
Y01943172D01*
X00324039D01*
X00323553Y01944345D01*
X00329338Y0195013D01*
X00330609Y01952032D01*
X00331055Y01954276D01*
X00331055Y01954276D01*
Y01985437D01*
X00332325Y01985822D01*
X00332719Y01985232D01*
X00351552Y01966399D01*
Y0195469D01*
X00367552D01*
Y0197469D01*
X00359843D01*
X00355847Y01978687D01*
X00356333Y0197986D01*
X00364552D01*
Y01991743D01*
X0038802Y02015211D01*
X004116Y02015211D01*
X00412771Y02015444D01*
X00413763Y02016107D01*
X00414426Y02017099D01*
X00414659Y0201827D01*
Y0203327D01*
Y0204827D01*
X00414426Y0204944D01*
X00414159Y0204984D01*
Y02051937D01*
X00413926Y02053108D01*
X00413263Y020541D01*
X00412271Y02054763D01*
X004111Y02054996D01*
D02*
G37*
G36*
X00843791Y02030255D02*
X00814559D01*
X00813389Y02030022D01*
X00812396Y02029359D01*
X00803203Y02020165D01*
X0080254Y02019173D01*
X00802307Y02018002D01*
X00802307Y02018002D01*
X00802307Y01995876D01*
X00802307Y01995876D01*
X0080254Y01994706D01*
X00803203Y01993713D01*
X00803203Y01993713D01*
X00810838Y01986078D01*
X0081183Y01985415D01*
X00813001Y01985182D01*
X00813001Y01985182D01*
X00843634D01*
X00843634Y01985182D01*
X00844805Y01985415D01*
X00845797Y01986078D01*
X00852349Y0199263D01*
X00853012Y01993623D01*
X00853245Y01994793D01*
X00853245Y01994793D01*
X00853245Y02017849D01*
X00853183Y0201816D01*
X0085318Y02018478D01*
X00853068Y0201874D01*
X00853012Y02019019D01*
X00852836Y02019283D01*
X00852711Y02019576D01*
X00846316Y02028923D01*
X00846112Y02029122D01*
X00845954Y02029359D01*
X00845689Y02029535D01*
X00845462Y02029758D01*
X00845198Y02029863D01*
X00844962Y02030022D01*
X0084465Y02030084D01*
X00844355Y02030202D01*
X0084407Y02030199D01*
X00843791Y02030255D01*
D02*
G37*
G36*
X0065062Y0200263D02*
X0063462D01*
Y0198263D01*
X0065062D01*
Y0200263D01*
D02*
G37*
G36*
X01258493Y0199939D02*
X01256106D01*
X01253901Y01998477D01*
X01252213Y01996789D01*
X01252048Y0199639D01*
X012478D01*
Y0197939D01*
X012668D01*
Y01982027D01*
X012732D01*
Y0197939D01*
X012922D01*
Y0199639D01*
X012732D01*
Y01993753D01*
X012668D01*
Y0199639D01*
X01262552D01*
X01262387Y01996789D01*
X01260699Y01998477D01*
X01258493Y0199939D01*
D02*
G37*
G36*
X01235293Y01998121D02*
X01232906D01*
X01230701Y01997208D01*
X01229493Y01996D01*
X01224493D01*
X01222299Y01995564D01*
X01220438Y0199432D01*
X01219195Y0199246D01*
X01218758Y01990265D01*
Y01985015D01*
X01219195Y0198282D01*
X01220438Y0198096D01*
X01222299Y01979716D01*
X01224493Y0197928D01*
X01232243D01*
X01234438Y01979716D01*
X01236299Y0198096D01*
X01237542Y0198282D01*
X01237979Y01985015D01*
Y01987515D01*
X01239186Y01988723D01*
X012401Y01990928D01*
Y01993315D01*
X01239186Y0199552D01*
X01237498Y01997208D01*
X01235293Y01998121D01*
D02*
G37*
G36*
X01232243Y019725D02*
X01224493D01*
X01222299Y01972064D01*
X01220438Y0197082D01*
X01219808Y01969878D01*
X01217054D01*
X01216723Y01970015D01*
X01214336D01*
X01214004Y01969878D01*
X01211083D01*
X0121062Y0197057D01*
X0120876Y01971814D01*
X01206565Y0197225D01*
X01198815D01*
X0119662Y01971814D01*
X0119476Y0197057D01*
X01193516Y0196871D01*
X0119308Y01966515D01*
Y01961265D01*
X01193516Y0195907D01*
X0119476Y0195721D01*
X0119662Y01955966D01*
X01198815Y0195553D01*
X01206565D01*
X0120876Y01955966D01*
X0121062Y0195721D01*
X0121125Y01958152D01*
X01214004D01*
X01214336Y01958015D01*
X01216723D01*
X01217054Y01958152D01*
X01219975D01*
X01220438Y0195746D01*
X01222299Y01956216D01*
X01224493Y0195578D01*
X01232243D01*
X01234438Y01956216D01*
X01236299Y0195746D01*
X01237542Y0195932D01*
X01237979Y01961515D01*
Y01966765D01*
X01237542Y0196896D01*
X01236299Y0197082D01*
X01234438Y01972064D01*
X01232243Y019725D01*
D02*
G37*
G36*
X01179895Y0197273D02*
X01172145D01*
X0116995Y01972294D01*
X0116809Y0197105D01*
X01166846Y0196919D01*
X0116641Y01966995D01*
Y01961745D01*
X01166846Y0195955D01*
X0116809Y0195769D01*
X0116995Y01956446D01*
X01172145Y0195601D01*
X01177145D01*
X01178353Y01954802D01*
X01180558Y01953889D01*
X01182945D01*
X0118515Y01954802D01*
X01186838Y0195649D01*
X01187751Y01958695D01*
Y01961082D01*
X01186838Y01963288D01*
X0118563Y01964495D01*
Y01966995D01*
X01185194Y0196919D01*
X0118395Y0197105D01*
X0118209Y01972294D01*
X01179895Y0197273D01*
D02*
G37*
G36*
X01064325D02*
X01056575D01*
X0105438Y01972294D01*
X0105252Y0197105D01*
X01051276Y0196919D01*
X0105084Y01966995D01*
Y01961745D01*
X01051276Y0195955D01*
X0105252Y0195769D01*
X0105438Y01956446D01*
X01056575Y0195601D01*
X01061575D01*
X01062783Y01954802D01*
X01064988Y01953889D01*
X01067375D01*
X0106958Y01954802D01*
X01071268Y0195649D01*
X01072181Y01958695D01*
Y01961082D01*
X01071268Y01963288D01*
X0107006Y01964495D01*
Y01966995D01*
X01069624Y0196919D01*
X0106838Y0197105D01*
X0106652Y01972294D01*
X01064325Y0197273D01*
D02*
G37*
G36*
X01122745D02*
X01114995D01*
X011128Y01972294D01*
X0111094Y0197105D01*
X01109696Y0196919D01*
X0110926Y01966995D01*
Y01961745D01*
X01109696Y0195955D01*
X0111094Y0195769D01*
X011128Y01956446D01*
X01114995Y0195601D01*
X01117539D01*
X01117658Y01955721D01*
X01119346Y01954034D01*
X01121552Y0195312D01*
X01123939D01*
X01126144Y01954034D01*
X01127832Y01955721D01*
X01128745Y01957926D01*
Y01960314D01*
X01128374Y0196121D01*
X0112848Y01961745D01*
Y01966995D01*
X01128044Y0196919D01*
X011268Y0197105D01*
X0112494Y01972294D01*
X01122745Y0197273D01*
D02*
G37*
G36*
X0113921Y01924967D02*
X01136869Y01924502D01*
X01134884Y01923176D01*
X01134345Y01922369D01*
X01133075D01*
X01132536Y01923176D01*
X01130551Y01924502D01*
X0112821Y01924967D01*
X01125869Y01924502D01*
X01123884Y01923176D01*
X01123345Y01922369D01*
X01122075D01*
X01121536Y01923176D01*
X01119551Y01924502D01*
X0111721Y01924967D01*
X01114869Y01924502D01*
X01112884Y01923176D01*
X01112345Y01922369D01*
X01111075D01*
X01110536Y01923176D01*
X01108551Y01924502D01*
X0110621Y01924967D01*
X01103869Y01924502D01*
X01101884Y01923176D01*
X01101345Y01922369D01*
X01100075D01*
X01099536Y01923176D01*
X01097551Y01924502D01*
X0109521Y01924967D01*
X01092869Y01924502D01*
X01090884Y01923176D01*
X01089558Y01921191D01*
X01089092Y0191885D01*
Y0190885D01*
X01089558Y01906509D01*
X01090884Y01904524D01*
X01092869Y01903198D01*
X0109521Y01902733D01*
X01097551Y01903198D01*
X01099536Y01904524D01*
X01100075Y01905331D01*
X01101345D01*
X01101884Y01904524D01*
X01103869Y01903198D01*
X0110621Y01902733D01*
X01108551Y01903198D01*
X01110536Y01904524D01*
X01111075Y01905331D01*
X01112345D01*
X01112884Y01904524D01*
X01114869Y01903198D01*
X0111721Y01902733D01*
X01119551Y01903198D01*
X01121536Y01904524D01*
X01122075Y01905331D01*
X01123345D01*
X01123884Y01904524D01*
X01125869Y01903198D01*
X0112821Y01902733D01*
X01130551Y01903198D01*
X01132536Y01904524D01*
X01133075Y01905331D01*
X01134345D01*
X01134884Y01904524D01*
X01136869Y01903198D01*
X0113921Y01902733D01*
X01141551Y01903198D01*
X01143536Y01904524D01*
X01144862Y01906509D01*
X01145328Y0190885D01*
Y0191885D01*
X01144862Y01921191D01*
X01143536Y01923176D01*
X01141551Y01924502D01*
X0113921Y01924967D01*
D02*
G37*
G36*
X0107321D02*
X01070869Y01924502D01*
X01068884Y01923176D01*
X01068345Y01922369D01*
X01067075D01*
X01066536Y01923176D01*
X01064551Y01924502D01*
X0106221Y01924967D01*
X01059869Y01924502D01*
X01057884Y01923176D01*
X01056558Y01921191D01*
X01056093Y0191885D01*
Y0190885D01*
X01056347Y01907568D01*
Y01898093D01*
X01056447Y01897592D01*
Y01896527D01*
X0105736Y01894322D01*
X01059048Y01892634D01*
X01061254Y01891721D01*
X0106364D01*
X01065846Y01892634D01*
X01067533Y01894322D01*
X01068447Y01896527D01*
Y01898914D01*
X01068073Y01899818D01*
Y01903627D01*
X01069343Y01904218D01*
X01070869Y01903198D01*
X0107321Y01902733D01*
X01075551Y01903198D01*
X01077536Y01904524D01*
X01078862Y01906509D01*
X01079328Y0190885D01*
Y0191885D01*
X01078862Y01921191D01*
X01077536Y01923176D01*
X01075551Y01924502D01*
X0107321Y01924967D01*
D02*
G37*
G36*
X01187183Y01916754D02*
X01184796D01*
X01182591Y0191584D01*
X01180903Y01914152D01*
X01180218Y01912497D01*
X0116671D01*
X0116671Y01912497D01*
X01164466Y01912051D01*
X01162564Y0191078D01*
X01162564Y0191078D01*
X01140059Y01888275D01*
X01138788Y01886373D01*
X01138342Y01884129D01*
Y01857123D01*
X01138788Y01854879D01*
X01140059Y01852977D01*
X01150304Y01842733D01*
X01149778Y01841463D01*
X01149707D01*
X01147502Y01840549D01*
X01145814Y01838861D01*
X01144901Y01836656D01*
Y01834269D01*
X01145814Y01832064D01*
X01147502Y01830376D01*
X01149707Y01829462D01*
X01152094D01*
X0115229Y01829544D01*
X01156571D01*
X01157116Y01828274D01*
X01156058Y01826691D01*
X01155592Y0182435D01*
X01156058Y01822009D01*
X01157384Y01820024D01*
X01158191Y01819485D01*
Y01818215D01*
X01157384Y01817676D01*
X01156058Y01815691D01*
X01155592Y0181335D01*
X01156058Y01811009D01*
X01157384Y01809024D01*
X01158191Y01808485D01*
Y01807215D01*
X01157384Y01806676D01*
X01156058Y01804691D01*
X01155592Y0180235D01*
X01156058Y01800009D01*
X01157384Y01798024D01*
X01159369Y01796698D01*
X0116171Y01796232D01*
X0117171D01*
X01172992Y01796487D01*
X01182766D01*
X01184035Y0179674D01*
X01184484D01*
X011849Y01796912D01*
X01185009Y01796934D01*
X01185102Y01796996D01*
X0118669Y01797653D01*
X01188378Y01799341D01*
X01189291Y01801546D01*
Y01803933D01*
X01188378Y01806138D01*
X01186913Y01807603D01*
X01186694Y01807879D01*
X01186804Y01809154D01*
X01187867Y01810217D01*
X0118878Y01812422D01*
Y01814809D01*
X01187867Y01817014D01*
X01186179Y01818702D01*
X01186385Y01819991D01*
X01187305Y01820911D01*
X01188073Y01822765D01*
X01189343Y01822513D01*
Y01822151D01*
X01189621Y01820756D01*
X01190411Y01819574D01*
X01191593Y01818784D01*
X01192988Y01818506D01*
X01205838D01*
X01207233Y01818784D01*
X01208416Y01819574D01*
X01209206Y01820756D01*
X01209483Y01822151D01*
Y01832501D01*
X01209206Y01833896D01*
X01208416Y01835079D01*
X01207233Y01835869D01*
X01206413Y01836032D01*
Y01840651D01*
X01192413D01*
Y01839836D01*
X0119124Y0183935D01*
X0118019Y018504D01*
X01178288Y01851671D01*
X01176045Y01852117D01*
X01173473D01*
X0117171Y01852467D01*
X0116171D01*
X01160909Y01852308D01*
X0115731D01*
X01150067Y01859551D01*
Y01881701D01*
X01169138Y01900772D01*
X0118299D01*
Y01898754D01*
X0120199D01*
Y0190054D01*
X01207198D01*
Y01899053D01*
X01226198D01*
Y01914052D01*
X01207198D01*
Y01912266D01*
X0120199D01*
Y01913754D01*
X01191242D01*
X01191076Y01914152D01*
X01189389Y0191584D01*
X01187183Y01916754D01*
D02*
G37*
G36*
X0100073Y01971182D02*
X00984731D01*
Y01955182D01*
X00989118D01*
Y01951026D01*
X00989564Y01948782D01*
X00990835Y0194688D01*
X00994537Y01943179D01*
X00994537Y01943179D01*
X00996439Y01941908D01*
X00998682Y01941461D01*
X00998682Y01941461D01*
X01012763D01*
X01023347Y01930878D01*
Y0192013D01*
X01023092Y0191885D01*
Y0190885D01*
X01023558Y01906509D01*
X01024884Y01904524D01*
X01026869Y01903198D01*
X0102921Y01902733D01*
X01031551Y01903198D01*
X01033536Y01904524D01*
X01034862Y01906509D01*
X01035328Y0190885D01*
Y0191885D01*
X01035072Y01920133D01*
Y01933306D01*
X01034626Y0193555D01*
X01033355Y01937452D01*
X01033355Y01937452D01*
X01019337Y0195147D01*
X01017435Y0195274D01*
X01015192Y01953187D01*
X0100111D01*
X01000843Y01953454D01*
Y01957683D01*
X01001855Y01959197D01*
X01002301Y0196144D01*
X01001855Y01963684D01*
X0100073Y01965367D01*
Y01971182D01*
D02*
G37*
G36*
X012668Y0197539D02*
X012478D01*
Y01966681D01*
X01244115Y01962995D01*
X01242844Y01961093D01*
X01242397Y0195885D01*
Y01914906D01*
X0124219Y01914864D01*
X0124033Y01913621D01*
X01239086Y01911761D01*
X0123865Y01909566D01*
Y01904316D01*
X01239086Y01902121D01*
X0124033Y0190026D01*
X0124219Y01899017D01*
X01244385Y01898581D01*
X01252135D01*
X0125433Y01899017D01*
X0125619Y0190026D01*
X01257434Y01902121D01*
X0125787Y01904316D01*
Y01909566D01*
X01257434Y01911761D01*
X0125619Y01913621D01*
X0125433Y01914864D01*
X01254123Y01914906D01*
Y01956422D01*
X01256091Y0195839D01*
X012668D01*
Y0197539D01*
D02*
G37*
G36*
X012922D02*
X012732D01*
Y0195839D01*
X01273336D01*
Y01914876D01*
X01273129Y01914835D01*
X01271268Y01913592D01*
X01270025Y01911731D01*
X01269588Y01909537D01*
Y01904287D01*
X01270025Y01902092D01*
X01271268Y01900231D01*
X01273129Y01898988D01*
X01275323Y01898551D01*
X01283073D01*
X01285268Y01898988D01*
X01287129Y01900231D01*
X01288372Y01902092D01*
X01288808Y01904287D01*
Y01909537D01*
X01288372Y01911731D01*
X01287129Y01913592D01*
X01285268Y01914835D01*
X01285061Y01914876D01*
Y0195839D01*
X012922D01*
Y0197539D01*
D02*
G37*
G36*
X00614515Y01902366D02*
X00594515D01*
Y01886366D01*
X00614515D01*
Y01902366D01*
D02*
G37*
G36*
X0058785Y01902112D02*
X0056785D01*
Y01886112D01*
X0058785D01*
Y01902112D01*
D02*
G37*
G36*
X0074623Y01968221D02*
X00745059Y01967988D01*
X00744067Y01967325D01*
X00731488Y01954746D01*
X00731488Y01954746D01*
X00731227Y01954485D01*
X00730564Y01953493D01*
X00730331Y01952322D01*
X00730331Y01952322D01*
Y01943581D01*
Y01930307D01*
X0072989Y0192922D01*
X00729061Y0192922D01*
X0071239D01*
Y0190872D01*
X00715277D01*
Y01905398D01*
X00710189Y01900309D01*
X00708799Y01900033D01*
X00707563Y01899207D01*
X00706737Y01897971D01*
X00706447Y01896512D01*
Y01883488D01*
X00706737Y01882029D01*
X00707563Y01880793D01*
X00708799Y01879967D01*
X00710257Y01879677D01*
X00714682D01*
X00716141Y01879967D01*
X00717377Y01880793D01*
X00718203Y01882029D01*
X00718493Y01883488D01*
Y01892032D01*
X00725285Y01898824D01*
X00726556Y01900726D01*
X00727003Y0190297D01*
X00727003Y0190297D01*
Y01907822D01*
X00727901Y0190872D01*
X0072989Y0190872D01*
X00730331Y01907633D01*
Y01877209D01*
X00714755D01*
X00714682Y01877223D01*
X00710257D01*
X00710185Y01877209D01*
X00709504D01*
X00708334Y01876976D01*
X00707455Y01876389D01*
X00706641Y01876933D01*
X00705182Y01877223D01*
X00700758D01*
X00699299Y01876933D01*
X0069822Y01876212D01*
X00697141Y01876933D01*
X00695751Y01877209D01*
X00694458Y01878503D01*
X00694944Y01879677D01*
X00695683D01*
X00697141Y01879967D01*
X00698377Y01880793D01*
X00699203Y01882029D01*
X00699493Y01883488D01*
Y01896512D01*
X00699333Y0189732D01*
Y01909415D01*
X00698886Y01911658D01*
X00697616Y0191356D01*
X00693915Y01917261D01*
Y0192897D01*
X00691777D01*
Y0193883D01*
X00693915D01*
Y0195883D01*
X00677915D01*
Y0193883D01*
X00680052D01*
Y0192897D01*
X00677915D01*
Y0190897D01*
X00685624D01*
X00687607Y01906987D01*
Y0189732D01*
X00687447Y01896512D01*
Y01887174D01*
X00686273Y01886687D01*
X00681366Y01891595D01*
X00679464Y01892866D01*
X0067722Y01893312D01*
X00670659D01*
Y0189545D01*
X00650659D01*
Y0187945D01*
X00670659D01*
Y01881587D01*
X00674792D01*
X00687447Y01868932D01*
Y01860388D01*
X00687737Y01858929D01*
X00688563Y01857693D01*
X0068955Y01857033D01*
X00689333Y01855763D01*
X00674132D01*
Y0185836D01*
X00674132Y01858361D01*
X00674132Y01858361D01*
Y01874237D01*
X00673899Y01875407D01*
X00673236Y018764D01*
X00672243Y01877063D01*
X00671073Y01877296D01*
X00670659D01*
Y0187745D01*
X00650659D01*
Y01877296D01*
X00586327Y01877296D01*
X00586326Y01877296D01*
X00585156Y01877063D01*
X00584164Y018764D01*
X00570547Y01862783D01*
X00569884Y01861791D01*
X00569651Y0186062D01*
X00569651Y0186062D01*
Y0180755D01*
X00569675Y01807429D01*
X00569661Y01807307D01*
X0056971Y01807133D01*
Y0178355D01*
X0062071D01*
Y01802619D01*
X00640732Y01822641D01*
X0071337D01*
X00713665Y018227D01*
X0071637D01*
Y01825405D01*
X00716429Y018257D01*
Y018372D01*
X0071637Y01837496D01*
Y018402D01*
X00714696D01*
X00708833Y01846063D01*
Y01849156D01*
X00710006Y01849642D01*
X0073043Y01829218D01*
Y01818224D01*
X00742453D01*
X00742749Y01818165D01*
X00742749Y01818165D01*
X0074993Y01818166D01*
X00750226Y01818224D01*
X0075293D01*
Y01820929D01*
X00752989Y01821224D01*
Y01874457D01*
X00752989Y01874457D01*
X00752756Y01875627D01*
X00752682Y01875738D01*
Y01903436D01*
X00778156Y0192891D01*
X0077983D01*
Y01931615D01*
X00779889Y0193191D01*
X00779889Y0193191D01*
Y01965162D01*
X00779656Y01966332D01*
X00778993Y01967325D01*
X00778Y01967988D01*
X0077683Y01968221D01*
X0074623D01*
X0074623Y01968221D01*
D02*
G37*
G36*
X0117171Y01874467D02*
X0116171D01*
X01159369Y01874002D01*
X01157384Y01872676D01*
X01156058Y01870691D01*
X01155592Y0186835D01*
X01156058Y01866009D01*
X01157384Y01864024D01*
X01159369Y01862698D01*
X0116171Y01862233D01*
X0117171D01*
X01174051Y01862698D01*
X01176036Y01864024D01*
X01177362Y01866009D01*
X01177828Y0186835D01*
X01177362Y01870691D01*
X01176036Y01872676D01*
X01174051Y01874002D01*
X0117171Y01874467D01*
D02*
G37*
G36*
X01283073Y01891772D02*
X01275323D01*
X01273129Y01891335D01*
X01271268Y01890092D01*
X01270025Y01888231D01*
X01269588Y01886037D01*
Y01880787D01*
X01270025Y01878592D01*
X01271268Y01876731D01*
X01273129Y01875488D01*
X01273336Y01875447D01*
Y01869158D01*
X01272053Y01867875D01*
X01270782Y01865973D01*
X01270336Y01863729D01*
Y01855547D01*
X01270198D01*
Y01841547D01*
X01282198D01*
Y01855547D01*
X01282061D01*
Y01861301D01*
X01283344Y01862584D01*
X01284615Y01864486D01*
X01285061Y01866729D01*
X01285061Y01866729D01*
Y01875447D01*
X01285268Y01875488D01*
X01287129Y01876731D01*
X01288372Y01878592D01*
X01288808Y01880787D01*
Y01886037D01*
X01288372Y01888231D01*
X01287129Y01890092D01*
X01285268Y01891335D01*
X01283073Y01891772D01*
D02*
G37*
G36*
X01252135Y01891801D02*
X01244385D01*
X0124219Y01891364D01*
X0124033Y01890121D01*
X01239086Y01888261D01*
X0123865Y01886066D01*
Y01880816D01*
X01239086Y01878621D01*
X0124033Y0187676D01*
X0124219Y01875517D01*
X01242397Y01875476D01*
Y01871407D01*
X01236645Y01865654D01*
X01235374Y01863752D01*
X01234927Y01861509D01*
Y01855547D01*
X0123479D01*
Y01841547D01*
X0124679D01*
Y01855547D01*
X01246653D01*
Y01859081D01*
X01252405Y01864834D01*
X01253676Y01866736D01*
X01254123Y01868979D01*
X01254123Y01868979D01*
Y01875476D01*
X0125433Y01875517D01*
X0125619Y0187676D01*
X01257434Y01878621D01*
X0125787Y01880816D01*
Y01886066D01*
X01257434Y01888261D01*
X0125619Y01890121D01*
X0125433Y01891364D01*
X01252135Y01891801D01*
D02*
G37*
G36*
X00330231Y01833354D02*
X00312631D01*
Y01812654D01*
X00330231D01*
Y01817752D01*
X0033063Y01817917D01*
X00332318Y01819605D01*
X00333231Y01821811D01*
Y01824198D01*
X00332318Y01826403D01*
X0033063Y01828091D01*
X00330231Y01828256D01*
Y01833354D01*
D02*
G37*
G36*
X00788594Y01991127D02*
X00671097D01*
X00668854Y0199068D01*
X00666952Y01989409D01*
X00652445Y01974902D01*
X00651174Y01973D01*
X00650727Y01970757D01*
Y01932295D01*
X00651174Y01930051D01*
X00652445Y01928149D01*
X00659915Y01920679D01*
Y0190897D01*
X00675915D01*
Y0192897D01*
X00668206D01*
X00662453Y01934723D01*
Y01968328D01*
X00673526Y01979401D01*
X00786166D01*
X00800418Y01965149D01*
X00800103Y01964677D01*
X0079987Y01963507D01*
Y01884795D01*
X00799797Y0188443D01*
X00799991Y01883457D01*
X00800235Y01882211D01*
X00799243Y01881548D01*
X00799243Y01881548D01*
X00796577Y01878882D01*
X00795914Y0187789D01*
X00795681Y01876719D01*
X00795681Y01876719D01*
Y01821576D01*
X00795681Y01821576D01*
X00795914Y01820406D01*
X00796577Y01819413D01*
X00796577Y01819413D01*
X0081401Y0180198D01*
Y01800306D01*
X00816714D01*
X0081701Y01800247D01*
X0081701Y01800247D01*
X0083101D01*
X00831306Y01800306D01*
X0083401D01*
Y0180301D01*
X00834069Y01803306D01*
Y01806231D01*
X00835242Y01806717D01*
X00842915Y01799044D01*
X00844817Y01797774D01*
X0084706Y01797327D01*
X0084706Y01797327D01*
X00894225D01*
X00894557Y0179719D01*
X00896944D01*
X00899149Y01798103D01*
X00900837Y01799791D01*
X0090175Y01801996D01*
Y01804384D01*
X00900837Y01806589D01*
X00899149Y01808277D01*
X00896944Y0180919D01*
X00894557D01*
X00894225Y01809053D01*
X00849488D01*
X00834069Y01824472D01*
Y01877289D01*
X00834069Y01877289D01*
X00833836Y0187846D01*
X00833173Y01879452D01*
X00831077Y01881548D01*
X00830085Y01882211D01*
X00828914Y01882444D01*
X00828914Y01882444D01*
X00821492D01*
X00820753Y01883714D01*
X00821068Y0188427D01*
X0082129D01*
Y01886425D01*
X00842742Y0192891D01*
X0084383D01*
Y01931501D01*
X0084388Y01931681D01*
X00843866Y01931796D01*
X00843889Y0193191D01*
Y01962556D01*
X0084383Y01962851D01*
Y0196491D01*
X00842802D01*
X00842042Y0196567D01*
X0084105Y01966333D01*
X00839879Y01966566D01*
X00839879Y01966566D01*
X00815584D01*
X0079274Y01989409D01*
X00790838Y0199068D01*
X00788594Y01991127D01*
D02*
G37*
G36*
X0123729Y01835347D02*
X0122529D01*
Y01821347D01*
X01225427D01*
Y01792464D01*
X01224719D01*
X01222524Y01792028D01*
X01220663Y01790785D01*
X01220117Y01789967D01*
X01213629D01*
X01213083Y01790785D01*
X01211222Y01792028D01*
X01209027Y01792464D01*
X01201277D01*
X01199083Y01792028D01*
X01197222Y01790785D01*
X01195979Y01788924D01*
X01195542Y01786729D01*
Y01781479D01*
X01195979Y01779285D01*
X01197222Y01777424D01*
X01199083Y01776181D01*
X01201277Y01775744D01*
X01209027D01*
X01211222Y01776181D01*
X01213083Y01777424D01*
X01213629Y01778242D01*
X01220117D01*
X01220663Y01777424D01*
X01222524Y01776181D01*
X01224719Y01775744D01*
X01232469D01*
X01234664Y01776181D01*
X01236524Y01777424D01*
X01237767Y01779285D01*
X01238204Y01781479D01*
Y01786729D01*
X01237767Y01788924D01*
X01237153Y01789844D01*
Y01821347D01*
X0123729D01*
Y01835347D01*
D02*
G37*
G36*
X00806711Y01801494D02*
X00789111D01*
Y01780794D01*
X00806711D01*
Y01784443D01*
X0081401D01*
Y01782306D01*
X0083401D01*
Y01798306D01*
X0081401D01*
Y01796169D01*
X00806711D01*
Y01801494D01*
D02*
G37*
G36*
X01272698Y01835347D02*
X01260698D01*
Y01821347D01*
X01260836D01*
Y01793977D01*
X01259889Y0179303D01*
X01254695D01*
X012525Y01792594D01*
X0125064Y0179135D01*
X01249396Y0178949D01*
X0124896Y01787295D01*
Y01782045D01*
X01249396Y0177985D01*
X0125064Y0177799D01*
X012525Y01776746D01*
X01254695Y0177631D01*
X01262445D01*
X0126464Y01776746D01*
X012665Y0177799D01*
X01267047Y01778807D01*
X01278033D01*
X0127858Y0177799D01*
X0128044Y01776746D01*
X01282635Y0177631D01*
X01290385D01*
X0129258Y01776746D01*
X0129444Y0177799D01*
X01295684Y0177985D01*
X0129612Y01782045D01*
Y01787295D01*
X01295684Y0178949D01*
X0129444Y0179135D01*
X0129258Y01792594D01*
X01290385Y0179303D01*
X01282635D01*
X0128044Y01792594D01*
X0127858Y0179135D01*
X01278033Y01790533D01*
X0127336D01*
X01272554Y01791514D01*
X01272561Y01791548D01*
Y01821347D01*
X01272698D01*
Y01835347D01*
D02*
G37*
G36*
X01290385Y0176953D02*
X01282635D01*
X0128044Y01769094D01*
X0127858Y0176785D01*
X01277336Y0176599D01*
X012769Y01763795D01*
Y01761295D01*
X01275692Y01760088D01*
X01274779Y01757882D01*
Y01755495D01*
X01275692Y0175329D01*
X0127738Y01751602D01*
X01279585Y01750689D01*
X01281972D01*
X01284178Y01751602D01*
X01285385Y0175281D01*
X01290385D01*
X0129258Y01753246D01*
X0129444Y0175449D01*
X01295684Y0175635D01*
X0129612Y01758545D01*
Y01763795D01*
X01295684Y0176599D01*
X0129444Y0176785D01*
X0129258Y01769094D01*
X01290385Y0176953D01*
D02*
G37*
G36*
X01209027Y01768965D02*
X01201277D01*
X01199083Y01768528D01*
X01197222Y01767285D01*
X01195979Y01765424D01*
X01195542Y01763229D01*
Y01760729D01*
X01194335Y01759522D01*
X01193421Y01757317D01*
Y0175493D01*
X01194335Y01752724D01*
X01196023Y01751037D01*
X01198228Y01750123D01*
X01200615D01*
X0120282Y01751037D01*
X01204027Y01752244D01*
X01209027D01*
X01211222Y01752681D01*
X01213083Y01753924D01*
X01214326Y01755784D01*
X01214763Y01757979D01*
Y01763229D01*
X01214326Y01765424D01*
X01213083Y01767285D01*
X01211222Y01768528D01*
X01209027Y01768965D01*
D02*
G37*
G36*
X0048259Y01761572D02*
X0046499D01*
Y01740872D01*
X00472624D01*
X00475421Y01738074D01*
X00477323Y01736804D01*
X00479566Y01736357D01*
X00498D01*
Y0173422D01*
X00518D01*
Y0175022D01*
X00498D01*
Y01748083D01*
X0048259D01*
Y01761572D01*
D02*
G37*
G36*
X01213283Y01730804D02*
X01205533D01*
X01203338Y01730367D01*
X01201478Y01729124D01*
X01200708Y01727973D01*
X0119138D01*
Y01729276D01*
X0117238D01*
Y01727089D01*
X01163406D01*
X01163227Y01727356D01*
X01161367Y01728599D01*
X01159172Y01729036D01*
X01151422D01*
X01149227Y01728599D01*
X01147366Y01727356D01*
X01146782Y01726481D01*
X0113771D01*
Y01728062D01*
X0111871D01*
Y01726548D01*
X01108628D01*
X01107998Y0172749D01*
X01106138Y01728734D01*
X01103943Y0172917D01*
X01096193D01*
X01093998Y01728734D01*
X01092138Y0172749D01*
X01090894Y0172563D01*
X01090458Y01723435D01*
Y01718185D01*
X01090894Y0171599D01*
X01092138Y0171413D01*
X01093998Y01712886D01*
X01096193Y0171245D01*
X01103943D01*
X01106138Y01712886D01*
X01107998Y0171413D01*
X01108462Y01714823D01*
X0111871D01*
Y01713062D01*
X0113771D01*
Y01714756D01*
X01146858D01*
X01147366Y01713995D01*
X01149227Y01712752D01*
X01151422Y01712316D01*
X01159172D01*
X01161367Y01712752D01*
X01163227Y01713995D01*
X01164141Y01715363D01*
X0117238D01*
Y01714276D01*
X0119138D01*
Y01716247D01*
X01201154D01*
X01201478Y01715763D01*
X01203338Y0171452D01*
X01205533Y01714084D01*
X01213283D01*
X01215478Y0171452D01*
X01216251Y01715037D01*
X01218198Y01715843D01*
X01219886Y01717531D01*
X01220799Y01719736D01*
Y01722123D01*
X01219886Y01724329D01*
X01218987Y01725228D01*
X01218582Y01727264D01*
X01217338Y01729124D01*
X01215478Y01730367D01*
X01213283Y01730804D01*
D02*
G37*
G36*
X00840923Y0174082D02*
X00838537D01*
X00836331Y01739907D01*
X00834643Y01738219D01*
X00834138Y01736998D01*
X00833644Y01736258D01*
X00833197Y01734015D01*
Y0172924D01*
X0072996D01*
Y01722103D01*
X00723249D01*
X00721992Y01722353D01*
X00689417D01*
X00687173Y01721906D01*
X00685271Y01720636D01*
X00672039Y01707403D01*
X0066433D01*
Y01687403D01*
X0068033D01*
Y01699112D01*
X00691845Y01710627D01*
X00694478D01*
X00694863Y01709357D01*
X00693783Y01708636D01*
X00686693Y01701546D01*
X00685422Y01699644D01*
X00684976Y016974D01*
Y01669665D01*
X00684838Y01669333D01*
Y01666947D01*
X00685752Y01664741D01*
X0068744Y01663053D01*
X00689645Y0166214D01*
X00692032D01*
X00694237Y01663053D01*
X0069534Y01664156D01*
X0069661Y0166363D01*
Y01650353D01*
X00693408D01*
X00663215Y01680546D01*
X00661313Y01681816D01*
X0065907Y01682263D01*
X00522968D01*
X00521323Y01683908D01*
Y01697471D01*
X005214D01*
Y01718829D01*
X005054D01*
Y01697471D01*
X00509597D01*
Y0168148D01*
X00510044Y01679236D01*
X00511315Y01677334D01*
X00515276Y01673373D01*
X0051475Y01672103D01*
X00510588D01*
X00501323Y01681368D01*
Y01697471D01*
X005014D01*
Y01718829D01*
X004854D01*
Y01697471D01*
X00489597D01*
Y0167894D01*
X00490044Y01676696D01*
X00491315Y01674794D01*
X00502082Y01664027D01*
X00501596Y01662854D01*
X00499987D01*
X00481323Y01681518D01*
Y01697471D01*
X004814D01*
Y01718829D01*
X004654D01*
Y01697471D01*
X00469597D01*
Y0167909D01*
X00470044Y01676846D01*
X00471315Y01674944D01*
X00492033Y01654226D01*
X00491547Y01653053D01*
X00487568D01*
X00459263Y01681358D01*
Y01697471D01*
X004614D01*
Y01718829D01*
X004454D01*
Y01697471D01*
X00447537D01*
Y0167893D01*
X00447984Y01676687D01*
X00449254Y01674785D01*
X00480994Y01643044D01*
X00482896Y01641774D01*
X0048514Y01641327D01*
X0048514Y01641327D01*
X00634745D01*
X00635076Y0164119D01*
X00637463D01*
X00639669Y01642103D01*
X00641357Y01643791D01*
X0064227Y01645997D01*
Y01648383D01*
X00642112Y01648766D01*
X00642836Y01650335D01*
X00643026Y01650396D01*
X00652016Y01641407D01*
Y01639765D01*
X00651878Y01639433D01*
Y01637047D01*
X00652792Y01634841D01*
X0065448Y01633153D01*
X00656685Y0163224D01*
X00659072D01*
X00661277Y01633153D01*
X00662965Y01634841D01*
X00663878Y01637047D01*
Y01639433D01*
X00663741Y01639765D01*
Y01643835D01*
X00663295Y01646079D01*
X00662024Y01647981D01*
X00651302Y01658703D01*
X00651761Y0166004D01*
X0065246Y01660128D01*
X00686693Y01625894D01*
X00688595Y01624624D01*
X00690838Y01624177D01*
X0069661D01*
Y0160984D01*
Y01597803D01*
X00693218D01*
X0067983Y01611191D01*
Y016229D01*
X0066383D01*
Y016029D01*
X00671539D01*
X00686644Y01587795D01*
X00686645Y01587794D01*
X00688547Y01586524D01*
X00689306Y01586373D01*
X00689181Y01585103D01*
X006811D01*
Y0158924D01*
X006651D01*
Y0156924D01*
X006811D01*
Y01573377D01*
X00688299D01*
X00688552Y01572107D01*
X00687391Y01571626D01*
X00685704Y01569939D01*
X0068479Y01567733D01*
Y01565347D01*
X00685704Y01563141D01*
X00687391Y01561453D01*
X00687416Y01561443D01*
X00687163Y01560173D01*
X00683631D01*
X00681387Y01559727D01*
X00679485Y01558456D01*
X00672809Y0155178D01*
X006651D01*
Y0153178D01*
X00667686D01*
Y01531443D01*
X00668599Y01529237D01*
X00670287Y01527549D01*
X00672492Y01526636D01*
X00674879D01*
X00677084Y01527549D01*
X00678772Y01529237D01*
X00679686Y01531443D01*
Y0153178D01*
X006811D01*
Y01543489D01*
X00686059Y01548448D01*
X0069661D01*
Y0154634D01*
X0072261D01*
Y0155904D01*
Y0157174D01*
Y0158444D01*
Y0159714D01*
Y0160984D01*
Y0162254D01*
Y0163524D01*
Y01649577D01*
X00757668D01*
X00759912Y01650024D01*
X00761814Y01651295D01*
X00770427Y01659908D01*
X00770759Y01660045D01*
X00772447Y01661733D01*
X0077336Y01663938D01*
Y01666325D01*
X00772447Y0166853D01*
X00770759Y01670218D01*
X00768553Y01671132D01*
X00766167D01*
X00763961Y01670218D01*
X00762273Y0166853D01*
X00762136Y01668199D01*
X0075524Y01661303D01*
X00734786D01*
X00734661Y01662573D01*
X0073542Y01662724D01*
X00737322Y01663994D01*
X00749483Y01676156D01*
X00750754Y01678058D01*
X00751201Y01680302D01*
Y0168281D01*
X0075166Y01683919D01*
Y01686306D01*
X00751396Y01686944D01*
X00752101Y01688D01*
X00770589D01*
X00782716Y01675873D01*
X00782853Y01675541D01*
X00784541Y01673853D01*
X00786747Y0167294D01*
X00789134D01*
X00791339Y01673853D01*
X00793027Y01675541D01*
X0079394Y01677746D01*
Y01680134D01*
X00793027Y01682339D01*
X00791339Y01684027D01*
X00791007Y01684164D01*
X00777163Y01698008D01*
X00775261Y01699279D01*
X00773018Y01699725D01*
X0072261D01*
Y01710377D01*
X0072996D01*
Y0170324D01*
X0084656D01*
Y0172924D01*
X00844923D01*
Y01731677D01*
X0084573Y01733627D01*
Y01736013D01*
X00844817Y01738219D01*
X00843129Y01739907D01*
X00840923Y0174082D01*
D02*
G37*
G36*
X00948613Y0177722D02*
X00946226D01*
X00944021Y01776307D01*
X00942333Y01774619D01*
X00942168Y0177422D01*
X0093542D01*
Y0175522D01*
X00937057D01*
Y01747776D01*
X00937503Y01745532D01*
X00938774Y0174363D01*
X0094412Y01738285D01*
Y01730576D01*
X00947257D01*
Y01717213D01*
X00945229Y01715184D01*
X0094052D01*
X0094052Y01715184D01*
Y01715184D01*
X00939511Y01715784D01*
X0093432Y01720975D01*
Y01724684D01*
X0092032D01*
Y01712684D01*
X00926029D01*
X00931907Y01706806D01*
Y0168488D01*
X00932353Y01682636D01*
X00933624Y01680734D01*
X00938313Y01676046D01*
Y01675578D01*
X00938749Y01673384D01*
X00939992Y01671523D01*
X00941208Y0167071D01*
Y01659151D01*
X00940789Y0165887D01*
X00939546Y0165701D01*
X00939109Y01654815D01*
Y01647065D01*
X00939546Y0164487D01*
X00940789Y0164301D01*
X0094265Y01641766D01*
X00944845Y0164133D01*
X00950095D01*
X00951117Y01641533D01*
X00951743Y01640363D01*
X0092258Y016112D01*
X0091065D01*
Y01596736D01*
X00910591Y0159644D01*
Y01570573D01*
X00910469Y01570497D01*
X00909321Y01570184D01*
X00907879Y01571626D01*
X00905674Y0157254D01*
X00903287D01*
X00902955Y01572403D01*
X0089261D01*
Y0158444D01*
Y0159714D01*
Y0160984D01*
Y0162254D01*
Y01636877D01*
X00901798D01*
X00902129Y0163674D01*
X00904516D01*
X00906721Y01637653D01*
X00908409Y01639341D01*
X00909323Y01641546D01*
Y01643882D01*
X00909341Y01644067D01*
X00909371Y0164413D01*
X00910224Y01645077D01*
X00916005D01*
X00916046Y0164487D01*
X00917289Y0164301D01*
X0091915Y01641766D01*
X00921345Y0164133D01*
X00926595D01*
X00928789Y01641766D01*
X0093065Y0164301D01*
X00931893Y0164487D01*
X0093233Y01647065D01*
Y01654815D01*
X00931893Y0165701D01*
X0093065Y0165887D01*
X00928789Y01660114D01*
X00926595Y0166055D01*
X00921345D01*
X0091915Y01660114D01*
X00917289Y0165887D01*
X00916046Y0165701D01*
X00916005Y01656803D01*
X00912251D01*
X00909185Y01659868D01*
Y01671213D01*
X00908739Y01673457D01*
X00907468Y01675359D01*
X00907468Y01675359D01*
X00899228Y01683599D01*
X00897326Y0168487D01*
X00895083Y01685316D01*
X0089261D01*
Y0168969D01*
X00893535Y01689874D01*
X00895437Y01691145D01*
X00899505Y01695213D01*
X00900776Y01697115D01*
X00901223Y01699358D01*
X00901223Y01699358D01*
Y0172126D01*
X00901223Y0172126D01*
X00900776Y01723504D01*
X00899505Y01725405D01*
X00899505Y01725405D01*
X00887024Y01737887D01*
X00886887Y01738219D01*
X00885199Y01739907D01*
X00882993Y0174082D01*
X00880607D01*
X00878401Y01739907D01*
X00876713Y01738219D01*
X008758Y01736013D01*
Y01733627D01*
X00876713Y01731421D01*
X00878401Y01729733D01*
X00878733Y01729596D01*
X00889497Y01718832D01*
Y0171374D01*
X0086661D01*
Y01710191D01*
X0086518Y01709906D01*
X00863278Y01708636D01*
X00853193Y01698551D01*
X00852861Y01698413D01*
X00851173Y01696725D01*
X0085026Y0169452D01*
Y01692133D01*
X00851173Y01689928D01*
X00852861Y0168824D01*
X00855067Y01687327D01*
X00857454D01*
X00859659Y0168824D01*
X00861347Y01689928D01*
X00861484Y0169026D01*
X00865437Y01694212D01*
X0086661Y01693726D01*
Y0168604D01*
Y0167334D01*
Y0166064D01*
Y0164794D01*
Y01635903D01*
X00863855D01*
X00863523Y0163604D01*
X00861136D01*
X00858931Y01635126D01*
X00857243Y01633439D01*
X0085633Y01631234D01*
Y01628846D01*
X00857243Y01626641D01*
X00858931Y01624953D01*
X00861136Y0162404D01*
X00863523D01*
X00863855Y01624177D01*
X0086661D01*
Y0160984D01*
Y0159714D01*
Y0158444D01*
Y0157174D01*
Y0155904D01*
Y0154634D01*
X00886646D01*
X00886941Y01546281D01*
X00903213D01*
X00905473Y01544022D01*
X00906465Y01543359D01*
X00907635Y01543126D01*
X00907636Y01543126D01*
X0092809D01*
Y0154211D01*
X00942295D01*
X0094259Y01542051D01*
X00942886Y0154211D01*
X0094559D01*
Y01544574D01*
X00945709Y0154517D01*
X00945709Y0154517D01*
Y0159644D01*
X0094565Y01596736D01*
Y01604041D01*
X0097609Y01634481D01*
X0097609Y01634481D01*
X00994263Y01652654D01*
X0100207D01*
Y01651223D01*
X0102207D01*
Y01652654D01*
X01034705D01*
Y01652388D01*
X01054705D01*
Y01668388D01*
X01047181D01*
Y01670659D01*
X01182662D01*
X01193098Y01660223D01*
Y01643121D01*
X01186849Y01636872D01*
X01185678Y01637497D01*
X01185896Y01638594D01*
Y01646787D01*
X01186773Y01648098D01*
X01187122Y01649854D01*
Y01652854D01*
X01186773Y0165461D01*
X01185778Y01656099D01*
X01184289Y01657093D01*
X01182534Y01657442D01*
X01177534D01*
X01175778Y01657093D01*
X01174289Y01656099D01*
X01173295Y0165461D01*
X01172945Y01652854D01*
Y01649854D01*
X01173295Y01648098D01*
X01174171Y01646787D01*
Y01641022D01*
X01148918Y01615769D01*
X01147647Y01613867D01*
X01147201Y01611624D01*
Y01598929D01*
X01143064D01*
Y01582929D01*
X01163064D01*
Y01598929D01*
X01158926D01*
Y01609195D01*
X01178202Y01628471D01*
X01179372Y01627845D01*
X01179154Y01626749D01*
Y0161054D01*
X01174517D01*
Y0158954D01*
X01195517D01*
Y0161054D01*
X01190879D01*
Y0162432D01*
X01203106Y01636547D01*
X01204377Y01638449D01*
X01204824Y01640693D01*
Y01662652D01*
X01204824Y01662652D01*
X01204377Y01664895D01*
X01203106Y01666797D01*
X01189236Y01680667D01*
X01187334Y01681938D01*
X01185091Y01682384D01*
X01047181D01*
Y0168619D01*
X01046948Y01687361D01*
X01046285Y01688353D01*
X0104171Y01692928D01*
Y01701373D01*
X01042883Y01701859D01*
X01049018Y01695724D01*
X01049193Y01694846D01*
X01050188Y01693357D01*
X01051676Y01692363D01*
X01053432Y01692014D01*
X01058432D01*
X01060188Y01692363D01*
X01061676Y01693357D01*
X01062671Y01694846D01*
X01062982Y01696411D01*
X01064084Y01697042D01*
X01064129Y01697061D01*
X01068025Y01693165D01*
X01069927Y01691894D01*
X0107217Y01691447D01*
X01091591D01*
X01092138Y0169063D01*
X01093998Y01689386D01*
X01096193Y0168895D01*
X01103943D01*
X01106138Y01689386D01*
X01107998Y0169063D01*
X01108629Y01691573D01*
X0111871D01*
Y01690062D01*
X0113771D01*
Y01705062D01*
X0111871D01*
Y01703298D01*
X01108461D01*
X01107998Y0170399D01*
X01106138Y01705234D01*
X01103943Y0170567D01*
X01096193D01*
X01093998Y01705234D01*
X01092138Y0170399D01*
X01091591Y01703173D01*
X01083434D01*
X01082913Y01704148D01*
X0108289Y01704443D01*
X0108322Y01706102D01*
Y01709102D01*
X01082871Y01710857D01*
X01081876Y01712346D01*
X01080745Y01713102D01*
Y01715619D01*
X01080298Y01717863D01*
X01079027Y01719765D01*
X01079027Y01719765D01*
X01066858Y01731934D01*
X01067344Y01733107D01*
X01222262D01*
X01233563Y01721806D01*
Y01715792D01*
X01232687Y0171448D01*
X01232512Y01713602D01*
X01223717Y01704807D01*
X01217885D01*
X01217338Y01705624D01*
X01215478Y01706868D01*
X01213283Y01707304D01*
X01205533D01*
X01203338Y01706868D01*
X01201478Y01705624D01*
X01200234Y01703764D01*
X01199798Y01701569D01*
Y01696319D01*
X01200234Y01694124D01*
X01201478Y01692263D01*
X01202909Y01691307D01*
X01202524Y01690037D01*
X01199109D01*
X0119138Y01697766D01*
Y01706276D01*
X0117238D01*
Y01703839D01*
X01163239D01*
X01163227Y01703856D01*
X01161367Y01705099D01*
X01159172Y01705536D01*
X01151422D01*
X01149227Y01705099D01*
X01147366Y01703856D01*
X01146123Y01701996D01*
X01145687Y01699801D01*
Y01694551D01*
X01146123Y01692356D01*
X01147366Y01690495D01*
X01149227Y01689252D01*
X01151422Y01688816D01*
X01159172D01*
X01161367Y01689252D01*
X01163227Y01690495D01*
X01164308Y01692113D01*
X0117238D01*
Y01691276D01*
X01181353D01*
X01181484Y0169108D01*
X01192535Y01680029D01*
X01192535Y01680029D01*
X01194437Y01678758D01*
X0119668Y01678312D01*
X01196681Y01678312D01*
X01241076D01*
X01243319Y01678758D01*
X01245221Y01680029D01*
X01260828Y01695636D01*
X01262126D01*
X01263882Y01695986D01*
X0126537Y0169698D01*
X01266365Y01698469D01*
X01266714Y01700224D01*
Y01703224D01*
X01266385Y01704878D01*
X01266442Y01704952D01*
X01267807Y01705252D01*
X01274921Y01698138D01*
Y01690351D01*
X01255235Y01670666D01*
X01254904Y01670528D01*
X01253216Y01668841D01*
X01252302Y01666635D01*
Y01664248D01*
X01253216Y01662043D01*
X01254904Y01660355D01*
X01257109Y01659442D01*
X01259496D01*
X01261701Y01660355D01*
X01263389Y01662043D01*
X01263526Y01662375D01*
X01284929Y01683777D01*
X01284929Y01683777D01*
X012862Y01685679D01*
X01286646Y01687923D01*
Y01700567D01*
X012862Y0170281D01*
X01284929Y01704712D01*
X01266539Y01723102D01*
X01266365Y0172398D01*
X0126537Y01725469D01*
X01263882Y01726463D01*
X01262126Y01726813D01*
X01257126D01*
X0125537Y01726463D01*
X01253881Y01725469D01*
X01252887Y0172398D01*
X01252538Y01722224D01*
Y01719224D01*
X01252887Y01717469D01*
X01253881Y0171598D01*
X0125537Y01714986D01*
X01257126Y01714636D01*
X01258423D01*
X01264153Y01708906D01*
X01263853Y0170754D01*
X01263779Y01707484D01*
X01262126Y01707813D01*
X01257126D01*
X0125537Y01707463D01*
X01253881Y01706469D01*
X01252887Y0170498D01*
X01252712Y01704102D01*
X01238647Y01690037D01*
X01216292D01*
X01215907Y01691307D01*
X01217338Y01692263D01*
X01217885Y01693081D01*
X01226145D01*
X01228389Y01693528D01*
X01230291Y01694798D01*
X01240629Y01705136D01*
X01241926D01*
X01243681Y01705486D01*
X0124517Y0170648D01*
X01246165Y01707969D01*
X01246514Y01709724D01*
Y01712724D01*
X01246165Y0171448D01*
X01245288Y01715792D01*
Y01724234D01*
X01244842Y01726478D01*
X01243571Y0172838D01*
X01243571Y0172838D01*
X01228836Y01743115D01*
X01226934Y01744386D01*
X0122469Y01744832D01*
X01141195D01*
X0114107Y01746102D01*
X01141551Y01746198D01*
X01143536Y01747524D01*
X01144862Y01749509D01*
X01145328Y0175185D01*
Y0176185D01*
X01144862Y01764191D01*
X01143536Y01766176D01*
X01141551Y01767502D01*
X0113921Y01767968D01*
X01136869Y01767502D01*
X01134884Y01766176D01*
X01134345Y01765369D01*
X01133075D01*
X01132536Y01766176D01*
X01130551Y01767502D01*
X0112821Y01767968D01*
X01125869Y01767502D01*
X01123884Y01766176D01*
X01123345Y01765369D01*
X01122075D01*
X01121536Y01766176D01*
X01119551Y01767502D01*
X0111721Y01767968D01*
X01114869Y01767502D01*
X01112884Y01766176D01*
X01112345Y01765369D01*
X01111075D01*
X01110536Y01766176D01*
X01108551Y01767502D01*
X0110621Y01767968D01*
X01103869Y01767502D01*
X01101884Y01766176D01*
X01100558Y01764191D01*
X01100092Y0176185D01*
Y0175185D01*
X01100558Y01749509D01*
X01101884Y01747524D01*
X01103869Y01746198D01*
X0110435Y01746102D01*
X01104225Y01744832D01*
X01086195D01*
X0108607Y01746102D01*
X01086551Y01746198D01*
X01088536Y01747524D01*
X01089862Y01749509D01*
X01090328Y0175185D01*
Y0176185D01*
X01089862Y01764191D01*
X01088536Y01766176D01*
X01086551Y01767502D01*
X0108421Y01767968D01*
X01081869Y01767502D01*
X01079884Y01766176D01*
X01079345Y01765369D01*
X01078075D01*
X01077536Y01766176D01*
X01075551Y01767502D01*
X0107321Y01767968D01*
X01070869Y01767502D01*
X01068884Y01766176D01*
X01068345Y01765369D01*
X01067075D01*
X01066536Y01766176D01*
X01064551Y01767502D01*
X0106221Y01767968D01*
X01059869Y01767502D01*
X01057884Y01766176D01*
X01057345Y01765369D01*
X01056075D01*
X01055536Y01766176D01*
X01053551Y01767502D01*
X0105121Y01767968D01*
X01048869Y01767502D01*
X01046884Y01766176D01*
X01046345Y01765369D01*
X01045075D01*
X01044536Y01766176D01*
X01042551Y01767502D01*
X0104021Y01767968D01*
X01037869Y01767502D01*
X01035884Y01766176D01*
X01035345Y01765369D01*
X01034075D01*
X01033536Y01766176D01*
X01031551Y01767502D01*
X0102921Y01767968D01*
X01026869Y01767502D01*
X01024884Y01766176D01*
X01024345Y01765369D01*
X01023075D01*
X01022536Y01766176D01*
X01020551Y01767502D01*
X0101821Y01767968D01*
X01015869Y01767502D01*
X01013884Y01766176D01*
X01012558Y01764191D01*
X01012093Y0176185D01*
Y0175185D01*
X01012347Y01750568D01*
Y0174023D01*
X01012794Y01737986D01*
X01014064Y01736084D01*
X01022363Y01727786D01*
X0102271Y01726602D01*
X0102271D01*
X0102271Y01726602D01*
Y01724841D01*
X01012727D01*
X01012264Y01725535D01*
X01010403Y01726778D01*
X01008208Y01727215D01*
X01000459D01*
X00998264Y01726778D01*
X00996403Y01725535D01*
X009958Y01724632D01*
X00987225D01*
X00987098Y01724685D01*
X00984711D01*
X00983574Y01724214D01*
X00982518Y0172492D01*
Y01727276D01*
X00982285Y01728446D01*
X00981622Y01729439D01*
X00981622Y01729439D01*
X00976218Y01734843D01*
X00976218Y01734843D01*
X00975226Y01735506D01*
X00974055Y01735739D01*
X00974055Y01735739D01*
X00970062D01*
X00968892Y01735506D01*
X00967899Y01734843D01*
X00967899Y01734843D01*
X00963454Y01730397D01*
X00963191Y01730381D01*
X0096212Y01731285D01*
X0096212Y01731729D01*
Y01746576D01*
X00952411D01*
X00948782Y01750204D01*
Y0175522D01*
X0095042D01*
Y01765968D01*
X00950818Y01766134D01*
X00952506Y01767821D01*
X0095342Y01770027D01*
Y01772413D01*
X00952506Y01774619D01*
X00950818Y01776307D01*
X00948613Y0177722D01*
D02*
G37*
G36*
X005614Y01718829D02*
X005454D01*
Y01697471D01*
X005614D01*
Y01718829D01*
D02*
G37*
G36*
X005414D02*
X005254D01*
Y01697471D01*
X005414D01*
Y01718829D01*
D02*
G37*
G36*
X0066323Y01735371D02*
X0064563D01*
Y01714671D01*
X00648517D01*
Y01707403D01*
X0064633D01*
Y01687403D01*
X0066233D01*
Y01707403D01*
X00660243D01*
Y01714671D01*
X0066323D01*
Y01735371D01*
D02*
G37*
G36*
X01116515Y01668713D02*
X01096515D01*
Y01659445D01*
X01095245Y01659193D01*
X01095084Y01659581D01*
X01093396Y01661269D01*
X01093177Y0166136D01*
X01089679Y01664858D01*
X01087777Y01666129D01*
X01085533Y01666575D01*
X0108217D01*
Y01668713D01*
X0106217D01*
Y01652713D01*
X0108217D01*
Y0165404D01*
X0108344Y01654514D01*
X01084727Y01653228D01*
X01084911Y01652784D01*
X01086599Y01651096D01*
X01088804Y01650183D01*
X01091191D01*
X01093396Y01651096D01*
X01095084Y01652784D01*
X01095245Y01653173D01*
X01096515Y0165292D01*
Y01652713D01*
X01116515D01*
Y0165485D01*
X01125895D01*
Y01652713D01*
X01145895D01*
Y01654921D01*
X01156556D01*
X01157334Y01654766D01*
X01162334D01*
X01164089Y01655115D01*
X01165578Y0165611D01*
X01166572Y01657599D01*
X01166922Y01659354D01*
Y01662354D01*
X01166572Y0166411D01*
X01165578Y01665599D01*
X01164089Y01666593D01*
X01162334Y01666942D01*
X01157334D01*
X01155844Y01666646D01*
X01145895D01*
Y01668713D01*
X01125895D01*
Y01666575D01*
X01116515D01*
Y01668713D01*
D02*
G37*
G36*
X0108217Y01650713D02*
X0106217D01*
Y01648413D01*
X01054705D01*
Y01650388D01*
X01034705D01*
Y01634388D01*
X01038953D01*
Y0162422D01*
X01038911Y01624119D01*
Y01621732D01*
X01039824Y01619527D01*
X01041512Y01617839D01*
X01043717Y01616925D01*
X01046104D01*
X0104831Y01617839D01*
X01049997Y01619527D01*
X01050911Y01621732D01*
Y01624119D01*
X01050678Y01624682D01*
Y01634388D01*
X01054705D01*
Y01636688D01*
X0106217D01*
Y01634713D01*
X01073879D01*
X01077528Y01631064D01*
Y01625925D01*
X01076391D01*
Y01607925D01*
X010821D01*
X01101131Y01588895D01*
X01103033Y01587624D01*
X01105276Y01587177D01*
X01110325D01*
Y0158129D01*
X01130825D01*
Y0159879D01*
X01118141D01*
X01117575Y01598903D01*
X01107705D01*
X01090391Y01616216D01*
Y01625925D01*
X01089253D01*
Y01633492D01*
X01088807Y01635736D01*
X01087536Y01637638D01*
X0108217Y01643004D01*
Y01650713D01*
D02*
G37*
G36*
X0102207Y01649223D02*
X0100207D01*
Y01633223D01*
X01006429D01*
Y0162949D01*
X01005159Y01628544D01*
X01003734Y01628827D01*
X01000366D01*
X00999803Y0162906D01*
X00997417D01*
X00995211Y01628147D01*
X00993523Y01626459D01*
X0099261Y01624254D01*
Y01621866D01*
X00993523Y01619661D01*
X00995211Y01617973D01*
X00997417Y0161706D01*
X00999803D01*
X00999904Y01617102D01*
X01001305D01*
X01003118Y01615289D01*
X01003118Y01615289D01*
X0100502Y01614018D01*
X01005514Y0161392D01*
Y01607185D01*
X01011223D01*
X01028056Y01590352D01*
X01028056Y01590351D01*
X01029958Y01589081D01*
X01032201Y01588634D01*
X01032201Y01588634D01*
X01037101D01*
Y01582747D01*
X01057601D01*
Y01600247D01*
X01044917D01*
X01044351Y01600359D01*
X0103463D01*
X01019514Y01615476D01*
Y01625184D01*
X01018154D01*
Y01633223D01*
X0102207D01*
Y01649223D01*
D02*
G37*
G36*
X01116515Y01650713D02*
X01096515D01*
Y01634713D01*
X01100653D01*
Y01626027D01*
X01100515Y01625696D01*
Y01623309D01*
X01101429Y01621104D01*
X01103117Y01619416D01*
X01105322Y01618502D01*
X01107709D01*
X01109914Y01619416D01*
X01111602Y01621104D01*
X01112515Y01623309D01*
Y01625696D01*
X01112378Y01626027D01*
Y01634713D01*
X01116515D01*
Y01650713D01*
D02*
G37*
G36*
X00621342Y01636347D02*
X00618178D01*
X00615122Y01635528D01*
X00612381Y01633946D01*
X00610144Y01631709D01*
X00608562Y01628968D01*
X00607743Y01625912D01*
Y01622748D01*
X00608562Y01619692D01*
X00610144Y01616951D01*
X00612381Y01614714D01*
X00615122Y01613132D01*
X00618178Y01612313D01*
X00621342D01*
X00624398Y01613132D01*
X00627139Y01614714D01*
X00629376Y01616951D01*
X00630958Y01619692D01*
X00631777Y01622748D01*
Y01625912D01*
X00630958Y01628968D01*
X00629376Y01631709D01*
X00627139Y01633946D01*
X00624398Y01635528D01*
X00621342Y01636347D01*
D02*
G37*
G36*
X0066183Y016229D02*
X0064583D01*
Y0161306D01*
X00645434Y01612796D01*
X00637432Y01604793D01*
X00630251D01*
X00629376Y01606309D01*
X00627139Y01608546D01*
X00624398Y01610128D01*
X00621342Y01610947D01*
X00618178D01*
X00615122Y01610128D01*
X00612381Y01608546D01*
X00610144Y01606309D01*
X00608562Y01603568D01*
X00607743Y01600512D01*
Y01597348D01*
X00608562Y01594292D01*
X00610144Y01591551D01*
X00612381Y01589314D01*
X00615122Y01587732D01*
X00618178Y01586913D01*
X00621342D01*
X00624398Y01587732D01*
X00627139Y01589314D01*
X00629376Y01591551D01*
X00630251Y01593067D01*
X0063986D01*
X00642104Y01593514D01*
X00644006Y01594785D01*
X00652115Y01602894D01*
X00652146Y016029D01*
X0066183D01*
Y016229D01*
D02*
G37*
G36*
X00413214Y01646116D02*
X00384354D01*
Y01621066D01*
X00391914D01*
X00392166Y01619796D01*
X00390562Y01619132D01*
X00387946Y01617124D01*
X00385938Y01614508D01*
X00384676Y01611461D01*
X00384246Y01608191D01*
X00384676Y01604921D01*
X00385938Y01601875D01*
X00387946Y01599258D01*
X00390562Y01597251D01*
X00393609Y01595988D01*
X00396879Y01595558D01*
X00400689D01*
X00403959Y01595988D01*
X00407005Y01597251D01*
X00409622Y01599258D01*
X00411629Y01601875D01*
X00412891Y01604921D01*
X00413322Y01608191D01*
X00412891Y01611461D01*
X00411629Y01614508D01*
X00409622Y01617124D01*
X00407005Y01619132D01*
X00405401Y01619796D01*
X00405654Y01621066D01*
X00413214D01*
Y01646116D01*
D02*
G37*
G36*
X006631Y0158924D02*
X006471D01*
Y01581791D01*
X00628494D01*
X00627139Y01583146D01*
X00624398Y01584728D01*
X00621342Y01585547D01*
X00618178D01*
X00615122Y01584728D01*
X00612381Y01583146D01*
X00610144Y01580909D01*
X00608562Y01578168D01*
X00607743Y01575112D01*
Y01571948D01*
X00608562Y01568892D01*
X00610144Y01566151D01*
X00612381Y01563914D01*
X00615122Y01562332D01*
X00618178Y01561513D01*
X00621342D01*
X00624398Y01562332D01*
X00627139Y01563914D01*
X00629376Y01566151D01*
X00630958Y01568892D01*
X00631273Y01570066D01*
X006471D01*
Y0156924D01*
X006631D01*
Y0158924D01*
D02*
G37*
G36*
X01186399Y0158514D02*
X01183634D01*
X01180964Y01584424D01*
X0117857Y01583042D01*
X01176615Y01581087D01*
X01175783Y01579647D01*
X01163064D01*
Y01580929D01*
X01143064D01*
Y01564929D01*
X01163064D01*
Y01567922D01*
X01176886D01*
X0117857Y01566238D01*
X01180964Y01564855D01*
X01183634Y0156414D01*
X01186399D01*
X0118907Y01564855D01*
X01191464Y01566238D01*
X01193419Y01568193D01*
X01194801Y01570587D01*
X01195517Y01573257D01*
Y01576022D01*
X01194801Y01578693D01*
X01193419Y01581087D01*
X01191464Y01583042D01*
X0118907Y01584424D01*
X01186399Y0158514D01*
D02*
G37*
G36*
X005814Y01565187D02*
X005654D01*
Y01543829D01*
X005814D01*
Y01565187D01*
D02*
G37*
G36*
X005614D02*
X005454D01*
Y01543829D01*
X005614D01*
Y01565187D01*
D02*
G37*
G36*
X005414D02*
X005254D01*
Y01543829D01*
X005414D01*
Y01565187D01*
D02*
G37*
G36*
X00514504Y0157826D02*
X00512117D01*
X00509911Y01577347D01*
X00508223Y01575659D01*
X0050731Y01573454D01*
Y01571066D01*
X00507492Y01570626D01*
Y01565187D01*
X005054D01*
Y01543829D01*
X005214D01*
Y01565187D01*
X00519218D01*
Y01570844D01*
X0051931Y01571066D01*
Y01573454D01*
X00518397Y01575659D01*
X00516709Y01577347D01*
X00514504Y0157826D01*
D02*
G37*
G36*
X00621342Y01560147D02*
X00618178D01*
X00615122Y01559328D01*
X00612381Y01557746D01*
X00610144Y01555509D01*
X00608562Y01552768D01*
X00607743Y01549712D01*
Y01546548D01*
X00608562Y01543492D01*
X00610144Y01540751D01*
X00612381Y01538514D01*
X00615122Y01536932D01*
X00618178Y01536113D01*
X00621342D01*
X00624398Y01536932D01*
X00627139Y01538514D01*
X00629376Y01540751D01*
X00630958Y01543492D01*
X00631777Y01546548D01*
Y01549712D01*
X00630958Y01552768D01*
X00629376Y01555509D01*
X00627139Y01557746D01*
X00624398Y01559328D01*
X00621342Y01560147D01*
D02*
G37*
G36*
X006631Y0155178D02*
X006471D01*
Y01547778D01*
X0064665D01*
X00644445Y01546865D01*
X00642757Y01545177D01*
X00641844Y01542972D01*
Y01540585D01*
X00642757Y0153838D01*
X00644445Y01536692D01*
X0064665Y01535778D01*
X006471D01*
Y0153178D01*
X006631D01*
Y0155178D01*
D02*
G37*
G36*
X005014Y01565187D02*
X004854D01*
Y01543829D01*
X00487482D01*
Y01538358D01*
X0048729Y01537894D01*
Y01535506D01*
X00488203Y01533301D01*
X00489891Y01531613D01*
X00492096Y015307D01*
X00494483D01*
X00496689Y01531613D01*
X00498377Y01533301D01*
X0049929Y01535506D01*
Y01537894D01*
X00499208Y01538092D01*
Y01543829D01*
X005014D01*
Y01565187D01*
D02*
G37*
G36*
X0039116Y01545108D02*
X00386794Y01544678D01*
X00382596Y01543404D01*
X00378728Y01541336D01*
X00375337Y01538553D01*
X00372554Y01535162D01*
X00370486Y01531294D01*
X00369212Y01527096D01*
X00368782Y0152273D01*
X00369212Y01518364D01*
X00370486Y01514166D01*
X00372554Y01510298D01*
X00375337Y01506907D01*
X00378728Y01504124D01*
X00382596Y01502056D01*
X00386794Y01500782D01*
X0039116Y01500352D01*
X00395526Y01500782D01*
X00399724Y01502056D01*
X00403592Y01504124D01*
X00406983Y01506907D01*
X00409766Y01510298D01*
X00411834Y01514166D01*
X00413108Y01518364D01*
X00413538Y0152273D01*
X00413108Y01527096D01*
X00411834Y01531294D01*
X00409766Y01535162D01*
X00406983Y01538553D01*
X00403592Y01541336D01*
X00399724Y01543404D01*
X00395526Y01544678D01*
X0039116Y01545108D01*
D02*
G37*
G36*
X0114173Y01544998D02*
X01137364Y01544568D01*
X01133166Y01543294D01*
X01129298Y01541227D01*
X01125907Y01538443D01*
X01123124Y01535052D01*
X01121056Y01531184D01*
X01119782Y01526986D01*
X01119352Y0152262D01*
X01119782Y01518254D01*
X01121056Y01514057D01*
X01123124Y01510188D01*
X01125907Y01506797D01*
X01129298Y01504014D01*
X01133166Y01501946D01*
X01137364Y01500672D01*
X0114173Y01500242D01*
X01146096Y01500672D01*
X01150294Y01501946D01*
X01154162Y01504014D01*
X01157553Y01506797D01*
X01160336Y01510188D01*
X01162404Y01514057D01*
X01163678Y01518254D01*
X01164108Y0152262D01*
X01163678Y01526986D01*
X01162404Y01531184D01*
X01160336Y01535052D01*
X01157553Y01538443D01*
X01154162Y01541227D01*
X01150294Y01543294D01*
X01146096Y01544568D01*
X0114173Y01544998D01*
D02*
G37*
G36*
X0043975Y01572508D02*
X0042705D01*
X0042588Y01572275D01*
X00424887Y01571612D01*
X00424224Y0157062D01*
X00423991Y01569449D01*
Y01554091D01*
X00424224Y01552921D01*
X00424887Y01551928D01*
X00425341Y01551625D01*
Y01546829D01*
X004254Y01546534D01*
Y01543829D01*
X00428105D01*
X004284Y0154377D01*
X00430097D01*
Y01512092D01*
X0042846D01*
Y01496092D01*
X0044446D01*
Y01512092D01*
X00441823D01*
Y01549549D01*
X00441823Y01549549D01*
X00441459Y01551378D01*
Y01551625D01*
X00441913Y01551928D01*
X00442576Y01552921D01*
X00442809Y01554091D01*
Y01569449D01*
X00442576Y0157062D01*
X00441913Y01571612D01*
X0044092Y01572275D01*
X0043975Y01572508D01*
D02*
G37*
G36*
X00621342Y01509347D02*
X00618178D01*
X00615122Y01508528D01*
X00612381Y01506946D01*
X00610144Y01504709D01*
X00608562Y01501968D01*
X00607743Y01498912D01*
Y01495748D01*
X00608562Y01492692D01*
X00610144Y01489951D01*
X00612381Y01487714D01*
X00615122Y01486132D01*
X00618178Y01485313D01*
X00621342D01*
X00624398Y01486132D01*
X00627139Y01487714D01*
X00629376Y01489951D01*
X0063037Y01491672D01*
X00646878D01*
Y0148774D01*
X00662878D01*
Y0150774D01*
X00646878D01*
Y01503398D01*
X00630133D01*
X00629376Y01504709D01*
X00627139Y01506946D01*
X00624398Y01508528D01*
X00621342Y01509347D01*
D02*
G37*
G36*
X00680878Y0150774D02*
X00664878D01*
Y0148774D01*
X00672806D01*
X00673183Y01487584D01*
X0067557D01*
X00675947Y0148774D01*
X00680878D01*
Y0150774D01*
D02*
G37*
%LPD*%
G36*
X00800398Y02265713D02*
Y02253737D01*
X00797411Y02250751D01*
X00716809D01*
X00719628Y02258121D01*
Y02262077D01*
X00721245Y02265983D01*
X00725917Y02270654D01*
X00798351D01*
X00800398Y02265713D01*
D02*
G37*
G36*
X00921976Y02226982D02*
D01*
X00922226Y02214815D01*
X00911726D01*
X00911922Y02226982D01*
X0089334D01*
X00893504Y02268205D01*
X00898736Y02273423D01*
X00921976Y0227345D01*
Y02226982D01*
D02*
G37*
G36*
X00834118Y02267263D02*
Y02244723D01*
X00866812D01*
X00869857Y02241678D01*
Y02224D01*
X00883522D01*
X00883521Y02224177D01*
X00883522Y02224D01*
X00887176D01*
X00889843Y02221354D01*
X0088974Y02213982D01*
X00883986D01*
Y02217755D01*
X00882261Y02219079D01*
X00805618D01*
Y02243078D01*
Y0226709D01*
X00809521Y02270993D01*
X00830388D01*
X00834118Y02267263D01*
D02*
G37*
G36*
X00925191Y02196711D02*
Y0213106D01*
X0090898Y0213106D01*
Y02171593D01*
X00894206Y02185642D01*
X00893883Y02213982D01*
X00898472D01*
X00925191Y02196711D01*
D02*
G37*
%LPC*%
G36*
X0090898Y02172957D02*
Y02171593D01*
X00912476Y02168268D01*
X0090898Y02172957D01*
D02*
G37*
%LPD*%
G36*
X00964858Y01947179D02*
Y01921313D01*
X00964945Y01921226D01*
X00964858Y01917009D01*
X00964865Y01917003D01*
Y0182807D01*
Y01825826D01*
X00948401Y01809363D01*
X00938544D01*
X00938973Y0182807D01*
Y01918927D01*
X00926353Y01947179D01*
X00924819Y02054375D01*
X00964858D01*
Y01947179D01*
D02*
G37*
G36*
X00862618Y02181723D02*
X008459Y02176863D01*
Y02043013D01*
X00841624Y02038737D01*
X00832358D01*
D01*
X00808926Y02038737D01*
X00805485Y02042177D01*
X00805485Y02172878D01*
Y02201591D01*
X00805618Y02201723D01*
X00862618D01*
Y02181723D01*
D02*
G37*
G36*
X00462667Y0204969D02*
Y0204232D01*
X0057469D01*
X00576418Y02040592D01*
X00576217Y02040391D01*
Y02024046D01*
X00462667D01*
Y0201827D01*
X004266D01*
Y02024046D01*
X00426182D01*
X004266Y02040771D01*
Y02049822D01*
X00462799D01*
X00462667Y0204969D01*
D02*
G37*
G36*
X00555709Y01983547D02*
X00556067Y01983189D01*
X0055626Y01982722D01*
X0055626Y0198247D01*
X0055626Y0198247D01*
X0055626Y0195961D01*
X0055626Y01959357D01*
X00556067Y01958891D01*
X00555709Y01958533D01*
X00555243Y0195834D01*
X0055499Y0195834D01*
X0055499Y0195834D01*
X005334D01*
X0053086Y0196088D01*
X0053086Y0198247D01*
X0053086Y01982723D01*
X00531053Y01983189D01*
X00531411Y01983547D01*
X00531877Y0198374D01*
X0053213Y0198374D01*
Y0198374D01*
X0055499Y0198374D01*
X00555243Y0198374D01*
X00555709Y01983547D01*
D02*
G37*
G36*
X0049478Y01941374D02*
X00503682D01*
Y01906362D01*
X0045574D01*
X0045537Y01905992D01*
Y01941374D01*
X00490586D01*
X00490586Y01950547D01*
Y01968857D01*
X00495082Y01973353D01*
X00512344D01*
X0049478Y01941374D01*
D02*
G37*
G36*
X004111Y0204827D02*
X004116D01*
Y0203327D01*
Y0201827D01*
X004111D01*
X00386753Y0201827D01*
X00361386Y01992903D01*
X0034925Y01992903D01*
Y02045737D01*
X0035545Y02051937D01*
X004111D01*
Y0204827D01*
D02*
G37*
G36*
X0055691Y01854786D02*
Y0182269D01*
X0051095D01*
X00510436Y01872019D01*
X00539677D01*
X0055691Y01854786D01*
D02*
G37*
G36*
X00558013Y01756654D02*
X0055691Y01755551D01*
X0049299D01*
Y01771104D01*
X00474324D01*
X00474138Y0177129D01*
Y0178979D01*
X0049299D01*
Y01814696D01*
Y01817341D01*
X00558013D01*
Y01756654D01*
D02*
G37*
G36*
X00850186Y02017849D02*
X00850186Y01994793D01*
X00843634Y01988241D01*
X00813001D01*
X00805366Y01995876D01*
X00805366Y02018002D01*
X00814559Y02027196D01*
X00843791D01*
X00850186Y02017849D01*
D02*
G37*
G36*
X0077683Y0193191D02*
X00749623Y01904703D01*
Y0187415D01*
X0074993Y01874457D01*
Y01821224D01*
X00742749Y01821224D01*
X00709504Y01854469D01*
Y0187415D01*
X0073339D01*
Y01943581D01*
Y01952322D01*
X00733651Y01952583D01*
X0074623Y01965162D01*
X0077683D01*
Y0193191D01*
D02*
G37*
G36*
X00671073Y01874237D02*
Y01858361D01*
Y01852704D01*
X00705603D01*
Y01844967D01*
X0071337Y018372D01*
Y018257D01*
X00638412D01*
X00619692Y0180698D01*
X00596641Y01799805D01*
X0057271Y0180755D01*
Y0186062D01*
X00586326Y01874237D01*
X00671073Y01874237D01*
D02*
G37*
G36*
X0084083Y01962556D02*
Y0193191D01*
X00816856Y0188443D01*
X00802856D01*
X00802929Y01884503D01*
Y01963507D01*
X00839879D01*
X0084083Y01962556D01*
D02*
G37*
G36*
X0083101Y01877289D02*
Y01803306D01*
X0081701D01*
X0079874Y01821576D01*
Y01876719D01*
X00801406Y01879385D01*
X00828914D01*
X0083101Y01877289D01*
D02*
G37*
G36*
X00979459Y01727276D02*
Y0169418D01*
X01036132D01*
X01044122Y0168619D01*
Y01655713D01*
X00989591D01*
X009399Y01606582D01*
X00925524D01*
X00923906Y016082D01*
X0096458Y01648874D01*
Y01727198D01*
X00970062Y0173268D01*
X00974055D01*
X00979459Y01727276D01*
D02*
G37*
G36*
X0094265Y0154517D02*
X0094259Y0154511D01*
X00941516Y01546185D01*
X00907635D01*
X0090448Y0154934D01*
X00886941D01*
Y0155834D01*
X0091365D01*
Y0159644D01*
X0094265D01*
Y0154517D01*
D02*
G37*
G36*
X0043975Y01554091D02*
X004384D01*
Y01546829D01*
X004284D01*
Y01554091D01*
X0042705D01*
Y01569449D01*
X0043975D01*
Y01554091D01*
D02*
G37*
D11*
X00658642Y0183145D02*
X0070597D01*
X0064161D02*
X00658642D01*
X0066094Y01833748D02*
Y01861094D01*
X00658642Y0183145D02*
X0066094Y01833748D01*
X0060721Y0179705D02*
X0064161Y0183145D01*
X0059521Y0179705D02*
X0060721D01*
D12*
X0052331Y0197854D02*
Y0198354D01*
D14*
X00547836Y01938412D02*
X0054841Y01937838D01*
X00547836Y01938412D02*
Y01943732D01*
X0054606Y01945508D02*
Y0195079D01*
Y01945508D02*
X00547836Y01943732D01*
X00510904Y01935154D02*
X0052297Y01923088D01*
X00510904Y01935154D02*
Y01959613D01*
X0052297Y01912112D02*
Y01923088D01*
X0052256Y01958743D02*
X0052331D01*
X00529661Y01995602D02*
X0053106Y01994203D01*
X00529087Y02002988D02*
X00529661Y02002413D01*
X0053106Y0199129D02*
Y01994203D01*
X00529661Y01995602D02*
Y02002413D01*
X00555857Y0199129D02*
Y02013441D01*
X00556395Y02013979D01*
X00535662Y01979142D02*
X0054356Y01971243D01*
X0053106Y0198354D02*
X00535458Y01979142D01*
X0054356Y0197104D02*
Y01971243D01*
X00535458Y01979142D02*
X00535662D01*
X0053106Y0198354D02*
Y0199129D01*
Y0195854D02*
X0053336Y0196084D01*
X00543357Y0197104D02*
X0054356D01*
X0053336Y01961043D02*
X00543357Y0197104D01*
X0053336Y0196084D02*
Y01961043D01*
X0052331Y0195854D02*
X0053106D01*
X00565592Y01985322D02*
X00572372D01*
X0056381Y0198354D02*
X00565592Y01985322D01*
X00572372D02*
X00572946Y01985896D01*
X0055106Y01946165D02*
Y01949134D01*
X00550857Y01949337D02*
X0055106Y01949134D01*
X0054106Y01933877D02*
Y0195079D01*
X0055106Y01946165D02*
X00567025Y019302D01*
X00550857Y01949337D02*
Y0195079D01*
X0054106Y01933877D02*
X00550497Y0192444D01*
X00567025Y019302D02*
X0057392D01*
X00555857Y0195004D02*
Y0195079D01*
X0057032Y0193653D02*
X00582511D01*
X0055681Y0195004D02*
X0057032Y0193653D01*
X00555857Y0195004D02*
X0055681D01*
X00550497Y01912111D02*
Y0192444D01*
X0059991Y0196854D02*
X0062462Y0194383D01*
X0056381Y0196854D02*
X0059991D01*
X0062462Y0194183D02*
Y0194383D01*
X00548953Y01996804D02*
X0055106Y01994697D01*
X00548379Y0200419D02*
X00548953Y02003616D01*
X0055106Y0199129D02*
Y01994697D01*
X00548953Y01996804D02*
Y02003616D01*
X00510904Y01959613D02*
X0051483Y0196354D01*
X0052331D01*
X0046219Y0198354D02*
X0052331D01*
X00599413Y01915866D02*
Y01919628D01*
Y01915866D02*
X00602913Y01912366D01*
X00604515D01*
X00582511Y0193653D02*
X00599413Y01919628D01*
X0057392Y019302D02*
X00578216Y01925904D01*
Y01912478D02*
Y01925904D01*
X0057785Y01912112D02*
X00578216Y01912478D01*
X00797911Y01791144D02*
X00798749Y01790306D01*
X00600204Y0197854D02*
X00611515Y01967228D01*
X0056381Y0197854D02*
X00600204D01*
X00611515Y01967228D02*
X00624618D01*
X0062462Y0196723D01*
X0054106Y0199129D02*
X0054606D01*
X0053606D02*
X0054106D01*
X0046112Y0198247D02*
X0046219Y0198354D01*
X00852618Y02234723D02*
X00865361Y0222198D01*
X00883535D01*
X0088679Y02207932D02*
Y02218725D01*
X00834118Y02234723D02*
X00852618D01*
X00883535Y0222198D02*
X0088679Y02218725D01*
D18*
X0030301Y0193667D02*
D03*
Y0192667D02*
D03*
D19*
Y0191647D02*
D03*
X00303009Y01946869D02*
D03*
D20*
X0030301Y0190417D02*
D03*
X00303009Y01959169D02*
D03*
D21*
X00746813Y02152867D02*
D03*
Y02129367D02*
D03*
X00947735Y02096509D02*
D03*
Y02120009D02*
D03*
X01209408Y01722444D02*
D03*
Y01698944D02*
D03*
X00720005Y02152421D02*
D03*
Y02128921D02*
D03*
X01228369Y0196414D02*
D03*
Y0198764D02*
D03*
X0120269Y0198739D02*
D03*
Y0196389D02*
D03*
X01205153Y01760604D02*
D03*
Y01784104D02*
D03*
X01228594Y01760604D02*
D03*
Y01784104D02*
D03*
X0124826Y01883441D02*
D03*
Y01906941D02*
D03*
X01100068Y0169731D02*
D03*
Y0172081D02*
D03*
X01004333Y01718855D02*
D03*
Y01695354D02*
D03*
X01155297Y01697176D02*
D03*
Y01720676D02*
D03*
X01279198Y01883412D02*
D03*
Y01906912D02*
D03*
X0125857Y0176117D02*
D03*
Y0178467D02*
D03*
X0128651Y0176117D02*
D03*
Y0178467D02*
D03*
X0106045Y0198787D02*
D03*
Y0196437D02*
D03*
X0111887Y0198787D02*
D03*
Y0196437D02*
D03*
X0117602Y0198787D02*
D03*
Y0196437D02*
D03*
D22*
X00611909Y02243051D02*
D03*
Y02265651D02*
D03*
Y02254351D02*
D03*
Y02231751D02*
D03*
Y02220451D02*
D03*
Y02209151D02*
D03*
Y02197851D02*
D03*
Y02186551D02*
D03*
Y02175251D02*
D03*
X00710909Y02243051D02*
D03*
Y02209151D02*
D03*
Y02265651D02*
D03*
Y02254351D02*
D03*
Y02231751D02*
D03*
Y02220451D02*
D03*
Y02209151D02*
D03*
Y02197851D02*
D03*
Y02186551D02*
D03*
Y02175251D02*
D03*
D23*
X01259626Y01720724D02*
D03*
X01239426Y01711224D02*
D03*
X01259626Y01701724D02*
D03*
X01159834Y01641854D02*
D03*
X01180034Y01651354D02*
D03*
X01159834Y01660854D02*
D03*
X01055932Y01717102D02*
D03*
X01076132Y01707602D02*
D03*
X01055932Y01698102D02*
D03*
D24*
X00889112Y02046375D02*
D03*
X00945112D02*
D03*
X00945112Y01972262D02*
D03*
X00889112D02*
D03*
D25*
X00943901Y01815863D02*
D03*
X00920901D02*
D03*
X00920473Y01841143D02*
D03*
X00943473D02*
D03*
X0092133Y01866423D02*
D03*
X0094433D02*
D03*
X0092133Y01891274D02*
D03*
X0094433D02*
D03*
X0092133Y01919125D02*
D03*
X0094433D02*
D03*
X00862756Y02096007D02*
D03*
X00839756D02*
D03*
X00839615Y0211878D02*
D03*
X00862615D02*
D03*
X00839649Y02141559D02*
D03*
X00862649D02*
D03*
X008394Y02164192D02*
D03*
X008624D02*
D03*
X00916976Y0213995D02*
D03*
X00893976D02*
D03*
X00917476Y0226695D02*
D03*
X00940476D02*
D03*
X00357052Y0198936D02*
D03*
X00380052D02*
D03*
X00847215Y02263408D02*
D03*
X00824214D02*
D03*
X00916976Y02164192D02*
D03*
X00893976D02*
D03*
X0094292Y0176472D02*
D03*
X0091992D02*
D03*
D26*
X0099071Y0186835D02*
D03*
Y0187935D02*
D03*
X0116671Y0184635D02*
D03*
Y0180235D02*
D03*
Y0181335D02*
D03*
Y0182435D02*
D03*
Y0183535D02*
D03*
Y0186835D02*
D03*
X0099071Y0183535D02*
D03*
Y0182435D02*
D03*
Y0181335D02*
D03*
Y0180235D02*
D03*
Y0179135D02*
D03*
X0116671D02*
D03*
Y0185735D02*
D03*
Y0187935D02*
D03*
X0099071Y0185735D02*
D03*
Y0184635D02*
D03*
D27*
X0101821Y0175685D02*
D03*
X0102921D02*
D03*
X0104021D02*
D03*
X0105121D02*
D03*
X0106221D02*
D03*
X0107321D02*
D03*
X0108421D02*
D03*
X0110621D02*
D03*
X0111721D02*
D03*
X0112821D02*
D03*
X0113921D02*
D03*
Y0191385D02*
D03*
X0112821D02*
D03*
X0111721D02*
D03*
X0110621D02*
D03*
X0109521D02*
D03*
X0107321D02*
D03*
X0102921D02*
D03*
X0106221D02*
D03*
X0109521Y0175685D02*
D03*
X0108421Y0191385D02*
D03*
X0105121D02*
D03*
X0104021D02*
D03*
X0101821D02*
D03*
D28*
X0107871Y0182285D02*
D03*
Y0184785D02*
D03*
X0110871D02*
D03*
X0104871D02*
D03*
X0110871Y0182285D02*
D03*
D29*
X010525Y01824668D02*
D03*
D30*
X01199413Y01827326D02*
D03*
Y01845826D02*
D03*
D31*
X0094354Y0179135D02*
D03*
X0092004D02*
D03*
X0092397Y0165094D02*
D03*
X0094747D02*
D03*
X00946673Y01679453D02*
D03*
X00923173D02*
D03*
X00916976Y0219329D02*
D03*
X00940476D02*
D03*
Y0221869D02*
D03*
X00916976D02*
D03*
Y0224155D02*
D03*
X00940476D02*
D03*
D32*
X01047351Y01591497D02*
D03*
Y01573497D02*
D03*
X0039812Y02184764D02*
D03*
Y02166764D02*
D03*
X00733934Y02257091D02*
D03*
Y02239091D02*
D03*
X00761985Y02256648D02*
D03*
Y02238648D02*
D03*
X0070612Y0183145D02*
D03*
Y0181345D02*
D03*
X0047554Y0149711D02*
D03*
Y0151511D02*
D03*
X0052554Y0149711D02*
D03*
Y0151511D02*
D03*
X0050054Y0149711D02*
D03*
Y0151511D02*
D03*
X0038039Y0174476D02*
D03*
Y0176276D02*
D03*
X0052297Y01912112D02*
D03*
Y01894112D02*
D03*
X0049403Y01912112D02*
D03*
Y01894112D02*
D03*
X01120575Y0159004D02*
D03*
Y0157204D02*
D03*
D33*
X0107217Y01660713D02*
D03*
Y01642713D02*
D03*
X01044705Y01660388D02*
D03*
Y01642388D02*
D03*
X0051435Y0214006D02*
D03*
Y0212206D02*
D03*
X0101207Y01659223D02*
D03*
Y01641223D02*
D03*
X01106515Y01642713D02*
D03*
Y01660713D02*
D03*
X0081129Y0189227D02*
D03*
Y0187427D02*
D03*
X0082401Y01790306D02*
D03*
Y01808306D02*
D03*
X00547373Y02170181D02*
D03*
Y02188181D02*
D03*
X0035391Y02183602D02*
D03*
Y02201602D02*
D03*
X00660659Y0188745D02*
D03*
Y0186945D02*
D03*
X0053975Y0203824D02*
D03*
Y0205624D02*
D03*
X00508Y0174222D02*
D03*
Y0176022D02*
D03*
X0054991Y0182891D02*
D03*
Y0181091D02*
D03*
X00345864Y01798027D02*
D03*
Y01780027D02*
D03*
X0057785Y01894112D02*
D03*
Y01912112D02*
D03*
X00604515Y01894366D02*
D03*
Y01912366D02*
D03*
X00550497Y01894111D02*
D03*
Y01912111D02*
D03*
X0056769Y0205532D02*
D03*
Y0203732D02*
D03*
X01135895Y01642713D02*
D03*
Y01660713D02*
D03*
X01153064Y01572929D02*
D03*
Y01590929D02*
D03*
D34*
X0078626Y0163449D02*
D03*
X0080461D02*
D03*
X0082296D02*
D03*
X0078626Y0161614D02*
D03*
X0080461D02*
D03*
X0082296D02*
D03*
X0078626Y0159779D02*
D03*
X0080461D02*
D03*
X0082296D02*
D03*
D35*
X0070961Y0154114D02*
D03*
Y0155384D02*
D03*
Y0156654D02*
D03*
Y0157924D02*
D03*
Y0159194D02*
D03*
Y0160464D02*
D03*
Y0161734D02*
D03*
Y0163004D02*
D03*
Y0164274D02*
D03*
Y0165544D02*
D03*
Y0166814D02*
D03*
Y0168084D02*
D03*
Y0169354D02*
D03*
Y0170624D02*
D03*
X0087961D02*
D03*
Y0169354D02*
D03*
Y0168084D02*
D03*
Y0166814D02*
D03*
Y0165544D02*
D03*
Y0164274D02*
D03*
Y0163004D02*
D03*
Y0161734D02*
D03*
Y0160464D02*
D03*
Y0159194D02*
D03*
Y0157924D02*
D03*
Y0156654D02*
D03*
Y0155384D02*
D03*
Y0154114D02*
D03*
D36*
X0073746Y0171624D02*
D03*
X0075016D02*
D03*
X0076286D02*
D03*
X0077556D02*
D03*
X0078826D02*
D03*
X0080096D02*
D03*
X0081366D02*
D03*
X0082636D02*
D03*
X0083906D02*
D03*
X0085176D02*
D03*
D37*
X00797911Y01791144D02*
D03*
X00780111D02*
D03*
X00469386Y02123826D02*
D03*
X00487186D02*
D03*
X00303631Y01823004D02*
D03*
X00321431D02*
D03*
X0064154Y02135036D02*
D03*
X0065934D02*
D03*
X0047379Y01751222D02*
D03*
X0045599D02*
D03*
X00321431Y01862072D02*
D03*
X00303631D02*
D03*
X0065443Y01725021D02*
D03*
X0067223D02*
D03*
D38*
X00511959Y02164913D02*
D03*
X00481959D02*
D03*
X0078129Y0183896D02*
D03*
X0081129D02*
D03*
X00449888Y0178054D02*
D03*
X00479888D02*
D03*
D39*
X00598175Y0205782D02*
D03*
Y0203482D02*
D03*
X00787649Y02257989D02*
D03*
Y02234989D02*
D03*
X01216698Y01906552D02*
D03*
Y01883553D02*
D03*
X0051308Y02033781D02*
D03*
Y02056781D02*
D03*
X00485561Y0203378D02*
D03*
Y0205678D02*
D03*
X00830731Y02020237D02*
D03*
Y02043237D02*
D03*
X0112821Y01720562D02*
D03*
Y01697562D02*
D03*
X0103221Y01696102D02*
D03*
Y01719102D02*
D03*
X0118188Y01721776D02*
D03*
Y01698776D02*
D03*
X01033673Y01988274D02*
D03*
Y01965274D02*
D03*
X0108839Y0198762D02*
D03*
Y0196462D02*
D03*
X0114808Y0198889D02*
D03*
Y0196589D02*
D03*
X0119249Y01883254D02*
D03*
Y01906254D02*
D03*
D40*
X0056896Y0148187D02*
D03*
Y0151787D02*
D03*
D41*
X006551Y0154178D02*
D03*
X006731D02*
D03*
X00672878Y0149774D02*
D03*
X00654878D02*
D03*
X00352847Y02222366D02*
D03*
X00370847D02*
D03*
X00685915Y0191897D02*
D03*
X00667915D02*
D03*
X00370847Y02246366D02*
D03*
X00352847D02*
D03*
X00640893Y02101711D02*
D03*
X00658894D02*
D03*
X00685915Y0194883D02*
D03*
X00667915D02*
D03*
X00359554Y0193802D02*
D03*
X00377554D02*
D03*
X00359554Y0191135D02*
D03*
X00377554D02*
D03*
X00354388Y01871724D02*
D03*
X00372388D02*
D03*
X0037239Y01846832D02*
D03*
X0035439D02*
D03*
X0064262Y0196723D02*
D03*
X0062462D02*
D03*
X0064262Y0194183D02*
D03*
X0062462D02*
D03*
X0064262Y0199263D02*
D03*
X0062462D02*
D03*
X00377552Y0196469D02*
D03*
X00359552D02*
D03*
X006731Y0157924D02*
D03*
X006551D02*
D03*
X0067183Y016129D02*
D03*
X0065383D02*
D03*
X0065433Y01697403D02*
D03*
X0067233D02*
D03*
D42*
X0059539Y02254147D02*
D03*
D43*
X0058039Y02239397D02*
D03*
Y02268898D02*
D03*
D44*
X005461Y0224663D02*
D03*
X004821D02*
D03*
X0076683Y0194691D02*
D03*
X0083083D02*
D03*
X0052095Y0183769D02*
D03*
X0045695D02*
D03*
D45*
X0044323Y02170514D02*
D03*
Y02210514D02*
D03*
X0074168Y01834474D02*
D03*
Y01794474D02*
D03*
X0041656Y0178784D02*
D03*
Y0174784D02*
D03*
D46*
X00407772Y02233916D02*
D03*
X00398272D02*
D03*
X00388772D02*
D03*
Y02210816D02*
D03*
X00398272D02*
D03*
X00407772D02*
D03*
X0071247Y018669D02*
D03*
X0070297D02*
D03*
X0069347D02*
D03*
Y0189D02*
D03*
X0071247D02*
D03*
X0070297D02*
D03*
X0038989Y0179554D02*
D03*
X0038039D02*
D03*
X0037089D02*
D03*
Y0181864D02*
D03*
X0038039D02*
D03*
X0038989D02*
D03*
D47*
X0042142Y0226163D02*
D03*
X0043942D02*
D03*
X0073914Y0191897D02*
D03*
X0072114D02*
D03*
X0042937Y0184683D02*
D03*
X0041137D02*
D03*
X0046112Y0195707D02*
D03*
X0044312D02*
D03*
X0046112Y0198247D02*
D03*
X0044312D02*
D03*
Y0190246D02*
D03*
X0046112D02*
D03*
X0044312Y019304D02*
D03*
X0046112D02*
D03*
X00625382Y020193D02*
D03*
X00643382D02*
D03*
X0095484Y0155236D02*
D03*
X0093684D02*
D03*
D48*
X00914056Y0210003D02*
D03*
X00893056D02*
D03*
D49*
X0097519Y0221488D02*
D03*
X0117729D02*
D03*
Y0209288D02*
D03*
X0097519D02*
D03*
D50*
X0113874Y0202338D02*
D03*
X0110004D02*
D03*
X0108734D02*
D03*
X0107464D02*
D03*
X0106194D02*
D03*
X0104924D02*
D03*
X0103654D02*
D03*
X0102384D02*
D03*
X0111274D02*
D03*
D51*
X0088679Y02207932D02*
D03*
X0089629Y02233032D02*
D03*
X0088679D02*
D03*
X0087729D02*
D03*
X0089629Y02207932D02*
D03*
X0087729D02*
D03*
D52*
X00834118Y02234723D02*
D03*
Y02191723D02*
D03*
D53*
X0035391Y02113326D02*
D03*
X0042291D02*
D03*
X0026628Y0172339D02*
D03*
X0033528D02*
D03*
X0066421Y0179705D02*
D03*
X0059521D02*
D03*
D54*
X012827Y0196689D02*
D03*
Y0198789D02*
D03*
X012573Y0196689D02*
D03*
Y0198789D02*
D03*
D55*
X0042171Y01489092D02*
D03*
X0045121D02*
D03*
X0100748Y01978182D02*
D03*
X0097798D02*
D03*
D56*
X0043646Y01504092D02*
D03*
X0099273Y01963182D02*
D03*
D57*
X00865585Y0207152D02*
D03*
X00831985D02*
D03*
D58*
X0033528Y02039112D02*
D03*
Y02019808D02*
D03*
X003556Y0202946D02*
D03*
D59*
X004334Y01554508D02*
D03*
X004534D02*
D03*
X004734D02*
D03*
X004934D02*
D03*
X005134D02*
D03*
X005334D02*
D03*
X005534D02*
D03*
X005734D02*
D03*
Y0170815D02*
D03*
X005534D02*
D03*
X005334D02*
D03*
X005134D02*
D03*
X004934D02*
D03*
X004734D02*
D03*
X004534D02*
D03*
X004334D02*
D03*
D60*
X0056381Y01963743D02*
D03*
Y01968743D02*
D03*
Y01973743D02*
D03*
Y01978743D02*
D03*
Y01983743D02*
D03*
Y01958743D02*
D03*
X0052331Y01963743D02*
D03*
Y01968743D02*
D03*
Y01973743D02*
D03*
Y01978743D02*
D03*
Y01983743D02*
D03*
Y01958743D02*
D03*
D61*
X00545857Y0195079D02*
D03*
X00535857D02*
D03*
X00555857D02*
D03*
X00540857D02*
D03*
X00550857D02*
D03*
X00530857D02*
D03*
X00545857Y0199129D02*
D03*
X00535857D02*
D03*
X00555857D02*
D03*
X00540857D02*
D03*
X00550857D02*
D03*
X00530857D02*
D03*
D62*
X0054356Y01971243D02*
D03*
D63*
X0124079Y01848547D02*
D03*
X0123129Y01828347D02*
D03*
X0125029D02*
D03*
X01276198Y01848547D02*
D03*
X01266698Y01828347D02*
D03*
X01285698D02*
D03*
D64*
X0094752Y01709184D02*
D03*
X0092732Y01718684D02*
D03*
Y01699684D02*
D03*
D65*
X0091872Y01738576D02*
D03*
X0095312D02*
D03*
D66*
X0096415Y016002D02*
D03*
X0092815D02*
D03*
D67*
X01083391Y01546925D02*
D03*
Y01616925D02*
D03*
X01012514Y01546185D02*
D03*
Y01616185D02*
D03*
D124*
X004066Y0203327D02*
D03*
X004316D02*
D03*
D125*
X00425513Y0173734D02*
X00439463Y0172339D01*
X00536063Y022755D02*
X00544905Y02266658D01*
X00337527Y02256601D02*
X00356426Y022755D01*
X00536063D01*
X00337527Y02226666D02*
Y02256601D01*
X0025527Y01756037D02*
Y01831667D01*
X00241666Y01845271D02*
X0025527Y01831667D01*
Y01756037D02*
X00257055Y01754252D01*
X00241666Y01845271D02*
Y02025021D01*
X00493345Y01536755D02*
Y01554453D01*
X0049329Y015367D02*
X00493345Y01536755D01*
X00916976Y0214884D02*
Y02164192D01*
Y0213995D02*
Y0214884D01*
X0068671Y0180755D02*
X0069261Y0181345D01*
X0070612D01*
X0070462D02*
X0070612D01*
X0069597Y018048D02*
X0070462Y0181345D01*
X0071062Y01809034D02*
Y0181045D01*
X0070762Y0181345D02*
X0071062Y0181045D01*
Y01809034D02*
X0072518Y01794474D01*
X00659117Y02101935D02*
Y02134813D01*
X0065934Y02135036D01*
X00658894Y02101711D02*
X00659117Y02101935D01*
X00617427Y02109373D02*
X0064154Y02133486D01*
Y02135036D01*
X00617427Y02064765D02*
Y02109373D01*
X00602117Y02080075D02*
X00617427Y02064765D01*
Y02052072D02*
Y02064765D01*
X00600175Y0203482D02*
X00617427Y02052072D01*
X00659103Y02135273D02*
X0065934Y02135036D01*
X0051508Y02056781D02*
X00538374Y02080075D01*
X00602117D01*
X00583049Y02070946D02*
X00596175Y0205782D01*
X0054175Y0205624D02*
X00556456Y02070946D01*
X0053975Y0205624D02*
X0054175D01*
X00556456Y02070946D02*
X00583049D01*
X00596175Y0205782D02*
X00598175D01*
X00746813Y02129367D02*
X00746893Y02129287D01*
Y02110993D02*
X00746973Y02110913D01*
X00746893Y02110993D02*
Y02129287D01*
X00720005Y02111461D02*
Y02128921D01*
X007675Y02109849D02*
Y02177609D01*
X00736066Y02209043D02*
X007675Y02177609D01*
X00747726Y02153781D02*
Y02182639D01*
X00732718Y02197648D02*
X00747726Y02182639D01*
X00746813Y02152867D02*
X00747726Y02153781D01*
X00710909Y02197648D02*
X00732718D01*
X00783966Y02109849D02*
Y02179584D01*
X00743303Y02220247D02*
X00783966Y02179584D01*
X00710909Y02220247D02*
X00743303D01*
X00814945Y01974981D02*
X00896774D01*
X00898045Y01973709D01*
X00671097Y01985264D02*
X00788594D01*
X00813542Y01924622D02*
Y01960317D01*
X00788594Y01985264D02*
X00813542Y01960317D01*
X00598175Y0203482D02*
X00600175D01*
X00596175D02*
X00598175D01*
X0064262Y0194183D02*
Y0196723D01*
X0043773Y0198936D02*
X0044312Y0198397D01*
X0052297Y01894112D02*
X00550496D01*
X0049403Y01894112D02*
X0052297D01*
X0052297Y01894112D01*
X00550496D02*
X00550497Y01894111D01*
X00397414Y01875486D02*
X0039751Y0187539D01*
X00397414Y01875486D02*
Y01879994D01*
X0038694Y01883734D02*
X00393674D01*
X00397414Y01879994D01*
X00377553Y01938021D02*
Y01964689D01*
X00321505Y0190417D02*
X00321794Y01903881D01*
X0030301Y0190417D02*
X00321505D01*
X00321794Y01903881D02*
X00321929D01*
X008624Y0209765D02*
Y02164192D01*
X008394Y02089157D02*
Y02096007D01*
X00812049Y02173363D02*
Y02184473D01*
X00513355Y01554553D02*
Y01572215D01*
X0051331Y0157226D02*
X00513355Y01572215D01*
X0069022Y02179357D02*
X00694327Y02175251D01*
X00627212Y02242365D02*
X0069022Y02179357D01*
X00691364Y02180501D01*
Y02193708D01*
X00723755Y02156171D02*
X00730171Y02162586D01*
X00726949Y02186348D02*
X00730171Y02183126D01*
X00710909Y02186348D02*
X00726949D01*
X00730171Y02162586D02*
Y02183126D01*
X00720005Y02152421D02*
X00721255D01*
X00723755Y02154921D02*
Y02156171D01*
X00721255Y02152421D02*
X00723755Y02154921D01*
X00745429Y01685112D02*
X00745564Y01684977D01*
X00710813Y02209043D02*
X00736066D01*
X00710813D02*
X00710909Y02208947D01*
X0073406Y02239299D02*
X00734642Y02239881D01*
X00734155Y02238869D02*
X00761763D01*
X0062738Y02253786D02*
Y022606D01*
X00627212Y02250605D02*
Y02253618D01*
Y02242365D02*
Y02250605D01*
X00620708Y02244101D02*
X00627212Y02250605D01*
Y02253618D02*
X0062738Y02253786D01*
X00694327Y02175251D02*
X00710705D01*
X00710909Y02175047D01*
X00763485Y02238648D02*
X00767143Y02234989D01*
X00787649D01*
X00761985Y02238648D02*
X00763485D01*
X00733934Y02239091D02*
X00734155Y02238869D01*
X00761763D02*
X00761985Y02238648D01*
X00336865Y01989378D02*
X00359552Y0196669D01*
X00336865Y01989378D02*
Y02003092D01*
X00359552Y0196469D02*
Y0196669D01*
X00321131Y02039393D02*
X00334999D01*
X0033528Y02039112D01*
X00321035Y02039489D02*
X00321131Y02039393D01*
X00302325Y01946186D02*
X00303009Y01946869D01*
X00294832Y01946186D02*
X00302325D01*
X00290466Y01921704D02*
Y01941821D01*
Y01921704D02*
X00294641Y0191753D01*
X00290466Y01941821D02*
X00294832Y01946186D01*
X0030195Y0191753D02*
X0030301Y0191647D01*
X00294641Y0191753D02*
X0030195D01*
X0106221Y01898093D02*
X01062447Y01897856D01*
X0106221Y01898093D02*
Y0191385D01*
X01062447Y01897721D02*
Y01897856D01*
X01040114Y01880383D02*
X0104871Y01871787D01*
Y0184785D02*
X0107871D01*
X0104871D02*
Y01871787D01*
X0104621Y0184785D02*
X0104871D01*
X0099071Y0185735D02*
X0103671D01*
X0104621Y0184785D01*
X0107871Y0182285D02*
Y0184785D01*
X01040114Y01880383D02*
Y01913754D01*
X00961364Y02266816D02*
Y02266952D01*
X00940477Y02266951D02*
X00961363D01*
X00961364Y02266952D01*
X00940476Y0226695D02*
X00940477Y02266951D01*
X00889112Y01953343D02*
X0092133Y01921125D01*
Y01919125D02*
Y01921125D01*
X00889112Y01953343D02*
Y01972262D01*
X00481811Y0205853D02*
X00483561Y0205678D01*
X00469386Y02072955D02*
Y02123826D01*
X00483561Y0205678D02*
X00485561D01*
X00481811Y0205853D02*
Y0206053D01*
X00469386Y02072955D02*
X00481811Y0206053D01*
X0056769Y0205532D02*
X0056969D01*
X0056569D02*
X0056769D01*
X0056344Y0205757D02*
X0056569Y0205532D01*
X0051308Y02056781D02*
X0051508D01*
X00241666Y02025021D02*
X00322221Y02105576D01*
X00252633Y01986447D02*
X00260158Y01978922D01*
X00252633Y02017934D02*
X0026924Y0203454D01*
X00252633Y01986447D02*
Y02017934D01*
X0034616Y02105576D02*
X0035391Y02113326D01*
X00322221Y02105576D02*
X0034616D01*
X0049403Y0195183D02*
X00512866Y01970666D01*
X0033799Y01854722D02*
Y01883072D01*
Y01854722D02*
X0034163Y01851082D01*
X0035214D01*
X0035439Y01846832D02*
Y01848832D01*
X0035214Y01851082D02*
X0035439Y01848832D01*
X00380052Y0198936D02*
X0043773D01*
X0044312Y0198247D02*
Y0198397D01*
X00260158Y01977411D02*
X00262698Y0197487D01*
X0026421D01*
X00260158Y01977411D02*
Y01978922D01*
X0026421Y0197487D02*
X0030221D01*
X00302609Y01959569D02*
Y01974471D01*
Y01959569D02*
X00303009Y01959169D01*
X0030221Y0197487D02*
X00302609Y01974471D01*
X0030261Y0188887D02*
Y0190377D01*
X0030301Y0190417D01*
X0030221Y0188847D02*
X0030261Y0188887D01*
X00302921Y01862783D02*
Y01887759D01*
X0030221Y0188847D02*
X00302921Y01887759D01*
Y01862783D02*
X00303631Y01862072D01*
X0026421Y0188847D02*
X0030221D01*
X00303631Y01823004D02*
Y01862072D01*
X00625001Y01993011D02*
Y02016863D01*
X0057194Y02031569D02*
Y0203507D01*
X0056769Y0203732D02*
X0056969D01*
X0057194Y0203507D01*
X00625001Y02016863D02*
Y02018919D01*
X00586646Y02016863D02*
X00622945D01*
X0057194Y02031569D02*
X00586646Y02016863D01*
X00485562Y0205678D02*
X0051308D01*
X0051308Y02056781D01*
X00485561Y0205678D02*
X00485562Y0205678D01*
X00622945Y02016863D02*
X00625001Y02018919D01*
X0062462Y0199263D02*
X00625001Y01993011D01*
Y02018919D02*
X00625382Y020193D01*
X0053975Y019926D02*
X0054106Y0199129D01*
X0053975Y019926D02*
Y0203824D01*
X00512866Y01970666D02*
X0052243D01*
X0049403Y01912112D02*
Y0195183D01*
X0097798Y01978182D02*
X00978434Y01977728D01*
Y01937356D02*
Y01977728D01*
Y01937356D02*
X0100194Y0191385D01*
X0101821D01*
X0104021Y01951731D02*
X0105121Y01940731D01*
X0104021Y01951731D02*
Y01960737D01*
Y0191385D02*
Y01951731D01*
X01033673Y01965274D02*
X01035673D01*
X0104021Y01960737D01*
X0102921Y0191385D02*
Y01933306D01*
Y0191385D02*
X0102921Y0191385D01*
X01015192Y01947324D02*
X0102921Y01933306D01*
X00998682Y01947324D02*
X01015192D01*
X0099498Y01951026D02*
Y01960932D01*
X0099273Y01963182D02*
X0099498Y01960932D01*
Y01951026D02*
X00998682Y01947324D01*
X01040114Y01913754D02*
X0104021Y0191385D01*
X01035952Y02023969D02*
Y02050211D01*
X00993283Y0209288D02*
X01035952Y02050211D01*
X0097519Y0209288D02*
X00993283D01*
X01023577Y02043065D02*
Y02043201D01*
X0102384Y0202338D02*
X0102432Y020229D01*
X0102384Y0202338D02*
Y02042802D01*
X01023577Y02043065D02*
X0102384Y02042802D01*
X0097519Y0209288D02*
Y0221488D01*
X00939442Y02219725D02*
Y02219809D01*
Y02219725D02*
X00940476Y0221869D01*
X00958647Y02130922D02*
Y022641D01*
X00951485Y02123759D02*
X00958647Y02130922D01*
Y022641D02*
X00961364Y02266816D01*
X00947735Y02120009D02*
X00948985D01*
X00951485Y02122509D01*
Y02123759D01*
X00940476Y0219329D02*
X00943101D01*
X00942964Y0210003D02*
X00946485Y02096509D01*
X00914056Y0210003D02*
X00942964D01*
X00946485Y02096509D02*
X00947735D01*
X008624Y02089157D02*
Y0209765D01*
X00864779Y0210003D01*
X00893056D01*
X00943687Y01816077D02*
Y01841357D01*
X0088888Y0198762D02*
Y02049709D01*
X00811777Y02115317D02*
X00811885Y02115209D01*
X0094433Y018666D02*
Y01878848D01*
Y018666D02*
X0094608Y0186835D01*
X00943901Y01866172D02*
X0094433Y018666D01*
X0094608Y0186835D02*
X0099071D01*
X00943687Y01816077D02*
X00943901Y01815863D01*
X00943687Y01841357D02*
X00943901Y01841571D01*
X00945112Y01972262D02*
X00945112Y01972262D01*
Y02046375D01*
X0094433Y0197148D02*
X00945112Y01972262D01*
X0094433Y01919125D02*
Y0197148D01*
Y01878848D02*
Y01891274D01*
X00944831Y0187935D02*
X0099071D01*
X0094433Y01878848D02*
X00944831Y0187935D01*
X00943901Y01817857D02*
X00945651Y01819607D01*
X00943901Y01815863D02*
Y01817857D01*
X00962586Y01798724D02*
Y01809167D01*
X00977674Y01824254D02*
X00990614D01*
X00962586Y01809167D02*
X00977674Y01824254D01*
X00943901Y01841571D02*
Y01866172D01*
X0094433Y01891274D02*
Y01919125D01*
X0092133Y01891274D02*
Y01919125D01*
Y01866423D02*
Y01891274D01*
X00920901Y01841571D02*
Y01865994D01*
X00920473Y01841143D02*
X00920901Y01841571D01*
Y01865994D02*
X0092133Y01866423D01*
X00920687Y01816077D02*
Y01840929D01*
Y01816077D02*
X00920901Y01815863D01*
X00920473Y01841143D02*
X00920687Y01840929D01*
X00920471Y01791781D02*
Y01815432D01*
X0092004Y0179135D02*
X00920471Y01791781D01*
Y01815432D02*
X00920901Y01815863D01*
X0091998Y0176478D02*
Y0179129D01*
X0091992Y0176472D02*
X0091998Y0176478D01*
Y0179129D02*
X0092004Y0179135D01*
X0091932Y01739176D02*
Y0176412D01*
X0091872Y01738576D02*
X0091932Y01739176D01*
Y0176412D02*
X0091992Y0176472D01*
X00907933Y01728789D02*
X0091772Y01738576D01*
X0091872D01*
X00907933Y01718071D02*
Y01728789D01*
X0092632Y01699684D02*
X0092732D01*
X00907933Y01718071D02*
X0092632Y01699684D01*
X00923173Y01696537D02*
X0092632Y01699684D01*
X00923173Y01679453D02*
Y01696537D01*
X01239176Y01711224D02*
X01239426Y01711474D01*
X0122469Y0173897D02*
X01239426Y01724234D01*
X01238426Y01711224D02*
X01239176D01*
X01239426Y01711474D02*
Y01724234D01*
X0103568Y0173897D02*
X0122469D01*
X01260626Y01720724D02*
X01280783Y01700567D01*
X01259626Y01720724D02*
X01260626D01*
X01280783Y01687923D02*
Y01700567D01*
X01258302Y01665442D02*
X01280783Y01687923D01*
X01085533Y01660713D02*
X01089998Y01656248D01*
Y01656183D02*
Y01656248D01*
X0107217Y01660713D02*
X01085533D01*
X01182078Y01698776D02*
X0118388D01*
X0118563Y01695225D02*
Y01697026D01*
Y01695225D02*
X0119668Y01684174D01*
X0118388Y01698776D02*
X0118563Y01697026D01*
X01017008Y01676522D02*
X01185091D01*
X01198961Y01662652D01*
X0101207Y01671583D02*
X01017008Y01676522D01*
X0119668Y01684174D02*
X01241076D01*
X01198961Y01640693D02*
Y01662652D01*
X01258626Y01701724D02*
X01259626D01*
X01241076Y01684174D02*
X01258626Y01701724D01*
X01209408Y01698944D02*
X01226145D01*
X01238426Y01711224D01*
X01156097Y01697976D02*
X0118108D01*
X01155297Y01697176D02*
X01156097Y01697976D01*
X0118108D02*
X0118188Y01698776D01*
X01182214Y0172211D02*
X01209074D01*
X0118188Y01721776D02*
X01182214Y0172211D01*
X01209074D02*
X01209408Y01722444D01*
X01155847Y01721226D02*
X01181329D01*
X01155297Y01720676D02*
X01155847Y01721226D01*
X01181329D02*
X0118188Y01721776D01*
X01100192Y01720686D02*
X01130086D01*
X01128267Y01720619D02*
X0115524D01*
X0112821Y01720562D02*
X01128267Y01720619D01*
X0115524D02*
X01155297Y01720676D01*
X01128084Y01697436D02*
X0112821Y01697562D01*
X01100068Y0169731D02*
X01100194Y01697436D01*
X01128084D01*
X01029306Y01745344D02*
X0103568Y0173897D01*
X0102921Y0175685D02*
X01029306Y01756754D01*
Y01745344D02*
Y01756754D01*
X0100748Y01972432D02*
X01026515D01*
X0103479Y02022807D02*
X01035952Y02023969D01*
X0100748Y01999707D02*
X01011286Y02003513D01*
X0100748Y01978182D02*
Y01999707D01*
X01011286Y02003513D02*
X01030706D01*
X0103479Y02007597D01*
Y02022807D01*
X0116671Y01906635D02*
X01192109D01*
X0097798Y01978182D02*
X0100748D01*
X008394Y02096007D02*
Y02164192D01*
Y02096007D02*
X00839756Y0209565D01*
X00834386Y0207152D02*
X00835285Y0207242D01*
Y0207482D01*
X00839756Y02079291D02*
Y0209565D01*
X00831985Y0207152D02*
X00834386D01*
X00835285Y0207482D02*
X00839756Y02079291D01*
X00830731Y0207062D02*
X00831631Y0207152D01*
X00830731Y02043237D02*
Y0207062D01*
X00831631Y0207152D02*
X00831985D01*
X0088888Y02049709D02*
Y02057082D01*
X008624Y02164192D02*
Y02165271D01*
X00889125Y02046375D02*
Y02053043D01*
X00869005Y02060444D02*
X00874362Y02055086D01*
Y02051625D02*
Y02055086D01*
X00876278Y02049709D02*
X0088888D01*
X00866605Y02060444D02*
X00869005D01*
X00874362Y02051625D02*
X00876278Y02049709D01*
X01017979Y01918805D02*
X0101821Y01918574D01*
Y0191385D02*
Y01918574D01*
X00992804Y01963177D02*
X00994849Y0196303D01*
X00996438Y0196144D01*
X0099273Y01963182D02*
X00992804Y01963177D01*
X0100748Y01964562D02*
Y01972432D01*
X01029923Y01967024D02*
Y01969024D01*
X01031673Y01965274D02*
X01033673D01*
X01026515Y01972432D02*
X01029923Y01969024D01*
Y01967024D02*
X01031673Y01965274D01*
X0105121Y0191385D02*
Y01940731D01*
X01192109Y01906635D02*
X0119249Y01906254D01*
X01144204Y01857123D02*
Y01884129D01*
X0116671Y01906635D01*
X01127381Y01884647D02*
X0114808Y01905346D01*
Y0196589D01*
X01080917Y01884647D02*
X01127381D01*
X01144204Y01857123D02*
X01154882Y01846446D01*
X01166614D01*
X0116671Y0184635D01*
Y0179135D02*
X01192866D01*
X01216698Y01815182D02*
Y01857507D01*
X01192866Y0179135D02*
X01216698Y01815182D01*
X012573Y0198789D02*
X012827D01*
X01011152Y0181392D02*
X01011288D01*
X0099071Y0181335D02*
X01010583D01*
X01011152Y0181392D01*
X01065699Y0179135D02*
X01066247Y01791898D01*
X0099071Y0179135D02*
X01065699D01*
X01066247Y01791898D02*
X01066383D01*
X0099071Y0180235D02*
X0106509D01*
X01065964Y01803224D01*
X01066099D01*
X0069125Y0148767D02*
Y0151004D01*
X0116671Y0185735D02*
X01186639D01*
X01150957Y01835406D02*
X01166654D01*
X0116671Y0183535D01*
X01150901Y01835462D02*
X01150957Y01835406D01*
X01191973Y01830326D02*
X01196413D01*
X01166806Y01846254D02*
X01176045D01*
X01196413Y01830326D02*
X01199413Y01827326D01*
X01176045Y01846254D02*
X01191973Y01830326D01*
X0116673Y0182433D02*
X01182199D01*
X0116671Y0182435D02*
X0116673Y0182433D01*
X01182199D02*
X01182219Y0182431D01*
X01182766Y0180235D02*
X01183156Y0180274D01*
X0116671Y0180235D02*
X01182766D01*
X01183156Y0180274D02*
X01183291D01*
X01182379Y0181335D02*
X01182645Y01813616D01*
X0116671Y0181335D02*
X01182379D01*
X01182645Y01813616D02*
X0118278D01*
X01215529Y01964015D02*
X01228243D01*
X01202815D02*
X01215529D01*
X01192639Y01906403D02*
X01216548D01*
X0119249Y01906254D02*
X01192639Y01906403D01*
X01216548D02*
X01216698Y01906552D01*
X01109458Y01804707D02*
X01122814Y0179135D01*
X0116671D01*
X01205153Y01784104D02*
X01228594D01*
X0123129Y01786604D02*
Y01828347D01*
X01186639Y0185735D02*
X0119249Y018515D01*
X01198163Y01845826D01*
X0119249Y018515D02*
Y01883254D01*
X01198163Y01845826D02*
X01199413D01*
X0116671Y0184635D02*
X01166806Y01846254D01*
X0108421Y0191385D02*
Y0196244D01*
X01080917Y01884647D02*
X0108421Y0188794D01*
Y0191385D01*
X01054973Y01884647D02*
X01080917D01*
X0105121Y0188841D02*
Y0191385D01*
Y0188841D02*
X01054973Y01884647D01*
X0100748Y01972432D02*
Y01978182D01*
X0108421Y0196244D02*
X0108639Y0196462D01*
X0108839D01*
X01109458Y01804707D02*
Y01822102D01*
X0110871Y0182285D02*
X01109458Y01822102D01*
X0109521Y0175685D02*
Y01790459D01*
X01109458Y01804707D01*
X0099071Y0184635D02*
Y0185735D01*
X01076892Y01824668D02*
X0107871Y0182285D01*
X0110871D01*
X010525Y01824668D02*
X01076892D01*
X0110871Y0182285D02*
Y0184785D01*
X0119049Y01883254D02*
X0119249D01*
X01242963Y01760921D02*
X01258321D01*
X01233004D02*
X01242963D01*
Y01790345D01*
X0125029Y01797673D02*
Y01828347D01*
X01242963Y01790345D02*
X0125029Y01797673D01*
X01258321Y01760921D02*
X0125857Y0176117D01*
X01232755Y01760672D02*
X01233004Y01760921D01*
X0124084Y01838797D02*
X01276248D01*
X01285698Y01828347D02*
Y01829347D01*
X01276248Y01838797D02*
X01285698Y01829347D01*
X0124084Y01838797D02*
X0125029Y01829347D01*
X01216698Y01857507D02*
X01235408Y01838797D01*
X0125029Y01828347D02*
Y01829347D01*
X01235408Y01838797D02*
X0124084D01*
X01216698Y01857507D02*
Y01883553D01*
X01192639Y01883403D02*
X01216548D01*
X0119249Y01883254D02*
X01192639Y01883403D01*
X01216548D02*
X01216698Y01883553D01*
X01186586Y0187935D02*
X0119049Y01883254D01*
X0116671Y0187935D02*
X01186586D01*
X012573Y0198739D02*
Y0198789D01*
X00955212Y0179135D02*
X00962586Y01798724D01*
X0117729Y0209288D02*
Y0221488D01*
X0097519D02*
X0117729D01*
X01203779Y01988479D02*
Y01997276D01*
X0120269Y0198739D02*
X01203779Y01988479D01*
X01198456Y02002599D02*
X01203779Y01997276D01*
X01147504Y02002599D02*
X01198456D01*
X0114049Y02009613D02*
X01147504Y02002599D01*
X0114049Y02009613D02*
Y0202163D01*
X0113874Y0202338D02*
X0114049Y0202163D01*
X0114433Y0199064D02*
Y0199064D01*
X01096987Y02005065D02*
X01129905D01*
X0114433Y0199064D01*
X0108909Y02012962D02*
X01096987Y02005065D01*
X0114433Y0199064D02*
X0114608Y0198889D01*
X0114808D01*
X0108909Y02012962D02*
Y0202163D01*
X0108734Y0202338D02*
X0108909Y0202163D01*
X0107464Y0199937D02*
X0108639Y0198762D01*
X0107464Y0199937D02*
Y0202338D01*
X0108639Y0198762D02*
X0108839D01*
X01033875Y01988072D02*
X01058998D01*
X010592Y0198787D01*
X0104924Y0199783D02*
X01058998Y01988072D01*
X010592Y0198787D02*
X0106045D01*
X0104924Y0199783D02*
Y0202338D01*
X01033673Y01988274D02*
X01033875Y01988072D01*
X0108839Y0198762D02*
X01088515Y01987745D01*
X01118745D02*
X0111887Y0198787D01*
X01088515Y01987745D02*
X01118745D01*
X0114859Y0198838D02*
X0117551D01*
X0117602Y0198787D01*
X0114808Y0198889D02*
X0114859Y0198838D01*
X01228243Y01964015D02*
X01228369Y0196414D01*
X0120269Y0196389D02*
X01202815Y01964015D01*
X01060031Y0173047D02*
X01074882Y01715619D01*
X0102797Y0173047D02*
X01060031D01*
X0101821Y0174023D02*
X0102797Y0173047D01*
X0124826Y0195885D02*
X012563Y0196689D01*
X0124826Y01906941D02*
Y0195885D01*
X012563Y0196689D02*
X012573D01*
X01279198Y0196414D02*
X01281948Y0196689D01*
X01279198Y01906912D02*
Y0196414D01*
X01281948Y0196689D02*
X012827D01*
X01276198Y01863729D02*
X01279198Y01866729D01*
X01276198Y01848547D02*
Y01863729D01*
X01279198Y01866729D02*
Y01883412D01*
X0124079Y01861509D02*
X0124826Y01868979D01*
X0124079Y01848547D02*
Y01861509D01*
X0124826Y01868979D02*
Y01883441D01*
X00990614Y01824254D02*
X0099071Y0182435D01*
X0094354Y0179135D02*
X00955212D01*
X0092815Y016002D02*
X0093465D01*
X009399Y0160545D01*
Y01606582D01*
X00971945Y01638627D01*
X0087961Y0156654D02*
X0090448D01*
X0081129Y0183546D02*
X0081429Y0183246D01*
X0081779D02*
X0084706Y0180319D01*
X0081129Y0183546D02*
Y0183896D01*
X0081429Y0183246D02*
X0081779D01*
X0084706Y0180319D02*
X0089575D01*
X008818Y0173482D02*
X0089536Y0172126D01*
X00891292Y0169529D02*
X0089536Y01699358D01*
X0087961Y0169354D02*
X0088136Y0169529D01*
X0089536Y01699358D02*
Y0172126D01*
X0088136Y0169529D02*
X00891292D01*
X0083973Y01734685D02*
Y0173482D01*
X00800134Y0174752D02*
X008449D01*
X0083906Y01734015D02*
X0083973Y01734685D01*
X0077556Y01772094D02*
X00800134Y0174752D01*
X0083906Y0171624D02*
Y01734015D01*
X008449Y0174752D02*
X0085176Y0174066D01*
X00971945Y01638627D02*
X00992541Y01659223D01*
X0097174Y017272D02*
X00971945Y01726995D01*
Y01638627D02*
Y01726995D01*
X006857Y0152273D02*
X0070411Y0154114D01*
X0061976Y0152273D02*
X006857D01*
X0070411Y0154114D02*
X0070961D01*
X0067359Y01532732D02*
X00673686Y01532636D01*
X0067359Y01532732D02*
Y0154129D01*
X006731Y0154178D02*
X0067359Y0154129D01*
X0080461Y0159779D02*
X0086126Y0154114D01*
X0087961D01*
X0072961D02*
X0078626Y0159779D01*
X0070961Y0154114D02*
X0072961D01*
X0080461Y01606965D02*
Y0161614D01*
Y0159779D02*
Y01606965D01*
Y01625315D02*
Y0163449D01*
Y0161614D02*
Y01625315D01*
X0078626D02*
Y0163449D01*
Y0161614D02*
Y01625315D01*
X0082296Y01606965D02*
Y0161614D01*
Y0159779D02*
Y01606965D01*
X00813785Y0159779D02*
X0082296D01*
X00795435D02*
X0080461D01*
X0078626D02*
X00795435D01*
X0078626D02*
Y01606965D01*
Y0161614D02*
X00795435D01*
X0080461D02*
X00813785D01*
X0082296Y01625315D02*
Y0163449D01*
Y0161614D02*
Y01625315D01*
X00813785Y0163449D02*
X0082296D01*
X0080461D02*
X00813785D01*
X00795435D02*
X0080461D01*
X0078626D02*
X00795435D01*
X0066448Y0179705D02*
X0067223Y017893D01*
Y01725021D02*
Y017893D01*
X0066421Y0179705D02*
X0066448D01*
X0065438Y01697453D02*
Y01724971D01*
X0065433Y01697403D02*
X0065438Y01697453D01*
Y01724971D02*
X0065443Y01725021D01*
X00721992Y0171649D02*
X00722242Y0171624D01*
X0067233Y01699403D02*
X00689417Y0171649D01*
X00722242Y0171624D02*
X0073746D01*
X00689417Y0171649D02*
X00721992D01*
X0067233Y01697403D02*
Y01699403D01*
X00709932Y01693862D02*
X00773018D01*
X00745338Y01684655D02*
X00745564Y01684881D01*
X00733176Y0166814D02*
X00745338Y01680302D01*
Y01684655D01*
X00745564Y01684881D02*
Y01684977D01*
X00773018Y01693862D02*
X0078794Y0167894D01*
X0051546Y0168148D02*
Y0170815D01*
Y0168148D02*
X0052054Y016764D01*
X0065907D02*
X0069098Y0164449D01*
X0052054Y016764D02*
X0065907D01*
X0049546Y0167894D02*
X0050816Y0166624D01*
X004534Y0167893D02*
X0048514Y0164719D01*
X0063627D01*
X00644722Y01656991D02*
X00657878Y01643835D01*
X0050816Y0166624D02*
X00654638D01*
X00497559Y01656991D02*
X00644722D01*
X00654638Y0166624D02*
X00690838Y0163004D01*
X0047546Y0167909D02*
X00497559Y01656991D01*
X01126707Y0157504D02*
X01135895Y01584229D01*
X01120575Y0157204D02*
X01123575Y0157504D01*
X01135895Y01584229D02*
Y01642713D01*
X01123575Y0157504D02*
X01126707D01*
X01136504Y01642104D02*
X01159584D01*
X01159834Y01641854D01*
X01135895Y01642713D02*
X01136504Y01642104D01*
X01116075Y0156904D02*
X01119075Y0157204D01*
X01120575D01*
X01116075Y0156754D02*
Y0156904D01*
X0109546Y01546925D02*
X01116075Y0156754D01*
X01083391Y01546925D02*
X0109546D01*
X01012884Y01546555D02*
X0108302D01*
X01083391Y01546925D01*
X01012514Y01546185D02*
X01012884Y01546555D01*
X01013764Y01549435D02*
X01021789D01*
X01012514Y01546185D02*
Y01548185D01*
X01045851Y01573497D02*
X01047351D01*
X01021789Y01549435D02*
X01045851Y01573497D01*
X01012514Y01548185D02*
X01013764Y01549435D01*
X0095484Y0154104D02*
Y0155086D01*
X00959516Y01546185D01*
X01012514D01*
X0095484Y0155086D02*
Y0155236D01*
Y0155386D02*
X0096415Y0156317D01*
Y016002D01*
X0095484Y0155236D02*
Y0155386D01*
X0094304Y0152924D02*
X0095484Y0154104D01*
X0089701Y0152924D02*
X0094304D01*
X0088511Y0154114D02*
X0089701Y0152924D01*
X0087961Y0154114D02*
X0088511D01*
X0083931Y01688751D02*
X0085176Y01701201D01*
X0082296Y0163449D02*
X0083931Y0165084D01*
X0085176Y01701201D02*
Y0171624D01*
X0083931Y0165084D02*
Y01688751D01*
X00771993Y01791144D02*
X0077556Y01787577D01*
Y01772094D02*
Y01787577D01*
X0085176Y0171624D02*
Y0174066D01*
X00613258Y01469904D02*
X00673484D01*
X00577043Y0150612D02*
X00613258Y01469904D01*
X00673484D02*
X0069125Y0148767D01*
X0085626Y01693327D02*
X00867423Y0170449D01*
X0087786D02*
X0087961Y0170624D01*
X00867423Y0170449D02*
X0087786D01*
X00728975Y01685112D02*
X0072911D01*
X0070961Y0169354D02*
X00709932Y01693862D01*
X00726452Y0168259D02*
X00728975Y01685112D01*
X0071136Y0168259D02*
X00726452D01*
X0070961Y0168084D02*
X0071136Y0168259D01*
X00757668Y0165544D02*
X0076736Y01665132D01*
X0070961Y0165544D02*
X00757668D01*
X00513355Y01554553D02*
X005134Y01554508D01*
X00690838Y0166814D02*
Y016974D01*
X00697928Y0170449D02*
X0070786D01*
X0070961Y0170624D01*
X00690838Y016974D02*
X00697928Y0170449D01*
X00657878Y0163824D02*
Y01643835D01*
X0056896Y0151137D02*
Y0151787D01*
X0057421Y0150612D02*
X00577043D01*
X0056896Y0151137D02*
X0057421Y0150612D01*
X005662Y0151511D02*
X0056896Y0151787D01*
X0052554Y0151511D02*
X005662D01*
X00493345Y01554453D02*
X004934Y01554508D01*
X01083391Y01614925D02*
X01105276Y0159304D01*
X01117575D01*
X01083391Y01614925D02*
Y01616925D01*
X01117575Y0159304D02*
X01120575Y0159004D01*
X01106515Y01624502D02*
Y01642713D01*
X01044867Y0164255D02*
X01074333D01*
X01083391Y01633492D01*
Y01616925D02*
Y01633492D01*
X01044705Y01642388D02*
X01044867Y0164255D01*
X01044815Y01623021D02*
Y01642278D01*
X01044705Y01642388D02*
X01044815Y01642278D01*
Y01623021D02*
X01044911Y01622925D01*
X01012292Y01618406D02*
X01012514Y01618185D01*
X01011264Y01619435D02*
X01012292Y01618406D01*
Y01641001D01*
X01012514Y01616185D02*
Y01618185D01*
Y01614185D02*
Y01616185D01*
X01007264Y01619435D02*
X01011264D01*
X01003734Y01622964D02*
X01007264Y01619435D01*
X0099861Y0162306D02*
X00998706Y01622964D01*
X01003734D01*
X00992541Y01659223D02*
X0101207D01*
X0095212Y01738576D02*
X0095312D01*
X0094292Y01747776D02*
Y0176472D01*
Y01747776D02*
X0095212Y01738576D01*
X0094852Y01709184D02*
X0094877Y01709434D01*
Y01710434D01*
X0095312Y01714784D02*
Y01738576D01*
X0094752Y01709184D02*
X0094852D01*
X0094877Y01710434D02*
X0095312Y01714784D01*
X00947071Y01651338D02*
Y01675578D01*
X0093777Y0168488D02*
X00947071Y01675578D01*
X0093777Y0168488D02*
Y01709234D01*
X0092832Y01718684D02*
X0093777Y01709234D01*
X0092732Y01718684D02*
X0092832D01*
X00947071Y01651338D02*
X0094747Y0165094D01*
X00909823D02*
X0092397D01*
X00903323Y0165744D02*
X00909823Y0165094D01*
X00903323Y0165744D02*
Y01671213D01*
X00880997Y01679453D02*
X00895083D01*
X0087961Y0168084D02*
X00880997Y01679453D01*
X00895083D02*
X00903323Y01671213D01*
X0087961Y0155384D02*
X0088035Y015531D01*
X009361D01*
X0093684Y0155236D01*
X0087729Y0216969D02*
Y02207932D01*
Y02168565D02*
Y0216969D01*
Y02168486D02*
Y02168565D01*
X00481959Y02170514D02*
X00482516D01*
X00472575Y02163091D02*
X00481959D01*
X00416839Y01744549D02*
X00419938Y01747648D01*
X0087961Y0164274D02*
X00903323D01*
X01153919Y01573784D02*
X01184161D01*
X01185017Y0157464D01*
X01153064Y01572929D02*
X01153919Y01573784D01*
X01153064Y01590929D02*
Y01611624D01*
X01180034Y01638594D01*
Y01651354D01*
X01185017Y0160004D02*
Y01626749D01*
X01198961Y01640693D01*
X01135895Y01660713D02*
X01135895Y01660713D01*
X01106515Y01660713D02*
X01135895D01*
X01135966Y01660783D02*
X01159763D01*
X01135895Y01660713D02*
X01135966Y01660783D01*
X01159763D02*
X01159834Y01660854D01*
X0101207Y01659223D02*
Y01671583D01*
Y01659223D02*
X01012653Y01659805D01*
X01004707Y01695728D02*
X01031836D01*
X01004333Y01695354D02*
X01004707Y01695728D01*
X01031836D02*
X0103221Y01696102D01*
X01005118Y01678535D02*
Y01694569D01*
X01004333Y01695354D02*
X01005118Y01694569D01*
Y01678535D02*
X0101207Y01671583D01*
X01012653Y01659805D02*
X01044122D01*
X01044705Y01660388D01*
X01012514Y01614185D02*
X01032201Y01594497D01*
X01044351D02*
X01047351Y01591497D01*
X01032201Y01594497D02*
X01044351D01*
X0101207Y01641223D02*
X01012292Y01641001D01*
X0092815Y0156255D02*
X0093684Y0155386D01*
X0092815Y0156255D02*
Y016002D01*
X0093684Y0155236D02*
Y0155386D01*
X00619965Y01497535D02*
X00654673D01*
X0061976Y0149733D02*
X00619965Y01497535D01*
X00654673D02*
X00654878Y0149774D01*
X0070961Y0166814D02*
X00733176D01*
X01004457Y01718978D02*
X01034334D01*
X00985989Y0171877D02*
X01004249D01*
X01004333Y01718855D01*
X00985904Y01718685D02*
X00985989Y0171877D01*
X00880038Y02166942D02*
X00892226D01*
X00872917Y02164192D02*
X0087729Y02168565D01*
Y0216969D02*
X00880038Y02166942D01*
X008624Y02164192D02*
X00872917D01*
X00892226Y02166942D02*
X00893976Y02165192D01*
Y02164396D02*
Y02165192D01*
X00812049Y02184473D02*
X00819299Y02191723D01*
X00834118D01*
X00893976Y0214195D02*
Y02164192D01*
Y0213995D02*
Y0214195D01*
X0087952Y02156407D02*
X00893976Y0214195D01*
X00879424Y0216027D02*
X0087952Y02160174D01*
Y02156407D02*
Y02160174D01*
X0088679Y02233032D02*
Y0225044D01*
X00798749Y01790306D02*
X0082401D01*
Y01808306D02*
X00825207Y01809502D01*
Y01821543D01*
X0065659Y01970757D02*
X00671097Y01985264D01*
X00812894Y01923974D02*
X0083083Y0194191D01*
X00813542Y0189452D02*
Y01923974D01*
X00811292Y0189227D02*
X00813542Y0189452D01*
X0081129Y0189227D02*
X00811292D01*
X0044873Y02163091D02*
X00472575D01*
X00469386Y02123826D02*
Y02159902D01*
X00472575Y02163091D01*
X0044323Y02168591D02*
Y02170514D01*
Y02168591D02*
X0044873Y02163091D01*
X00544905Y02247825D02*
X00547373Y02245357D01*
X00544905Y02247825D02*
Y02266658D01*
X00407972Y02206316D02*
X00414274Y02200014D01*
X0043773D01*
X00407972Y02206316D02*
Y02210616D01*
X0035391Y02113326D02*
Y02163613D01*
X00375061Y02184764D01*
X0039812D01*
X0035391Y02163613D02*
Y02183602D01*
X00356638Y01873974D02*
Y01884387D01*
X00359861Y0188761D02*
X00383064D01*
X00356638Y01884387D02*
X00359861Y0188761D01*
X00572072Y01709478D02*
Y01720168D01*
X00415786Y01743614D02*
Y01747066D01*
X0056885Y0172339D02*
X00572072Y01720168D01*
X00439463Y0172339D02*
X0056885D01*
X00572072Y01709478D02*
X005734Y0170815D01*
X00277051Y0172339D02*
X00284801Y0173114D01*
Y01734081D02*
X0031348Y0176276D01*
X00284801Y0173114D02*
Y01734081D01*
X0031348Y0176276D02*
X00347134D01*
X0026628Y0172339D02*
X00277051D01*
X00345864Y01798027D02*
X00347864D01*
X00355476Y0180564D02*
X00367868D01*
X00347864Y01798027D02*
X00355476Y0180564D01*
X00367868D02*
X0037109Y01802418D01*
Y0179574D02*
Y01802418D01*
X0037089Y0179554D02*
X0037109Y0179574D01*
X00345864Y0176403D02*
X00347134Y0176276D01*
X00345864Y0176403D02*
Y01780027D01*
X00316872Y0192667D02*
X00332192Y0191135D01*
X00359554D01*
X0030301Y0192667D02*
X00316872D01*
X00303649Y01937309D02*
X00358843D01*
X0030301Y0193667D02*
X00303649Y01937309D01*
X00358843D02*
X00359554Y0193802D01*
X0033317Y02018548D02*
X0033443Y02019808D01*
X00325192Y0200972D02*
X0033317Y02017698D01*
X0033443Y02019808D02*
X0033528D01*
X0033317Y02017698D02*
Y02018548D01*
X00325192Y01954276D02*
Y0200972D01*
X00317786Y01946869D02*
X00325192Y01954276D01*
X00303009Y01946869D02*
X00317786D01*
X00377552Y0196469D02*
X00377553Y01964689D01*
Y01938021D02*
X00377554Y0193802D01*
X00380052Y0196919D02*
Y0198936D01*
X00377552Y0196669D02*
X00380052Y0196919D01*
X00377552Y0196469D02*
Y0196669D01*
X00356326Y01990086D02*
Y02028734D01*
X003556Y0202946D02*
X00356326Y02028734D01*
Y01990086D02*
X00357052Y0198936D01*
X00380052D02*
Y0199136D01*
X0039829Y0202946D02*
X004021Y0203327D01*
X003556Y0202946D02*
X0039829D01*
X004416Y0203327D02*
X00485051D01*
X00485561Y0203378D01*
X00485562Y0203378D02*
X0051308D01*
X0051308Y02033781D01*
X00485561Y0203378D02*
X00485562Y0203378D01*
X0051508Y02033781D02*
X00519539Y0203824D01*
X0053975D01*
X0051308Y02033781D02*
X0051508D01*
X0054021Y0203778D02*
X0056723D01*
X0056769Y0203732D01*
X0053975Y0203824D02*
X0054021Y0203778D01*
X00583753Y02047242D02*
X00596175Y0203482D01*
X00577768Y02047242D02*
X00583753D01*
X0056969Y0205532D02*
X00577768Y02047242D01*
X0046112Y0190396D02*
Y019304D01*
Y0190396D02*
X00469272Y01912112D01*
X0049403D01*
X0046112Y0190246D02*
Y0190396D01*
Y0195707D02*
Y0198247D01*
X0044312Y0189114D02*
Y0190246D01*
Y0189114D02*
X0045212Y0188214D01*
X00480558D02*
X0049253Y01894112D01*
X0049403D01*
X0045212Y0188214D02*
X00480558D01*
X0041512Y0189611D02*
X0044179Y0186944D01*
X0053848D01*
X0054991Y0185801D01*
Y0182891D02*
Y0185801D01*
X0044312Y0195707D02*
Y0198247D01*
Y019304D02*
Y0195707D01*
Y0190246D02*
Y019304D01*
X00377554Y0191135D02*
Y0193802D01*
X0088888Y0198762D02*
X0088888Y0198762D01*
X00580638Y02239149D02*
X0059817D01*
X0058039Y02239397D02*
X00580638Y02239149D01*
X00601021Y02242001D02*
X00611062D01*
X00611909Y02242847D01*
X0059817Y02239149D02*
X00601021Y02242001D01*
X00607262Y02268898D02*
X00610712Y02265448D01*
X0058039Y02268898D02*
X00607262D01*
X00610712Y02265448D02*
X00611909D01*
Y02242847D02*
X00613162Y02244101D01*
X00620708D01*
X00612755Y02264601D02*
X00623379D01*
X00611909Y02265448D02*
X00612755Y02264601D01*
X00623379D02*
X0062738Y022606D01*
X00595492Y02254249D02*
X00611807D01*
X0059539Y02254147D02*
X00595492Y02254249D01*
X00611807D02*
X00611909Y02254147D01*
X0042206Y0173734D02*
X00425513D01*
X00415786Y01743614D02*
X0042206Y0173734D01*
X004334Y0170815D02*
Y01726D01*
X0086233Y0163004D02*
X0087961D01*
X00690838D02*
X0070961D01*
X004534Y0167893D02*
Y0170815D01*
X0125982Y0178467D02*
X0128651D01*
X0125982D02*
X01266698Y01791548D01*
Y01828347D01*
X0125857Y0178467D02*
X0125982D01*
X01155172Y01697301D02*
X01155297Y01697176D01*
X01074882Y01707852D02*
X01075132Y01707602D01*
X01076132D01*
X01074882Y01707852D02*
Y01715619D01*
X0101821Y0174023D02*
Y0175685D01*
X01056932Y01717102D02*
X0106496Y01709073D01*
Y0170452D02*
X0107217Y0169731D01*
X01055932Y01717102D02*
X01056932D01*
X0106496Y0170452D02*
Y01709073D01*
X0107217Y0169731D02*
X01100068D01*
X0103596Y01717074D02*
X01054932Y01698102D01*
X0103596Y01717074D02*
Y01717352D01*
X01034334Y01718978D02*
X0103596Y01717352D01*
X01054932Y01698102D02*
X01055932D01*
X01004333Y01718855D02*
X01004457Y01718978D01*
X01100068Y0172081D02*
X01100192Y01720686D01*
X01209408Y01722444D02*
X01209532Y0172232D01*
X0047546Y0167909D02*
Y0170815D01*
X0049546Y0167894D02*
Y0170815D01*
X00419938Y01747648D02*
X00454788D01*
X00419938D02*
X00432309Y01760019D01*
X0038039Y0174476D02*
X00382696Y01747066D01*
X0037739Y0174176D02*
X0038039Y0174476D01*
X00407838Y01735472D02*
X00409706Y0173734D01*
X0039751Y01735472D02*
X00407838D01*
X00382696Y01747066D02*
X00415786D01*
X00454788Y01747648D02*
X00456338Y01749198D01*
X0038989Y0179554D02*
X0041106D01*
X0041656Y0178784D02*
Y0179004D01*
Y01811145D02*
X00426619Y01821204D01*
X0041656Y0178784D02*
Y01811145D01*
X0041106Y0179554D02*
X0041656Y0179004D01*
X0041363Y0173991D02*
Y01741251D01*
X00409706Y0173734D02*
X0041106D01*
X0041363Y0173991D01*
X00432309Y01760019D02*
X00432867D01*
X00673225Y01543905D02*
X00683631Y01554311D01*
X00709139D02*
X0070961Y0155384D01*
X00683631Y01554311D02*
X00709139D01*
X0069079Y0156654D02*
X00708755D01*
X0065285Y01575928D02*
X006551Y01578178D01*
X00622158Y01575928D02*
X0065285D01*
X006551Y01578178D02*
Y0157924D01*
X0061976Y0157353D02*
X00622158Y01575928D01*
X0065158Y0160865D02*
X0065383Y016109D01*
X0063986Y0159893D02*
X0064958Y0160865D01*
X0065383Y016109D02*
Y016129D01*
X0064958Y0160865D02*
X0065158D01*
X0061976Y0159893D02*
X0063986D01*
X006731Y0157924D02*
X0070961D01*
X0067183Y016109D02*
X0069079Y0159194D01*
X0070961D01*
X0067183Y016109D02*
Y016129D01*
X0069098Y0164449D02*
X0070786D01*
X0070961Y0164274D01*
X0072812Y02254147D02*
X0073256Y02258587D01*
X00710909Y02254147D02*
X0072812D01*
X0073256Y02258587D02*
X0073406D01*
X00734642Y02259169D02*
X00761418D01*
X0073406Y02258587D02*
X00734642Y02259169D01*
X00761418D02*
X0076306Y0226081D01*
X0078761D02*
X0078867Y0226187D01*
X0076306Y0226081D02*
X0078761D01*
X004755Y0151515D02*
Y01550009D01*
X0047546Y01550049D02*
X004755Y01550009D01*
Y0151515D02*
X0047554Y0151511D01*
X0050054D01*
X0052554D01*
X00527115Y01498685D02*
X00546461D01*
X0052554Y0149711D02*
X00527115Y01498685D01*
X0056371Y0149362D02*
X0056896Y0148837D01*
X00546461Y01498685D02*
X00551526Y0149362D01*
X0056896Y0148187D02*
Y0148837D01*
X00551526Y0149362D02*
X0056371D01*
X0050054Y0149711D02*
X0052554D01*
X0047554D02*
X0050054D01*
X0045121Y0149461D02*
Y0154312D01*
Y01489092D02*
Y0149461D01*
X0045371Y0149711D01*
X0047554D01*
X0042171Y01489092D02*
X0045121D01*
Y0154312D02*
X0045546Y0154737D01*
Y01550049D01*
X0043596Y01504592D02*
Y01549549D01*
Y01504592D02*
X0043646Y01504092D01*
X0043546Y01550049D02*
X0043596Y01549549D01*
X00386134Y02257956D02*
X00394768D01*
X00386038Y0225786D02*
X00386134Y02257956D01*
X00394768D02*
X00398272Y0226146D01*
X00432867Y01760019D02*
X00449888Y0177704D01*
X00694441Y0196977D02*
X0070993D01*
X00679195D02*
X00694441D01*
X00383064Y0188761D02*
X0038694Y01883734D01*
X00351028Y0189611D02*
X0041512D01*
X00940476Y0224155D02*
Y0226695D01*
X008394Y02164192D02*
Y02186441D01*
X00834118Y02191723D02*
X008394Y02186441D01*
X0089629Y02186879D02*
X00916976Y02166192D01*
Y02164192D02*
Y02166192D01*
X0089629Y02186879D02*
Y02196514D01*
X00916975Y02193292D02*
X00916976Y0219329D01*
X0089629Y02196514D02*
X00899512Y02193292D01*
X0089629Y02196514D02*
Y02207932D01*
X00899512Y02193292D02*
X00916975D01*
X0089629Y0225773D02*
X00902046D01*
X00916976Y0224155D02*
Y022428D01*
X00902046Y0225773D02*
X00916976Y022428D01*
X0089629Y02233032D02*
Y0225773D01*
X00916976Y0221869D02*
Y0224155D01*
X0090551Y0226695D02*
X00917476D01*
X0089629Y0225773D02*
X0090551Y0226695D01*
X0087729Y02233032D02*
Y02258174D01*
X00847215Y02263408D02*
X00872056D01*
X0087729Y02258174D01*
X00824214Y02241973D02*
X00831464Y02234723D01*
X00824214Y02241973D02*
Y02263408D01*
X00831464Y02234723D02*
X00834118D01*
X00488069Y02122943D02*
X00513467D01*
X0051435Y0212206D01*
X00487186Y02123826D02*
X00488069Y02122943D01*
X00547373Y02188181D02*
Y02245357D01*
X005126Y0217043D02*
X00512849Y02170181D01*
X00547373D01*
X00513475Y02140935D02*
Y02166055D01*
X005126Y0216693D02*
X00513475Y02166055D01*
X005126Y0216693D02*
Y0217043D01*
X00513475Y02140935D02*
X0051435Y0214006D01*
X00407772Y02210816D02*
X00407972Y02210616D01*
X0044323Y02205514D02*
Y02215514D01*
X00354446Y02201066D02*
X0038535D01*
X00388572Y02204288D02*
Y02210616D01*
X0035391Y02201602D02*
X00354446Y02201066D01*
X0038535D02*
X00388572Y02204288D01*
Y02210616D02*
X00388772Y02210816D01*
X0044323Y02215514D02*
X0044873Y02221014D01*
X0045373D02*
X00467096Y0223438D01*
X0047485D02*
X004821Y0224163D01*
X0044873Y02221014D02*
X0045373D01*
X00467096Y0223438D02*
X0047485D01*
X004821Y0224163D02*
Y0224663D01*
X0043942Y0226013D02*
X0045292Y0224663D01*
X004821D01*
X0043942Y0226013D02*
Y0226163D01*
X0043773Y02200014D02*
X0044323Y02205514D01*
X00412132Y02260237D02*
X00420027D01*
X0042142Y0226163D01*
X00407772Y02255876D02*
X00412132Y02260237D01*
X00407772Y02233916D02*
Y02255876D01*
X00370847Y02222366D02*
Y02246366D01*
X00370847Y02246366D02*
X00370847Y02246366D01*
X0038555Y02246366D02*
X00388772Y02243144D01*
Y02233916D02*
Y02243144D01*
X00370847Y02246366D02*
X0038555D01*
X00364237Y02267D02*
X00392732D01*
X00398272Y02233916D02*
Y0226146D01*
X00392732Y02267D02*
X00398272Y0226146D01*
X00355097Y0225786D02*
X00364237Y02267D01*
X00355097Y02248616D02*
Y0225786D01*
X00352847Y02246366D02*
X00355097Y02248616D01*
X00337527Y02226666D02*
X00341827Y02222366D01*
X00352847D01*
X0044323Y02173066D02*
Y02178066D01*
X00398196Y0218484D02*
Y0221074D01*
X00398272Y02210816D01*
X0039812Y02184764D02*
X00398196Y0218484D01*
X0042291Y02113326D02*
Y02143474D01*
X0043066Y02121076D02*
X00452586D01*
X00455336Y02123826D02*
X00469386D01*
X0042291Y02113326D02*
X0043066Y02121076D01*
X00452586D02*
X00455336Y02123826D01*
X0039962Y02166764D02*
X0042291Y02143474D01*
X0039812Y02166764D02*
X0039962D01*
X00474138Y01747648D02*
X00479566Y0174222D01*
X00508D01*
X00474138Y01747648D02*
Y01749198D01*
X00507998Y0178054D02*
X0051754D01*
X00479888D02*
X00507998D01*
X00508Y01780538D01*
Y0176022D02*
Y01780538D01*
X0051754Y0178054D02*
X0054791Y0181091D01*
X0054991D01*
X005392Y0183769D02*
X0054566Y0183123D01*
Y0183116D02*
Y0183123D01*
X0054791Y0182891D02*
X0054991D01*
X0052095Y0183769D02*
X005392D01*
X0054566Y0183116D02*
X0054791Y0182891D01*
X00354388Y01871724D02*
X00356638Y01873974D01*
X0038694Y01837688D02*
Y01883734D01*
X0033799Y01883072D02*
X00351028Y0189611D01*
X00426619Y01844079D02*
X0042937Y0184683D01*
X00426619Y01821204D02*
Y01844079D01*
X0042937Y01845331D02*
X0043701Y0183769D01*
X0045695D01*
X0042937Y01845331D02*
Y0184683D01*
X0039009Y0182405D02*
X0041137Y01845331D01*
X0038989Y0181864D02*
X0039009Y0181884D01*
X0041137Y01845331D02*
Y0184683D01*
X0039009Y0181884D02*
Y0182405D01*
X0038059Y0181884D02*
Y01831338D01*
X0038039Y0181864D02*
X0038059Y0181884D01*
Y01831338D02*
X0038694Y01837688D01*
X00372389Y01846833D02*
Y01871723D01*
X00372388Y01871724D02*
X00372389Y01871723D01*
Y01846833D02*
X0037239Y01846832D01*
X0037109Y0181884D02*
Y01845532D01*
X0037089Y0181864D02*
X0037109Y0181884D01*
Y01845532D02*
X0037239Y01846832D01*
X00347134Y0176276D02*
X0038039D01*
Y0179554D01*
X00449888Y0177704D02*
Y0178054D01*
X0034728Y0172339D02*
X0036565Y0174176D01*
X0033528Y0172339D02*
X0034728D01*
X0036565Y0174176D02*
X0037739D01*
X0065659Y01932295D02*
Y01970757D01*
X00670165Y0196074D02*
X00679195Y0196977D01*
X00670165Y0195108D02*
Y0196074D01*
X00667915Y0194883D02*
X00670165Y0195108D01*
X00694441Y0196977D02*
X0070297Y01961241D01*
Y0189D02*
Y01961241D01*
X00667915Y0191897D02*
Y0192097D01*
X0065659Y01932295D02*
X00667915Y0192097D01*
X00685915Y0191697D02*
Y0191897D01*
X0069347Y0189D02*
Y01909415D01*
X00685915Y0191697D02*
X0069347Y01909415D01*
X00685915Y0191897D02*
Y0194883D01*
X0067722Y0188745D02*
X0069347Y018712D01*
X00660659Y0188745D02*
X0067722D01*
X0069347Y018669D02*
Y018712D01*
X0073914Y01837014D02*
Y0191897D01*
Y01837014D02*
X0074168Y01834474D01*
X0075958Y0193466D02*
X0076683Y0194191D01*
X0073914Y0191897D02*
Y0192047D01*
X0075333Y0193466D01*
X0075958D01*
X0076683Y0194191D02*
Y0194691D01*
X0071247Y018943D02*
X0072114Y0190297D01*
X0071247Y0189D02*
Y018943D01*
X0072114Y0190297D02*
Y0191897D01*
X0073398Y0185166D02*
X00737915Y01847724D01*
X0071628Y0185166D02*
X0073398D01*
X0071267Y0185527D02*
Y018667D01*
Y0185527D02*
X0071628Y0185166D01*
X0071247Y018669D02*
X0071267Y018667D01*
X0083083Y0194191D02*
Y0194691D01*
X0081129Y0183896D02*
Y0187427D01*
X0074168Y01798488D02*
X0074718Y01803988D01*
X00762588D02*
X0076581Y0180721D01*
X0074168Y01794474D02*
Y01798488D01*
X0074718Y01803988D02*
X00762588D01*
X0076581Y0180721D02*
Y0181998D01*
X0078129Y0183546D02*
Y0183896D01*
X0076581Y0181998D02*
X0078129Y0183546D01*
X0074168Y01789474D02*
Y01794474D01*
X0072518D02*
X0074168D01*
X0067196Y018048D02*
X0069597D01*
X0066421Y0179705D02*
X0067196Y018048D01*
X0070297Y0183445D02*
X0070597Y0183145D01*
X0070297Y0183445D02*
Y018669D01*
X0070597Y0183145D02*
X0070612D01*
D126*
X00298371Y01793271D02*
X00298785Y01792857D01*
X00282864Y01808778D02*
Y01833746D01*
Y01808778D02*
X00298371Y01793271D01*
X00262777Y01853832D02*
X00282864Y01833746D01*
X00451169Y01583402D02*
X004534Y01581171D01*
X00451169Y01583402D02*
Y01584133D01*
X004534Y01554508D02*
Y01581171D01*
D127*
X00398784Y01633591D02*
D03*
D128*
Y01608191D02*
D03*
Y01582791D02*
D03*
D129*
X0030221Y0188847D02*
D03*
X0026421D02*
D03*
Y0197487D02*
D03*
X0030221D02*
D03*
D130*
X00795435Y0163449D02*
D03*
X00813785D02*
D03*
X0078626Y01625315D02*
D03*
X0080461D02*
D03*
X0082296D02*
D03*
X00795435Y0161614D02*
D03*
X00813785D02*
D03*
X0078626Y01606965D02*
D03*
X0080461D02*
D03*
X0082296D02*
D03*
X00795435Y0159779D02*
D03*
X00813785D02*
D03*
D131*
X00262777Y01803032D02*
D03*
D132*
Y01853832D02*
D03*
D133*
X0026924Y0203454D02*
D03*
Y0200914D02*
D03*
X0061976Y0162433D02*
D03*
Y0159893D02*
D03*
Y0157353D02*
D03*
Y0154813D02*
D03*
Y0152273D02*
D03*
Y0149733D02*
D03*
D134*
X01185017Y0160004D02*
D03*
D135*
Y0157464D02*
D03*
D136*
X0031655Y01794079D02*
D03*
X00298371Y01793271D02*
D03*
X0031655Y01794079D02*
D03*
X00528363Y01917862D02*
D03*
X00451169Y01584133D02*
D03*
D137*
X0054841Y01937838D02*
D03*
X0049329Y015367D02*
D03*
X00916976Y0214884D02*
D03*
X00917912Y02137968D02*
D03*
X00640893Y02089431D02*
D03*
X00642082Y02075963D02*
D03*
X00640893Y02101711D02*
D03*
X0068671Y0180755D02*
D03*
X00642474Y02138045D02*
D03*
X00633234Y01866215D02*
D03*
X00746973Y02110913D02*
D03*
X00720005Y02111461D02*
D03*
X007675Y02109849D02*
D03*
X00783966D02*
D03*
X00574598Y01492548D02*
D03*
X00644118Y01967228D02*
D03*
X00592794Y01801915D02*
D03*
X0044312Y0198972D02*
D03*
X0039751Y0187539D02*
D03*
X0037905Y01964688D02*
D03*
X00321929Y01903881D02*
D03*
X00812049Y02173363D02*
D03*
X00791746Y02232606D02*
D03*
X0051331Y0157226D02*
D03*
X00674377Y01493584D02*
D03*
X00733934Y02239091D02*
D03*
X00691364Y02193708D02*
D03*
X00748307Y02266778D02*
D03*
X00552515Y02152526D02*
D03*
X00336865Y02003092D02*
D03*
X00321035Y02039489D02*
D03*
X00327231Y01862072D02*
D03*
X01062447Y01897721D02*
D03*
X00898045Y01973709D02*
D03*
X01111096Y01847977D02*
D03*
X00961364Y02266952D02*
D03*
X0051508Y02056781D02*
D03*
X00529087Y02002988D02*
D03*
X0049958Y0196832D02*
D03*
X00577848Y01892614D02*
D03*
X00604514Y01892868D02*
D03*
X00327231Y01823004D02*
D03*
X00556395Y02013979D02*
D03*
X00640752Y01989022D02*
D03*
X00572946Y01985896D02*
D03*
X00647058Y02014311D02*
D03*
X00548379Y0200419D02*
D03*
X00543759Y02057741D02*
D03*
X01023577Y02043201D02*
D03*
X00939442Y02219809D02*
D03*
X00943101Y0219329D02*
D03*
X00930656Y02045257D02*
D03*
X00931993Y02029852D02*
D03*
X00842926Y01996677D02*
D03*
X00842517Y02006486D02*
D03*
X01258302Y01665442D02*
D03*
X01089998Y01656183D02*
D03*
X01280779Y01756689D02*
D03*
X01213081Y01720694D02*
D03*
X01214799Y0172093D02*
D03*
X01122745Y0195912D02*
D03*
X0118599Y01910754D02*
D03*
X012573Y0199339D02*
D03*
X0094742Y0177122D02*
D03*
X012341Y01992121D02*
D03*
X01011288Y0181392D02*
D03*
X01066383Y01791898D02*
D03*
X01066099Y01803224D02*
D03*
X01199421Y01756123D02*
D03*
X01066181Y01959889D02*
D03*
X0069125Y0151004D02*
D03*
X01150901Y01835462D02*
D03*
X01182219Y0182431D02*
D03*
X01183291Y0180274D02*
D03*
X01181751Y01959889D02*
D03*
X0118278Y01813616D02*
D03*
X01215529Y01964015D02*
D03*
X0090448Y0156654D02*
D03*
X0089575Y0180319D02*
D03*
X008818Y0173482D02*
D03*
X0083973D02*
D03*
X0097174Y017272D02*
D03*
X00673686Y01532636D02*
D03*
X0074566Y01685112D02*
D03*
X0063627Y0164719D02*
D03*
X0085626Y01693327D02*
D03*
X0078794Y0167894D02*
D03*
X0072911Y01685112D02*
D03*
X0076736Y01665132D02*
D03*
X00647844Y01541778D02*
D03*
X00690838Y0166814D02*
D03*
X00657878Y0163824D02*
D03*
X01106515Y01624502D02*
D03*
X0099861Y0162306D02*
D03*
X01044911Y01622925D02*
D03*
X00903323Y0164274D02*
D03*
X00985904Y01718685D02*
D03*
X0088679Y0225044D02*
D03*
X00399211Y02148561D02*
D03*
X0086233Y0163004D02*
D03*
X0039751Y01735472D02*
D03*
X0069079Y0156654D02*
D03*
X00386038Y0225786D02*
D03*
X0070993Y0196977D02*
D03*
X00879424Y0216027D02*
D03*
M02*
