G04*
G04 #@! TF.GenerationSoftware,Altium Limited,Altium Designer,21.3.2 (30)*
G04*
G04 Layer_Color=255*
%FSTAX44Y44*%
%MOMM*%
G71*
G04*
G04 #@! TF.SameCoordinates,B6C3B198-A06E-455A-847D-5BBCBFFA52FD*
G04*
G04*
G04 #@! TF.FilePolarity,Positive*
G04*
G01*
G75*
%ADD18R,1.1938X0.7112*%
%ADD19R,1.1938X0.7620*%
%ADD20R,1.1938X0.8128*%
G04:AMPARAMS|DCode=21|XSize=1.05mm|YSize=1.3mm|CornerRadius=0.2625mm|HoleSize=0mm|Usage=FLASHONLY|Rotation=90.000|XOffset=0mm|YOffset=0mm|HoleType=Round|Shape=RoundedRectangle|*
%AMROUNDEDRECTD21*
21,1,1.0500,0.7750,0,0,90.0*
21,1,0.5250,1.3000,0,0,90.0*
1,1,0.5250,0.3875,0.2625*
1,1,0.5250,0.3875,-0.2625*
1,1,0.5250,-0.3875,-0.2625*
1,1,0.5250,-0.3875,0.2625*
%
%ADD21ROUNDEDRECTD21*%
G04:AMPARAMS|DCode=22|XSize=0.9mm|YSize=1.18mm|CornerRadius=0.09mm|HoleSize=0mm|Usage=FLASHONLY|Rotation=90.000|XOffset=0mm|YOffset=0mm|HoleType=Round|Shape=RoundedRectangle|*
%AMROUNDEDRECTD22*
21,1,0.9000,1.0000,0,0,90.0*
21,1,0.7200,1.1800,0,0,90.0*
1,1,0.1800,0.5000,0.3600*
1,1,0.1800,0.5000,-0.3600*
1,1,0.1800,-0.5000,-0.3600*
1,1,0.1800,-0.5000,0.3600*
%
%ADD22ROUNDEDRECTD22*%
G04:AMPARAMS|DCode=23|XSize=0.8mm|YSize=0.6mm|CornerRadius=0.15mm|HoleSize=0mm|Usage=FLASHONLY|Rotation=180.000|XOffset=0mm|YOffset=0mm|HoleType=Round|Shape=RoundedRectangle|*
%AMROUNDEDRECTD23*
21,1,0.8000,0.3000,0,0,180.0*
21,1,0.5000,0.6000,0,0,180.0*
1,1,0.3000,-0.2500,0.1500*
1,1,0.3000,0.2500,0.1500*
1,1,0.3000,0.2500,-0.1500*
1,1,0.3000,-0.2500,-0.1500*
%
%ADD23ROUNDEDRECTD23*%
%ADD24R,3.5000X1.6000*%
%ADD25R,0.9000X1.3000*%
%ADD26O,1.6000X0.6000*%
%ADD27O,0.6000X1.6000*%
%ADD28R,2.6000X2.1000*%
%ADD29R,1.6000X1.5000*%
G04:AMPARAMS|DCode=30|XSize=1.4mm|YSize=1.15mm|CornerRadius=0.0575mm|HoleSize=0mm|Usage=FLASHONLY|Rotation=180.000|XOffset=0mm|YOffset=0mm|HoleType=Round|Shape=RoundedRectangle|*
%AMROUNDEDRECTD30*
21,1,1.4000,1.0350,0,0,180.0*
21,1,1.2850,1.1500,0,0,180.0*
1,1,0.1150,-0.6425,0.5175*
1,1,0.1150,0.6425,0.5175*
1,1,0.1150,0.6425,-0.5175*
1,1,0.1150,-0.6425,-0.5175*
%
%ADD30ROUNDEDRECTD30*%
G04:AMPARAMS|DCode=31|XSize=1.05mm|YSize=1.3mm|CornerRadius=0.2625mm|HoleSize=0mm|Usage=FLASHONLY|Rotation=0.000|XOffset=0mm|YOffset=0mm|HoleType=Round|Shape=RoundedRectangle|*
%AMROUNDEDRECTD31*
21,1,1.0500,0.7750,0,0,0.0*
21,1,0.5250,1.3000,0,0,0.0*
1,1,0.5250,0.2625,-0.3875*
1,1,0.5250,-0.2625,-0.3875*
1,1,0.5250,-0.2625,0.3875*
1,1,0.5250,0.2625,0.3875*
%
%ADD31ROUNDEDRECTD31*%
%ADD32R,1.4500X1.1500*%
%ADD33R,1.4000X1.0000*%
%ADD34R,1.3300X1.3300*%
%ADD35R,2.0000X0.9000*%
%ADD36R,0.9000X2.0000*%
%ADD37R,1.1600X1.4700*%
%ADD38R,1.1500X1.8500*%
%ADD39R,1.3000X0.9000*%
%ADD40R,1.6000X2.9000*%
%ADD41R,1.0000X1.4000*%
%ADD42R,1.0000X1.0000*%
%ADD43R,2.2000X1.0500*%
%ADD44R,2.0000X3.0000*%
%ADD45R,1.6500X2.6500*%
G04:AMPARAMS|DCode=46|XSize=1.45mm|YSize=0.59mm|CornerRadius=0.0738mm|HoleSize=0mm|Usage=FLASHONLY|Rotation=270.000|XOffset=0mm|YOffset=0mm|HoleType=Round|Shape=RoundedRectangle|*
%AMROUNDEDRECTD46*
21,1,1.4500,0.4425,0,0,270.0*
21,1,1.3025,0.5900,0,0,270.0*
1,1,0.1475,-0.2213,-0.6513*
1,1,0.1475,-0.2213,0.6513*
1,1,0.1475,0.2213,0.6513*
1,1,0.1475,0.2213,-0.6513*
%
%ADD46ROUNDEDRECTD46*%
%ADD47R,1.1500X1.4500*%
%ADD48R,1.1000X1.3000*%
G04:AMPARAMS|DCode=49|XSize=1.35mm|YSize=2.8mm|CornerRadius=0.0675mm|HoleSize=0mm|Usage=FLASHONLY|Rotation=0.000|XOffset=0mm|YOffset=0mm|HoleType=Round|Shape=RoundedRectangle|*
%AMROUNDEDRECTD49*
21,1,1.3500,2.6650,0,0,0.0*
21,1,1.2150,2.8000,0,0,0.0*
1,1,0.1350,0.6075,-1.3325*
1,1,0.1350,-0.6075,-1.3325*
1,1,0.1350,-0.6075,1.3325*
1,1,0.1350,0.6075,1.3325*
%
%ADD49ROUNDEDRECTD49*%
G04:AMPARAMS|DCode=50|XSize=0.9mm|YSize=1.8mm|CornerRadius=0.045mm|HoleSize=0mm|Usage=FLASHONLY|Rotation=0.000|XOffset=0mm|YOffset=0mm|HoleType=Round|Shape=RoundedRectangle|*
%AMROUNDEDRECTD50*
21,1,0.9000,1.7100,0,0,0.0*
21,1,0.8100,1.8000,0,0,0.0*
1,1,0.0900,0.4050,-0.8550*
1,1,0.0900,-0.4050,-0.8550*
1,1,0.0900,-0.4050,0.8550*
1,1,0.0900,0.4050,0.8550*
%
%ADD50ROUNDEDRECTD50*%
%ADD51R,0.5900X1.2100*%
%ADD52R,5.7000X2.0000*%
%ADD53R,4.5000X2.1000*%
%ADD54R,1.3000X1.1000*%
%ADD55R,1.0500X2.2000*%
%ADD56R,1.0000X1.0000*%
%ADD57R,1.2100X0.7300*%
%ADD58R,0.9720X0.8020*%
%ADD59R,1.0000X1.5358*%
G04:AMPARAMS|DCode=60|XSize=0.3mm|YSize=0.45mm|CornerRadius=0.03mm|HoleSize=0mm|Usage=FLASHONLY|Rotation=90.000|XOffset=0mm|YOffset=0mm|HoleType=Round|Shape=RoundedRectangle|*
%AMROUNDEDRECTD60*
21,1,0.3000,0.3900,0,0,90.0*
21,1,0.2400,0.4500,0,0,90.0*
1,1,0.0600,0.1950,0.1200*
1,1,0.0600,0.1950,-0.1200*
1,1,0.0600,-0.1950,-0.1200*
1,1,0.0600,-0.1950,0.1200*
%
%ADD60ROUNDEDRECTD60*%
G04:AMPARAMS|DCode=61|XSize=0.3mm|YSize=0.45mm|CornerRadius=0.03mm|HoleSize=0mm|Usage=FLASHONLY|Rotation=180.000|XOffset=0mm|YOffset=0mm|HoleType=Round|Shape=RoundedRectangle|*
%AMROUNDEDRECTD61*
21,1,0.3000,0.3900,0,0,180.0*
21,1,0.2400,0.4500,0,0,180.0*
1,1,0.0600,-0.1200,0.1950*
1,1,0.0600,0.1200,0.1950*
1,1,0.0600,0.1200,-0.1950*
1,1,0.0600,-0.1200,-0.1950*
%
%ADD61ROUNDEDRECTD61*%
G04:AMPARAMS|DCode=62|XSize=1mm|YSize=1mm|CornerRadius=0.05mm|HoleSize=0mm|Usage=FLASHONLY|Rotation=90.000|XOffset=0mm|YOffset=0mm|HoleType=Round|Shape=RoundedRectangle|*
%AMROUNDEDRECTD62*
21,1,1.0000,0.9000,0,0,90.0*
21,1,0.9000,1.0000,0,0,90.0*
1,1,0.1000,0.4500,0.4500*
1,1,0.1000,0.4500,-0.4500*
1,1,0.1000,-0.4500,-0.4500*
1,1,0.1000,-0.4500,0.4500*
%
%ADD62ROUNDEDRECTD62*%
%ADD63R,0.6000X0.8000*%
%ADD64R,0.8000X0.6000*%
%ADD65R,1.2000X1.0000*%
%ADD66R,2.9000X1.6000*%
%ADD67R,0.8000X1.2000*%
%ADD124R,0.9000X0.9000*%
%ADD127R,2.2860X1.9050*%
%ADD128O,2.2860X1.9050*%
%ADD129O,1.7000X1.1000*%
%ADD130C,0.3000*%
%ADD131C,1.8500*%
%ADD132R,1.8500X1.8500*%
%ADD133C,1.8034*%
%ADD134R,1.5000X1.5000*%
%ADD135C,1.5000*%
D18*
X0030301Y0193667D02*
D03*
Y0192667D02*
D03*
D19*
Y0191647D02*
D03*
X00303009Y01946869D02*
D03*
D20*
X0030301Y0190417D02*
D03*
X00303009Y01959169D02*
D03*
D21*
X00746813Y02152867D02*
D03*
Y02129367D02*
D03*
X00947735Y02096509D02*
D03*
Y02120009D02*
D03*
X01209408Y01722444D02*
D03*
Y01698944D02*
D03*
X00720005Y02152421D02*
D03*
Y02128921D02*
D03*
X01228369Y0196414D02*
D03*
Y0198764D02*
D03*
X0120269Y0198739D02*
D03*
Y0196389D02*
D03*
X01205153Y01760604D02*
D03*
Y01784104D02*
D03*
X01228594Y01760604D02*
D03*
Y01784104D02*
D03*
X0124826Y01883441D02*
D03*
Y01906941D02*
D03*
X01100068Y0169731D02*
D03*
Y0172081D02*
D03*
X01004333Y01718855D02*
D03*
Y01695354D02*
D03*
X01155297Y01697176D02*
D03*
Y01720676D02*
D03*
X01279198Y01883412D02*
D03*
Y01906912D02*
D03*
X0125857Y0176117D02*
D03*
Y0178467D02*
D03*
X0128651Y0176117D02*
D03*
Y0178467D02*
D03*
X0106045Y0198787D02*
D03*
Y0196437D02*
D03*
X0111887Y0198787D02*
D03*
Y0196437D02*
D03*
X0117602Y0198787D02*
D03*
Y0196437D02*
D03*
D22*
X00611909Y02243051D02*
D03*
Y02265651D02*
D03*
Y02254351D02*
D03*
Y02231751D02*
D03*
Y02220451D02*
D03*
Y02209151D02*
D03*
Y02197851D02*
D03*
Y02186551D02*
D03*
Y02175251D02*
D03*
X00710909Y02243051D02*
D03*
Y02209151D02*
D03*
Y02265651D02*
D03*
Y02254351D02*
D03*
Y02231751D02*
D03*
Y02220451D02*
D03*
Y02209151D02*
D03*
Y02197851D02*
D03*
Y02186551D02*
D03*
Y02175251D02*
D03*
D23*
X01259626Y01720724D02*
D03*
X01239426Y01711224D02*
D03*
X01259626Y01701724D02*
D03*
X01159834Y01641854D02*
D03*
X01180034Y01651354D02*
D03*
X01159834Y01660854D02*
D03*
X01055932Y01717102D02*
D03*
X01076132Y01707602D02*
D03*
X01055932Y01698102D02*
D03*
D24*
X00889112Y02046375D02*
D03*
X00945112D02*
D03*
X00945112Y01972262D02*
D03*
X00889112D02*
D03*
D25*
X00943901Y01815863D02*
D03*
X00920901D02*
D03*
X00920473Y01841143D02*
D03*
X00943473D02*
D03*
X0092133Y01866423D02*
D03*
X0094433D02*
D03*
X0092133Y01891274D02*
D03*
X0094433D02*
D03*
X0092133Y01919125D02*
D03*
X0094433D02*
D03*
X00862756Y02096007D02*
D03*
X00839756D02*
D03*
X00839615Y0211878D02*
D03*
X00862615D02*
D03*
X00839649Y02141559D02*
D03*
X00862649D02*
D03*
X008394Y02164192D02*
D03*
X008624D02*
D03*
X00916976Y0213995D02*
D03*
X00893976D02*
D03*
X00917476Y0226695D02*
D03*
X00940476D02*
D03*
X00357052Y0198936D02*
D03*
X00380052D02*
D03*
X00847215Y02263408D02*
D03*
X00824214D02*
D03*
X00916976Y02164192D02*
D03*
X00893976D02*
D03*
X0094292Y0176472D02*
D03*
X0091992D02*
D03*
D26*
X0099071Y0186835D02*
D03*
Y0187935D02*
D03*
X0116671Y0184635D02*
D03*
Y0180235D02*
D03*
Y0181335D02*
D03*
Y0182435D02*
D03*
Y0183535D02*
D03*
Y0186835D02*
D03*
X0099071Y0183535D02*
D03*
Y0182435D02*
D03*
Y0181335D02*
D03*
Y0180235D02*
D03*
Y0179135D02*
D03*
X0116671D02*
D03*
Y0185735D02*
D03*
Y0187935D02*
D03*
X0099071Y0185735D02*
D03*
Y0184635D02*
D03*
D27*
X0101821Y0175685D02*
D03*
X0102921D02*
D03*
X0104021D02*
D03*
X0105121D02*
D03*
X0106221D02*
D03*
X0107321D02*
D03*
X0108421D02*
D03*
X0110621D02*
D03*
X0111721D02*
D03*
X0112821D02*
D03*
X0113921D02*
D03*
Y0191385D02*
D03*
X0112821D02*
D03*
X0111721D02*
D03*
X0110621D02*
D03*
X0109521D02*
D03*
X0107321D02*
D03*
X0102921D02*
D03*
X0106221D02*
D03*
X0109521Y0175685D02*
D03*
X0108421Y0191385D02*
D03*
X0105121D02*
D03*
X0104021D02*
D03*
X0101821D02*
D03*
D28*
X0107871Y0182285D02*
D03*
Y0184785D02*
D03*
X0110871D02*
D03*
X0104871D02*
D03*
X0110871Y0182285D02*
D03*
D29*
X010525Y01824668D02*
D03*
D30*
X01199413Y01827326D02*
D03*
Y01845826D02*
D03*
D31*
X0094354Y0179135D02*
D03*
X0092004D02*
D03*
X0092397Y0165094D02*
D03*
X0094747D02*
D03*
X00946673Y01679453D02*
D03*
X00923173D02*
D03*
X00916976Y0219329D02*
D03*
X00940476D02*
D03*
Y0221869D02*
D03*
X00916976D02*
D03*
Y0224155D02*
D03*
X00940476D02*
D03*
D32*
X01047351Y01591497D02*
D03*
Y01573497D02*
D03*
X0039812Y02184764D02*
D03*
Y02166764D02*
D03*
X00733934Y02257091D02*
D03*
Y02239091D02*
D03*
X00761985Y02256648D02*
D03*
Y02238648D02*
D03*
X0070612Y0183145D02*
D03*
Y0181345D02*
D03*
X0047554Y0149711D02*
D03*
Y0151511D02*
D03*
X0052554Y0149711D02*
D03*
Y0151511D02*
D03*
X0050054Y0149711D02*
D03*
Y0151511D02*
D03*
X0038039Y0174476D02*
D03*
Y0176276D02*
D03*
X0052297Y01912112D02*
D03*
Y01894112D02*
D03*
X0049403Y01912112D02*
D03*
Y01894112D02*
D03*
X01120575Y0159004D02*
D03*
Y0157204D02*
D03*
D33*
X0107217Y01660713D02*
D03*
Y01642713D02*
D03*
X01044705Y01660388D02*
D03*
Y01642388D02*
D03*
X0051435Y0214006D02*
D03*
Y0212206D02*
D03*
X0101207Y01659223D02*
D03*
Y01641223D02*
D03*
X01106515Y01642713D02*
D03*
Y01660713D02*
D03*
X0081129Y0189227D02*
D03*
Y0187427D02*
D03*
X0082401Y01790306D02*
D03*
Y01808306D02*
D03*
X00547373Y02170181D02*
D03*
Y02188181D02*
D03*
X0035391Y02183602D02*
D03*
Y02201602D02*
D03*
X00660659Y0188745D02*
D03*
Y0186945D02*
D03*
X0053975Y0203824D02*
D03*
Y0205624D02*
D03*
X00508Y0174222D02*
D03*
Y0176022D02*
D03*
X0054991Y0182891D02*
D03*
Y0181091D02*
D03*
X00345864Y01798027D02*
D03*
Y01780027D02*
D03*
X0057785Y01894112D02*
D03*
Y01912112D02*
D03*
X00604515Y01894366D02*
D03*
Y01912366D02*
D03*
X00550497Y01894111D02*
D03*
Y01912111D02*
D03*
X0056769Y0205532D02*
D03*
Y0203732D02*
D03*
X01135895Y01642713D02*
D03*
Y01660713D02*
D03*
X01153064Y01572929D02*
D03*
Y01590929D02*
D03*
D34*
X0078626Y0163449D02*
D03*
X0080461D02*
D03*
X0082296D02*
D03*
X0078626Y0161614D02*
D03*
X0080461D02*
D03*
X0082296D02*
D03*
X0078626Y0159779D02*
D03*
X0080461D02*
D03*
X0082296D02*
D03*
D35*
X0070961Y0154114D02*
D03*
Y0155384D02*
D03*
Y0156654D02*
D03*
Y0157924D02*
D03*
Y0159194D02*
D03*
Y0160464D02*
D03*
Y0161734D02*
D03*
Y0163004D02*
D03*
Y0164274D02*
D03*
Y0165544D02*
D03*
Y0166814D02*
D03*
Y0168084D02*
D03*
Y0169354D02*
D03*
Y0170624D02*
D03*
X0087961D02*
D03*
Y0169354D02*
D03*
Y0168084D02*
D03*
Y0166814D02*
D03*
Y0165544D02*
D03*
Y0164274D02*
D03*
Y0163004D02*
D03*
Y0161734D02*
D03*
Y0160464D02*
D03*
Y0159194D02*
D03*
Y0157924D02*
D03*
Y0156654D02*
D03*
Y0155384D02*
D03*
Y0154114D02*
D03*
D36*
X0073746Y0171624D02*
D03*
X0075016D02*
D03*
X0076286D02*
D03*
X0077556D02*
D03*
X0078826D02*
D03*
X0080096D02*
D03*
X0081366D02*
D03*
X0082636D02*
D03*
X0083906D02*
D03*
X0085176D02*
D03*
D37*
X00797911Y01791144D02*
D03*
X00780111D02*
D03*
X00469386Y02123826D02*
D03*
X00487186D02*
D03*
X00303631Y01823004D02*
D03*
X00321431D02*
D03*
X0064154Y02135036D02*
D03*
X0065934D02*
D03*
X0047379Y01751222D02*
D03*
X0045599D02*
D03*
X00321431Y01862072D02*
D03*
X00303631D02*
D03*
X0065443Y01725021D02*
D03*
X0067223D02*
D03*
D38*
X00511959Y02164913D02*
D03*
X00481959D02*
D03*
X0078129Y0183896D02*
D03*
X0081129D02*
D03*
X00449888Y0178054D02*
D03*
X00479888D02*
D03*
D39*
X00598175Y0205782D02*
D03*
Y0203482D02*
D03*
X00787649Y02257989D02*
D03*
Y02234989D02*
D03*
X01216698Y01906552D02*
D03*
Y01883553D02*
D03*
X0051308Y02033781D02*
D03*
Y02056781D02*
D03*
X00485561Y0203378D02*
D03*
Y0205678D02*
D03*
X00830731Y02020237D02*
D03*
Y02043237D02*
D03*
X0112821Y01720562D02*
D03*
Y01697562D02*
D03*
X0103221Y01696102D02*
D03*
Y01719102D02*
D03*
X0118188Y01721776D02*
D03*
Y01698776D02*
D03*
X01033673Y01988274D02*
D03*
Y01965274D02*
D03*
X0108839Y0198762D02*
D03*
Y0196462D02*
D03*
X0114808Y0198889D02*
D03*
Y0196589D02*
D03*
X0119249Y01883254D02*
D03*
Y01906254D02*
D03*
D40*
X0056896Y0148187D02*
D03*
Y0151787D02*
D03*
D41*
X006551Y0154178D02*
D03*
X006731D02*
D03*
X00672878Y0149774D02*
D03*
X00654878D02*
D03*
X00352847Y02222366D02*
D03*
X00370847D02*
D03*
X00685915Y0191897D02*
D03*
X00667915D02*
D03*
X00370847Y02246366D02*
D03*
X00352847D02*
D03*
X00640893Y02101711D02*
D03*
X00658894D02*
D03*
X00685915Y0194883D02*
D03*
X00667915D02*
D03*
X00359554Y0193802D02*
D03*
X00377554D02*
D03*
X00359554Y0191135D02*
D03*
X00377554D02*
D03*
X00354388Y01871724D02*
D03*
X00372388D02*
D03*
X0037239Y01846832D02*
D03*
X0035439D02*
D03*
X0064262Y0196723D02*
D03*
X0062462D02*
D03*
X0064262Y0194183D02*
D03*
X0062462D02*
D03*
X0064262Y0199263D02*
D03*
X0062462D02*
D03*
X00377552Y0196469D02*
D03*
X00359552D02*
D03*
X006731Y0157924D02*
D03*
X006551D02*
D03*
X0067183Y016129D02*
D03*
X0065383D02*
D03*
X0065433Y01697403D02*
D03*
X0067233D02*
D03*
D42*
X0059539Y02254147D02*
D03*
D43*
X0058039Y02239397D02*
D03*
Y02268898D02*
D03*
D44*
X005461Y0224663D02*
D03*
X004821D02*
D03*
X0076683Y0194691D02*
D03*
X0083083D02*
D03*
X0052095Y0183769D02*
D03*
X0045695D02*
D03*
D45*
X0044323Y02170514D02*
D03*
Y02210514D02*
D03*
X0074168Y01834474D02*
D03*
Y01794474D02*
D03*
X0041656Y0178784D02*
D03*
Y0174784D02*
D03*
D46*
X00407772Y02233916D02*
D03*
X00398272D02*
D03*
X00388772D02*
D03*
Y02210816D02*
D03*
X00398272D02*
D03*
X00407772D02*
D03*
X0071247Y018669D02*
D03*
X0070297D02*
D03*
X0069347D02*
D03*
Y0189D02*
D03*
X0071247D02*
D03*
X0070297D02*
D03*
X0038989Y0179554D02*
D03*
X0038039D02*
D03*
X0037089D02*
D03*
Y0181864D02*
D03*
X0038039D02*
D03*
X0038989D02*
D03*
D47*
X0042142Y0226163D02*
D03*
X0043942D02*
D03*
X0073914Y0191897D02*
D03*
X0072114D02*
D03*
X0042937Y0184683D02*
D03*
X0041137D02*
D03*
X0046112Y0195707D02*
D03*
X0044312D02*
D03*
X0046112Y0198247D02*
D03*
X0044312D02*
D03*
Y0190246D02*
D03*
X0046112D02*
D03*
X0044312Y019304D02*
D03*
X0046112D02*
D03*
X00625382Y020193D02*
D03*
X00643382D02*
D03*
X0095484Y0155236D02*
D03*
X0093684D02*
D03*
D48*
X00914056Y0210003D02*
D03*
X00893056D02*
D03*
D49*
X0097519Y0221488D02*
D03*
X0117729D02*
D03*
Y0209288D02*
D03*
X0097519D02*
D03*
D50*
X0113874Y0202338D02*
D03*
X0110004D02*
D03*
X0108734D02*
D03*
X0107464D02*
D03*
X0106194D02*
D03*
X0104924D02*
D03*
X0103654D02*
D03*
X0102384D02*
D03*
X0111274D02*
D03*
D51*
X0088679Y02207932D02*
D03*
X0089629Y02233032D02*
D03*
X0088679D02*
D03*
X0087729D02*
D03*
X0089629Y02207932D02*
D03*
X0087729D02*
D03*
D52*
X00834118Y02234723D02*
D03*
Y02191723D02*
D03*
D53*
X0035391Y02113326D02*
D03*
X0042291D02*
D03*
X0026628Y0172339D02*
D03*
X0033528D02*
D03*
X0066421Y0179705D02*
D03*
X0059521D02*
D03*
D54*
X012827Y0196689D02*
D03*
Y0198789D02*
D03*
X012573Y0196689D02*
D03*
Y0198789D02*
D03*
D55*
X0042171Y01489092D02*
D03*
X0045121D02*
D03*
X0100748Y01978182D02*
D03*
X0097798D02*
D03*
D56*
X0043646Y01504092D02*
D03*
X0099273Y01963182D02*
D03*
D57*
X00865585Y0207152D02*
D03*
X00831985D02*
D03*
D58*
X0033528Y02039112D02*
D03*
Y02019808D02*
D03*
X003556Y0202946D02*
D03*
D59*
X004334Y01554508D02*
D03*
X004534D02*
D03*
X004734D02*
D03*
X004934D02*
D03*
X005134D02*
D03*
X005334D02*
D03*
X005534D02*
D03*
X005734D02*
D03*
Y0170815D02*
D03*
X005534D02*
D03*
X005334D02*
D03*
X005134D02*
D03*
X004934D02*
D03*
X004734D02*
D03*
X004534D02*
D03*
X004334D02*
D03*
D60*
X0056381Y01963743D02*
D03*
Y01968743D02*
D03*
Y01973743D02*
D03*
Y01978743D02*
D03*
Y01983743D02*
D03*
Y01958743D02*
D03*
X0052331Y01963743D02*
D03*
Y01968743D02*
D03*
Y01973743D02*
D03*
Y01978743D02*
D03*
Y01983743D02*
D03*
Y01958743D02*
D03*
D61*
X00545857Y0195079D02*
D03*
X00535857D02*
D03*
X00555857D02*
D03*
X00540857D02*
D03*
X00550857D02*
D03*
X00530857D02*
D03*
X00545857Y0199129D02*
D03*
X00535857D02*
D03*
X00555857D02*
D03*
X00540857D02*
D03*
X00550857D02*
D03*
X00530857D02*
D03*
D62*
X0054356Y01971243D02*
D03*
D63*
X0124079Y01848547D02*
D03*
X0123129Y01828347D02*
D03*
X0125029D02*
D03*
X01276198Y01848547D02*
D03*
X01266698Y01828347D02*
D03*
X01285698D02*
D03*
D64*
X0094752Y01709184D02*
D03*
X0092732Y01718684D02*
D03*
Y01699684D02*
D03*
D65*
X0091872Y01738576D02*
D03*
X0095312D02*
D03*
D66*
X0096415Y016002D02*
D03*
X0092815D02*
D03*
D67*
X01083391Y01546925D02*
D03*
Y01616925D02*
D03*
X01012514Y01546185D02*
D03*
Y01616185D02*
D03*
D124*
X004066Y0203327D02*
D03*
X004316D02*
D03*
D127*
X00398784Y01633591D02*
D03*
D128*
Y01608191D02*
D03*
Y01582791D02*
D03*
D129*
X0030221Y0188847D02*
D03*
X0026421D02*
D03*
Y0197487D02*
D03*
X0030221D02*
D03*
D130*
X00795435Y0163449D02*
D03*
X00813785D02*
D03*
X0078626Y01625315D02*
D03*
X0080461D02*
D03*
X0082296D02*
D03*
X00795435Y0161614D02*
D03*
X00813785D02*
D03*
X0078626Y01606965D02*
D03*
X0080461D02*
D03*
X0082296D02*
D03*
X00795435Y0159779D02*
D03*
X00813785D02*
D03*
D131*
X00262777Y01803032D02*
D03*
D132*
Y01853832D02*
D03*
D133*
X0026924Y0203454D02*
D03*
Y0200914D02*
D03*
X0061976Y0162433D02*
D03*
Y0159893D02*
D03*
Y0157353D02*
D03*
Y0154813D02*
D03*
Y0152273D02*
D03*
Y0149733D02*
D03*
D134*
X01185017Y0160004D02*
D03*
D135*
Y0157464D02*
D03*
M02*
