G04*
G04 #@! TF.GenerationSoftware,Altium Limited,Altium Designer,21.3.2 (30)*
G04*
G04 Layer_Color=16711935*
%FSTAX44Y44*%
%MOMM*%
G71*
G04*
G04 #@! TF.SameCoordinates,B6C3B198-A06E-455A-847D-5BBCBFFA52FD*
G04*
G04*
G04 #@! TF.FilePolarity,Positive*
G04*
G01*
G75*
%ADD139C,0.1000*%
G36*
X01200832Y01845927D02*
X01200926Y01845915D01*
X01201031Y01845903D01*
X01201149Y01845892D01*
X01201277Y01845868D01*
X01201558Y01845786D01*
X01201851Y01845681D01*
X01202015Y01845611D01*
X01202167Y01845529D01*
X01202319Y01845435D01*
X0120246Y0184533D01*
X01202472Y01845318D01*
X01202495Y01845294D01*
X01202542Y01845248D01*
X012026Y01845189D01*
X01202671Y01845119D01*
X01202753Y01845025D01*
X01202835Y0184492D01*
X01202917Y01844791D01*
X0120301Y01844662D01*
X01203092Y0184451D01*
X01203174Y01844334D01*
X01203244Y01844159D01*
X01203303Y0184396D01*
X0120335Y01843761D01*
X01203373Y01843538D01*
X01203385Y01843304D01*
Y01843199D01*
X01203373Y01843128D01*
X01203362Y01843046D01*
X0120335Y01842941D01*
X01203338Y01842824D01*
X01203315Y01842695D01*
X01203244Y01842426D01*
X01203139Y01842145D01*
X01203069Y01842004D01*
X01202987Y01841864D01*
X01202905Y01841723D01*
X012028Y01841594D01*
X01202788Y01841583D01*
X01202776Y01841571D01*
X01202741Y01841536D01*
X01202694Y01841489D01*
X01202636Y01841442D01*
X01202565Y01841384D01*
X01202483Y01841325D01*
X0120239Y01841255D01*
X01202167Y01841126D01*
X01201898Y01840997D01*
X01201593Y01840903D01*
X01201418Y01840868D01*
X01201242Y01840845D01*
X01201172Y0184184D01*
X01201184D01*
X01201207D01*
X01201242Y01841852D01*
X01201289Y01841864D01*
X01201418Y01841899D01*
X01201582Y01841946D01*
X01201757Y01842004D01*
X01201933Y01842098D01*
X01202109Y01842203D01*
X01202261Y01842344D01*
X01202273Y01842367D01*
X01202319Y01842414D01*
X01202366Y01842496D01*
X01202437Y01842613D01*
X01202495Y01842754D01*
X01202554Y01842917D01*
X012026Y01843105D01*
X01202612Y01843304D01*
Y01843374D01*
X012026Y01843421D01*
X01202589Y0184355D01*
X01202554Y01843714D01*
X01202483Y01843889D01*
X01202402Y01844088D01*
X01202273Y01844276D01*
X01202202Y0184437D01*
X01202109Y01844463D01*
X01202097D01*
X01202085Y01844487D01*
X01202015Y01844533D01*
X01201898Y01844615D01*
X01201746Y01844697D01*
X01201547Y01844779D01*
X01201312Y01844861D01*
X01201043Y01844908D01*
X01200739Y01844931D01*
X01200727D01*
X01200704D01*
X01200657D01*
X0120061Y0184492D01*
X0120054D01*
X01200458Y01844908D01*
X0120027Y01844873D01*
X01200071Y01844826D01*
X01199861Y01844744D01*
X0119965Y01844627D01*
X01199462Y01844475D01*
X01199439Y01844451D01*
X01199392Y01844393D01*
X0119931Y01844299D01*
X01199228Y01844159D01*
X01199146Y01843995D01*
X01199064Y01843784D01*
X01199017Y0184355D01*
X01198994Y01843292D01*
Y0184321D01*
X01199006Y01843128D01*
X01199017Y01843011D01*
X01199053Y01842882D01*
X01199088Y01842742D01*
X01199146Y01842601D01*
X01199217Y01842461D01*
X01199228Y01842449D01*
X01199252Y01842402D01*
X01199298Y01842332D01*
X01199357Y0184225D01*
X01199439Y01842168D01*
X01199533Y01842074D01*
X01199638Y01841981D01*
X01199755Y01841899D01*
X01199626Y01841009D01*
X0119568Y01841758D01*
Y01845576D01*
X01196582D01*
Y01842508D01*
X01198654Y01842086D01*
X01198643Y01842098D01*
X01198631Y01842121D01*
X01198608Y01842156D01*
X01198572Y01842203D01*
X01198537Y01842274D01*
X01198502Y01842344D01*
X01198409Y01842531D01*
X01198315Y01842742D01*
X01198245Y01842988D01*
X01198186Y01843257D01*
X01198163Y01843538D01*
Y01843632D01*
X01198174Y01843702D01*
X01198186Y01843796D01*
X01198198Y01843889D01*
X01198221Y01844007D01*
X01198245Y01844124D01*
X01198338Y01844393D01*
X01198385Y01844533D01*
X01198455Y01844674D01*
X01198537Y01844826D01*
X01198631Y01844967D01*
X01198736Y01845107D01*
X01198865Y01845236D01*
X01198877Y01845248D01*
X011989Y01845271D01*
X01198935Y01845306D01*
X01198994Y01845341D01*
X01199064Y018454D01*
X01199146Y01845459D01*
X0119924Y01845517D01*
X01199345Y01845587D01*
X01199474Y01845658D01*
X01199603Y01845716D01*
X01199755Y01845775D01*
X01199907Y01845833D01*
X01200083Y01845868D01*
X01200259Y01845903D01*
X01200458Y01845927D01*
X01200657Y01845939D01*
X01200668D01*
X01200704D01*
X01200762D01*
X01200832Y01845927D01*
D02*
G37*
G36*
X01203256Y01837484D02*
X01197238D01*
X01197249Y01837473D01*
X01197296Y01837426D01*
X01197355Y01837344D01*
X01197437Y01837238D01*
X01197542Y0183711D01*
X01197647Y01836957D01*
X01197776Y01836782D01*
X01197893Y01836583D01*
Y01836571D01*
X01197905Y01836559D01*
X01197952Y01836489D01*
X0119801Y01836384D01*
X01198081Y01836255D01*
X01198163Y01836103D01*
X01198233Y01835939D01*
X01198315Y01835763D01*
X01198385Y01835599D01*
X0119746D01*
Y01835611D01*
X01197448Y01835634D01*
X01197425Y01835681D01*
X0119739Y01835728D01*
X01197355Y01835798D01*
X0119732Y0183588D01*
X01197214Y01836068D01*
X01197085Y01836278D01*
X01196933Y01836512D01*
X01196758Y01836747D01*
X0119657Y01836969D01*
X01196559Y01836981D01*
X01196547Y01836993D01*
X01196477Y01837063D01*
X01196371Y01837168D01*
X01196242Y01837297D01*
X01196078Y01837437D01*
X01195903Y01837578D01*
X01195715Y01837707D01*
X01195528Y01837812D01*
Y01838433D01*
X01203256D01*
Y01837484D01*
D02*
G37*
G36*
X01200879Y01833995D02*
X01200938Y01833972D01*
X01201031Y01833948D01*
X01201125Y01833901D01*
X01201254Y01833854D01*
X01201383Y01833808D01*
X01201523Y01833737D01*
X01201839Y01833585D01*
X01202156Y01833374D01*
X0120246Y0183314D01*
X012026Y01833D01*
X01202729Y01832847D01*
X01202741Y01832836D01*
X01202753Y01832812D01*
X01202788Y01832766D01*
X01202835Y01832695D01*
X01202881Y01832613D01*
X0120294Y0183252D01*
X01202999Y01832414D01*
X01203057Y01832285D01*
X01203116Y01832145D01*
X01203174Y01831993D01*
X01203233Y01831817D01*
X0120328Y01831641D01*
X01203362Y01831255D01*
X01203373Y01831044D01*
X01203385Y01830822D01*
Y01830705D01*
X01203373Y01830611D01*
Y01830506D01*
X01203362Y01830388D01*
X01203338Y01830248D01*
X01203326Y01830107D01*
X01203256Y0182978D01*
X01203174Y0182944D01*
X01203046Y01829112D01*
X01202975Y01828948D01*
X01202881Y01828796D01*
X0120287Y01828784D01*
X01202858Y01828761D01*
X01202823Y01828726D01*
X01202788Y01828667D01*
X01202671Y01828527D01*
X01202507Y01828363D01*
X01202308Y01828164D01*
X0120205Y01827976D01*
X01201757Y01827777D01*
X01201418Y01827613D01*
X01201406D01*
X01201371Y01827602D01*
X01201324Y01827578D01*
X01201254Y01827555D01*
X0120116Y0182752D01*
X01201055Y01827484D01*
X01200938Y01827449D01*
X01200797Y01827414D01*
X01200657Y01827379D01*
X01200493Y01827344D01*
X01200142Y01827274D01*
X01199767Y01827227D01*
X01199357Y01827215D01*
X01199345D01*
X01199298D01*
X0119924D01*
X01199158Y01827227D01*
X01199053D01*
X01198924Y01827239D01*
X01198795Y0182725D01*
X01198643Y01827274D01*
X01198315Y01827332D01*
X01197964Y01827403D01*
X01197601Y0182752D01*
X01197261Y01827672D01*
X01197249D01*
X01197226Y01827695D01*
X01197179Y01827719D01*
X01197109Y01827754D01*
X01197039Y01827801D01*
X01196957Y01827859D01*
X01196758Y01828011D01*
X01196535Y01828187D01*
X01196313Y0182841D01*
X0119609Y01828679D01*
X01195903Y01828972D01*
Y01828983D01*
X01195879Y01829007D01*
X01195856Y01829054D01*
X01195833Y01829124D01*
X01195797Y01829194D01*
X01195751Y01829288D01*
X01195715Y01829405D01*
X01195669Y01829522D01*
X01195622Y01829651D01*
X01195587Y01829791D01*
X01195505Y01830107D01*
X01195458Y01830459D01*
X01195434Y01830833D01*
Y0183095D01*
X01195446Y01831033D01*
X01195458Y01831126D01*
X0119547Y01831243D01*
X01195481Y01831372D01*
X01195505Y01831513D01*
X01195575Y01831817D01*
X0119568Y01832145D01*
X01195751Y01832309D01*
X01195833Y01832473D01*
X01195926Y01832625D01*
X01196031Y01832777D01*
X01196043Y01832789D01*
X01196055Y01832812D01*
X0119609Y01832847D01*
X01196137Y01832906D01*
X01196196Y01832964D01*
X01196277Y01833047D01*
X01196359Y01833129D01*
X01196453Y0183321D01*
X0119657Y01833304D01*
X01196687Y01833386D01*
X01196828Y0183348D01*
X0119698Y01833573D01*
X01197132Y01833655D01*
X01197308Y01833737D01*
X01197683Y01833878D01*
X01197917Y01832871D01*
X01197905D01*
X01197882Y01832859D01*
X01197835Y01832847D01*
X01197776Y01832824D01*
X01197706Y01832789D01*
X01197624Y01832754D01*
X01197448Y01832672D01*
X01197249Y01832566D01*
X01197039Y01832426D01*
X01196851Y01832274D01*
X01196687Y01832086D01*
X01196676Y01832063D01*
X01196629Y01831993D01*
X0119657Y01831887D01*
X01196488Y01831735D01*
X01196418Y01831559D01*
X01196359Y01831337D01*
X01196313Y01831091D01*
X01196301Y0183081D01*
Y01830728D01*
X01196313Y0183067D01*
Y01830587D01*
X01196324Y01830506D01*
X01196359Y01830295D01*
X01196406Y01830061D01*
X01196488Y01829815D01*
X01196594Y01829569D01*
X01196734Y01829335D01*
Y01829323D01*
X01196758Y01829311D01*
X01196816Y01829241D01*
X0119691Y01829136D01*
X01197039Y01829007D01*
X01197203Y01828878D01*
X0119739Y01828737D01*
X01197624Y01828609D01*
X01197882Y01828503D01*
X01197893D01*
X01197917Y01828492D01*
X01197952Y0182848D01*
X0119801Y01828468D01*
X01198069Y01828445D01*
X01198151Y01828433D01*
X01198338Y01828386D01*
X01198561Y01828339D01*
X01198807Y01828304D01*
X01199076Y01828281D01*
X01199357Y01828269D01*
X01199369D01*
X01199404D01*
X01199451D01*
X01199521D01*
X01199603Y01828281D01*
X01199708D01*
X01199814Y01828293D01*
X01199931Y01828304D01*
X012002Y01828339D01*
X01200493Y01828386D01*
X01200786Y01828456D01*
X01201067Y0182855D01*
X01201078D01*
X01201102Y01828562D01*
X01201137Y01828585D01*
X01201184Y01828609D01*
X01201324Y01828667D01*
X01201476Y01828761D01*
X01201664Y0182889D01*
X01201839Y01829042D01*
X01202015Y01829218D01*
X01202167Y01829428D01*
Y0182944D01*
X01202179Y01829452D01*
X01202202Y01829487D01*
X01202226Y01829534D01*
X01202273Y01829662D01*
X01202343Y01829826D01*
X01202402Y01830014D01*
X0120246Y01830236D01*
X01202507Y01830482D01*
X01202519Y0183074D01*
Y01830822D01*
X01202507Y0183088D01*
Y0183095D01*
X01202495Y01831044D01*
X0120246Y01831243D01*
X01202402Y01831466D01*
X01202308Y01831712D01*
X01202191Y01831946D01*
X01202027Y0183218D01*
X01202015Y01832192D01*
X01202003Y01832203D01*
X01201933Y01832274D01*
X01201816Y01832379D01*
X01201664Y01832508D01*
X01201453Y01832637D01*
X01201207Y01832777D01*
X01200903Y01832894D01*
X01200563Y01832988D01*
X01200821Y01834007D01*
X01200832D01*
X01200879Y01833995D01*
D02*
G37*
D139*
X01206663Y01825576D02*
Y01847576D01*
X01192163Y01825576D02*
Y01847576D01*
X01206663D01*
X01192163Y01825576D02*
X01206663D01*
M02*
