M48
;Layer_Color=9474304
;FILE_FORMAT=4:4
METRIC,LZ
;TYPE=PLATED
T1F00S00C0.2000
T2F00S00C0.4000
T4F00S00C0.7112
T5F00S00C0.8636
T6F00S00C0.9000
T7F00S00C1.0160
T8F00S00C1.1000
%
T01
X0078626Y01606965
Y01625315
X00795435Y0161614
Y0163449
X00813785
X0080461Y01625315
X00813785Y0161614
X0082296Y01625315
Y01606965
X0080461
X00813785Y0159779
X00795435
T02
X0090448Y0156654
X0069079
X00673686Y01532636
X00647844Y01541778
X00674377Y01493584
X0069125Y0151004
X00574598Y01492548
X0049329Y015367
X0051331Y0157226
X00327231Y01823004
Y01862072
X00321929Y01903881
X0037905Y01964688
X0039751Y0187539
Y01735472
X00592794Y01801915
X0068671Y0180755
X00633234Y01866215
X00604514Y01892868
X00577848Y01892614
X0054841Y01937838
X0049958Y0196832
X00644118Y01967228
X0070993Y0196977
X0072911Y01685112
X0074566
X0076736Y01665132
X0078794Y0167894
X00690838Y0166814
X00657878Y0163824
X0063627Y0164719
X0086233Y0163004
X00903323Y0164274
X0085626Y01693327
X0083973Y0173482
X008818
X0089575Y0180319
X0094742Y0177122
X0097174Y017272
X00985904Y01718685
X0099861Y0162306
X01044911Y01622925
X01106515Y01624502
X01089998Y01656183
X01066383Y01791898
X01066099Y01803224
X01011288Y0181392
X01111096Y01847977
X01150901Y01835462
X01182219Y0182431
X0118278Y01813616
X01183291Y0180274
X0118599Y01910754
X01181751Y01959889
X01122745Y0195912
X01066181Y01959889
X01062447Y01897721
X00898045Y01973709
X01215529Y01964015
X01199421Y01756123
X01213081Y01720694
X01214799Y0172093
X01258302Y01665442
X01280779Y01756689
X012573Y0199339
X012341Y01992121
X01023577Y02043201
X00930656Y02045257
X00931993Y02029852
X00842517Y02006486
X00842926Y01996677
X00879424Y0216027
X00916976Y0214884
X00917912Y02137968
X00943101Y0219329
X00939442Y02219809
X00961364Y02266952
X0088679Y0225044
X00812049Y02173363
X00791746Y02232606
X00733934Y02239091
X00748307Y02266778
X00691364Y02193708
X00642474Y02138045
X00640893Y02101711
Y02089431
X00642082Y02075963
X00647058Y02014311
X00640752Y01989022
X00572946Y01985896
X00548379Y0200419
X00556395Y02013979
X00529087Y02002988
X0051508Y02056781
X00543759Y02057741
X00552515Y02152526
X00399211Y02148561
X0044312Y0198972
X00720005Y02111461
X00746973Y02110913
X007675Y02109849
X00783966
X00321035Y02039489
X00336865Y02003092
X00386038Y0225786
T04
X00451169Y01584133
X0031655Y01794079
X00298371Y01793271
X00528363Y01917862
T05
X00398784Y01582791
Y01608191
Y01633591
T06
X01185017Y0157464
Y0160004
T07
X0061976Y0149733
Y0152273
Y0154813
Y0157353
Y0159893
Y0162433
X0026924Y0200914
Y0203454
T08
X00262777Y01803032
Y01853832
M30
