G04*
G04 #@! TF.GenerationSoftware,Altium Limited,Altium Designer,21.3.2 (30)*
G04*
G04 Layer_Color=32768*
%FSTAX44Y44*%
%MOMM*%
G71*
G04*
G04 #@! TF.SameCoordinates,B6C3B198-A06E-455A-847D-5BBCBFFA52FD*
G04*
G04*
G04 #@! TF.FilePolarity,Positive*
G04*
G01*
G75*
%ADD16C,0.1270*%
%ADD138C,0.0500*%
%ADD141R,0.3000X0.0500*%
%ADD142R,0.0500X0.3000*%
G36*
X00877496Y02228091D02*
X00877567D01*
X00877754Y02228068D01*
X00877953Y02228021D01*
X00878187Y02227974D01*
X00878421Y02227892D01*
X00878656Y02227787D01*
X00878667D01*
X00878679Y02227775D01*
X00878714Y02227752D01*
X00878761Y02227728D01*
X00878866Y02227658D01*
X00879007Y02227564D01*
X00879159Y02227435D01*
X00879311Y02227283D01*
X00879464Y02227119D01*
X00879604Y0222692D01*
X00879616Y02226897D01*
X00879651Y02226827D01*
X00879709Y02226709D01*
X00879768Y02226569D01*
X00879827Y02226382D01*
X00879885Y02226171D01*
X0087992Y02225937D01*
X00879932Y02225691D01*
Y02225644D01*
X0087992Y02225574D01*
Y02225492D01*
X00879909Y02225398D01*
X00879885Y02225281D01*
X00879862Y02225152D01*
X00879827Y02225012D01*
X0087978Y02224859D01*
X00879721Y02224695D01*
X00879651Y02224543D01*
X00879569Y02224379D01*
X00879464Y02224215D01*
X00879346Y02224052D01*
X00879218Y02223899D01*
X00879065Y02223759D01*
X00879054Y02223747D01*
X00879019Y02223724D01*
X00878972Y02223689D01*
X00878902Y02223642D01*
X00878808Y02223583D01*
X00878691Y02223525D01*
X0087855Y02223454D01*
X00878386Y02223396D01*
X00878199Y02223326D01*
X00877988Y02223255D01*
X00877754Y02223197D01*
X00877496Y02223138D01*
X00877215Y02223091D01*
X00876899Y02223056D01*
X00876571Y02223033D01*
X00876208Y02223021D01*
X00876197D01*
X00876185D01*
X0087615D01*
X00876115D01*
X00875998D01*
X00875845Y02223033D01*
X00875658Y02223044D01*
X00875447Y02223068D01*
X00875213Y02223091D01*
X00874967Y02223127D01*
X00874698Y02223162D01*
X00874429Y0222322D01*
X00874159Y0222329D01*
X00873902Y02223372D01*
X00873632Y02223466D01*
X00873398Y02223571D01*
X00873164Y022237D01*
X00872965Y02223841D01*
X00872953Y02223852D01*
X0087293Y02223876D01*
X00872883Y02223911D01*
X00872824Y0222397D01*
X00872754Y02224052D01*
X00872684Y02224133D01*
X00872602Y02224239D01*
X0087252Y02224356D01*
X00872438Y02224485D01*
X00872356Y02224637D01*
X00872286Y02224789D01*
X00872215Y02224965D01*
X00872157Y02225152D01*
X0087211Y02225351D01*
X00872087Y02225562D01*
X00872075Y02225784D01*
Y02225867D01*
X00872087Y02225937D01*
Y02226007D01*
X00872098Y02226101D01*
X00872133Y02226311D01*
X00872204Y02226546D01*
X00872297Y02226792D01*
X00872414Y02227037D01*
X00872496Y02227155D01*
X0087259Y02227272D01*
Y02227283D01*
X00872614Y02227295D01*
X00872684Y02227365D01*
X00872801Y02227459D01*
X00872953Y02227576D01*
X00873152Y02227705D01*
X00873386Y0222781D01*
X00873667Y02227916D01*
X00873984Y02227974D01*
X00874054Y02227037D01*
X00874042D01*
X0087403D01*
X0087396Y02227014D01*
X00873867Y02226979D01*
X00873749Y02226944D01*
X0087348Y02226827D01*
X00873363Y02226756D01*
X00873258Y02226674D01*
X00873234Y02226663D01*
X00873187Y02226604D01*
X00873129Y02226522D01*
X00873047Y02226417D01*
X00872977Y02226276D01*
X00872906Y02226112D01*
X00872859Y02225925D01*
X00872848Y02225726D01*
Y02225644D01*
X00872859Y02225562D01*
X00872883Y02225457D01*
X00872906Y02225328D01*
X00872953Y02225187D01*
X00873023Y02225058D01*
X00873105Y02224918D01*
X00873117Y02224895D01*
X00873164Y02224848D01*
X00873246Y02224766D01*
X00873351Y02224672D01*
X0087348Y02224555D01*
X00873644Y02224438D01*
X00873843Y02224321D01*
X00874066Y02224215D01*
X00874077D01*
X00874089Y02224204D01*
X00874136Y02224192D01*
X00874183Y0222418D01*
X00874241Y02224157D01*
X00874323Y02224133D01*
X00874417Y0222411D01*
X00874522Y02224087D01*
X00874639Y02224063D01*
X00874768Y0222404D01*
X0087492Y02224016D01*
X00875073Y02223993D01*
X00875248Y02223981D01*
X00875436Y0222397D01*
X00875635Y02223958D01*
X00875834D01*
X00875822Y0222397D01*
X00875763Y02224016D01*
X0087567Y02224087D01*
X00875553Y02224192D01*
X00875424Y02224309D01*
X00875295Y0222445D01*
X00875178Y02224614D01*
X00875073Y02224789D01*
X00875061Y02224813D01*
X00875037Y02224871D01*
X00874991Y02224977D01*
X00874944Y02225105D01*
X00874897Y02225258D01*
X0087485Y02225433D01*
X00874827Y02225621D01*
X00874815Y0222582D01*
Y02225913D01*
X00874827Y02225984D01*
X00874838Y02226066D01*
X0087485Y02226159D01*
X00874897Y02226382D01*
X00874991Y02226628D01*
X00875037Y02226768D01*
X00875108Y02226897D01*
X0087519Y02227037D01*
X00875283Y02227178D01*
X00875389Y02227307D01*
X00875518Y02227435D01*
X00875529Y02227447D01*
X00875553Y02227459D01*
X00875588Y02227494D01*
X00875646Y02227541D01*
X00875717Y02227588D01*
X00875799Y02227646D01*
X00875892Y02227705D01*
X00875998Y02227775D01*
X00876126Y02227834D01*
X00876255Y02227892D01*
X00876407Y02227951D01*
X0087656Y02227998D01*
X00876735Y02228044D01*
X00876911Y0222808D01*
X0087711Y02228091D01*
X00877309Y02228103D01*
X00877321D01*
X00877344D01*
X00877379D01*
X00877426D01*
X00877496Y02228091D01*
D02*
G37*
G36*
X00897144Y02227438D02*
X00898982D01*
Y02226489D01*
X00897144D01*
Y02223152D01*
X00896277D01*
X00891301Y02226665D01*
Y02227438D01*
X00896277D01*
Y0222848D01*
X00897144D01*
Y02227438D01*
D02*
G37*
G36*
X00897Y02217902D02*
X00897093Y0221789D01*
X00897187Y02217879D01*
X00897304Y02217855D01*
X00897421Y0221782D01*
X0089769Y02217738D01*
X00897843Y02217679D01*
X00897983Y02217598D01*
X00898124Y02217516D01*
X00898264Y02217422D01*
X00898405Y02217305D01*
X00898545Y02217176D01*
X00898557Y02217164D01*
X0089858Y02217141D01*
X00898604Y02217106D01*
X00898651Y02217047D01*
X00898709Y02216977D01*
X00898768Y02216883D01*
X00898826Y02216778D01*
X00898885Y02216673D01*
X00898955Y02216544D01*
X00899014Y02216403D01*
X00899072Y02216251D01*
X00899131Y02216087D01*
X00899177Y02215911D01*
X00899201Y02215724D01*
X00899224Y02215525D01*
X00899236Y02215326D01*
Y02215232D01*
X00899224Y02215162D01*
X00899213Y02215068D01*
X00899201Y02214975D01*
X00899189Y02214857D01*
X00899166Y0221474D01*
X00899096Y02214471D01*
X00898978Y0221419D01*
X0089892Y0221405D01*
X00898838Y02213921D01*
X00898744Y0221378D01*
X00898639Y02213651D01*
X00898627Y0221364D01*
X00898615Y02213628D01*
X0089858Y02213593D01*
X00898533Y02213546D01*
X00898463Y02213499D01*
X00898393Y02213441D01*
X00898311Y0221337D01*
X00898217Y02213312D01*
X00897983Y02213171D01*
X00897714Y02213054D01*
X00897409Y02212949D01*
X00897245Y02212914D01*
X0089707Y0221289D01*
X00896941Y02213839D01*
X00896953D01*
X00896976Y02213851D01*
X00897023D01*
X0089707Y02213874D01*
X0089721Y02213909D01*
X00897386Y02213968D01*
X00897573Y02214038D01*
X00897772Y02214131D01*
X00897948Y02214249D01*
X008981Y02214377D01*
X00898112Y02214401D01*
X00898159Y02214448D01*
X00898206Y0221453D01*
X00898276Y02214647D01*
X00898334Y02214776D01*
X00898393Y0221494D01*
X0089844Y02215127D01*
X00898452Y02215326D01*
Y02215396D01*
X0089844Y02215443D01*
X00898428Y0221556D01*
X00898393Y02215712D01*
X00898334Y022159D01*
X00898264Y02216087D01*
X00898147Y02216274D01*
X00897995Y0221645D01*
X00897971Y02216473D01*
X00897913Y0221652D01*
X00897819Y02216591D01*
X00897679Y02216684D01*
X00897515Y02216766D01*
X00897316Y02216836D01*
X00897093Y02216883D01*
X00896847Y02216907D01*
X00896836D01*
X00896824D01*
X00896789D01*
X00896742Y02216895D01*
X00896625Y02216883D01*
X00896473Y02216848D01*
X00896309Y02216801D01*
X00896121Y02216719D01*
X00895946Y02216614D01*
X00895782Y02216473D01*
X00895758Y0221645D01*
X00895712Y02216403D01*
X00895653Y0221631D01*
X00895571Y02216181D01*
X00895489Y02216028D01*
X0089543Y02215841D01*
X00895384Y02215642D01*
X0089536Y02215408D01*
Y02215302D01*
X00895372Y0221522D01*
X00895384Y02215127D01*
X00895395Y0221501D01*
X00895419Y02214881D01*
X00895454Y0221474D01*
X00894622Y02214846D01*
Y02214904D01*
X00894634Y02214951D01*
Y02215103D01*
X00894622Y02215209D01*
X00894599Y02215361D01*
X00894564Y02215525D01*
X00894505Y02215701D01*
X00894435Y02215888D01*
X0089433Y02216075D01*
X00894318Y02216099D01*
X00894271Y02216157D01*
X00894189Y02216228D01*
X00894084Y02216321D01*
X00893955Y02216415D01*
X00893791Y02216485D01*
X00893592Y02216544D01*
X00893358Y02216567D01*
X00893346D01*
X00893335D01*
X00893276D01*
X00893182Y02216544D01*
X00893053Y0221652D01*
X00892925Y02216485D01*
X00892784Y02216415D01*
X00892632Y02216333D01*
X00892503Y02216216D01*
X00892491Y02216204D01*
X00892445Y02216157D01*
X00892386Y02216075D01*
X00892327Y0221597D01*
X00892257Y02215841D01*
X0089221Y02215689D01*
X00892163Y02215513D01*
X00892152Y02215314D01*
Y0221522D01*
X00892175Y02215115D01*
X00892199Y02214998D01*
X00892234Y02214846D01*
X00892304Y02214694D01*
X00892386Y02214541D01*
X00892503Y02214389D01*
X00892515Y02214377D01*
X00892562Y02214331D01*
X00892644Y02214272D01*
X00892761Y02214202D01*
X00892901Y0221412D01*
X00893077Y0221405D01*
X00893288Y02213979D01*
X00893533Y02213932D01*
X0089337Y02212984D01*
X00893358D01*
X00893323Y02212996D01*
X00893276Y02213007D01*
X00893217Y02213019D01*
X00893135Y02213043D01*
X00893042Y02213066D01*
X00892831Y02213148D01*
X00892597Y02213242D01*
X00892351Y02213382D01*
X00892117Y02213546D01*
X00891906Y02213757D01*
X00891894Y02213768D01*
X00891882Y0221378D01*
X00891859Y02213815D01*
X00891824Y02213874D01*
X00891789Y02213932D01*
X00891742Y02214003D01*
X00891637Y02214178D01*
X00891543Y02214401D01*
X00891461Y0221467D01*
X00891402Y02214963D01*
X00891379Y02215127D01*
Y02215396D01*
X00891391Y02215513D01*
X00891414Y02215665D01*
X00891449Y02215841D01*
X00891496Y0221604D01*
X00891566Y02216239D01*
X0089166Y02216438D01*
Y0221645D01*
X00891672Y02216462D01*
X00891707Y02216532D01*
X00891765Y02216626D01*
X00891847Y02216743D01*
X00891953Y02216871D01*
X00892082Y02217012D01*
X00892234Y02217141D01*
X00892398Y02217258D01*
X00892421Y0221727D01*
X0089248Y02217305D01*
X00892573Y02217352D01*
X0089269Y02217399D01*
X00892843Y02217445D01*
X00893007Y02217492D01*
X00893182Y02217527D01*
X00893381Y02217539D01*
X00893405D01*
X00893463D01*
X00893557Y02217527D01*
X00893674Y02217504D01*
X00893814Y02217469D01*
X00893967Y02217422D01*
X00894131Y02217363D01*
X00894283Y0221727D01*
X00894306Y02217258D01*
X00894353Y02217223D01*
X00894423Y02217153D01*
X00894517Y02217071D01*
X00894622Y02216953D01*
X00894728Y02216825D01*
X00894845Y02216661D01*
X00894939Y02216473D01*
Y02216485D01*
X0089495Y02216508D01*
Y02216544D01*
X00894974Y02216591D01*
X00895009Y02216708D01*
X00895079Y0221686D01*
X00895161Y02217024D01*
X00895278Y02217199D01*
X00895419Y02217375D01*
X00895594Y02217527D01*
X00895618Y02217539D01*
X00895688Y02217586D01*
X00895793Y02217644D01*
X00895934Y02217726D01*
X0089611Y02217797D01*
X0089632Y02217855D01*
X00896566Y02217902D01*
X00896836Y02217914D01*
X00896847D01*
X00896882D01*
X00896929D01*
X00897Y02217902D01*
D02*
G37*
G36*
X00879424Y02215108D02*
X00873405D01*
X00873417Y02215097D01*
X00873464Y0221505D01*
X00873522Y02214968D01*
X00873604Y02214863D01*
X0087371Y02214734D01*
X00873815Y02214581D01*
X00873944Y02214406D01*
X00874061Y02214207D01*
Y02214195D01*
X00874073Y02214183D01*
X0087412Y02214113D01*
X00874178Y02214008D01*
X00874248Y02213879D01*
X0087433Y02213727D01*
X00874401Y02213563D01*
X00874483Y02213387D01*
X00874553Y02213223D01*
X00873628D01*
Y02213235D01*
X00873616Y02213258D01*
X00873593Y02213305D01*
X00873558Y02213352D01*
X00873522Y02213422D01*
X00873487Y02213504D01*
X00873382Y02213692D01*
X00873253Y02213902D01*
X00873101Y02214137D01*
X00872925Y02214371D01*
X00872738Y02214593D01*
X00872726Y02214605D01*
X00872714Y02214617D01*
X00872644Y02214687D01*
X00872539Y02214792D01*
X0087241Y02214921D01*
X00872246Y02215061D01*
X0087207Y02215202D01*
X00871883Y02215331D01*
X00871696Y02215436D01*
Y02216057D01*
X00879424D01*
Y02215108D01*
D02*
G37*
%LPC*%
G36*
X00877368Y02227131D02*
X00877356D01*
X00877333D01*
X00877286D01*
X00877239Y02227119D01*
X00877169D01*
X00877087Y02227108D01*
X00876911Y02227084D01*
X00876712Y02227026D01*
X00876501Y02226955D01*
X00876302Y0222685D01*
X00876115Y02226709D01*
X00876091Y02226686D01*
X00876044Y02226639D01*
X00875963Y02226546D01*
X00875881Y02226417D01*
X00875799Y02226265D01*
X00875717Y02226077D01*
X0087567Y02225867D01*
X00875646Y02225632D01*
Y02225574D01*
X00875658Y02225527D01*
X0087567Y0222541D01*
X00875705Y02225258D01*
X00875763Y02225094D01*
X00875845Y02224906D01*
X00875963Y02224731D01*
X00876115Y02224555D01*
X00876138Y02224532D01*
X00876197Y02224485D01*
X00876302Y02224415D01*
X00876431Y02224332D01*
X00876607Y02224251D01*
X00876817Y0222418D01*
X00877051Y02224133D01*
X00877321Y0222411D01*
X00877344D01*
X00877403D01*
X00877496Y02224122D01*
X00877614Y02224133D01*
X00877766Y02224157D01*
X00877918Y02224192D01*
X00878082Y02224239D01*
X00878258Y02224309D01*
X00878281Y02224321D01*
X00878328Y02224344D01*
X0087841Y02224391D01*
X00878503Y02224461D01*
X00878621Y02224543D01*
X00878726Y02224637D01*
X00878843Y02224754D01*
X00878937Y02224883D01*
X00878948Y02224895D01*
X00878972Y02224953D01*
X00879007Y02225023D01*
X00879042Y02225117D01*
X00879089Y02225234D01*
X00879124Y02225375D01*
X00879147Y02225515D01*
X00879159Y02225667D01*
Y02225726D01*
X00879147Y02225773D01*
X00879136Y02225878D01*
X00879101Y0222603D01*
X00879042Y02226183D01*
X0087896Y02226358D01*
X00878843Y02226534D01*
X00878679Y02226698D01*
X00878656Y02226721D01*
X00878585Y02226768D01*
X0087848Y02226838D01*
X00878339Y0222692D01*
X00878152Y02226991D01*
X00877918Y02227061D01*
X0087766Y02227108D01*
X00877368Y02227131D01*
D02*
G37*
G36*
X00896277Y02226489D02*
X00892835D01*
X00896277Y02224077D01*
Y02226489D01*
D02*
G37*
%LPD*%
D16*
X0122936Y01834002D02*
G03*
X0122936Y01834002I-0000127J0D01*
G01*
X01264768D02*
G03*
X01264768Y01834002I-0000127J0D01*
G01*
X00934245Y01721884D02*
G03*
X00934245Y01721884I-0000127J0D01*
G01*
X00238122Y01976374D02*
X00306956D01*
X00238122Y01886966D02*
Y01976374D01*
Y01886966D02*
X00306956D01*
Y01976374D01*
X0099071Y0175685D02*
Y0191385D01*
Y0175685D02*
X0116671D01*
X0099071Y0191385D02*
X0116671D01*
Y0175685D02*
Y0191385D01*
X0125603Y01831462D02*
Y01845432D01*
X01252855Y01825239D02*
Y01831462D01*
X01247775D02*
X01252855D01*
X01247775Y01825239D02*
X01252855D01*
X01247775D02*
Y01831462D01*
X0124333Y01845432D02*
Y01851655D01*
X0123825Y01845432D02*
X0124333D01*
X0123825Y01851655D02*
X0124333D01*
X0122555Y01831462D02*
X0125603D01*
X0122555Y01845432D02*
X0125603D01*
X0123825D02*
Y01851655D01*
X01233805Y01825239D02*
Y01831462D01*
X01228725D02*
X01233805D01*
X01228725Y01825239D02*
X01233805D01*
X01228725D02*
Y01831462D01*
X0122555D02*
Y01845432D01*
X01291438Y01831462D02*
Y01845432D01*
X01288263Y01825239D02*
Y01831462D01*
X01283183D02*
X01288263D01*
X01283183Y01825239D02*
X01288263D01*
X01283183D02*
Y01831462D01*
X01278738Y01845432D02*
Y01851655D01*
X01273658Y01845432D02*
X01278738D01*
X01273658Y01851655D02*
X01278738D01*
X01260958Y01831462D02*
X01291438D01*
X01260958Y01845432D02*
X01291438D01*
X01273658D02*
Y01851655D01*
X01269213Y01825239D02*
Y01831462D01*
X01264133D02*
X01269213D01*
X01264133Y01825239D02*
X01269213D01*
X01264133D02*
Y01831462D01*
X01260958D02*
Y01845432D01*
X00930435Y01693944D02*
X00944405D01*
X00924212Y01697119D02*
X00930435D01*
Y01702199D01*
X00924212Y01697119D02*
Y01702199D01*
X00930435D01*
X00944405Y01706644D02*
X00950628D01*
X00944405D02*
Y01711724D01*
X00950628Y01706644D02*
Y01711724D01*
X00930435Y01693944D02*
Y01724424D01*
X00944405Y01693944D02*
Y01724424D01*
Y01711724D02*
X00950628D01*
X00924212Y01716169D02*
X00930435D01*
Y01721249D01*
X00924212Y01716169D02*
Y01721249D01*
X00930435D01*
Y01724424D02*
X00944405D01*
X0094942Y01730576D02*
Y01746576D01*
X0092242D02*
X0094942D01*
X0092242Y01730576D02*
X0094942D01*
X0092242D02*
Y01746576D01*
Y01734512D02*
Y01738576D01*
X0091687Y01734512D02*
X0092242D01*
X0091687D02*
Y0174264D01*
X0092242D01*
X0094942Y01734512D02*
X0095497D01*
Y0174264D01*
X0094942D02*
X0095497D01*
D138*
X01255241Y01698524D02*
G03*
X01255241Y01698524I-0000127J0D01*
G01*
X01166759Y01664054D02*
G03*
X01166759Y01664054I-0000127J0D01*
G01*
X01062857Y01720302D02*
G03*
X01062857Y01720302I-0000127J0D01*
G01*
X00740563Y02151117D02*
X00753063D01*
X00740563Y02131117D02*
Y02151117D01*
Y02131117D02*
X00753063D01*
Y02151117D01*
X01242541Y01695984D02*
X01256511D01*
Y01699159D02*
X01262734D01*
Y01704239D01*
X01256511Y01699159D02*
Y01704239D01*
X01262734D01*
X01236318Y01708684D02*
X01242541D01*
Y01695984D02*
Y01726464D01*
X01256511Y01695984D02*
Y01726464D01*
X01236318Y01708684D02*
Y01713764D01*
X01242541Y01708684D02*
Y01713764D01*
X01236318D02*
X01242541D01*
X01256511Y01718209D02*
X01262734D01*
Y01723289D01*
X01256511Y01718209D02*
Y01723289D01*
X01262734D01*
X01242541Y01726464D02*
X01256511D01*
X00950111Y02041374D02*
Y02043124D01*
X00953611D01*
Y02049625D01*
X00950111D02*
X00953611D01*
X00950111D02*
Y02051375D01*
X00880612Y02043163D02*
Y02049524D01*
X00950112Y02028875D02*
Y02063875D01*
X00884112Y02079375D02*
X00934612D01*
X00884112Y02013375D02*
Y02079375D01*
Y02013375D02*
X00934612D01*
X00950112Y02028875D01*
X00934612Y02079375D02*
X00950112Y02063875D01*
X00884111Y02049625D02*
Y02051375D01*
X00880611Y02049625D02*
X00884111D01*
X00880612Y02043163D02*
X00884111D01*
Y02041374D02*
Y02043163D01*
X00922401Y01809613D02*
Y01822113D01*
Y01809613D02*
X00942401D01*
X00922401Y01822113D02*
X00942401D01*
Y01809613D02*
Y01822113D01*
X00921973Y01834893D02*
X00941973D01*
X00921973Y01847393D02*
X00941973D01*
X00921973Y01834893D02*
Y01847393D01*
X00941973Y01834893D02*
Y01847393D01*
X0092283Y01860173D02*
X0094283D01*
X0092283Y01872673D02*
X0094283D01*
X0092283Y01860173D02*
Y01872673D01*
X0094283Y01860173D02*
Y01872673D01*
X0092283Y01885024D02*
X0094283D01*
X0092283Y01897524D02*
X0094283D01*
X0092283Y01885024D02*
Y01897524D01*
X0094283Y01885024D02*
Y01897524D01*
X0092283Y01912875D02*
X0094283D01*
X0092283Y01925375D02*
X0094283D01*
X0092283Y01912875D02*
Y01925375D01*
X0094283Y01912875D02*
Y01925375D01*
X0092179Y017851D02*
X0094179D01*
X0092179D02*
Y017976D01*
X0094179D01*
Y017851D02*
Y017976D01*
X0092572Y0164469D02*
Y0165719D01*
Y0164469D02*
X0094572D01*
Y0165719D01*
X0092572D02*
X0094572D01*
X00944923Y01673203D02*
Y01685703D01*
X00924923D02*
X00944923D01*
X00924923Y01673203D02*
Y01685703D01*
Y01673203D02*
X00944923D01*
X01036429Y01564209D02*
X01058273D01*
X01036429Y01600785D02*
X01058273D01*
X01036429Y01564209D02*
Y01600785D01*
X01058273Y01564209D02*
Y01600785D01*
X01082585Y01634187D02*
Y01669239D01*
X01061757Y01634187D02*
Y01669239D01*
X01082585D01*
X01061757Y01634187D02*
X01082585D01*
X01055119Y01633862D02*
Y01668914D01*
X01034291Y01633862D02*
Y01668914D01*
X01055119D01*
X01034291Y01633862D02*
X01055119D01*
X0088711Y0146374D02*
Y0153374D01*
X0089211D01*
Y0172874D01*
X0069711D02*
X0089211D01*
X0069711Y0153374D02*
Y0172874D01*
Y0153374D02*
X0070211D01*
Y0146374D02*
Y0153374D01*
Y0146374D02*
X0088711D01*
X00953985Y02098259D02*
Y02118259D01*
X00941485Y02098259D02*
X00953985D01*
X00941485D02*
Y02118259D01*
X00953985D01*
X00808061Y01772094D02*
Y01802574D01*
X00769961D02*
X00808061D01*
X00769961Y01772094D02*
Y01802574D01*
Y01772094D02*
X00808061D01*
X00524764Y02113534D02*
Y02148586D01*
X00503936Y02113534D02*
Y02148586D01*
X00524764D01*
X00503936Y02113534D02*
X00524764D01*
X00472575Y02152213D02*
Y02177613D01*
X00521343Y02152213D02*
Y02177613D01*
X00472575D02*
X00521343D01*
X00472575Y02152213D02*
X00521343D01*
X00591925Y0205632D02*
X00604425D01*
X00591925Y0203632D02*
Y0205632D01*
X00604425Y0203632D02*
Y0205632D01*
X00591925Y0203632D02*
X00604425D01*
X0054483Y0146558D02*
X0059309D01*
Y0153416D01*
X0054483D02*
X0059309D01*
X0054483Y0146558D02*
Y0153416D01*
X00646574Y01552194D02*
X00681626D01*
X00646574Y01531366D02*
X00681626D01*
X00646574D02*
Y01552194D01*
X00681626Y01531366D02*
Y01552194D01*
X00681404Y01487326D02*
Y01508154D01*
X00646352Y01487326D02*
Y01508154D01*
Y01487326D02*
X00681404D01*
X00646352Y01508154D02*
X00681404D01*
X01022484Y01632697D02*
Y01667749D01*
X01001656Y01632697D02*
Y01667749D01*
X01022484D01*
X01001656Y01632697D02*
X01022484D01*
X01096101Y01634187D02*
Y01669239D01*
X01116929Y01634187D02*
Y01669239D01*
X01096101Y01634187D02*
X01116929D01*
X01096101Y01669239D02*
X01116929D01*
X01203158Y01720694D02*
X01215658D01*
X01203158Y01700694D02*
Y01720694D01*
Y01700694D02*
X01215658D01*
Y01720694D01*
X01162949Y01666594D02*
X01176919D01*
X01156726Y01663419D02*
X01162949D01*
X01156726Y01658339D02*
Y01663419D01*
X01162949Y01658339D02*
Y01663419D01*
X01156726Y01658339D02*
X01162949D01*
X01176919Y01653894D02*
X01183142D01*
X01176919Y01636114D02*
Y01666594D01*
X01162949Y01636114D02*
Y01666594D01*
X01183142Y01648814D02*
Y01653894D01*
X01176919Y01648814D02*
Y01653894D01*
Y01648814D02*
X01183142D01*
X01156726Y01644369D02*
X01162949D01*
X01156726Y01639289D02*
Y01644369D01*
X01162949Y01639289D02*
Y01644369D01*
X01156726Y01639289D02*
X01162949D01*
Y01636114D02*
X01176919D01*
X00387198Y02157476D02*
X00409042D01*
X00387198Y02194052D02*
X00409042D01*
X00387198Y02157476D02*
Y02194052D01*
X00409042Y02157476D02*
Y02194052D01*
X00713755Y02150671D02*
X00726255D01*
X00713755Y02130671D02*
Y02150671D01*
Y02130671D02*
X00726255D01*
Y02150671D01*
X00723012Y02229803D02*
X00744856D01*
X00723012Y02266379D02*
X00744856D01*
X00723012Y02229803D02*
Y02266379D01*
X00744856Y02229803D02*
Y02266379D01*
X00751063Y0222936D02*
X00772907D01*
X00751063Y02265936D02*
X00772907D01*
X00751063Y0222936D02*
Y02265936D01*
X00772907Y0222936D02*
Y02265936D01*
X00781399Y02256489D02*
X00793899D01*
X00781399Y02236489D02*
Y02256489D01*
X00793899Y02236489D02*
Y02256489D01*
X00781399Y02236489D02*
X00793899D01*
X00470666Y02208276D02*
Y02284984D01*
X00557534D01*
Y02208276D02*
Y02284984D01*
X00470666Y02208276D02*
X00557534D01*
X00427355Y02153684D02*
Y02229884D01*
Y02153684D02*
X00459359D01*
Y02229884D01*
X00427355D02*
X00459359D01*
X00383322Y02232866D02*
Y02243666D01*
X00381272Y02232866D02*
X00383322D01*
X00381272Y02211866D02*
Y02232866D01*
Y02211866D02*
X00383322D01*
Y02201066D02*
Y02211866D01*
Y02201066D02*
X00413222D01*
Y02211866D01*
X00415272D01*
Y02232866D01*
X00413222D02*
X00415272D01*
X00413222D02*
Y02243666D01*
X00383322D02*
X00413222D01*
X00448708Y02250708D02*
Y02272552D01*
X00412132Y02250708D02*
Y02272552D01*
Y02250708D02*
X00448708D01*
X00412132Y02272552D02*
X00448708D01*
X00344321Y0223278D02*
X00379373D01*
X00344321Y02211952D02*
X00379373D01*
X00344321D02*
Y0223278D01*
X00379373Y02211952D02*
Y0223278D01*
X00459236Y02104776D02*
X00497336D01*
X00459236D02*
Y02135256D01*
X00497336D01*
Y02104776D02*
Y02135256D01*
X00694441Y01908556D02*
Y01929384D01*
X00659389Y01908556D02*
Y01929384D01*
Y01908556D02*
X00694441D01*
X00659389Y01929384D02*
X00694441D01*
X00800876Y01900796D02*
X00821704D01*
X00800876Y01865744D02*
X00821704D01*
Y01900796D01*
X00800876Y01865744D02*
Y01900796D01*
X00771906Y0182626D02*
Y0185166D01*
X00820674Y0182626D02*
Y0185166D01*
X00771906D02*
X00820674D01*
X00771906Y0182626D02*
X00820674D01*
X00813596Y0178178D02*
X00834424D01*
X00813596Y01816832D02*
X00834424D01*
X00813596Y0178178D02*
Y01816832D01*
X00834424Y0178178D02*
Y01816832D01*
X00893556Y0210628D02*
X00913556D01*
X00893556Y0209378D02*
Y0210628D01*
X00913556Y0209378D02*
Y0210628D01*
X00893556Y0209378D02*
X00913556D01*
X00841256Y02089757D02*
Y02102257D01*
Y02089757D02*
X00861256D01*
X00841256Y02102257D02*
X00861256D01*
Y02089757D02*
Y02102257D01*
X00841115Y0211253D02*
X00861115D01*
X00841115Y0212503D02*
X00861115D01*
X00841115Y0211253D02*
Y0212503D01*
X00861115Y0211253D02*
Y0212503D01*
X00841149Y02135309D02*
X00861149D01*
X00841149Y02147809D02*
X00861149D01*
X00841149Y02135309D02*
Y02147809D01*
X00861149Y02135309D02*
Y02147809D01*
X008409Y02157942D02*
X008609D01*
X008409Y02170442D02*
X008609D01*
X008409Y02157942D02*
Y02170442D01*
X008609Y02157942D02*
Y02170442D01*
X00895476Y021337D02*
X00915476D01*
X00895476Y021462D02*
X00915476D01*
X00895476Y021337D02*
Y021462D01*
X00915476Y021337D02*
Y021462D01*
X00918726Y0218704D02*
X00938726D01*
X00918726D02*
Y0219954D01*
X00938726D01*
Y0218704D02*
Y0219954D01*
X00918726Y0222494D02*
X00938726D01*
Y0221244D02*
Y0222494D01*
X00918726Y0221244D02*
X00938726D01*
X00918726D02*
Y0222494D01*
Y022353D02*
X00938726D01*
X00918726D02*
Y022478D01*
X00938726D01*
Y022353D02*
Y022478D01*
X00918976Y022607D02*
X00938976D01*
X00918976Y022732D02*
X00938976D01*
X00918976Y022607D02*
Y022732D01*
X00938976Y022607D02*
Y022732D01*
X00879424Y0220321D02*
Y02212354D01*
X00874598Y0220321D02*
X00879424D01*
X00874598D02*
Y02212354D01*
X00889076Y0220321D02*
Y02212354D01*
X0088425Y0220321D02*
X00889076D01*
X0088425D02*
Y02212354D01*
X00898728Y0220321D02*
Y02212354D01*
X00893902Y0220321D02*
X00898728D01*
X00893902D02*
Y02212354D01*
Y0222861D02*
Y02237754D01*
X00898728D01*
Y0222861D02*
Y02237754D01*
X00884504Y0222861D02*
Y02237754D01*
X0088933D01*
Y0222861D02*
Y02237754D01*
X00874852Y0222861D02*
Y02237754D01*
X00879678D01*
Y0222861D02*
Y02237754D01*
X0087229Y02212482D02*
X0090129D01*
Y02228482D01*
X0087229D02*
X0090129D01*
X0087229Y02212482D02*
Y02228482D01*
X00804118Y02183223D02*
Y02243223D01*
Y02183223D02*
X00864118D01*
Y02243223D01*
X00804118D02*
X00864118D01*
X00344321Y02235952D02*
X00379373D01*
X00344321Y0225678D02*
X00379373D01*
Y02235952D02*
Y0225678D01*
X00344321Y02235952D02*
Y0225678D01*
X00536959Y02161655D02*
Y02196707D01*
X00557787Y02161655D02*
Y02196707D01*
X00536959Y02161655D02*
X00557787D01*
X00536959Y02196707D02*
X00557787D01*
X00343496Y02175076D02*
Y02210128D01*
X00364324Y02175076D02*
Y02210128D01*
X00343496Y02175076D02*
X00364324D01*
X00343496Y02210128D02*
X00364324D01*
X0044683Y02070146D02*
Y02156506D01*
X0032999D02*
X0044683D01*
X0032999Y02070146D02*
Y02156506D01*
Y02070146D02*
X0044683D01*
X01222948Y01885052D02*
Y01905053D01*
X01210448Y01885052D02*
Y01905053D01*
Y01885052D02*
X01222948D01*
X01210448Y01905053D02*
X01222948D01*
X0127645Y0196739D02*
Y0198739D01*
Y0196739D02*
X0128895D01*
X0127645Y0198739D02*
X0128895D01*
Y0196739D02*
Y0198739D01*
X0125105Y0196739D02*
Y0198739D01*
Y0196739D02*
X0126355D01*
X0125105Y0198739D02*
X0126355D01*
Y0196739D02*
Y0198739D01*
X01234619Y0196589D02*
Y0198589D01*
X01222119Y0196589D02*
X01234619D01*
X01222119D02*
Y0198589D01*
X01234619D01*
X0119644Y0196564D02*
Y0198564D01*
X0120894D01*
Y0196564D02*
Y0198564D01*
X0119644Y0196564D02*
X0120894D01*
X00293481Y01803954D02*
X00331581D01*
X00293481D02*
Y01834434D01*
X00331581D01*
Y01803954D02*
Y01834434D01*
X003592Y0168021D02*
Y0176657D01*
X0024236D02*
X003592D01*
X0024236Y0168021D02*
Y0176657D01*
Y0168021D02*
X003592D01*
X0063139Y02115986D02*
X0066949D01*
X0063139D02*
Y02146466D01*
X0066949D01*
Y02115986D02*
Y02146466D01*
X00632368Y02112125D02*
X0066742D01*
X00632368Y02091297D02*
X0066742D01*
X00632368D02*
Y02112125D01*
X0066742Y02091297D02*
Y02112125D01*
X00834304Y02062884D02*
X0086326D01*
X00834304Y02074439D02*
Y0207533D01*
Y0206771D02*
Y02068597D01*
X0086326Y02070121D02*
Y02073677D01*
X00829482Y0207533D02*
X00834304D01*
X00863268D02*
X0086809D01*
X00829482Y0206771D02*
X00834304D01*
X0086326Y02062884D02*
Y02080152D01*
X0086809Y0206771D02*
Y0207533D01*
X00834304Y02062884D02*
Y02080152D01*
X00829482Y0206771D02*
Y0207533D01*
X00863268Y0206771D02*
X0086809D01*
X00834304Y02080152D02*
X0086326D01*
X00834304Y02069105D02*
Y02073931D01*
X00839895Y02062884D02*
Y02080156D01*
X00755396Y01908556D02*
X00842264D01*
Y01985264D01*
X00755396D02*
X00842264D01*
X00755396Y01908556D02*
Y01985264D01*
X00650245Y01895976D02*
X00671073D01*
X00650245Y01860924D02*
X00671073D01*
Y01895976D01*
X00650245Y01860924D02*
Y01895976D01*
X00711852Y01929892D02*
X00748428D01*
X00711852Y01908048D02*
X00748428D01*
X00711852D02*
Y01929892D01*
X00748428Y01908048D02*
Y01929892D01*
X00659389Y01938416D02*
Y01959244D01*
X00694441Y01938416D02*
Y01959244D01*
X00659389D02*
X00694441D01*
X00659389Y01938416D02*
X00694441D01*
X00529336Y02029714D02*
X00550164D01*
X00529336Y02064766D02*
X00550164D01*
X00529336Y02029714D02*
Y02064766D01*
X00550164Y02029714D02*
Y02064766D01*
X0051933Y02035281D02*
Y02055281D01*
X0050683Y02035281D02*
Y02055281D01*
Y02035281D02*
X0051933D01*
X0050683Y02055281D02*
X0051933D01*
X00479311Y0205528D02*
X00491811D01*
X00479311Y0203528D02*
Y0205528D01*
X00491811Y0203528D02*
Y0205528D01*
X00479311Y0203528D02*
X00491811D01*
X00725805Y01853844D02*
X00757809D01*
Y01777644D02*
Y01853844D01*
X00725805Y01777644D02*
X00757809D01*
X00725805D02*
Y01853844D01*
X00717042Y01804162D02*
Y01840738D01*
X00695198Y01804162D02*
Y01840738D01*
X00717042D01*
X00695198Y01804162D02*
X00717042D01*
X0068802Y0189975D02*
X0071792D01*
Y0188895D02*
Y0189975D01*
Y0188895D02*
X0071997D01*
Y0186795D02*
Y0188895D01*
X0071792Y0186795D02*
X0071997D01*
X0071792Y0185715D02*
Y0186795D01*
X0068802Y0185715D02*
X0071792D01*
X0068802D02*
Y0186795D01*
X0068597D02*
X0068802D01*
X0068597D02*
Y0188895D01*
X0068802D01*
Y0189975D01*
X00378552Y0198311D02*
Y0199561D01*
X00358552D02*
X00378552D01*
X00358552Y0198311D02*
X00378552D01*
X00358552D02*
Y0199561D01*
X00351028Y01948434D02*
X0038608D01*
X00351028Y01927606D02*
X0038608D01*
X00351028D02*
Y01948434D01*
X0038608Y01927606D02*
Y01948434D01*
X00351028Y01921764D02*
X0038608D01*
X00351028Y01900936D02*
X0038608D01*
X00351028D02*
Y01921764D01*
X0038608Y01900936D02*
Y01921764D01*
X00825714Y02269658D02*
X00845714D01*
X00825714Y02257158D02*
X00845714D01*
Y02269658D01*
X00825714Y02257158D02*
Y02269658D01*
X00895476Y02157942D02*
Y02170442D01*
Y02157942D02*
X00915476D01*
X00895476Y02170442D02*
X00915476D01*
Y02157942D02*
Y02170442D01*
X0057129Y0175387D02*
X0068813D01*
X0057129D02*
Y0184023D01*
X0068813D01*
Y0175387D02*
Y0184023D01*
X00486462Y01487822D02*
Y01524398D01*
X00464618Y01487822D02*
Y01524398D01*
X00486462D01*
X00464618Y01487822D02*
X00486462D01*
X00536462D02*
Y01524398D01*
X00514618Y01487822D02*
Y01524398D01*
X00536462D01*
X00514618Y01487822D02*
X00536462D01*
X00511462D02*
Y01524398D01*
X00489618Y01487822D02*
Y01524398D01*
X00511462D01*
X00489618Y01487822D02*
X00511462D01*
X00497586Y01733694D02*
X00518414D01*
X00497586Y01768746D02*
X00518414D01*
X00497586Y01733694D02*
Y01768746D01*
X00518414Y01733694D02*
Y01768746D01*
X0048394Y01732172D02*
Y01762652D01*
X0044584D02*
X0048394D01*
X0044584Y01732172D02*
Y01762652D01*
Y01732172D02*
X0048394D01*
X00539496Y01837436D02*
X00560324D01*
X00539496Y01802384D02*
X00560324D01*
Y01837436D01*
X00539496Y01802384D02*
Y01837436D01*
X00445516Y01799336D02*
Y01876044D01*
X00532384D01*
Y01799336D02*
Y01876044D01*
X00445516Y01799336D02*
X00532384D01*
X00400685Y0180721D02*
X00432689D01*
Y0173101D02*
Y0180721D01*
X00400685Y0173101D02*
X00432689D01*
X00400685D02*
Y0180721D01*
X00440504Y0176784D02*
X00489272D01*
X00440504Y0179324D02*
X00489272D01*
Y0176784D02*
Y0179324D01*
X00440504Y0176784D02*
Y0179324D01*
X00345862Y0186131D02*
Y01882138D01*
X00380914Y0186131D02*
Y01882138D01*
X00345862D02*
X00380914D01*
X00345862Y0186131D02*
X00380914D01*
X00380916Y01836418D02*
Y01857246D01*
X00345864Y01836418D02*
Y01857246D01*
Y01836418D02*
X00380916D01*
X00345864Y01857246D02*
X00380916D01*
X0033545Y01806553D02*
X00356278D01*
X0033545Y01771501D02*
X00356278D01*
Y01806553D01*
X0033545Y01771501D02*
Y01806553D01*
X0036544Y0182839D02*
X0039534D01*
Y0181759D02*
Y0182839D01*
Y0181759D02*
X0039739D01*
Y0179659D02*
Y0181759D01*
X0039534Y0179659D02*
X0039739D01*
X0039534Y0178579D02*
Y0179659D01*
X0036544Y0178579D02*
X0039534D01*
X0036544D02*
Y0179659D01*
X0036339D02*
X0036544D01*
X0036339D02*
Y0181759D01*
X0036544D01*
Y0182839D01*
X00391312Y01735472D02*
Y01772048D01*
X00369468Y01735472D02*
Y01772048D01*
X00391312D01*
X00369468Y01735472D02*
X00391312D01*
X00402082Y01857753D02*
X00438658D01*
X00402082Y01835909D02*
X00438658D01*
X00402082D02*
Y01857753D01*
X00438658Y01835909D02*
Y01857753D01*
X004591Y0201477D02*
Y0205177D01*
X003791D02*
X004591D01*
X003791Y0201477D02*
Y0205177D01*
Y0201477D02*
X004591D01*
X0023368Y0198374D02*
X0029718D01*
Y0205994D01*
X0023368D02*
X0029718D01*
X0023368Y0198374D02*
Y0205994D01*
X00331581Y01843022D02*
Y01873502D01*
X00293481D02*
X00331581D01*
X00293481Y01843022D02*
Y01873502D01*
Y01843022D02*
X00331581D01*
X00651146Y01956816D02*
Y01977644D01*
X00616094Y01956816D02*
Y01977644D01*
Y01956816D02*
X00651146D01*
X00616094Y01977644D02*
X00651146D01*
Y01931416D02*
Y01952244D01*
X00616094Y01931416D02*
Y01952244D01*
Y01931416D02*
X00651146D01*
X00616094Y01952244D02*
X00651146D01*
X00567436Y01885586D02*
X00588264D01*
X00567436Y01920638D02*
X00588264D01*
X00567436Y01885586D02*
Y01920638D01*
X00588264Y01885586D02*
Y01920638D01*
X00594101Y0188584D02*
X00614929D01*
X00594101Y01920892D02*
X00614929D01*
X00594101Y0188584D02*
Y01920892D01*
X00614929Y0188584D02*
Y01920892D01*
X00540083Y01885585D02*
X00560911D01*
X00540083Y01920637D02*
X00560911D01*
X00540083Y01885585D02*
Y01920637D01*
X00560911Y01885585D02*
Y01920637D01*
X00651146Y01982216D02*
Y02003044D01*
X00616094Y01982216D02*
Y02003044D01*
Y01982216D02*
X00651146D01*
X00616094Y02003044D02*
X00651146D01*
X00433832Y01946148D02*
Y01967992D01*
X00470408Y01946148D02*
Y01967992D01*
X00433832D02*
X00470408D01*
X00433832Y01946148D02*
X00470408D01*
X00433832Y01971548D02*
Y01993392D01*
X00470408Y01971548D02*
Y01993392D01*
X00433832D02*
X00470408D01*
X00433832Y01971548D02*
X00470408D01*
Y01891538D02*
Y01913382D01*
X00433832Y01891538D02*
Y01913382D01*
Y01891538D02*
X00470408D01*
X00433832Y01913382D02*
X00470408D01*
Y01919478D02*
Y01941322D01*
X00433832Y01919478D02*
Y01941322D01*
Y01919478D02*
X00470408D01*
X00433832Y01941322D02*
X00470408D01*
X00512048Y01884824D02*
Y019214D01*
X00533892Y01884824D02*
Y019214D01*
X00512048Y01884824D02*
X00533892D01*
X00512048Y019214D02*
X00533892D01*
X00483108Y01884824D02*
Y019214D01*
X00504952Y01884824D02*
Y019214D01*
X00483108Y01884824D02*
X00504952D01*
X00483108Y019214D02*
X00504952D01*
X00616094Y02008378D02*
X0065267D01*
X00616094Y02030222D02*
X0065267D01*
Y02008378D02*
Y02030222D01*
X00616094Y02008378D02*
Y02030222D01*
X00557276Y02063846D02*
X00578104D01*
X00557276Y02028794D02*
X00578104D01*
Y02063846D01*
X00557276Y02028794D02*
Y02063846D01*
X00386078Y01954276D02*
Y01975104D01*
X00351026Y01954276D02*
Y01975104D01*
Y01954276D02*
X00386078D01*
X00351026Y01975104D02*
X00386078D01*
X00884111Y01967261D02*
Y0196905D01*
X00880612D02*
X00884111D01*
X00880611Y01975512D02*
X00884111D01*
Y01977262D01*
X00934612Y02005262D02*
X00950112Y01989762D01*
X00934612Y01939262D02*
X00950112Y01954762D01*
X00884112Y01939262D02*
X00934612D01*
X00884112D02*
Y02005262D01*
X00934612D01*
X00950112Y01954762D02*
Y01989762D01*
X00880612Y0196905D02*
Y0197541D01*
X00950111Y01975512D02*
Y01977262D01*
Y01975512D02*
X00953611D01*
Y01969011D02*
Y01975512D01*
X00950111Y01969011D02*
X00953611D01*
X00950111Y01967261D02*
Y01969011D01*
X01211403Y01762354D02*
Y01782354D01*
X01198903Y01762354D02*
X01211403D01*
X01198903D02*
Y01782354D01*
X01211403D01*
X01234844Y01762354D02*
Y01782354D01*
X01222344Y01762354D02*
X01234844D01*
X01222344D02*
Y01782354D01*
X01234844D01*
X0125451Y01885191D02*
Y01905191D01*
X0124201Y01885191D02*
X0125451D01*
X0124201D02*
Y01905191D01*
X0125451D01*
X00824481Y02021737D02*
X00836981D01*
Y02041737D01*
X00824481Y02021737D02*
Y02041737D01*
X00836981D01*
X0112196Y01699062D02*
Y01719062D01*
X0113446Y01699062D02*
Y01719062D01*
X0112196D02*
X0113446D01*
X0112196Y01699062D02*
X0113446D01*
X01106318Y0169906D02*
Y0171906D01*
X01093818Y0169906D02*
X01106318D01*
X01093818D02*
Y0171906D01*
X01106318D01*
X0103846Y01697602D02*
Y01717602D01*
X0102596Y01697602D02*
Y01717602D01*
Y01697602D02*
X0103846D01*
X0102596Y01717602D02*
X0103846D01*
X00998083Y01697104D02*
Y01717104D01*
X01010583D01*
Y01697104D02*
Y01717104D01*
X00998083Y01697104D02*
X01010583D01*
X0117563Y01700276D02*
Y01720276D01*
X0118813Y01700276D02*
Y01720276D01*
X0117563D02*
X0118813D01*
X0117563Y01700276D02*
X0118813D01*
X01161547Y01698926D02*
Y01718926D01*
X01149047Y01698926D02*
X01161547D01*
X01149047D02*
Y01718926D01*
X01161547D01*
X01059047Y01692362D02*
X01073017D01*
X01052824Y01695537D02*
X01059047D01*
Y01700617D01*
X01052824Y01695537D02*
Y01700617D01*
X01059047D01*
X01073017Y01705062D02*
X0107924D01*
X01073017D02*
Y01710142D01*
X0107924Y01705062D02*
Y01710142D01*
X01059047Y01692362D02*
Y01722842D01*
X01073017Y01692362D02*
Y01722842D01*
Y01710142D02*
X0107924D01*
X01052824Y01714587D02*
X01059047D01*
Y01719667D01*
X01052824Y01714587D02*
Y01719667D01*
X01059047D01*
Y01722842D02*
X01073017D01*
X01285448Y01885162D02*
Y01905162D01*
X01272948Y01885162D02*
X01285448D01*
X01272948D02*
Y01905162D01*
X01285448D01*
X0126482Y0176292D02*
Y0178292D01*
X0125232Y0176292D02*
X0126482D01*
X0125232D02*
Y0178292D01*
X0126482D01*
X0129276Y0176292D02*
Y0178292D01*
X0128026Y0176292D02*
X0129276D01*
X0128026D02*
Y0178292D01*
X0129276D01*
X01109653Y01562752D02*
Y01599328D01*
X01131497Y01562752D02*
Y01599328D01*
X01109653Y01562752D02*
X01131497D01*
X01109653Y01599328D02*
X01131497D01*
X01125481Y01634187D02*
X0114631D01*
X01125481Y01669239D02*
X0114631D01*
X01125481Y01634187D02*
Y01669239D01*
X0114631Y01634187D02*
Y01669239D01*
X0092142Y0177097D02*
X0094142D01*
X0092142Y0175847D02*
X0094142D01*
Y0177097D01*
X0092142Y0175847D02*
Y0177097D01*
X01027423Y01966774D02*
Y01986774D01*
X01039923Y01966774D02*
Y01986774D01*
X01027423D02*
X01039923D01*
X01027423Y01966774D02*
X01039923D01*
X010542Y0196612D02*
Y0198612D01*
X010667D01*
Y0196612D02*
Y0198612D01*
X010542Y0196612D02*
X010667D01*
X0111262D02*
Y0198612D01*
X0112512D01*
Y0196612D02*
Y0198612D01*
X0111262Y0196612D02*
X0112512D01*
X0108214D02*
Y0198612D01*
X0109464Y0196612D02*
Y0198612D01*
X0108214D02*
X0109464D01*
X0108214Y0196612D02*
X0109464D01*
X0116977D02*
Y0198612D01*
X0118227D01*
Y0196612D02*
Y0198612D01*
X0116977Y0196612D02*
X0118227D01*
X0114183Y0196739D02*
Y0198739D01*
X0115433Y0196739D02*
Y0198739D01*
X0114183D02*
X0115433D01*
X0114183Y0196739D02*
X0115433D01*
X0091186Y0162433D02*
X0098044D01*
Y0157607D02*
Y0162433D01*
X0091186Y0157607D02*
X0098044D01*
X0091186D02*
Y0162433D01*
X00927552Y01563282D02*
X00964128D01*
X00927552Y01541438D02*
X00964128D01*
X00927552D02*
Y01563282D01*
X00964128Y01541438D02*
Y01563282D01*
X0064428Y01713591D02*
Y01744071D01*
Y01713591D02*
X0068238D01*
Y01744071D01*
X0064428D02*
X0068238D01*
X0060579Y0148082D02*
Y0164084D01*
X0063373D01*
Y0148082D02*
Y0164084D01*
X0060579Y0148082D02*
X0063373D01*
X00681626Y01568826D02*
Y01589654D01*
X00646574Y01568826D02*
Y01589654D01*
Y01568826D02*
X00681626D01*
X00646574Y01589654D02*
X00681626D01*
X00680356Y01602486D02*
Y01623314D01*
X00645304Y01602486D02*
Y01623314D01*
Y01602486D02*
X00680356D01*
X00645304Y01623314D02*
X00680356D01*
X0114265Y01564403D02*
X01163478D01*
X0114265Y01599455D02*
X01163478D01*
X0114265Y01564403D02*
Y01599455D01*
X01163478Y01564403D02*
Y01599455D01*
X00645804Y01686989D02*
Y01707817D01*
X00680856Y01686989D02*
Y01707817D01*
X00645804D02*
X00680856D01*
X00645804Y01686989D02*
X00680856D01*
X0118624Y01904754D02*
X0119874D01*
X0118624Y01884754D02*
Y01904754D01*
X0119874Y01884754D02*
Y01904754D01*
X0118624Y01884754D02*
X0119874D01*
D141*
X00895056Y0209403D02*
D03*
D142*
X012887Y0196889D02*
D03*
X012633D02*
D03*
M02*
