G04*
G04 #@! TF.GenerationSoftware,Altium Limited,Altium Designer,21.3.2 (30)*
G04*
G04 Layer_Color=2752767*
%FSTAX44Y44*%
%MOMM*%
G71*
G04*
G04 #@! TF.SameCoordinates,B6C3B198-A06E-455A-847D-5BBCBFFA52FD*
G04*
G04*
G04 #@! TF.FilePolarity,Positive*
G04*
G01*
G75*
%ADD146C,0.0508*%
%ADD147C,0.0677*%
D146*
X00396752Y01631559D02*
Y01635623D01*
X00400816D01*
Y01631559D01*
X00396752D01*
Y01606159D02*
Y01610223D01*
X00400816D01*
Y01606159D01*
X00396752D01*
Y01580759D02*
Y01584823D01*
X00400816D01*
Y01580759D01*
X00396752D01*
X00795435Y01632458D02*
X00793403Y01636522D01*
X00797467D01*
X00795435Y01632458D01*
X00813785D02*
X00811753Y01636522D01*
X00815817D01*
X00813785Y01632458D01*
X0078626Y01623283D02*
X00784228Y01627347D01*
X00788292D01*
X0078626Y01623283D01*
X0080461D02*
X00802578Y01627347D01*
X00806642D01*
X0080461Y01623283D01*
X0082296D02*
X00820928Y01627347D01*
X00824992D01*
X0082296Y01623283D01*
X00795435Y01614108D02*
X00793403Y01618172D01*
X00797467D01*
X00795435Y01614108D01*
X00813785D02*
X00811753Y01618172D01*
X00815817D01*
X00813785Y01614108D01*
X0078626Y01604933D02*
X00784228Y01608997D01*
X00788292D01*
X0078626Y01604933D01*
X0080461D02*
X00802578Y01608997D01*
X00806642D01*
X0080461Y01604933D01*
X0082296D02*
X00820928Y01608997D01*
X00824992D01*
X0082296Y01604933D01*
X00795435Y01595758D02*
X00793403Y01599822D01*
X00797467D01*
X00795435Y01595758D01*
X00813785D02*
X00811753Y01599822D01*
X00815817D01*
X00813785Y01595758D01*
X00262777Y01801D02*
X00263793Y01802016D01*
X00264809D01*
X00263793Y01803032D01*
X00264809Y01804048D01*
X00263793D01*
X00262777Y01805064D01*
X00261761Y01804048D01*
X00260745D01*
X00261761Y01803032D01*
X00260745Y01802016D01*
X00261761D01*
X00262777Y01801D01*
Y018518D02*
X00263793Y01852816D01*
X00264809D01*
X00263793Y01853832D01*
X00264809Y01854848D01*
X00263793D01*
X00262777Y01855864D01*
X00261761Y01854848D01*
X00260745D01*
X00261761Y01853832D01*
X00260745Y01852816D01*
X00261761D01*
X00262777Y018518D01*
X00267208Y02032508D02*
X00268224Y0203454D01*
X00267208Y02036572D01*
X0026924Y02035556D01*
X00271272Y02036572D01*
X00270256Y0203454D01*
X00271272Y02032508D01*
X0026924Y02033524D01*
X00267208Y02032508D01*
Y02007108D02*
X00268224Y0200914D01*
X00267208Y02011172D01*
X0026924Y02010156D01*
X00271272Y02011172D01*
X00270256Y0200914D01*
X00271272Y02007108D01*
X0026924Y02008124D01*
X00267208Y02007108D01*
X00617728Y01622298D02*
X00618744Y0162433D01*
X00617728Y01626362D01*
X0061976Y01625346D01*
X00621792Y01626362D01*
X00620776Y0162433D01*
X00621792Y01622298D01*
X0061976Y01623314D01*
X00617728Y01622298D01*
Y01596898D02*
X00618744Y0159893D01*
X00617728Y01600962D01*
X0061976Y01599946D01*
X00621792Y01600962D01*
X00620776Y0159893D01*
X00621792Y01596898D01*
X0061976Y01597914D01*
X00617728Y01596898D01*
Y01571498D02*
X00618744Y0157353D01*
X00617728Y01575562D01*
X0061976Y01574546D01*
X00621792Y01575562D01*
X00620776Y0157353D01*
X00621792Y01571498D01*
X0061976Y01572514D01*
X00617728Y01571498D01*
Y01546098D02*
X00618744Y0154813D01*
X00617728Y01550162D01*
X0061976Y01549146D01*
X00621792Y01550162D01*
X00620776Y0154813D01*
X00621792Y01546098D01*
X0061976Y01547114D01*
X00617728Y01546098D01*
Y01520698D02*
X00618744Y0152273D01*
X00617728Y01524762D01*
X0061976Y01523746D01*
X00621792Y01524762D01*
X00620776Y0152273D01*
X00621792Y01520698D01*
X0061976Y01521714D01*
X00617728Y01520698D01*
Y01495298D02*
X00618744Y0149733D01*
X00617728Y01499362D01*
X0061976Y01498346D01*
X00621792Y01499362D01*
X00620776Y0149733D01*
X00621792Y01495298D01*
X0061976Y01496314D01*
X00617728Y01495298D01*
X01184001Y01599024D02*
Y01598008D01*
X01186033D01*
Y01599024D01*
X01187049D01*
Y01601056D01*
X01186033D01*
Y01602072D01*
X01184001D01*
Y01601056D01*
X01182985D01*
Y01599024D01*
X01184001D01*
Y01573624D02*
Y01572608D01*
X01186033D01*
Y01573624D01*
X01187049D01*
Y01575656D01*
X01186033D01*
Y01576672D01*
X01184001D01*
Y01575656D01*
X01182985D01*
Y01573624D01*
X01184001D01*
X00314518Y01792047D02*
X00315534D01*
X0031655Y01793063D01*
X00317566Y01792047D01*
X00318582D01*
Y01793063D01*
X00317566Y01794079D01*
X00318582Y01795095D01*
Y01796111D01*
X00317566D01*
X0031655Y01795095D01*
X00315534Y01796111D01*
X00314518D01*
Y01795095D01*
X00315534Y01794079D01*
X00314518Y01793063D01*
Y01792047D01*
X00296339Y01791239D02*
X00297355D01*
X00298371Y01792255D01*
X00299387Y01791239D01*
X00300403D01*
Y01792255D01*
X00299387Y01793271D01*
X00300403Y01794287D01*
Y01795303D01*
X00299387D01*
X00298371Y01794287D01*
X00297355Y01795303D01*
X00296339D01*
Y01794287D01*
X00297355Y01793271D01*
X00296339Y01792255D01*
Y01791239D01*
X00314518Y01792047D02*
X00315534D01*
X0031655Y01793063D01*
X00317566Y01792047D01*
X00318582D01*
Y01793063D01*
X00317566Y01794079D01*
X00318582Y01795095D01*
Y01796111D01*
X00317566D01*
X0031655Y01795095D01*
X00315534Y01796111D01*
X00314518D01*
Y01795095D01*
X00315534Y01794079D01*
X00314518Y01793063D01*
Y01792047D01*
X00526331Y0191583D02*
X00527347D01*
X00528363Y01916846D01*
X00529379Y0191583D01*
X00530395D01*
Y01916846D01*
X00529379Y01917862D01*
X00530395Y01918878D01*
Y01919894D01*
X00529379D01*
X00528363Y01918878D01*
X00527347Y01919894D01*
X00526331D01*
Y01918878D01*
X00527347Y01917862D01*
X00526331Y01916846D01*
Y0191583D01*
X00546378Y01937838D02*
X0054841Y0193987D01*
X00550442Y01937838D01*
X0054841Y01935806D01*
X00546378Y01937838D01*
X00449137Y01582101D02*
X00450153D01*
X00451169Y01583117D01*
X00452185Y01582101D01*
X00453201D01*
Y01583117D01*
X00452185Y01584133D01*
X00453201Y01585149D01*
Y01586165D01*
X00452185D01*
X00451169Y01585149D01*
X00450153Y01586165D01*
X00449137D01*
Y01585149D01*
X00450153Y01584133D01*
X00449137Y01583117D01*
Y01582101D01*
X00491258Y015367D02*
X0049329Y01538732D01*
X00495322Y015367D01*
X0049329Y01534668D01*
X00491258Y015367D01*
X00914944Y0214884D02*
X00916976Y02150872D01*
X00919008Y0214884D01*
X00916976Y02146808D01*
X00914944Y0214884D01*
X0091588Y02137968D02*
X00917912Y0214D01*
X00919944Y02137968D01*
X00917912Y02135936D01*
X0091588Y02137968D01*
X00638862Y02089431D02*
X00640893Y02091463D01*
X00642925Y02089431D01*
X00640893Y02087399D01*
X00638862Y02089431D01*
X0064005Y02075963D02*
X00642082Y02077995D01*
X00644114Y02075963D01*
X00642082Y02073931D01*
X0064005Y02075963D01*
X00638862Y02101711D02*
X00640893Y02103743D01*
X00642925Y02101711D01*
X00640893Y02099679D01*
X00638862Y02101711D01*
X00684678Y0180755D02*
X0068671Y01809582D01*
X00688742Y0180755D01*
X0068671Y01805518D01*
X00684678Y0180755D01*
X00640442Y02138045D02*
X00642474Y02140077D01*
X00644506Y02138045D01*
X00642474Y02136013D01*
X00640442Y02138045D01*
X00631203Y01866215D02*
X00633234Y01868247D01*
X00635266Y01866215D01*
X00633234Y01864183D01*
X00631203Y01866215D01*
X00744941Y02110913D02*
X00746973Y02112945D01*
X00749005Y02110913D01*
X00746973Y02108881D01*
X00744941Y02110913D01*
X00717973Y02111461D02*
X00720005Y02113493D01*
X00722038Y02111461D01*
X00720005Y02109429D01*
X00717973Y02111461D01*
X00765468Y02109849D02*
X007675Y02111881D01*
X00769532Y02109849D01*
X007675Y02107817D01*
X00765468Y02109849D01*
X00781934D02*
X00783966Y02111881D01*
X00785998Y02109849D01*
X00783966Y02107817D01*
X00781934Y02109849D01*
X00572565Y01492548D02*
X00574598Y0149458D01*
X00576629Y01492548D01*
X00574598Y01490516D01*
X00572565Y01492548D01*
X00642086Y01967228D02*
X00644118Y0196926D01*
X0064615Y01967228D01*
X00644118Y01965196D01*
X00642086Y01967228D01*
X00590762Y01801915D02*
X00592794Y01803947D01*
X00594826Y01801915D01*
X00592794Y01799883D01*
X00590762Y01801915D01*
X00441088Y0198972D02*
X0044312Y01991752D01*
X00445152Y0198972D01*
X0044312Y01987688D01*
X00441088Y0198972D01*
X00395478Y0187539D02*
X0039751Y01877422D01*
X00399542Y0187539D01*
X0039751Y01873358D01*
X00395478Y0187539D01*
X00377019Y01964688D02*
X0037905Y0196672D01*
X00381082Y01964688D01*
X0037905Y01962656D01*
X00377019Y01964688D01*
X00319897Y01903881D02*
X00321929Y01905913D01*
X00323961Y01903881D01*
X00321929Y01901849D01*
X00319897Y01903881D01*
X00810017Y02173363D02*
X00812049Y02175395D01*
X00814081Y02173363D01*
X00812049Y02171331D01*
X00810017Y02173363D01*
X00789714Y02232606D02*
X00791746Y02234638D01*
X00793778Y02232606D01*
X00791746Y02230574D01*
X00789714Y02232606D01*
X00511278Y0157226D02*
X0051331Y01574292D01*
X00515342Y0157226D01*
X0051331Y01570228D01*
X00511278Y0157226D01*
X00672345Y01493584D02*
X00674377Y01495616D01*
X00676408Y01493584D01*
X00674377Y01491552D01*
X00672345Y01493584D01*
X00731902Y02239091D02*
X00733934Y02241123D01*
X00735966Y02239091D01*
X00733934Y02237059D01*
X00731902Y02239091D01*
X00689332Y02193708D02*
X00691364Y0219574D01*
X00693396Y02193708D01*
X00691364Y02191676D01*
X00689332Y02193708D01*
X00746275Y02266778D02*
X00748307Y0226881D01*
X00750339Y02266778D01*
X00748307Y02264746D01*
X00746275Y02266778D01*
X00550483Y02152526D02*
X00552515Y02154558D01*
X00554547Y02152526D01*
X00552515Y02150494D01*
X00550483Y02152526D01*
X00334833Y02003092D02*
X00336865Y02005124D01*
X00338897Y02003092D01*
X00336865Y0200106D01*
X00334833Y02003092D01*
X00319004Y02039489D02*
X00321035Y02041521D01*
X00323068Y02039489D01*
X00321035Y02037457D01*
X00319004Y02039489D01*
X003252Y01862072D02*
X00327231Y01864104D01*
X00329263Y01862072D01*
X00327231Y0186004D01*
X003252Y01862072D01*
X01060415Y01897721D02*
X01062447Y01899753D01*
X01064479Y01897721D01*
X01062447Y01895689D01*
X01060415Y01897721D01*
X00896013Y01973709D02*
X00898045Y01975741D01*
X00900077Y01973709D01*
X00898045Y01971677D01*
X00896013Y01973709D01*
X01109064Y01847977D02*
X01111096Y01850009D01*
X01113128Y01847977D01*
X01111096Y01845945D01*
X01109064Y01847977D01*
X00959332Y02266952D02*
X00961364Y02268984D01*
X00963396Y02266952D01*
X00961364Y0226492D01*
X00959332Y02266952D01*
X00513048Y02056781D02*
X0051508Y02058813D01*
X00517112Y02056781D01*
X0051508Y02054749D01*
X00513048Y02056781D01*
X00527055Y02002988D02*
X00529087Y0200502D01*
X00531119Y02002988D01*
X00529087Y02000956D01*
X00527055Y02002988D01*
X00497548Y0196832D02*
X0049958Y01970352D01*
X00501613Y0196832D01*
X0049958Y01966288D01*
X00497548Y0196832D01*
X00575816Y01892614D02*
X00577848Y01894646D01*
X0057988Y01892614D01*
X00577848Y01890582D01*
X00575816Y01892614D01*
X00602481Y01892868D02*
X00604514Y018949D01*
X00606545Y01892868D01*
X00604514Y01890836D01*
X00602481Y01892868D01*
X003252Y01823004D02*
X00327231Y01825036D01*
X00329263Y01823004D01*
X00327231Y01820972D01*
X003252Y01823004D01*
X00554363Y02013979D02*
X00556395Y02016011D01*
X00558427Y02013979D01*
X00556395Y02011947D01*
X00554363Y02013979D01*
X0063872Y01989022D02*
X00640752Y01991054D01*
X00642784Y01989022D01*
X00640752Y0198699D01*
X0063872Y01989022D01*
X00570914Y01985896D02*
X00572946Y01987928D01*
X00574978Y01985896D01*
X00572946Y01983864D01*
X00570914Y01985896D01*
X00645026Y02014311D02*
X00647058Y02016343D01*
X0064909Y02014311D01*
X00647058Y02012279D01*
X00645026Y02014311D01*
X00546347Y0200419D02*
X00548379Y02006222D01*
X00550411Y0200419D01*
X00548379Y02002158D01*
X00546347Y0200419D01*
X00541727Y02057741D02*
X00543759Y02059773D01*
X00545791Y02057741D01*
X00543759Y02055709D01*
X00541727Y02057741D01*
X01021545Y02043201D02*
X01023577Y02045233D01*
X01025609Y02043201D01*
X01023577Y02041169D01*
X01021545Y02043201D01*
X0093741Y02219809D02*
X00939442Y02221841D01*
X00941473Y02219809D01*
X00939442Y02217777D01*
X0093741Y02219809D01*
X00941069Y0219329D02*
X00943101Y02195322D01*
X00945133Y0219329D01*
X00943101Y02191258D01*
X00941069Y0219329D01*
X00928624Y02045257D02*
X00930656Y02047289D01*
X00932688Y02045257D01*
X00930656Y02043225D01*
X00928624Y02045257D01*
X00929961Y02029852D02*
X00931993Y02031884D01*
X00934025Y02029852D01*
X00931993Y0202782D01*
X00929961Y02029852D01*
X00840894Y01996677D02*
X00842926Y01998709D01*
X00844958Y01996677D01*
X00842926Y01994645D01*
X00840894Y01996677D01*
X00840485Y02006486D02*
X00842517Y02008518D01*
X00844549Y02006486D01*
X00842517Y02004454D01*
X00840485Y02006486D01*
X0125627Y01665442D02*
X01258302Y01667474D01*
X01260334Y01665442D01*
X01258302Y0166341D01*
X0125627Y01665442D01*
X01087966Y01656183D02*
X01089998Y01658215D01*
X0109203Y01656183D01*
X01089998Y01654151D01*
X01087966Y01656183D01*
X01278747Y01756689D02*
X01280779Y01758721D01*
X01282811Y01756689D01*
X01280779Y01754657D01*
X01278747Y01756689D01*
X01211049Y01720694D02*
X01213081Y01722726D01*
X01215113Y01720694D01*
X01213081Y01718662D01*
X01211049Y01720694D01*
X01212767Y0172093D02*
X01214799Y01722962D01*
X01216831Y0172093D01*
X01214799Y01718898D01*
X01212767Y0172093D01*
X01120713Y0195912D02*
X01122745Y01961152D01*
X01124777Y0195912D01*
X01122745Y01957088D01*
X01120713Y0195912D01*
X01183958Y01910754D02*
X0118599Y01912786D01*
X01188022Y01910754D01*
X0118599Y01908722D01*
X01183958Y01910754D01*
X01255268Y0199339D02*
X012573Y01995422D01*
X01259332Y0199339D01*
X012573Y01991358D01*
X01255268Y0199339D01*
X00945388Y0177122D02*
X0094742Y01773252D01*
X00949452Y0177122D01*
X0094742Y01769188D01*
X00945388Y0177122D01*
X01232068Y01992121D02*
X012341Y01994153D01*
X01236132Y01992121D01*
X012341Y01990089D01*
X01232068Y01992121D01*
X01009256Y0181392D02*
X01011288Y01815952D01*
X0101332Y0181392D01*
X01011288Y01811888D01*
X01009256Y0181392D01*
X01064351Y01791898D02*
X01066383Y0179393D01*
X01068415Y01791898D01*
X01066383Y01789866D01*
X01064351Y01791898D01*
X01064067Y01803224D02*
X01066099Y01805256D01*
X01068131Y01803224D01*
X01066099Y01801192D01*
X01064067Y01803224D01*
X01197389Y01756123D02*
X01199421Y01758155D01*
X01201453Y01756123D01*
X01199421Y01754091D01*
X01197389Y01756123D01*
X01064149Y01959889D02*
X01066181Y01961921D01*
X01068213Y01959889D01*
X01066181Y01957857D01*
X01064149Y01959889D01*
X00689218Y0151004D02*
X0069125Y01512072D01*
X00693282Y0151004D01*
X0069125Y01508008D01*
X00689218Y0151004D01*
X01148869Y01835462D02*
X01150901Y01837495D01*
X01152933Y01835462D01*
X01150901Y0183343D01*
X01148869Y01835462D01*
X01180187Y0182431D02*
X01182219Y01826342D01*
X01184251Y0182431D01*
X01182219Y01822278D01*
X01180187Y0182431D01*
X01181259Y0180274D02*
X01183291Y01804772D01*
X01185323Y0180274D01*
X01183291Y01800708D01*
X01181259Y0180274D01*
X01179719Y01959889D02*
X01181751Y01961921D01*
X01183783Y01959889D01*
X01181751Y01957857D01*
X01179719Y01959889D01*
X01180748Y01813616D02*
X0118278Y01815647D01*
X01184812Y01813616D01*
X0118278Y01811584D01*
X01180748Y01813616D01*
X01213497Y01964015D02*
X01215529Y01966047D01*
X01217561Y01964015D01*
X01215529Y01961983D01*
X01213497Y01964015D01*
X00902448Y0156654D02*
X0090448Y01568572D01*
X00906512Y0156654D01*
X0090448Y01564508D01*
X00902448Y0156654D01*
X00893718Y0180319D02*
X0089575Y01805222D01*
X00897782Y0180319D01*
X0089575Y01801158D01*
X00893718Y0180319D01*
X00879768Y0173482D02*
X008818Y01736852D01*
X00883832Y0173482D01*
X008818Y01732788D01*
X00879768Y0173482D01*
X00837698D02*
X0083973Y01736852D01*
X00841762Y0173482D01*
X0083973Y01732788D01*
X00837698Y0173482D01*
X00969708Y017272D02*
X0097174Y01729232D01*
X00973772Y017272D01*
X0097174Y01725168D01*
X00969708Y017272D01*
X00671654Y01532636D02*
X00673686Y01534668D01*
X00675718Y01532636D01*
X00673686Y01530604D01*
X00671654Y01532636D01*
X00743628Y01685112D02*
X0074566Y01687144D01*
X00747692Y01685112D01*
X0074566Y0168308D01*
X00743628Y01685112D01*
X00634238Y0164719D02*
X0063627Y01649222D01*
X00638302Y0164719D01*
X0063627Y01645158D01*
X00634238Y0164719D01*
X00854228Y01693327D02*
X0085626Y01695359D01*
X00858292Y01693327D01*
X0085626Y01691295D01*
X00854228Y01693327D01*
X00785908Y0167894D02*
X0078794Y01680972D01*
X00789972Y0167894D01*
X0078794Y01676908D01*
X00785908Y0167894D01*
X00727078Y01685112D02*
X0072911Y01687144D01*
X00731142Y01685112D01*
X0072911Y0168308D01*
X00727078Y01685112D01*
X00765328Y01665132D02*
X0076736Y01667164D01*
X00769392Y01665132D01*
X0076736Y016631D01*
X00765328Y01665132D01*
X00645812Y01541778D02*
X00647844Y0154381D01*
X00649876Y01541778D01*
X00647844Y01539746D01*
X00645812Y01541778D01*
X00688806Y0166814D02*
X00690838Y01670172D01*
X0069287Y0166814D01*
X00690838Y01666108D01*
X00688806Y0166814D01*
X00655846Y0163824D02*
X00657878Y01640272D01*
X0065991Y0163824D01*
X00657878Y01636208D01*
X00655846Y0163824D01*
X01104483Y01624502D02*
X01106515Y01626534D01*
X01108547Y01624502D01*
X01106515Y0162247D01*
X01104483Y01624502D01*
X00996578Y0162306D02*
X0099861Y01625092D01*
X01000642Y0162306D01*
X0099861Y01621028D01*
X00996578Y0162306D01*
X01042879Y01622925D02*
X01044911Y01624957D01*
X01046943Y01622925D01*
X01044911Y01620893D01*
X01042879Y01622925D01*
X00901291Y0164274D02*
X00903323Y01644772D01*
X00905355Y0164274D01*
X00903323Y01640708D01*
X00901291Y0164274D01*
X00983872Y01718685D02*
X00985904Y01720717D01*
X00987936Y01718685D01*
X00985904Y01716653D01*
X00983872Y01718685D01*
X00884758Y0225044D02*
X0088679Y02252472D01*
X00888822Y0225044D01*
X0088679Y02248408D01*
X00884758Y0225044D01*
X00397179Y02148561D02*
X00399211Y02150593D01*
X00401243Y02148561D01*
X00399211Y02146529D01*
X00397179Y02148561D01*
X00860298Y0163004D02*
X0086233Y01632072D01*
X00864362Y0163004D01*
X0086233Y01628008D01*
X00860298Y0163004D01*
X00395478Y01735472D02*
X0039751Y01737504D01*
X00399542Y01735472D01*
X0039751Y0173344D01*
X00395478Y01735472D01*
X00688758Y0156654D02*
X0069079Y01568572D01*
X00692822Y0156654D01*
X0069079Y01564508D01*
X00688758Y0156654D01*
X00384006Y0225786D02*
X00386038Y02259892D01*
X0038807Y0225786D01*
X00386038Y02255828D01*
X00384006Y0225786D01*
X00707898Y0196977D02*
X0070993Y01971802D01*
X00711962Y0196977D01*
X0070993Y01967738D01*
X00707898Y0196977D01*
X00877392Y0216027D02*
X00879424Y02162302D01*
X00881456Y0216027D01*
X00879424Y02158238D01*
X00877392Y0216027D01*
D147*
X00304242Y0188847D02*
G03*
X00304242Y0188847I-00002032J0D01*
G01*
X00266242D02*
G03*
X00266242Y0188847I-00002032J0D01*
G01*
Y0197487D02*
G03*
X00266242Y0197487I-00002032J0D01*
G01*
X00304242D02*
G03*
X00304242Y0197487I-00002032J0D01*
G01*
M02*
